<?xml version="1.0" encoding="UTF-8" standalone="no"?>
<!-- Created with Inkscape (http://www.inkscape.org/) -->

<svg
   width="210mm"
   height="297mm"
   viewBox="0 0 210 297"
   version="1.1"
   id="svg1"
   xml:space="preserve"
   inkscape:version="1.4.2 (ebf0e94, 2025-05-08)"
   sodipodi:docname="dog.svg"
   xmlns:inkscape="http://www.inkscape.org/namespaces/inkscape"
   xmlns:sodipodi="http://sodipodi.sourceforge.net/DTD/sodipodi-0.dtd"
   xmlns="http://www.w3.org/2000/svg"
   xmlns:svg="http://www.w3.org/2000/svg"><sodipodi:namedview
     id="namedview1"
     pagecolor="#505050"
     bordercolor="#eeeeee"
     borderopacity="1"
     inkscape:showpageshadow="0"
     inkscape:pageopacity="0"
     inkscape:pagecheckerboard="0"
     inkscape:deskcolor="#505050"
     inkscape:document-units="mm"
     inkscape:zoom="1.0316077"
     inkscape:cx="332.9754"
     inkscape:cy="561.25984"
     inkscape:window-width="2560"
     inkscape:window-height="1403"
     inkscape:window-x="2560"
     inkscape:window-y="0"
     inkscape:window-maximized="1"
     inkscape:current-layer="layer1" /><defs
     id="defs1" /><g
     inkscape:label="Layer 1"
     inkscape:groupmode="layer"
     id="layer1"><path
       style="fill:#000000;stroke-width:1.19621"
       d="m 109.25723,267.8304 c -0.52351,-0.13973 -1.80851,-0.274 -2.85555,-0.29835 -1.97586,-0.0459 -4.11368,-0.79846 -4.87743,-1.71681 -0.2395,-0.28799 -0.62118,-0.52361 -0.84818,-0.52361 -0.706754,0 -2.361831,-1.5978 -3.066184,-2.96007 -0.711236,-1.37558 -0.958016,-4.58336 -0.482719,-6.27456 0.234944,-0.83597 0.199592,-0.86841 -0.951852,-0.8737 -2.172537,-0.01 -5.277991,-0.85555 -9.610929,-2.617 -2.351959,-0.95613 -5.561286,-2.13995 -7.131843,-2.63071 -2.403957,-0.7512 -2.693318,-0.90875 -1.829695,-0.9963 1.488947,-0.15095 4.214641,0.62296 9.713917,2.75805 5.384143,2.09041 6.985389,2.53396 9.090472,2.51814 l 1.427784,-0.0107 2.220979,-3.01858 c 2.80829,-3.81678 4.04501,-6.14907 4.97327,-9.37897 0.65081,-2.26451 0.73153,-3.18512 0.69514,-7.9291 -0.0375,-4.90266 -0.14162,-5.83162 -1.20213,-10.73427 -2.02288,-9.35162 -2.73001,-12.84218 -3.38983,-16.73285 -0.84263,-4.96863 -1.12221,-12.47685 -0.62122,-16.68319 0.38775,-3.25565 0.38736,-3.25994 -0.747526,-7.99607 -0.624511,-2.60626 -1.135483,-5.0456 -1.135483,-5.42075 0,-1.15983 0.591809,-0.75257 0.958639,0.65969 0.191678,0.73797 0.85366,2.81721 1.47105,4.62053 l 1.12254,3.27876 -0.22083,6.19266 c -0.3036,8.5141 0.30588,13.65174 3.16916,26.71407 2.45642,11.20625 2.92815,16.8567 1.89806,22.7345 -0.70474,4.0213 -1.97147,6.73126 -5.06498,10.83564 -3.194714,4.23864 -3.928362,6.11084 -3.344192,8.53391 0.198969,0.82529 0.621777,1.89494 0.939584,2.377 l 0.577818,0.87647 0.22366,-2.07824 c 0.25079,-2.33027 1.73399,-5.66234 2.76483,-6.21129 0.34955,-0.18616 0.67803,-0.29143 0.72996,-0.23395 0.0519,0.0575 -0.31367,1.11474 -0.81242,2.34948 -1.10867,2.74467 -1.47866,5.41743 -0.9318,6.73112 0.4569,1.0976 2.5279,2.23175 4.07528,2.23175 0.99952,0 1.01031,-0.0167 1.01031,-1.56303 0,-2.04187 0.5574,-4.60364 1.33393,-6.1306 0.84461,-1.66081 1.22242,-1.07783 0.7916,1.22149 -0.19522,1.04186 -0.36068,2.95982 -0.3677,4.26215 l -0.0127,2.36785 1.90371,0.087 c 1.04703,0.0479 2.53471,-0.0971 3.30597,-0.32225 l 1.40226,-0.40929 0.0481,-2.36132 c 0.0454,-2.22979 0.99078,-5.36061 1.61859,-5.36061 0.12298,0 0.13857,1.19896 0.0346,2.66433 -0.10397,1.46538 -0.10481,3.18056 -0.002,3.8115 0.17109,1.04908 0.25783,1.12985 1.01437,0.94478 1.6953,-0.41473 3.50779,-1.75533 4.38829,-3.24578 l 0.88096,-1.49126 -0.10121,-6.33695 c -0.0933,-5.84314 -0.0384,-6.6181 0.70527,-9.94499 1.29028,-5.77228 1.5476,-8.05545 1.36738,-12.13232 -0.1923,-4.34983 -0.69161,-6.39006 -3.02108,-12.34418 -0.8899,-2.27459 -1.76629,-5.04497 -1.94752,-6.15642 -0.62676,-3.84372 -0.30266,-10.545 0.55111,-11.39455 0.2241,-0.22299 0.27357,1.04922 0.15749,4.05075 -0.16735,4.32726 0.39151,9.20452 1.20575,10.52284 0.20004,0.32387 0.21926,0.17096 0.0584,-0.46413 -0.39392,-1.55484 -0.27918,-9.0749 0.14934,-9.78714 0.27459,-0.45639 0.38545,-0.50015 0.39994,-0.15785 0.26471,6.2534 0.70316,10.36878 1.38661,13.01503 1.46026,5.65393 1.68922,4.87538 0.80756,-2.74605 -0.74531,-6.44282 -0.14081,-14.70785 1.48373,-20.28599 0.88415,-3.03597 5.07947,-13.97145 5.53587,-14.42978 0.5877,-0.59018 0.73926,0.19993 0.40663,2.11984 -0.18708,1.07987 -1.13894,4.00695 -2.11521,6.50463 -3.69513,9.45345 -4.7123,17.01379 -3.54348,26.33759 0.33397,2.6641 0.40959,5.11835 0.26508,8.60321 -0.13116,3.16271 -0.0911,4.87578 0.11392,4.87578 0.17387,0 1.38917,-1.03701 2.70067,-2.30447 2.97671,-2.87673 6.28379,-7.2584 6.28379,-8.32561 0,-0.43356 -0.29994,-1.94852 -0.66653,-3.36659 -1.32498,-5.12532 -0.62338,-7.73985 3.69941,-13.78616 5.25502,-7.35023 8.70119,-13.2552 12.38962,-21.22948 2.52382,-5.45645 3.51548,-7.09392 4.00257,-6.60924 0.50367,0.50119 -0.56131,3.6026 -2.89212,8.42231 -2.95468,6.10979 -5.78676,10.96226 -10.54142,18.06159 -2.23386,3.33546 -4.36887,6.66385 -4.74446,7.39642 -0.61904,1.20741 -1.26118,5.00839 -0.84612,5.00839 0.0945,0 0.46714,-0.96751 0.82811,-2.15003 0.65179,-2.13526 2.57714,-5.27284 2.80968,-4.57868 0.0668,0.19937 -0.33619,1.26212 -0.89549,2.36167 -1.89856,3.73241 -2.24679,6.20171 -1.39189,9.86974 0.53238,2.28422 1.55834,13.15987 2.0456,21.68433 0.28695,5.0199 0.65327,7.27783 1.53088,9.43579 0.23382,0.57495 0.27563,-0.068 0.15399,-2.36785 -0.21579,-4.07984 0.20075,-3.68852 1.34426,1.26285 1.39802,6.0534 1.70001,7.00714 2.52919,7.9877 0.94483,1.11731 3.44927,2.24131 5.54398,2.48817 1.37021,0.16147 1.57559,0.10346 1.92335,-0.54308 0.54209,-1.00788 0.22439,-3.91441 -0.64858,-5.93364 -0.83069,-1.9214 -0.64867,-2.36758 0.52649,-1.29052 1.34125,1.22931 2.00444,3.02541 2.01226,5.44975 l 0.007,2.15981 3.32088,-0.10764 c 3.79351,-0.12298 4.42554,-0.45082 4.35719,-2.26003 -0.0824,-2.18117 -1.30926,-4.69777 -3.14479,-6.45084 -1.88008,-1.79562 -1.64971,-2.13285 0.72412,-1.06001 1.79548,0.81145 3.14565,2.94045 3.79628,5.98612 0.28366,1.32783 0.54541,2.53697 0.58166,2.68698 0.0362,0.15 0.52451,-0.11122 1.08504,-0.58057 0.80962,-0.67788 1.01769,-1.09092 1.01217,-2.00916 -0.0146,-2.42927 -2.01201,-5.49752 -4.68732,-7.20044 -1.86581,-1.18763 -1.9587,-1.56157 -0.31153,-1.25409 1.34606,0.25128 4.19565,2.71919 5.03897,4.36405 0.92234,1.799 1.06281,1.29125 0.24661,-0.89137 -0.96084,-2.56937 -2.4031,-3.89372 -5.66324,-5.20022 -3.18529,-1.27653 -5.16289,-2.96847 -5.68655,-4.86521 -0.19259,-0.69755 -0.35047,-3.80671 -0.35272,-6.94571 -0.002,-3.87534 -0.20514,-7.17492 -0.63633,-10.37397 -0.70279,-5.2142 -0.83268,-12.57648 -0.29877,-16.93529 0.18081,-1.47596 0.44478,-5.80913 0.58663,-9.62927 0.30231,-8.14109 0.37685,-8.42852 4.97472,-19.18291 1.50254,-3.51446 3.25379,-7.88168 3.89166,-9.70493 l 1.15977,-3.31499 -0.0854,-8.12372 c -0.10649,-10.13745 -0.41936,-12.13604 -2.59727,-16.59339 -1.63653,-3.34934 -1.97916,-4.80215 -1.13253,-4.80215 0.69595,0 3.23966,4.5314 4.15434,7.40062 0.6465,2.02792 0.87236,3.68721 1.18188,8.68213 0.56096,9.05271 0.48379,12.31314 -0.36209,15.29787 -0.38856,1.37105 -2.32776,6.41458 -4.30933,11.20785 -5.03998,12.19137 -4.99192,12.0179 -5.17036,18.66004 l -0.14842,5.525 1.44002,2.52571 c 0.79202,1.38915 1.80517,3.61617 2.25145,4.94893 0.97094,2.89961 1.63257,7.14689 1.183,7.59424 -0.36828,0.36645 -0.44959,0.13009 -1.28963,-3.74837 -0.59091,-2.7282 -2.45251,-7.75204 -3.33945,-9.01205 -0.34487,-0.48994 -0.46101,0.0284 -0.77326,3.45108 -0.52768,5.784 -0.44507,9.72699 0.30929,14.76187 0.36423,2.431 0.72355,6.40899 0.79849,8.83999 l 0.13628,4.42 3.2419,-0.0574 c 1.78306,-0.0316 4.98288,-0.30252 7.11071,-0.60213 3.12422,-0.4399 4.2697,-0.47863 5.95187,-0.20126 4.2882,0.70706 7.14538,2.64035 8.77748,5.93922 l 1.00193,2.02513 1.62219,0.0277 c 2.3326,0.0397 4.88721,0.45445 4.3191,0.70111 -0.26176,0.11359 -1.65479,0.24478 -3.09562,0.29142 -1.44085,0.0467 -2.65446,0.22689 -2.69692,0.40053 -0.0488,0.19976 2.50618,0.37369 6.95667,0.47357 3.86864,0.0869 7.14062,0.26441 7.27109,0.39464 0.13046,0.13023 0.17772,0.25492 0.10505,0.27708 -0.0727,0.0222 -3.48748,0.12873 -7.58837,0.23679 -7.1126,0.18744 -9.47438,0.50385 -7.61162,1.01975 0.4345,0.12034 1.93224,0.23513 3.32829,0.2551 3.75359,0.0537 2.34274,0.64458 -1.58642,0.66442 -2.14279,0.0107 -3.43035,0.1625 -3.96605,0.46722 -0.43627,0.24816 -1.31696,0.45623 -1.95708,0.46238 -1.40621,0.0135 -2.22656,0.29229 -1.98843,0.67569 0.0965,0.15546 1.63059,0.28482 3.40898,0.28747 3.67266,0.006 5.01748,0.42032 2.38317,0.73511 -0.92839,0.11097 -4.30559,0.20295 -7.50487,0.20445 -4.51144,0.002 -5.78725,0.0913 -5.68486,0.39739 0.10157,0.30342 3.07203,0.43113 12.85032,0.5525 6.99505,0.0869 12.80319,0.24249 12.90697,0.34592 0.32805,0.32695 -7.21092,0.60122 -16.52636,0.60122 h -8.99279 l -10e-4,1.18393 c -0.005,3.52528 -2.2833,6.69753 -4.82105,6.71352 -0.40131,0.002 -1.30077,0.20054 -1.99879,0.44004 -2.81771,0.96677 -20.60836,0.55273 -19.9763,-0.46489 0.10097,-0.16251 0.92466,-0.29863 1.83052,-0.30248 l 1.64702,-0.007 -0.79321,-0.61739 c -0.70003,-0.54486 -1.31505,-0.61818 -5.2352,-0.62415 -2.7323,-0.004 -5.31243,0.17394 -6.70356,0.46273 -1.74124,0.36147 -2.79976,0.39998 -4.60062,0.16734 -3.40798,-0.44022 -3.44952,-0.43459 -3.44952,0.46765 v 0.78929 l 5.47315,0.005 c 3.01024,0.002 5.68732,0.14256 5.94908,0.31088 0.57434,0.36932 1.01938,0.32785 -6.34212,0.59096 -4.93992,0.17656 -5.56057,0.25896 -5.65507,0.75082 -0.0957,0.49843 0.22994,0.55298 3.32793,0.55733 2.33442,0.004 3.28167,0.10286 2.95815,0.31089 -0.26176,0.16832 -1.91139,0.30822 -3.66585,0.31088 l -3.18992,0.005 -1.09342,1.13267 c -1.50555,1.55959 -3.10774,2.31042 -5.62056,2.63394 -1.1747,0.15124 -2.50205,0.41765 -2.94967,0.59202 -1.19167,0.46424 -4.11696,0.6831 -5.21454,0.39014 z m 24.26775,-10.75817 c 0.35339,-0.1915 0.23421,-0.30632 -0.47593,-0.45858 -2.14944,-0.46082 -5.23813,-1.52693 -5.56734,-1.92166 -0.19391,-0.23248 -0.26013,-0.57151 -0.14716,-0.75339 0.2155,-0.34695 0.97175,-0.23973 3.33936,0.47344 2.65233,0.79894 3.80741,0.90495 3.80741,0.34942 0,-0.27368 0.28555,-0.64967 0.63456,-0.83553 0.34902,-0.18587 0.63457,-0.46411 0.63457,-0.61831 0,-0.72137 -1.98204,-2.46381 -5.13134,-4.51106 -2.23704,-1.45422 -3.34202,-2.35118 -3.14184,-2.55038 0.40384,-0.40183 5.04863,1.81427 7.12526,3.39957 l 1.549,1.18251 -0.2142,-0.84922 c -0.12461,-0.49401 -0.0609,-1.03296 0.15218,-1.28849 0.82224,-0.98586 -0.80725,-3.82495 -3.20049,-5.57624 -1.01767,-0.7447 -1.7838,-1.0152 -3.27864,-1.15757 -1.67691,-0.15972 -1.95067,-0.27442 -1.95067,-0.81723 0,-1.03991 2.86807,-1.04668 5.13907,-0.0122 1.62784,0.74157 1.82769,0.76858 2.3313,0.31507 1.04128,-0.93769 2.56847,-4.23488 2.74056,-5.91686 0.15277,-1.49313 -0.70002,-12.81029 -0.98681,-13.09565 -0.0662,-0.0659 -0.58592,0.56505 -1.15494,1.40205 -1.67379,2.46209 -4.29375,5.31359 -6.45295,7.02322 l -2.01367,1.5944 -0.16064,3.71352 c -0.10925,2.52632 -0.44478,4.87426 -1.0494,7.34424 -0.78538,3.20847 -0.88425,4.17735 -0.85021,8.33097 0.0212,2.58514 0.15449,4.81413 0.29625,4.95331 0.73993,0.72653 6.81201,0.93878 8.02671,0.28058 z m 9.99384,-0.22595 c -0.12739,-0.30387 -0.38523,-0.97871 -0.57296,-1.49964 -0.18774,-0.52093 -0.75073,-1.48328 -1.25111,-2.13855 -2.15718,-2.82505 -3.07792,-6.23164 -3.0912,-11.43716 -0.007,-2.94544 -0.37486,-4.37787 -0.74567,-2.90775 -0.10864,0.43062 -0.69351,1.51638 -1.29977,2.41282 l -1.10228,1.62987 1.17849,1.6366 1.17847,1.63659 -0.0916,3.41148 c -0.0957,3.56217 -0.35707,4.70135 -1.32085,5.7561 -0.31732,0.34729 -0.67438,0.95108 -0.79345,1.34179 l -0.21649,0.71035 h 4.18002 c 3.85768,0 4.16215,-0.0426 3.9484,-0.5525 z m 30.78827,-9.20458 c -0.22983,-1.04122 0.25755,-1.54508 0.94521,-0.97719 0.62341,0.51482 1.11051,0.12275 1.11051,-0.89385 0,-1.11026 -1.49456,-2.90149 -3.49959,-4.19429 -1.64212,-1.05878 -1.96692,-1.54672 -1.02172,-1.53492 1.01537,0.0127 3.14257,1.16792 4.33458,2.35402 1.30838,1.30192 1.77314,2.26633 1.77314,3.67943 0,0.83664 0.0838,0.92247 0.71388,0.73139 1.21628,-0.36881 1.82439,-1.1235 1.82439,-2.26413 0,-0.93367 0.0847,-1.05062 0.63458,-0.87694 0.83918,0.26503 0.81289,-0.2371 -0.11645,-2.22289 -0.83915,-1.79315 -2.07939,-2.95388 -4.45012,-4.1648 -1.93854,-0.99018 -5.89088,-1.31371 -8.91805,-0.73002 -1.04703,0.20188 -3.87872,0.45127 -6.29263,0.5542 l -4.38894,0.18715 0.2112,1.13603 c 0.54274,2.91933 1.66901,3.99818 5.82926,5.58385 1.95724,0.746 2.60332,1.1902 3.95731,2.7208 l 1.61818,1.82926 h 2.96883 2.96882 z m -35.22516,15.75564 c -0.12919,-0.208 3.32819,-0.31571 10.13437,-0.31571 6.67545,0 10.33045,0.11169 10.33045,0.31571 0,0.2039 -3.58965,0.31573 -10.13436,0.31573 -6.41399,0 -10.20635,-0.11587 -10.33046,-0.31573 z m -63.298153,-5.03921 -1.427778,-0.17684 1.070833,-0.2334 c 1.673676,-0.36479 20.345833,-0.28924 20.345833,0.0823 0,0.18255 -1.103981,0.32825 -2.61759,0.34545 -12.236278,0.13907 -16.138773,0.13513 -17.371298,-0.0175 z m 9.201236,-2.86669 c -2.006822,-0.12076 -8.139128,-0.23828 -13.627348,-0.26113 -7.982772,-0.0332 -9.899288,-0.12045 -9.582134,-0.43616 0.884714,-0.88069 27.309958,-0.63741 29.695242,0.27338 0.596175,0.22764 0.596103,0.23581 -0.0048,0.46999 -0.688835,0.26851 -1.329703,0.26395 -6.48112,-0.0461 z m 13.008648,-5.19625 c -0.436275,-0.25125 -1.364323,-0.70019 -2.062344,-0.99767 -1.216716,-0.51851 -1.234092,-0.5457 -0.420722,-0.65844 0.979098,-0.13571 3.267668,0.92493 3.544463,1.64268 0.231767,0.601 -0.03526,0.60437 -1.061397,0.0135 z m -0.165248,-2.05647 c -1.874851,-1.23889 -2.515599,-1.42678 -7.429074,-2.17849 -3.280571,-0.5019 -5.949306,-1.89621 -8.879775,-4.63935 -2.275437,-2.12997 -4.470993,-5.27586 -4.005421,-5.73912 0.113779,-0.11324 0.579593,0.28707 1.035147,0.88953 0.455553,0.60245 1.911482,2.17119 3.235401,3.48609 3.084493,3.06348 5.356046,4.20501 9.704646,4.87691 3.604158,0.55686 5.729723,1.18744 6.686972,1.98374 0.774516,0.64428 1.866961,2.23225 1.670306,2.42793 -0.07519,0.0748 -0.983378,-0.42345 -2.018202,-1.10724 z m -9.987844,0.39885 c -1.128744,-0.47039 -16.027315,-1.31326 -23.558337,-1.33278 -2.056419,-0.005 -3.410803,-0.13422 -3.410803,-0.32457 0,-0.352 -0.282711,-0.3434 10.470372,-0.31806 11.265231,0.0266 16.459626,0.5506 17.470454,1.76255 0.563784,0.67596 0.285754,0.73688 -0.971686,0.21286 z m -4.9179,-2.6339 c -1.745064,-0.13538 -5.028953,-0.39196 -7.297534,-0.5702 -2.268581,-0.17823 -8.292517,-0.32935 -13.386524,-0.3358 -5.094007,-0.006 -9.340332,-0.13812 -9.436279,-0.2926 -0.25284,-0.40708 12.646868,-0.78268 18.750393,-0.54595 3.010845,0.11682 5.182905,0.0819 5.182905,-0.0832 0,-0.15634 -0.574002,-0.51278 -1.275558,-0.7921 -0.993696,-0.39563 -2.444983,-0.50785 -6.567779,-0.50785 -6.656939,0 -6.658311,-0.57648 -0.0017,-0.70151 6.982199,-0.13114 5.948609,-0.67825 -1.750024,-0.92635 -9.077342,-0.29253 -9.972444,-0.8519 -1.404713,-0.87784 l 6.609521,-0.02 -0.660446,-1.06334 c -0.736237,-1.18536 -0.837999,-1.77808 -0.305269,-1.77808 0.195347,0 1.615539,1.19346 3.155983,2.65214 3.243304,3.07115 5.167473,4.11906 8.712112,4.74466 1.391737,0.24563 2.780296,0.54395 3.08568,0.66295 0.634836,0.24738 0.755965,0.80529 0.15864,0.73073 -0.218132,-0.0272 -1.824378,-0.16026 -3.569442,-0.29562 z m 13.955895,-0.45864 c -0.874577,-0.41362 -2.624905,-0.96862 -3.8896,-1.23334 -2.560845,-0.53602 -4.672799,-1.50181 -6.576167,-3.00723 -2.586447,-2.04567 -5.444258,-6.19488 -5.164285,-7.49788 0.0861,-0.4006 0.47056,-0.0209 1.351229,1.33436 1.566445,2.41064 4.396962,5.37754 6.03404,6.3248 0.698021,0.40389 2.61458,1.10861 4.25902,1.56604 3.367728,0.9368 4.359465,1.38027 5.231859,2.33949 0.885309,0.9734 0.545053,1.02085 -1.246096,0.17376 z m -18.080589,-3.04304 c -0.698025,-0.36396 -2.418603,-1.81392 -3.823506,-3.22212 -3.837104,-3.84609 -6.518867,-8.21606 -8.255522,-13.45248 -0.81549,-2.45891 -0.891661,-3.09328 -0.90981,-7.57714 -0.02247,-5.55337 0.35887,-7.49506 2.213416,-11.27 0.761961,-1.55098 1.767984,-2.91115 3.169604,-4.28542 1.592684,-1.56159 2.054102,-2.22053 2.056708,-2.93712 0.01091,-3.00761 2.11366,-13.61504 3.980319,-20.07923 3.373688,-11.68302 6.82296,-17.97895 17.842594,-32.56801 2.994326,-3.96424 6.182922,-8.56714 7.085762,-10.22869 1.76828,-3.25427 3.82095,-5.62145 4.61247,-5.31921 0.27189,0.10381 0.42749,0.032 0.36097,-0.16661 -0.0643,-0.19199 -0.6609,-0.53516 -1.32573,-0.76259 -2.69448,-0.92172 -4.07211,-3.49472 -4.13813,-7.72875 -0.0405,-2.59615 -0.0811,-2.73416 -1.24582,-4.23703 -2.824329,-3.64415 -4.129461,-7.42989 -3.963637,-11.4972 0.13787,-3.38196 0.753686,-4.74208 3.611037,-7.975511 1.61973,-1.832915 2.64676,-3.496245 4.764,-7.715588 4.18363,-8.33732 6.65239,-10.901136 11.13341,-11.562173 1.1963,-0.176481 2.88897,-0.613008 3.7615,-0.970064 6.8545,-2.805032 17.3959,-3.451881 23.1555,-1.420886 1.48146,0.522405 2.7285,0.683696 5.5587,0.718945 5.51101,0.06861 7.07722,0.614213 10.31612,3.593627 1.53671,1.413607 3.63618,2.947553 5.13615,3.752663 1.39534,0.748955 3.06596,1.795602 3.71249,2.325894 0.97464,0.799394 1.14369,1.108338 0.98928,1.807881 -0.17207,0.779586 0.007,0.958012 2.35407,2.347325 2.74565,1.625146 3.17784,2.036269 2.54786,2.423693 -0.30697,0.188772 -0.15819,0.564872 0.6006,1.518172 3.41581,4.291472 3.16385,9.164872 -0.79052,15.290132 -2.29422,3.55372 -8.2302,9.31605 -8.90504,8.64455 -0.10289,-0.10238 0.5114,-0.9749 1.36514,-1.9389 4.08447,-4.612 5.93295,-7.10235 7.28723,-9.81769 2.51353,-5.0396 2.31925,-8.237027 -0.69753,-11.479385 -1.10663,-1.189372 -1.57341,-1.912612 -1.36699,-2.118006 0.20641,-0.205406 -0.58343,-0.867123 -2.31307,-1.937838 -3.7855,-2.343399 -4.72953,-3.21829 -3.47262,-3.21829 0.91297,0 1.06111,-0.374824 0.34529,-0.873721 -0.36047,-0.251239 -1.82303,-1.098291 -3.25015,-1.882328 -1.4632,-0.80388 -3.57582,-2.351191 -4.84451,-3.548212 -1.94619,-1.836244 -2.5309,-2.198395 -4.33324,-2.683857 -2.89066,-0.778583 -7.77099,-0.587532 -9.03937,0.35387 -0.482,0.357748 -0.91544,0.848508 -0.96318,1.090571 -0.0477,0.242062 0.7144,1.43462 1.69366,2.650112 2.29512,2.8488 3.49212,5.221995 4.52594,8.973238 0.81681,2.96383 0.8339,3.227705 0.86054,13.284606 0.0302,11.4146 0.17709,12.47311 2.12581,15.32487 1.87384,2.74216 2.0109,2.74413 5.05202,0.0727 1.45469,-1.27786 4.02676,-3.42181 5.71572,-4.76435 3.72793,-2.96327 5.20981,-4.67876 7.10685,-8.22717 2.00124,-3.74333 2.56384,-3.96771 1.56611,-0.62461 -0.97029,3.25112 -4.87184,8.07208 -9.36416,11.57081 -1.1343,0.88342 -3.00354,2.49435 -4.15387,3.57986 -1.15034,1.08551 -2.4861,2.0722 -2.96836,2.19265 -2.04456,0.51061 -4.59966,-2.00464 -5.95768,-5.86477 -0.69524,-1.97621 -0.71817,-2.37465 -0.61966,-10.76974 0.15874,-13.531469 -0.76906,-17.996585 -4.9791,-23.961784 -1.81489,-2.571525 -2.05088,-3.796288 -0.99002,-5.138265 l 0.63747,-0.806422 -1.03408,-0.324182 c -2.65113,-0.831098 -5.16219,-1.059749 -9.98218,-0.908922 -5.48931,0.171768 -8.51286,0.777008 -11.99265,2.400628 -5.28248,2.46474 -10.50079,10.078796 -12.03927,17.566569 l -0.1946,0.947142 0.67628,-1.028164 c 0.70898,-1.077898 1.73723,-1.52767 2.75655,-1.205743 0.557,0.175909 0.5929,0.05024 0.45577,-1.595172 -0.1846,-2.215053 0.3385,-2.079572 1.03949,0.269233 0.68746,2.303485 0.61604,5.450112 -0.16249,7.157492 -0.348,0.76322 -1.84403,2.61939 -3.32451,4.12483 -1.48048,1.50545 -2.69179,2.79897 -2.69179,2.87449 0,0.0755 1.3207,0.14155 2.93488,0.14672 3.53156,0.0119 5.55667,0.75554 6.57399,2.4159 1.57317,2.56755 0.27792,5.05333 -4.36323,8.37364 -2.19268,1.56865 -2.15929,1.42004 -0.95533,4.25377 0.73435,1.72844 1.06288,1.89429 6.75598,3.41042 4.89019,1.3023 6.89416,1.5788 9.01953,1.24449 2.73174,-0.42969 4.99291,-1.73159 8.00842,-4.61094 1.51259,-1.44429 2.95858,-2.62598 3.21331,-2.62598 0.91536,0 1.72438,1.95757 1.17473,2.8425 -0.24896,0.40085 -0.35824,0.37866 -0.74808,-0.15185 -0.4372,-0.59493 -0.5572,-0.52612 -2.83204,1.62407 -1.60138,1.51361 -3.17874,2.64034 -4.84028,3.45745 -2.3455,1.15348 -2.61211,1.21183 -5.50919,1.20582 -2.97932,-0.006 -8.24617,-1.05215 -12.82913,-2.54778 l -1.53533,-0.50106 -1.08226,1.04378 c -1.62848,1.57057 -1.48616,2.46563 0.74211,4.66733 1.34854,1.33244 2.26836,1.94344 3.52656,2.3426 2.15269,0.68289 6.2504,0.7043 9.43724,0.0493 3.45076,-0.70925 11.14039,-3.36463 14.12383,-4.87724 1.41121,-0.7155 2.6475,-1.21965 2.7473,-1.12033 0.3394,0.33771 -1.58064,2.01393 -3.37648,2.94769 -0.98429,0.5118 -2.82565,1.32748 -4.0919,1.81263 -1.26627,0.48515 -2.25367,0.93046 -2.19427,0.98959 0.0594,0.0592 1.25862,-0.0465 2.66488,-0.2349 1.40627,-0.18832 2.8934,-0.28484 3.30476,-0.21451 2.05585,0.35154 -3.42936,1.53409 -9.88111,2.13024 -2.00682,0.18545 -4.57683,0.48436 -5.71111,0.66425 -2.56121,0.4062 -5.92984,0.11777 -8.11164,-0.69449 -2.02402,-0.75353 -4.2955,-2.68399 -5.12785,-4.358 l -0.61834,-1.2436 -1.16487,1.63433 c -3.03222,4.25419 -4.35204,8.63121 -3.74102,12.40654 0.16775,1.03651 0.80942,3.16905 1.42593,4.73898 1.41243,3.59665 1.87107,5.40226 1.72019,6.77201 -0.13379,1.21453 -0.11717,1.24609 -1.42823,-2.70895 -0.51806,-1.56279 -1.47537,-4.09483 -2.12734,-5.62676 -0.86959,-2.04325 -1.23305,-3.41216 -1.36423,-5.138 l -0.17881,-2.35266 -0.576124,0.94267 c -0.316872,0.51848 -1.167441,2.33333 -1.890165,4.033 -0.722712,1.69968 -1.833192,4.08482 -2.46774,5.30032 -1.749801,3.35183 -7.347302,10.53129 -7.347302,9.42379 0,-0.17357 0.659047,-1.15731 1.464539,-2.18611 2.396029,-3.06025 6.755565,-10.37134 6.397057,-10.72808 -0.07759,-0.0772 -0.882983,0.96069 -1.789758,2.30644 -0.906774,1.34576 -3.081818,4.50685 -4.833429,7.02467 -6.25276,8.98788 -10.086417,18.52085 -12.823293,31.88712 -0.928341,4.53379 -1.771965,9.8616 -1.590168,10.0425 0.06814,0.0678 0.597489,-0.0303 1.176326,-0.21792 2.204449,-0.71467 5.54376,-0.98051 8.181868,-0.65136 4.628333,0.57748 8.492463,2.37755 12.144133,5.65726 2.270618,2.03934 1.948469,1.08267 -0.504485,-1.49812 -2.139044,-2.25053 -5.588987,-4.33654 -9.296755,-5.62126 -1.67695,-0.58105 -3.12596,-1.13304 -3.220024,-1.22665 -0.479133,-0.47676 2.648289,-0.0733 4.629785,0.59738 3.618464,1.22463 6.70292,3.0039 8.867747,5.11534 2.572416,2.50901 3.627748,4.72891 3.798988,7.99125 0.14044,2.67533 0.29705,2.72193 -2.132159,-0.63435 -1.831154,-2.53 -5.16257,-5.31818 -8.045227,-6.73334 -5.974081,-2.93281 -13.020644,-2.78328 -17.173592,0.3644 -3.066819,2.32448 -4.840851,5.68709 -5.755926,10.91016 -1.54466,8.8166 1.875676,17.56091 10.022713,25.62374 1.751272,1.73317 3.184136,3.26043 3.184136,3.39392 0,0.4064 -0.72858,0.24851 -2.06235,-0.44695 z m 29.868515,-114.63189 1.43466,-1.3488 -0.5806,-1.98972 c -0.50419,-1.72787 -0.77413,-2.12854 -2.05131,-3.04466 -0.8089,-0.58022 -1.95112,-1.65016 -2.53828,-2.37763 l -1.06755,-1.32268 -0.21968,1.21722 c -0.36511,2.02306 -0.25557,5.87711 0.20343,7.15777 0.61949,1.72835 1.86617,2.9388 3.12824,3.03729 0.14104,0.0107 0.90203,-0.58694 1.69109,-1.32879 z m -5.93832,-12.82213 c 0.49367,-2.25071 0.96412,-3.44205 1.99153,-5.04329 l 1.34517,-2.09646 0.0498,-4.10429 c 0.0501,-4.134889 0.77811,-8.828573 1.90659,-12.292672 0.58082,-1.782918 1.07739,-2.525656 1.07739,-1.611496 0,0.322905 0.72029,-0.607662 1.60063,-2.067926 0.88036,-1.460263 2.30814,-3.369856 3.17285,-4.24353 0.86471,-0.873673 1.57219,-1.693472 1.57219,-1.82177 0,-0.556985 -2.81263,1.266014 -4.31373,2.795927 -1.26259,1.286825 -2.30534,2.972087 -4.52326,7.310338 -2.22709,4.356184 -3.39528,6.242199 -5.13836,8.295689 -1.24078,1.46173 -2.48046,3.08967 -2.754834,3.61762 -0.771374,1.48428 -0.891653,4.79356 -0.253963,6.98719 0.507327,1.74517 3.296117,7.54546 3.520507,7.32217 0.0556,-0.0554 0.39205,-1.42676 0.74754,-3.0475 z m 1.44015,-9.356 c -0.23875,-2.21835 0.24505,-6.385068 0.87266,-7.515744 0.34643,-0.624117 0.39213,-0.634021 0.50244,-0.108824 0.0668,0.317762 -0.0341,1.465967 -0.22408,2.551578 -0.18998,1.0856 -0.34544,3.13427 -0.34544,4.5526 0,1.41832 -0.13141,2.57878 -0.29202,2.57878 -0.16062,0 -0.39173,-0.92628 -0.51356,-2.05839 z m -3.94334,-0.78304 c -0.012,-0.55984 1.64628,-3.99744 2.349,-4.87052 0.96415,-1.197914 0.83468,-0.207314 -0.25069,1.9178 -1.31367,2.57215 -2.0837,3.65572 -2.09831,2.95272 z m 13.22507,8.23549 c 0.50395,-0.80297 0.052,-1.164 -2.06614,-1.6505 -1.8996,-0.43631 -4.64572,0.0184 -5.81862,0.96345 -0.67979,0.54774 -0.63436,0.55858 1.81464,0.43306 1.66914,-0.0856 2.9909,0.0264 3.93966,0.33367 0.78527,0.25431 1.50051,0.47644 1.58941,0.49361 0.0889,0.0172 0.33238,-0.24081 0.54105,-0.57329 z m -3.87559,-9.73643 c -0.44074,-0.22978 -1.00202,-0.87402 -1.24729,-1.43163 -0.42985,-0.97726 -0.44688,-0.91753 -0.47183,1.65485 l -0.0259,2.66872 1.27318,-1.23707 1.27318,-1.23707 z M 99.421433,238.94423 c -4.028801,-1.95722 -8.289633,-5.2098 -9.901084,-7.55814 -0.583055,-0.84967 -0.986412,-1.61817 -0.896354,-1.70779 0.09006,-0.0896 0.985765,0.6094 1.990465,1.55333 2.603296,2.44585 4.404542,3.84226 6.585989,5.10577 2.247606,1.30184 5.868221,2.85674 6.104501,2.62163 0.0913,-0.0908 -0.78086,-1.07541 -1.93809,-2.18791 -1.384545,-1.33104 -2.104067,-2.26896 -2.104067,-2.74273 0,-0.62975 0.235651,-0.49632 1.880147,1.0645 3.22879,3.0645 3.42483,2.1104 0.6556,-3.19084 -2.63769,-5.04943 -2.043458,-5.33133 0.86165,-0.40875 1.44548,2.44932 1.54906,2.19672 1.07466,-2.62072 -0.46028,-4.67412 -1.62049,-9.29769 -3.22015,-12.83272 -1.25722,-2.77831 -1.453682,-3.9382 -0.45056,-2.66013 0.26262,0.33461 1.03756,1.74495 1.72208,3.13409 2.22566,4.51666 3.22854,9.93547 3.30128,17.83785 0.0487,5.29236 -0.19272,6.32503 -1.47322,6.30119 -0.38649,-0.007 -2.27328,-0.77608 -4.192847,-1.70863 z m 59.478957,-7.35507 c -0.0511,-3.76366 -0.72063,-9.42808 -1.54836,-13.09981 -1.81295,-8.04188 -1.00413,-8.58268 0.98699,-0.65992 1.31476,5.23153 1.83803,10.18755 1.38972,13.16233 -0.23984,1.5915 -0.80927,2.00217 -0.82835,0.5974 z m -30.41196,-4.73571 c 0.23678,-0.30387 1.05947,-1.26285 1.82821,-2.13107 0.76872,-0.86821 2.0798,-2.54304 2.91351,-3.72185 1.65719,-2.3432 2.3601,-2.34871 1.19253,-0.01 -0.85033,1.7037 -5.17081,6.41478 -5.88293,6.41478 -0.41135,0 -0.41885,-0.0808 -0.0513,-0.5525 z m 32.01017,-2.64446 c 0,-0.89011 -0.22649,-2.94056 -0.50332,-4.55654 -0.61365,-3.58224 -0.48183,-4.64363 0.35059,-2.82292 0.69582,1.52193 1.11816,8.99786 0.50831,8.99786 -0.21634,0 -0.35558,-0.63373 -0.35558,-1.6184 z m -20.30617,0.94452 c 0,-0.47743 0.53956,-1.23561 3.13915,-4.41106 1.93888,-2.3684 3.67288,-6.08931 4.47939,-9.61209 0.78505,-3.429 1.46976,-4.05939 1.12609,-1.03675 -0.31724,2.79006 -1.55657,6.44367 -2.94507,8.68215 -1.3832,2.22993 -5.79956,7.08659 -5.79956,6.37775 z m -11.57149,-1.61505 c 0.30572,-1.43606 2.71464,-6.55107 3.08523,-6.55107 0.46906,0 0.0252,1.36407 -1.5024,4.6168 -1.44075,3.06787 -1.95899,3.70116 -1.58283,1.93427 z m -0.80671,-7.69418 c -0.44291,-4.09135 -0.27013,-10.76445 0.31984,-12.35366 0.55951,-1.50713 1.06017,-1.29868 0.7583,0.31571 -0.13799,0.73798 -0.21742,4.49171 -0.17648,8.34161 0.0422,3.97483 -0.0508,7.07687 -0.21551,7.17812 -0.16093,0.0989 -0.46625,-1.45029 -0.68615,-3.48178 z m 8.70264,-11.40651 c 1.83941,-5.82008 1.84485,-5.84967 1.86073,-10.11401 0.0174,-4.66154 0.41146,-5.13023 0.94331,-1.12181 0.26284,1.98092 0.23119,2.94998 -0.15815,4.84342 -0.53812,2.61707 -2.12741,6.94489 -2.55034,6.94489 -0.14859,0 -0.19159,-0.24862 -0.0956,-0.55249 z m 3.55459,-7.10358 c 0.40117,-1.95348 0.89427,-5.32767 1.09579,-7.4982 0.43683,-4.70522 0.64393,-5.42749 0.95055,-3.315 0.23474,1.61725 -0.10732,6.40758 -0.6195,8.67584 -0.62204,2.7548 0.2936,0.84087 2.18705,-4.57155 2.02565,-5.79033 2.57177,-7.11851 2.85527,-6.94417 0.4685,0.28811 -2.38588,9.34921 -3.87472,12.30012 -1.0624,2.10571 -2.82025,4.90474 -3.08028,4.90474 -0.13396,0 0.0847,-1.59829 0.48584,-3.55178 z M 97.940369,193.4667 c -1.22132,-2.73307 -2.095477,-5.55494 -2.836237,-9.15571 -0.754538,-3.66777 -1.206187,-11.20784 -0.671339,-11.20784 0.345113,0 0.524919,1.21033 0.867693,5.8407 0.229512,3.10017 0.74612,5.41277 2.40958,10.78634 1.478342,4.77556 1.60374,6.80997 0.230303,3.73651 z m 1.050881,-3.48638 c -0.909137,-3.42738 -2.758638,-17.27825 -2.624953,-19.65831 0.06859,-1.22127 0.675512,-0.42428 0.675512,0.88708 0,0.6742 0.49386,3.89794 1.097457,7.16386 1.421296,7.69017 1.894604,11.5921 1.492803,12.30653 -0.258771,0.46009 -0.363676,0.34563 -0.640819,-0.69916 z m 3.77131,-25.62704 c -0.006,-1.88853 -0.2722,-4.5705 -0.64325,-6.47213 -0.65301,-3.3467 -0.84717,-6.49398 -0.34639,-5.61513 0.14842,0.26046 0.60198,1.96532 1.00793,3.78857 0.83524,3.7513 1.04221,9.78717 0.3735,10.89214 -0.3148,0.52016 -0.38384,0.0631 -0.39179,-2.59345 z m -1.72047,0.33573 c -0.24814,-1.18347 -2.096577,-12.46649 -2.096577,-12.79778 0,-0.14115 0.130879,-0.25663 0.29085,-0.25663 0.76358,0 2.968227,12.98474 2.314997,13.63473 -0.21603,0.21498 -0.3822,0.0257 -0.50927,-0.58032 z m 32.30153,-7.7141 c -0.18946,-0.24572 -0.89121,-1.44124 -1.55945,-2.65675 -1.63801,-2.97952 -5.33287,-6.61539 -8.24916,-8.11743 -1.22153,-0.62916 -3.34629,-1.43009 -4.72167,-1.77985 -3.24906,-0.82623 -3.96736,-1.468 -1.30672,-1.16753 4.71723,0.53272 7.89663,2.10626 11.43709,5.66039 2.67723,2.68755 5.04125,6.50896 4.84483,7.8316 -0.0825,0.5556 -0.16192,0.59658 -0.44492,0.22957 z m -5.68391,-5.38476 c -0.69803,-0.53572 -2.21797,-1.58685 -3.37767,-2.33587 -3.15315,-2.03654 -3.47042,-2.8659 -0.58799,-1.53706 2.38721,1.10055 5.71072,3.76819 5.71072,4.58378 0,0.47548 -0.42471,0.30249 -1.74506,-0.71085 z m -1.44486,-6.45456 c -1.67664,-1.7356 -3.29304,-2.51586 -7.41511,-3.57938 -3.47955,-0.89775 -6.1908,-2.06708 -6.70231,-2.89063 -0.43733,-0.7041 0.20979,-0.65424 1.7223,0.13271 0.86574,0.45044 3.31013,1.24288 5.43198,1.76096 2.12185,0.51808 4.4842,1.30718 5.24967,1.75355 1.3486,0.78643 2.70035,2.26924 3.10144,3.40216 0.30584,0.86384 -0.19625,0.65426 -1.38797,-0.57937 z m 31.9043,-3.99848 c 0.12277,-1.25892 0.34985,-2.92825 0.50461,-3.70964 0.15476,-0.7814 0.37487,-4.12007 0.48911,-7.41928 0.21016,-6.06841 0.50485,-8.00058 1.08181,-7.09287 0.61682,0.97044 0.1263,13.09304 -0.67622,16.71184 -0.63024,2.84195 -0.954,3.79887 -1.28527,3.79887 -0.22768,0 -0.26473,-0.74377 -0.11404,-2.28892 z m -4.28351,-1.39612 c 0,-0.29034 0.23102,-1.74657 0.51339,-3.23607 0.36418,-1.92109 0.46847,-3.74243 0.35886,-6.26688 -0.085,-1.95729 -0.0377,-3.63061 0.10529,-3.71848 0.68171,-0.41924 1.07426,1.4183 1.04879,4.90934 -0.0222,3.04146 -0.16527,4.05343 -0.88157,6.23535 -0.8424,2.56611 -1.14473,3.11458 -1.14473,2.07674 z m 3.28334,-2.86603 c 0.11128,-1.17208 0.20328,-4.36869 0.20453,-7.10356 0.001,-2.94561 0.12572,-4.9725 0.30516,-4.9725 0.82253,0 1.05203,7.36677 0.36144,11.6025 -0.5209,3.19503 -1.16253,3.54384 -0.87113,0.47356 z m -4.34958,-3.45512 c -0.11165,-0.1111 -0.20289,-1.15486 -0.20289,-2.31957 0,-1.16474 -0.21418,-2.7217 -0.47594,-3.45994 -0.68269,-1.92539 -0.61953,-2.56453 0.16131,-1.63223 0.85533,1.02125 1.26263,2.68475 1.2647,5.16538 0.001,1.96074 -0.25594,2.73517 -0.74718,2.24636 z m -40.30864,-2.00883 c -0.85567,-0.14263 -1.78372,-0.49841 -2.06235,-0.79062 -0.47365,-0.49674 -0.30024,-0.51784 2.66623,-0.3243 3.92953,0.25637 7.5168,0.78308 7.91624,1.16234 0.37356,0.35468 -6.33181,0.31736 -8.52012,-0.0474 z m 40.63243,-11.2572 c -1.66684,-3.2928 -1.88519,-7.63382 -0.8111,-16.12493 0.51164,-4.044654 0.62357,-6.193124 0.47949,-9.203466 -0.13604,-2.842453 -0.0921,-3.831728 0.15907,-3.58179 0.19086,0.189917 0.50348,1.425862 0.69467,2.746539 0.34875,2.408777 0.29426,3.33283 -0.76487,12.970907 -0.50451,4.59096 -0.20139,9.28833 0.77966,12.08243 0.9228,2.62817 0.58501,3.32668 -0.53692,1.11031 z m -23.52977,-17.10984 -1.58643,-0.18719 -0.0958,-1.83609 c -0.12418,-2.380552 0.67561,-5.103715 1.83893,-6.261287 0.71975,-0.716189 1.18589,-0.899042 2.27781,-0.893529 l 1.37287,0.0072 -1.30932,0.591625 c -1.69765,0.767081 -2.09344,1.348349 -0.60955,0.895188 1.80161,-0.550195 3.59395,0.343143 6.04087,3.010903 1.13577,1.238272 2.06503,2.36355 2.06503,2.50062 0,0.34257 -1.00651,0.30496 -1.58549,-0.0592 -0.35253,-0.22177 -0.76152,-0.0218 -1.58641,0.77532 -1.7785,1.71877 -2.78338,1.93334 -6.82254,1.45675 z m 21.3732,-1.45004 c -0.11116,-0.17364 -0.30178,-1.807461 -0.42361,-3.630711 -0.30969,-4.634678 -0.97021,-7.650497 -2.29959,-10.499417 -0.62844,-1.346785 -1.05883,-2.532087 -0.95642,-2.634003 0.30558,-0.304064 2.07027,2.34365 2.72588,4.089852 0.91024,2.424397 1.36914,5.95823 1.2564,9.675 -0.0553,1.823249 -0.1915,3.172919 -0.30266,2.999279 z"
       id="path8" /></g></svg>
