<?xml version="1.0" encoding="UTF-8" standalone="no"?>
<!-- Created with Inkscape (http://www.inkscape.org/) -->

<svg
   width="210mm"
   height="297mm"
   viewBox="0 0 210 297"
   version="1.1"
   id="svg1"
   xml:space="preserve"
   sodipodi:docname="drawing.svg"
   inkscape:version="1.4.2 (ebf0e94, 2025-05-08)"
   inkscape:export-filename="graduate_hat.svg"
   inkscape:export-xdpi="96"
   inkscape:export-ydpi="96"
   xmlns:inkscape="http://www.inkscape.org/namespaces/inkscape"
   xmlns:sodipodi="http://sodipodi.sourceforge.net/DTD/sodipodi-0.dtd"
   xmlns="http://www.w3.org/2000/svg"
   xmlns:svg="http://www.w3.org/2000/svg"><sodipodi:namedview
     id="namedview1"
     pagecolor="#505050"
     bordercolor="#eeeeee"
     borderopacity="1"
     inkscape:showpageshadow="0"
     inkscape:pageopacity="0"
     inkscape:pagecheckerboard="0"
     inkscape:deskcolor="#505050"
     inkscape:document-units="mm"
     inkscape:zoom="1.0316077"
     inkscape:cx="477.41014"
     inkscape:cy="638.8087"
     inkscape:window-width="2560"
     inkscape:window-height="1403"
     inkscape:window-x="2560"
     inkscape:window-y="0"
     inkscape:window-maximized="1"
     inkscape:current-layer="g1" /><defs
     id="defs1"><radialGradient
       id="radial-pattern-0"
       gradientUnits="userSpaceOnUse"
       cx="0"
       cy="0"
       fx="0"
       fy="0"
       r="2092.16"
       gradientTransform="matrix(1.199999,0,0,0.800001,1500,3315.0496)"><stop
         offset="0"
         stop-color="rgb(100%, 100%, 100%)"
         stop-opacity="1"
         id="stop1" /><stop
         offset="0.5"
         stop-color="rgb(100%, 100%, 100%)"
         stop-opacity="1"
         id="stop2" /><stop
         offset="0.5625"
         stop-color="rgb(99.822998%, 99.942017%, 99.987793%)"
         stop-opacity="1"
         id="stop3" /><stop
         offset="0.589844"
         stop-color="rgb(99.578857%, 99.864197%, 99.972534%)"
         stop-opacity="1"
         id="stop4" /><stop
         offset="0.640625"
         stop-color="rgb(99.365234%, 99.794006%, 99.946594%)"
         stop-opacity="1"
         id="stop5" /><stop
         offset="0.648438"
         stop-color="rgb(99.215698%, 99.737549%, 99.766541%)"
         stop-opacity="1"
         id="stop6" /><stop
         offset="0.65625"
         stop-color="rgb(99.205017%, 99.591064%, 99.520874%)"
         stop-opacity="1"
         id="stop7" /><stop
         offset="0.664062"
         stop-color="rgb(99.043274%, 99.346924%, 99.40033%)"
         stop-opacity="1"
         id="stop8" /><stop
         offset="0.683594"
         stop-color="rgb(98.843384%, 99.21875%, 99.195862%)"
         stop-opacity="1"
         id="stop9" /><stop
         offset="0.722656"
         stop-color="rgb(98.661804%, 99.150085%, 98.989868%)"
         stop-opacity="1"
         id="stop10" /><stop
         offset="0.730469"
         stop-color="rgb(98.458862%, 98.989868%, 98.907471%)"
         stop-opacity="1"
         id="stop11" /><stop
         offset="0.738281"
         stop-color="rgb(98.382568%, 98.774719%, 98.815918%)"
         stop-opacity="1"
         id="stop12" /><stop
         offset="0.769531"
         stop-color="rgb(98.374939%, 98.675537%, 98.735046%)"
         stop-opacity="1"
         id="stop13" /><stop
         offset="0.773438"
         stop-color="rgb(98.291016%, 98.640442%, 98.536682%)"
         stop-opacity="1"
         id="stop14" /><stop
         offset="0.785156"
         stop-color="rgb(98.088074%, 98.443604%, 98.310852%)"
         stop-opacity="1"
         id="stop15" /><stop
         offset="0.796875"
         stop-color="rgb(97.961426%, 98.213196%, 98.217773%)"
         stop-opacity="1"
         id="stop16" /><stop
         offset="0.820312"
         stop-color="rgb(97.956848%, 98.146057%, 98.188782%)"
         stop-opacity="1"
         id="stop17" /><stop
         offset="0.828125"
         stop-color="rgb(97.807312%, 98.100281%, 98.179626%)"
         stop-opacity="1"
         id="stop18" /><stop
         offset="0.835938"
         stop-color="rgb(97.613525%, 98.033142%, 98.05603%)"
         stop-opacity="1"
         id="stop19" /><stop
         offset="0.84375"
         stop-color="rgb(97.557068%, 97.886658%, 97.805786%)"
         stop-opacity="1"
         id="stop20" /><stop
         offset="0.863281"
         stop-color="rgb(97.45636%, 97.660828%, 97.633362%)"
         stop-opacity="1"
         id="stop21" /><stop
         offset="0.871094"
         stop-color="rgb(97.254944%, 97.528076%, 97.590637%)"
         stop-opacity="1"
         id="stop22" /><stop
         offset="0.886719"
         stop-color="rgb(97.084045%, 97.47467%, 97.581482%)"
         stop-opacity="1"
         id="stop23" /><stop
         offset="0.898438"
         stop-color="rgb(96.890259%, 97.409058%, 97.463989%)"
         stop-opacity="1"
         id="stop24" /><stop
         offset="0.910156"
         stop-color="rgb(96.630859%, 97.203064%, 97.206116%)"
         stop-opacity="1"
         id="stop25" /><stop
         offset="0.929688"
         stop-color="rgb(96.421814%, 96.94519%, 97.024536%)"
         stop-opacity="1"
         id="stop26" /><stop
         offset="0.945312"
         stop-color="rgb(96.340942%, 96.842957%, 96.894836%)"
         stop-opacity="1"
         id="stop27" /><stop
         offset="0.957031"
         stop-color="rgb(96.282959%, 96.813965%, 96.70105%)"
         stop-opacity="1"
         id="stop28" /><stop
         offset="0.964844"
         stop-color="rgb(96.087646%, 96.748352%, 96.591187%)"
         stop-opacity="1"
         id="stop29" /><stop
         offset="0.980469"
         stop-color="rgb(95.941162%, 96.560669%, 96.51947%)"
         stop-opacity="1"
         id="stop30" /><stop
         offset="0.988281"
         stop-color="rgb(95.928955%, 96.366882%, 96.400452%)"
         stop-opacity="1"
         id="stop31" /><stop
         offset="0.992188"
         stop-color="rgb(95.925903%, 96.313477%, 96.18988%)"
         stop-opacity="1"
         id="stop32" /><stop
         offset="1"
         stop-color="rgb(95.925903%, 96.305847%, 96.032715%)"
         stop-opacity="1"
         id="stop33" /></radialGradient></defs><g
     id="g1"
     transform="matrix(0.05370839,0,0,0.05694436,21.543813,90.740112)"><path
       fill-rule="nonzero"
       fill="#100e0c"
       fill-opacity="1"
       d="m 1514.6686,587.46579 c 51.1607,2.25574 89.7296,6.93103 122.7499,14.50181 43.5203,10.64336 50.6048,36.91529 50.5634,69.27926 4.3567,-1.49644 9.8303,-2.55015 16.7545,-3.88722 16.9509,-3.2696 42.574,-8.21717 84.7627,-24.70907 50.1988,-19.61982 106.4996,-37.14109 156.171,-52.60584 38.1655,-11.8786 71.1212,-22.13678 95.0429,-31.3169 33.8632,-12.98765 34.9621,-18.62811 34.8431,-19.62426 -0.181,-1.43889 -5.3159,-14.76966 -129.6559,-40.36642 -49.8084,-10.25818 -99.1204,-22.52638 -146.5785,-36.46813 -48.4587,-14.23395 -92.884,-28.24874 -132.0838,-40.60992 -111.1459,-35.04916 -191.4563,-60.37585 -218.4341,-43.58953 -8.0618,5.02062 -11.6842,14.15647 -11.0533,27.94326 2.0168,44.38424 5.3935,114.03319 8.2867,173.07198 29.6798,0.49144 53.0766,2.89992 68.6314,8.38098 z m -67.879,6.92439 c 2.5753,52.49294 4.6075,93.26889 4.6541,94.15215 0,0.0222 0.01,0.12397 0.01,0.14832 0.5016,16.3303 13.4036,25.91331 25.305,29.4397 11.648,3.44448 28.3223,2.75381 40.203,-9.52767 20.5863,-21.26681 15.4876,-55.80239 12.1134,-78.65641 -1.0523,-7.15903 -1.965,-13.33519 -1.965,-18.01712 0,-4.42514 -1.8151,-8.05115 -5.5486,-11.08389 -2.3219,-1.88605 -5.3418,-3.53081 -8.9823,-4.95863 -19.8624,-0.8567 -41.6535,-1.34371 -65.7873,-1.49645 z m -227.755,154.39739 c 0.3904,0.47595 0.8559,0.88547 1.391,1.23524 6.3735,4.20601 25.4756,2.5568 58.3925,-5.02505 72.1349,-16.62694 201.8296,-23.82582 293.9922,-7.09041 9.2149,1.67796 17.6879,3.27624 25.4523,4.74834 37.0978,7.01735 59.4914,11.24988 68.8563,4.95421 0.8404,-0.5667 1.6211,-1.23523 2.3297,-2.01666 0.3981,-1.79751 0.6489,-3.62822 0.7627,-5.49214 0.5093,-9.00524 0.8325,-16.61586 1.1247,-23.33216 0.9204,-21.32436 1.3445,-31.06012 5.6133,-37.6281 0.3232,-0.49808 0.6619,-0.96959 1.0186,-1.41675 0.9464,-33.68997 -3.4077,-57.83234 -43.1971,-67.5681 -28.6662,-6.56798 -61.7485,-10.91343 -104.0433,-13.36176 4.1887,4.26133 6.3089,9.33729 6.3089,15.13492 0,4.144 0.8713,10.07666 1.8848,16.95013 3.5888,24.30618 9.0081,61.03996 -14.3163,85.14691 -12.6434,13.07398 -32.2214,17.72713 -51.0934,12.13981 -18.9031,-5.59396 -31.4586,-20.21973 -31.9887,-37.24956 v -0.073 c -0.046,-0.85669 -2.0865,-41.81859 -4.6747,-94.49306 -12.1522,-0.0332 -24.8809,0.0177 -38.2379,0.14168 -131.7917,1.24187 -178.5827,13.00536 -178.5827,76.64638 0,14.03251 -0.7007,26.39811 -1.3238,37.30712 -0.9464,16.69334 -1.6858,29.71198 0.3309,40.34206 z m 3.6224,11.14142 c 5.7245,11.53328 17.5534,19.97181 40.8261,28.0252 52.1897,18.0592 292.5081,36.01213 377.7569,-10.66107 10.2776,-5.62718 17.8507,-12.02031 22.6832,-19.1085 -13.5355,3.03718 -33.99,-0.83231 -67.7988,-7.23207 -7.7464,-1.46103 -16.1857,-3.0593 -25.3722,-4.7262 -89.5021,-16.25725 -219.8846,-9.03181 -289.3511,6.97753 -29.3022,6.7539 -47.5589,8.92555 -58.7441,6.72511 z m 229.4822,55.53681 c -4.2817,0 -8.3669,-0.0266 -12.2375,-0.0731 -83.1157,-0.97399 -154.8472,-10.80048 -180.1392,-19.55783 -33.3073,-11.5266 -45.8887,-25.05881 -50.0721,-43.82859 -3.0847,-4.99628 -3.051,-11.48678 -3.02,-18.24736 l 0.01,-2.24467 c 0,-8.28358 -0.2121,-14.43318 -0.4706,-22.20761 -0.4034,-11.81662 -0.8998,-26.52208 -0.8998,-56.34253 0,-54.01817 62.576,-67.69206 163.5424,-72.24338 24.6767,-1.10906 47.2151,-1.7953 67.2455,-1.73331 -2.8881,-58.94139 -6.2493,-128.36234 -8.2686,-172.64475 -0.7602,-16.83723 4.1912,-28.33507 15.1385,-35.14656 31.2673,-19.46045 105.2094,3.85844 227.7007,42.48933 39.1533,12.34347 83.5268,26.34056 131.8796,40.54351 47.1608,13.85542 96.1754,26.05057 145.6709,36.24013 35.4068,7.28742 64.6031,14.32028 86.7976,20.88826 43.3342,12.84155 49.7076,21.09857 50.4109,26.85634 1.9701,16.02703 -42.8792,30.72143 -136.3604,59.82022 -49.5033,15.40942 -105.6076,32.86869 -155.4418,52.35348 -43.1299,16.85274 -70.4077,22.11686 -86.7045,25.26914 -10.7095,2.06094 -16.09,3.20098 -19.128,5.37038 -0.1578,4.60224 -0.4034,9.29967 -0.649,14.07678 -0.331,6.49493 -0.6749,13.21566 -0.8532,20.09134 -0.3776,14.53501 -1.9341,26.12362 -7.4931,33.74088 -3.6534,13.87755 -14.4481,25.79597 -32.2084,35.51405 -48.2467,26.41583 -137.9401,31.01138 -194.4477,31.01586"
       id="path33"
       style="stroke-width:0.612457" /><path
       fill-rule="nonzero"
       fill="#100e0c"
       fill-opacity="1"
       d="m 923.24292,600.32283 c 36.1721,10.9555 79.23478,24.0981 119.44808,36.37737 54.1082,16.52068 105.2172,32.12047 125.3717,38.03763 16.1107,5.15566 28.1233,5.34382 34.8612,0.57113 6.2571,-4.4185 8.3799,-13.50343 5.9779,-25.56355 -6.4588,-32.53442 -42.7266,-76.90096 -90.0451,-91.86099 -52.8956,-16.7177 -122.07498,-8.46732 -168.22488,20.07141 -9.1219,5.64488 -18.8333,13.00536 -27.3889,22.367 z m -25.7238,171.94966 c -0.5223,8.0135 -1.0963,15.09726 -1.6212,21.56786 -1.2747,15.73702 -2.283,28.1602 -1.7763,42.47604 0.5016,14.18307 9.9571,24.29291 18.5282,27.68207 2.8209,1.11566 8.2325,2.528 12.752,-0.57112 3.1363,-2.1495 12.6978,-11.82327 4.093,-46.01798 -7.4387,-29.56363 -20.7854,-43.48103 -31.9757,-45.13687 z m 77.3835,363.59661 c -19.5883,0 -45.8499,-32.5853 -68.4969,-85.7645 -0.9386,-2.2048 0.3878,-4.6487 2.963,-5.4523 2.5804,-0.8058 5.4271,0.3343 6.3631,2.5391 27.6527,64.9316 53.1852,82.1208 60.5954,79.9846 7.4439,-2.1494 12.1263,-25.3377 -7.012,-78.4505 -9.8355,-27.2903 -17.9051,-52.66348 -24.3923,-73.04699 -9.4037,-29.55258 -19.1177,-60.08811 -25.0645,-63.57905 -1.254,0.86332 -4.9617,4.8236 -10.8568,22.79869 -9.5227,29.05451 -29.5195,78.12065 -48.6216,119.31945 -36.2084,78.0919 -44.265,76.9873 -49.0845,76.3121 -7.2111,-0.9917 -6.7432,-9.8331 -6.5156,-14.0768 1.0032,-18.9269 7.7619,-38.8123 15.5884,-61.839 14.3525,-42.2238 32.2136,-94.78088 29.5944,-177.01902 -2.3865,-74.9596 17.3388,-107.0845 38.0777,-112.97287 1.2747,-22.63928 1.9857,-52.49294 0.2663,-95.6818 -1.0653,-26.77001 7.2344,-47.90842 19.2625,-64.33833 -26.2694,-7.93382 -47.8408,-14.3712 -60.3731,-17.94629 -28.0715,-8.01352 -42.2611,-17.91973 -42.1758,-29.45299 0.096,-12.76628 17.9904,-24.11138 53.1904,-33.72981 4.0283,-1.10462 403.78308,-110.36955 485.93178,-135.94639 2.5753,-0.79693 5.422,0.34091 6.3606,2.54573 0.9333,2.20482 -0.3905,4.64208 -2.9709,5.44565 -82.3297,25.63218 -482.27328,134.94802 -486.30418,136.05486 -28.917,7.8984 -46.217,17.49912 -46.2791,25.68087 -0.054,7.13027 12.8451,14.9047 35.3861,21.33765 12.977,3.7057 35.5826,10.4552 63.0336,18.74542 9.6752,-11.12816 20.925,-19.75928 31.4483,-26.26528 48.6759,-30.10381 121.66138,-38.80357 177.48118,-21.16055 50.6436,16.00931 89.471,63.55027 96.3927,98.40684 3.0199,15.18804 -0.3362,27.09984 -9.4452,33.54829 -9.7682,6.91552 -24.7542,7.20995 -44.5312,0.8744 -20.0847,-5.89503 -71.2221,-21.5081 -125.3588,-38.0332 -41.21648,-12.58476 -85.43228,-26.08377 -122.12668,-37.18536 -11.7644,15.44261 -20.0201,35.4919 -18.9988,61.12407 1.6987,42.67307 1.042,72.42491 -0.1965,95.06417 17.9025,1.67132 33.3719,20.92149 41.1674,51.90856 8.7315,34.71047 0.6904,48.76513 -7.5938,54.44319 -6.3476,4.3521 -14.7765,4.95422 -23.1201,1.65585 -11.6325,-4.60224 -23.6554,-17.25119 -24.2889,-35.14661 -0.5223,-14.73424 0.5016,-27.34998 1.7944,-43.31946 0.468,-5.78653 0.9773,-12.06009 1.4531,-19.06418 -15.5781,8.33669 -29.5117,41.79424 -27.557,103.17511 2.6605,83.57079 -15.441,136.83408 -29.9874,179.63338 -7.6481,22.4976 -14.2543,41.9293 -15.2032,59.8423 -0.041,0.766 -0.062,1.4456 -0.067,2.0521 5.9856,-7.5088 18.28,-28.0296 38.6568,-72.4426 18.4998,-40.3133 37.0487,-86.07004 46.155,-113.84283 6.963,-21.23584 12.4909,-29.1475 20.3795,-29.1475 0.013,0 0.023,0 0.039,0 11.8238,0.0397 17.7344,16.84832 34.6414,69.98764 6.8027,21.38193 14.5154,45.61949 24.3018,72.77689 18.236,50.6069 18.492,83.8829 0.6878,89.0054 -1.4842,0.4316 -3.0148,0.6419 -4.5894,0.6419"
       id="path34"
       style="stroke-width:0.612457" /></g></svg>
