<?xml version="1.0" encoding="UTF-8" standalone="no"?>
<!-- Created with Inkscape (http://www.inkscape.org/) -->

<svg
   width="210mm"
   height="297mm"
   viewBox="0 0 210 297"
   version="1.1"
   id="svg1"
   xml:space="preserve"
   sodipodi:docname="earth.svg"
   inkscape:version="1.4.2 (ebf0e94, 2025-05-08)"
   xmlns:inkscape="http://www.inkscape.org/namespaces/inkscape"
   xmlns:sodipodi="http://sodipodi.sourceforge.net/DTD/sodipodi-0.dtd"
   xmlns="http://www.w3.org/2000/svg"
   xmlns:svg="http://www.w3.org/2000/svg"><sodipodi:namedview
     id="namedview1"
     pagecolor="#505050"
     bordercolor="#eeeeee"
     borderopacity="1"
     inkscape:showpageshadow="0"
     inkscape:pageopacity="0"
     inkscape:pagecheckerboard="0"
     inkscape:deskcolor="#505050"
     inkscape:document-units="mm"
     inkscape:zoom="0.51580387"
     inkscape:cx="318.91967"
     inkscape:cy="610.69724"
     inkscape:window-width="2560"
     inkscape:window-height="1403"
     inkscape:window-x="2560"
     inkscape:window-y="0"
     inkscape:window-maximized="1"
     inkscape:current-layer="layer1" /><defs
     id="defs1" /><g
     inkscape:label="Layer 1"
     inkscape:groupmode="layer"
     id="layer1"><path
       style="fill:none;stroke:#222222;stroke-width:2.90887"
       d="m 47.661954,-42.656138 -2.298714,-1.54612 0.766225,-0.773058 2.298714,2.319178 c 4.63669,-3.747005 15.843653,-6.591669 24.519616,-8.164258 4.611109,-0.835815 13.132162,-1.56985 17.623449,-2.106238 2.217848,-0.264889 3.696972,-0.520151 6.129917,-0.549358 5.745339,-0.06892 8.673549,-0.0029 15.324749,-0.0029 3.3832,0 5.19344,-0.03584 8.42859,0.0029 2.43094,0.02924 4.73087,0.355764 6.89616,0.669868 2.19126,0.317829 2.95507,0.514962 5.36367,1.070126 3.68213,0.848694 9.05532,1.175018 13.02601,1.805584 11.85633,1.882867 23.87948,4.587913 35.24698,8.584756 9.88724,3.47641 19.80526,7.640802 29.11701,12.416083 3.30066,1.692671 5.94327,3.36793 9.19484,5.271845 10.18857,5.965776 19.2197,11.867569 28.35083,19.3538924 5.78467,4.74272315 10.95726,9.2811411 16.09097,14.3499076 1.84666,1.823322 3.06564,3.424173 4.72747,5.277222 1.78284,1.987947 3.38002,3.488015 5.10355,5.411414 4.12472,4.603036 8.01408,9.617509 11.71232,14.688111 5.80367,7.95734 10.65734,16.753367 15.56125,25.510947 9.1236,16.293296 15.59478,34.725357 20.56424,52.568036 1.29808,4.66063 -1.09724,7.3269 1.33149,12.36893 l 0.76622,-6.95753 M 133.48055,-51.159789 c 1.43229,2.618795 3.89408,4.236256 6.12992,0.773059 m 0,3.092237 c 1.70861,3.10257 3.97148,3.561195 6.89615,6.957531 l -13.02607,0.773059 c 1.61088,3.472824 3.08224,5.103634 6.89615,6.184473 m -24.51962,-3.865296 c -1.36588,-1.457836 -7.19133,-8.283347 -2.22952,-8.916415 4.26887,-0.544639 3.85527,6.074063 2.99578,8.916415 l 1.53246,1.546121 c 6.52466,-1.631099 13.74346,2.928695 18.38971,1.546117 m -89.649807,-10.04977 2.298727,-1.546116 m -3.064965,3.865292 h -5.363667 l 4.597442,-2.319176 m -3.831204,3.865296 c -2.472372,1.739289 -4.390238,4.348127 -7.692528,6.049054 -2.512424,1.294113 -4.244663,0.315803 -6.832871,1.703006 -7.309187,3.917527 -15.388679,15.650907 -23.0196594,20.05419 C -0.42790209,-9.98321 -3.1821563,-4.4377943 -7.5071721,-1.0934533 -18.176135,7.1563465 -29.395302,13.712956 -39.689156,22.61189 c -4.044582,3.496505 -7.610785,7.271055 -10.12841,12.037874 -2.678472,5.071365 -4.307826,11.441149 -9.027531,13.915073 -1.168578,-3.990129 -1.218615,-5.406587 0.2755,-10.049756 3.19452,-9.92743 11.121779,-20.169386 18.182775,-27.830145 5.385516,-5.8429549 15.818183,-12.4698692 19.409001,-19.3395914 1.842413,-3.5248166 2.279164,-3.1545196 5.808841,-5.5593816 3.822247,-2.604167 7.397824,-5.803844 11.4929825,-8.103957 13.6639452,-7.674537 28.9286935,-16.629218 44.4417835,-20.338144 m 76.623784,4.638354 1.53245,1.546118 m -0.76622,1.546117 6.12988,3.865297 m -2.29872,0 c -2.62275,3.467441 -4.97709,9.45624 -9.96105,10.949278 -4.83672,1.44892 -9.09485,-4.132541 -13.792313,-4.397951 -9.831238,-0.555496 -23.997997,7.535769 -31.415142,13.799937 -8.211986,6.9354487 -11.932198,18.4099772 -19.056003,26.80534 -2.642105,3.113681 -6.470339,6.688677 -6.563887,10.822836 -0.0723,3.194814 3.690804,8.421322 7.08887,6.338342 3.218698,-1.972999 4.289909,-5.284683 6.270636,-7.88447 4.197025,3.010009 7.383014,8.647736 4.597414,13.915062 -2.213125,-1.780601 -4.893852,-3.761048 -7.487364,-1.840783 -5.223189,3.867314 -0.551487,7.772534 -3.897428,12.490007 -1.579738,2.227316 -4.1453,2.587516 -6.028768,4.362187 -4.640849,4.37274 -6.556135,8.133965 -9.404756,10.499536 -1.694653,-5.771359 -3.930218,-10.800094 -7.474955,-17.780364 -1.480502,-2.915375 -3.50028,-7.821559 -7.091243,-8.081309 -5.979303,-0.432542 -4.667323,8.135309 -5.815372,11.173572 -1.77372,4.694004 -6.5443901,6.697718 -11.03417229,8.503625 2.89014739,5.375439 3.82357819,6.186436 1.53247729,11.595886 3.6231188,1.049839 7.746565,1.058886 9.833981,-2.492758 2.632034,-4.478291 1.036155,-6.527009 5.490772,-9.876183 1.293985,4.798386 -0.112078,7.605885 -3.831187,10.822834 m -34.480681,-79.62509 -1.532475,1.5461186 m 3.831186,-1.5461186 -0.766237,0.773062 M 194.01334,179.98487 c 0.97754,-2.46563 -0.2511,-1.14071 -1.53248,0 -3.7828,-3.78191 -8.33469,-4.84375 -12.11555,-8.06524 -2.53039,-2.15599 -3.04824,-5.55983 -5.13129,-7.95725 -1.45302,-1.67234 -3.61642,-2.35133 -4.86999,-4.25 -4.34918,-6.58741 -7.6119,-13.31212 -12.84927,-19.84544 -3.55264,-4.43173 -7.56346,-5.71768 -9.4757,-10.90394 4.33891,-1.24227 8.58235,1.89577 12.25983,5.44182 6.12598,5.90708 10.94145,13.40034 16.9991,19.033 3.36403,3.12801 8.91616,2.14176 11.24466,5.78898 2.28595,3.58057 2.58159,20.53936 9.31369,18.82839 2.79503,-0.71033 5.22879,-3.90499 7.65054,-5.44181 10.11989,-6.42199 17.65544,-14.37137 24.68102,-24.32392 3.1955,-4.52683 6.39104,-12.11554 3.10102,-16.92379 -1.42448,-2.08187 -7.08364,-6.71009 -9.52241,-6.9629 -4.50365,-0.4669 -8.71232,3.67287 -13.66218,2.61385 -5.16289,-1.10463 -10.27977,-4.48124 -13.04852,-8.87705 -0.9319,-1.47961 -2.46225,-4.06111 -0.96725,-5.68404 1.5541,-1.68711 4.14227,-0.20628 5.58716,0.77785 3.34649,2.27901 6.91172,7.0171 11.49356,6.91516 3.52837,-0.0786 5.49361,-3.13626 9.19487,-2.49396 4.9723,0.86286 6.30206,5.21664 11.49355,4.95631 4.65699,-0.23346 11.23277,-5.56589 15.88109,-3.93272 3.63214,1.27615 8.14092,7.22708 11.70347,9.49685 2.67476,1.70416 8.09052,1.52944 9.82451,4.12596 1.81954,2.72464 1.61639,6.72857 2.76105,9.80401 2.49504,6.70351 6.50364,14.2021 8.71182,20.87259 0.7342,2.21794 1.51559,8.29209 4.75409,8.23643 4.90713,-0.0842 1.80486,-12.1832 1.60163,-15.19397 -0.34484,-5.10946 0.52909,-8.6106 2.33894,-13.14199 3.06612,-7.67665 3.72587,-14.29303 5.19579,-22.41871 0.40715,-2.25066 0.69742,-5.86673 3.29318,-6.24532 4.85794,-0.70857 9.00389,11.34967 10.89522,14.74898 1.93699,3.48137 5.20338,6.25265 6.22683,10.04975 1.19256,4.42461 0.0957,9.71222 0.6628,13.91508 0.45615,3.38109 0.88878,5.70005 1.70097,9.27669 1.16987,5.15182 3.971,8.21337 2.83969,12.3427 -0.60657,2.21381 -2.76313,3.15672 -4.87117,3.89153 1.79707,4.21404 2.6016,9.47983 3.19446,15.46117 0.48276,4.87109 0.55258,8.087 0.64025,13.91506 0.0438,2.89654 0.53624,4.38327 1.10736,7.73062 0.34345,2.01262 0.42213,3.22999 0.0636,5.4114 -1.12065,6.8124 -3.83492,14.26188 -6.02702,20.87259 -2.0483,6.17715 -4.60555,11.93739 -7.08419,17.78037 -6.56647,15.47943 -15.89772,30.77748 -26.37782,44.06439 -28.97558,36.73609 -67.7524,63.50906 -111.86776,77.28623 -7.91083,2.47053 -16.15316,4.1528 -24.51957,5.73171 -6.38318,1.20461 -13.05321,1.84442 -19.15598,2.57089 -2.44208,0.29068 -4.29869,0.13603 -6.89613,0.25125 -3.53789,0.15664 -5.36701,0.72343 -9.19485,0.742 -6.29251,0.0306 -9.09443,-0.50027 -14.558515,-0.742 -2.407581,-0.10667 -3.92301,0.0504 -6.129904,-0.16173 -6.70687,-0.64396 -15.170502,-1.70179 -22.220876,-3.11549 -7.201844,-1.44417 -15.486403,-2.92794 -22.220904,-5.4335 -4.411213,-1.64122 -11.386383,-4.32453 -15.324154,-6.73204 -2.87265,-1.75633 -3.476487,-2.36467 -6.349256,-4.35448 -3.521438,-2.43904 -8.393901,-5.31661 -12.041038,-7.80869 -6.5570547,-4.48051 -14.7638201,-10.59733 -19.0725834,-17.26201 -3.9483766,-6.10723 -0.8741921,-9.14719 -3.5562556,-15.46118 -2.624307,-6.17801 -9.443373,-11.62097 -11.905072,-17.78034 -2.956532,-7.39748 -1.042925,-13.67502 -6.984821,-20.02977 -4.438288,-4.74667 -11.872511,-8.78194 -18.247813,-9.13473 -4.033526,-0.22324 -5.630806,0.16921 -9.194852,-1.82711 -2.891098,-1.61934 -5.501927,-2.07468 -8.39787,-3.86228 -4.147108,-2.55991 -5.662617,-6.87776 -8.815284,-10.75664 -4.681021,-5.75917 -10.510232,-10.97818 -15.765219,-16.2008 -2.480817,-2.46557 -6.178708,-3.92644 -7.840931,-5.83018 -1.16758,-1.3372 -1.400163,-2.75148 -1.872433,-4.2536 -0.746056,-2.37294 -1.964179,-5.93468 -2.730909,-8.50309 -4.29894,-14.40054 -7.10582,-29.33028 -8.27962,-44.06434 -0.19311,-2.42414 -0.62683,-4.38144 -0.68937,-6.95754 -0.088,-3.62246 -0.0113,-5.64287 -0.0113,-9.27669 0,-6.2355 -0.20482,-10.04785 0.0301,-15.46118 0.44826,-10.3284 2.81852,-31.99415 6.86598,-38.65297 l 2.29872,3.09226 c 2.136639,-3.73785 2.116798,-6.75045 3.831179,-10.82283 1.03701,1.01631 2.544324,3.48514 5.131309,1.16555 2.455763,-2.20194 2.447813,-9.30084 3.144769,-12.761448 2.03988,-10.128707 7.963272,-22.418256 2.451252,-30.149303 5.440687,-6.017816 11.250555,-19.290287 17.006215,-27.830119 3.157717,-4.685197 7.586085,-10.226326 11.283091,-14.688127 9.19156,-11.093113 23.059648,-28.9289611 36.840719,-34.0145231 M 75.246578,35.42293 c -3.00355,-0.490374 -6.053299,-1.992934 -4.859926,-6.184456 0.884179,-3.10555 3.680221,-4.476809 3.938177,-7.730602 0.260687,-3.287954 -3.40735,-6.113413 -3.129956,-9.276709 0.555723,-6.3367808 7.889699,-15.4499506 13.246582,-13.9150637 -1.307539,2.8260739 -8.499259,14.6203197 -1.977694,18.4985437 2.798436,1.664173 6.407093,-1.391544 8.873811,-2.689004 2.929479,-1.54088 4.530036,-1.509079 7.662392,-2.667533 m -3.064888,1.546115 c -2.116186,4.005339 -8.578705,7.318535 -11.92814,13.9956 -1.845101,3.678193 -0.177819,8.305511 -3.571636,10.9445 -4.615561,3.588959 -11.396784,4.567584 -16.68222,6.755311 0.08126,-4.484573 2.948804,-6.469064 6.896129,-8.503623 m 124.130531,34.01457 c 2.18772,3.488761 6.23128,6.914008 4.86761,10.708338 -1.2174,3.387418 -6.53163,3.344186 -10.2165,1.859844 -5.13636,-2.068985 -7.00688,-13.137659 -11.35877,-17.343122 -1.74361,-1.684941 -5.53833,-2.785023 -6.0832,-5.386372 -1.40125,-6.689827 7.83517,-13.771477 13.55045,-11.355498 6.57483,2.77933 -4.42896,6.059602 -3.11459,10.582458 1.02022,3.510708 7.06047,5.607775 10.05629,7.84214 l 3.06493,-3.092226 c 1.17882,3.059847 0.11007,4.550107 -3.06493,3.092226 m -62.06526,-3.865317 -1.53249,3.865317 c 5.00479,1.825216 6.85061,-1.496554 12.25981,-1.522877 6.09655,-0.02977 13.69878,1.563219 19.15596,4.615089 -3.99239,5.129286 -14.2814,6.378905 -21.45467,6.996894 -3.25244,0.280215 -5.39787,1.818985 -8.42861,3.148914 -2.90103,1.272964 -7.67247,3.896664 -10.39803,1.725698 -3.51529,-2.80005 -2.08802,-8.559083 -0.56048,-11.790945 2.2421,-4.743706 7.4087,-7.448294 10.95851,-7.03809 m -214.546561,2.319173 -0.766237,3.092274 M 30.804865,65.572223 c -0.878501,2.827488 -1.556642,4.933322 -4.612204,7.426407 -2.722563,2.221348 -10.094984,3.790296 -11.098045,7.250411 -1.125988,3.884238 14.232911,4.055724 9.842258,11.573798 -3.154356,5.401209 -11.283779,6.648882 -15.5529676,10.898601 -2.1193382,2.10965 -3.9987796,4.58299 -4.3071201,7.68823 -0.2547916,2.56602 -0.4033912,9.70591 0.6237389,12.28781 2.8010999,7.04121 17.0419588,7.52224 22.0275538,3.62253 4.781644,-3.74015 3.379716,-7.59697 4.746423,-12.04505 1.068709,-3.47826 4.093741,-5.34778 5.988591,-8.50363 1.760062,-2.93135 1.65167,-7.262307 4.226139,-9.583941 2.873659,-2.591449 7.113197,-2.051094 10.336516,-4.459383 1.410838,-1.05411 2.724569,-2.475545 4.582647,-2.472466 3.576204,0.0063 3.506624,3.075515 2.313495,5.692958 5.472545,3.382242 18.454493,3.610255 22.987127,6.184472 L 85.97397,95.721527 C 82.116263,92.523248 73.74659,90.74727 69.449027,85.528604 68.055825,83.836841 66.620109,80.18862 68.812862,78.584203 c 2.964109,-2.16883 5.936421,4.888671 8.010607,6.099192 3.305374,1.929058 6.668734,1.974 9.904901,3.809193 4.877267,2.765899 9.039497,9.050511 12.679609,13.270882 1.316701,1.52657 5.466201,5.32422 7.474941,3.88319 3.06375,-2.19787 -5.86589,-8.872341 -4.13567,-12.141092 1.67764,-3.169432 6.07558,-3.623798 9.2451,-2.30725 3.77061,1.566209 6.34621,9.572432 10.76163,11.035182 3.91486,1.29692 7.54131,-2.305857 11.49295,-2.405076 2.43195,-0.06107 3.87862,0.793866 5.91115,-0.626317 2.06457,-1.44258 6.82123,-6.729932 8.95128,-1.819928 1.23171,2.839201 0.46737,6.773171 0.46235,9.935251 -0.005,3.21319 0.48199,6.26081 -1.92623,9.10014 -3.03893,3.58294 -8.14901,2.69883 -12.63228,3.77464 -3.95318,0.94859 -6.7362,2.54769 -10.72736,3.94402 -5.5226,1.93214 -11.5587,-2.21864 -16.84538,-0.88461 -4.68895,1.18323 -4.23731,6.23897 -7.846279,8.79355 -3.990069,2.82437 -9.127543,0.22324 -13.620211,-0.96812 -4.146554,-1.09965 -13.418515,-1.40888 -17.476856,-4.38484 -4.538497,-3.32803 1.475527,-12.31809 -7.808973,-10.6379 -5.325428,0.96372 -14.361892,2.84982 -19.155951,5.59038 -6.97983,3.99008 -18.925457,14.96999 -26.052075,11.18368 -2.68758,7.07147 -9.553797,12.88754 -10.8550438,20.09956 -0.5806273,3.21806 1.2306979,6.27559 -0.8732541,9.2767 -4.25606784,6.07087 -7.3093961,10.84669 -9.6660575,17.78034 -3.4072873,10.02477 -0.334982,14.86547 1.5224225,24.7379 1.0816362,5.74907 -1.4114764,14.92396 0.9217264,20.06611 1.841034,4.05751 7.0457525,5.03008 10.5103513,7.60058 7.6103352,5.64627 11.2718752,12.02003 20.6996562,15.44749 3.666796,1.33303 7.357284,-1.54196 10.727323,-2.44685 3.229999,-0.8673 9.496936,0.0264 12.259795,-1.23294 6.053184,-2.75865 10.677358,-10.43514 17.620531,-11.68301 3.73059,-0.67051 4.477607,3.38997 7.74514,3.60406 4.978647,0.32617 6.881451,-3.12129 11.005775,1.92845 4.480973,5.48635 2.246259,10.1894 5.839623,16.15849 1.978884,3.2872 6.170805,5.04113 9.126847,7.39118 4.27529,3.39881 7.78688,7.98279 10.46838,12.74176 4.96126,8.80492 1.69897,17.40339 4.68377,27.05706 2.02238,6.54098 8.6943,11.86735 11.92281,17.78034 2.03293,3.72337 3.369,9.10668 6.3616,12.05761 2.18374,2.15326 5.01088,2.0272 6.92575,4.96525 1.65478,2.53901 3.67693,8.17015 7.0262,8.35926 2.95335,0.16683 4.85514,-2.94958 7.78059,-4.08002 3.11586,-1.20398 5.67631,-1.48432 8.39791,-3.40839 3.99224,-2.82232 6.59498,-8.12129 8.62671,-12.48227 1.36769,-2.93572 2.11627,-5.47537 2.85799,-8.50365 1.04474,-4.26558 3.6397,-7.85076 4.38749,-12.36893 0.66575,-4.02213 -0.53566,-7.64729 0.78817,-11.59588 2.26681,-6.76146 9.31142,-7.99891 12.2438,-13.9264 1.03166,-2.08541 0.98021,-3.92236 1.0069,-6.17317 0.047,-3.96455 0.10955,-5.91857 -0.80823,-9.2767 -1.07901,-3.94834 -4.81399,-7.30881 -5.23831,-11.59589 -0.22907,-2.31403 -0.15902,-3.93398 -0.0498,-6.18446 0.13843,-2.85022 0.87795,-5.19965 2.01431,-7.73061 6.88657,-15.33757 23.5243,-28.9048 25.75587,-45.61049 0.52349,-3.91871 2.66112,-8.72342 1.8086,-12.25444 -0.70898,-2.93644 -4.04156,-2.41924 -6.61118,-1.4572 -6.9374,2.59726 -13.7529,14.2758 -18.40092,2.88883 M 15.479963,67.891307 c 5.38657,2.85523 10.535552,-0.278445 14.558512,-0.773054 M -87.96213,68.664372 c -3.720888,9.016752 -11.729182,22.271357 -11.89738,31.695418 -0.04973,2.78629 2.016591,5.15674 2.702529,7.7306 m 289.637841,-39.426018 0.76625,0.773054 M 334.32937,201.63053 c -1.67065,2.88623 -4.3517,6.72797 -6.93518,7.46335 -5.21253,1.4838 -0.94319,-15.71787 -0.8632,-19.83231 0.0766,-3.94957 -0.37459,-4.63958 -1.05004,-7.73057 -0.45127,-2.06498 -1.12572,-4.69041 -1.97355,-6.95754 M -93.325796,93.402254 -97.156981,104.99814 M 83.675115,99.58673 c 2.26068,4.37016 -0.289821,6.89107 -3.831203,10.04977 l 2.298726,3.8653 c -5.68054,1.57197 -8.848907,-0.61755 -13.026059,-3.8653 2.79905,-0.95753 5.943717,-2.36971 9.961108,0 m 3.831189,-8.50364 c -0.877331,2.09089 -2.521438,3.19274 -1.532476,6.95753 m -182.36456,-4.63836 -3.06496,13.14199 m 183.130807,-10.8228 -1.532476,1.5461 m 243.663589,6.95753 -0.76625,3.86532 m 4.59742,7.73056 -1.53246,4.63835 -1.53248,-3.86526 m 1.53248,3.86526 c 0.69917,5.75782 2.30255,9.26098 3.16071,16.23427 0.74354,6.04118 2.04523,11.74763 2.19172,17.78035 0.17578,7.2441 0.0389,16.47539 -2.28749,20.87258 m -0.76624,-54.8872 -0.76624,3.86531 m -6.89613,13.14202 c 3.89558,1.93739 4.28405,4.07266 6.1299,6.9575 1.39001,-2.54131 1.25961,-2.45786 1.53247,-4.63833 m -1.53247,4.63833 v 4.63836 m -3.06494,13.14199 v 1.54615 0.77305 m 3.06494,35.56072 -1.53245,3.09222 m -419.898271,31.69544 c 1.4114,5.20624 2.960011,8.24975 5.691206,14.68812 4.00011,9.42965 9.243969,18.42091 14.680897,27.05707 18.257497,29.00063 44.200772,55.54187 73.8751351,72.13013 6.6792394,3.73374 19.6918869,14.23893 27.5845559,12.90637 M 218.74281,262.96943 c 2.78201,-0.99706 3.418,4.25784 3.01117,5.91725 -2.2632,9.23154 -5.91184,19.74783 -8.2737,28.60259 -0.6633,2.48662 -1.60038,4.56168 -4.15638,5.47939 -4.36958,1.56885 -6.25208,-2.5234 -5.97087,-6.25187 0.16616,-2.20361 0.76146,-3.96767 1.38763,-6.18447 1.13866,-4.0311 0.89602,-7.44095 1.39295,-11.59588 0.60047,-5.02059 4.38576,-6.68991 7.66059,-10.13032 1.61562,-1.69729 2.7891,-5.06272 4.94861,-5.83669 m -192.535523,108.7341 -0.766238,1.54612 m 1.532476,0.77304 1.532491,-0.77304"
       id="path1"
       sodipodi:nodetypes="ccccsssscssssssssssssscccccccccscccccccccsssssscsssssccccccssssssccssscsssccsccccccccsssscssssssssssscsssssssssssssssssscscscsssssscsscssssssssssssssssssssscccsscssccssscssccsscccsssssscccccccssssccccsssssssssssscccsssssssssssscssssssssscsssssssscsssssssssssssssssssssccsssccccsccccsssccccccccccccccccccccssccccccccccccccsssccsssssssccccc" /></g></svg>
