<?xml version="1.0" encoding="UTF-8" standalone="no"?>
<!-- Created with Inkscape (http://www.inkscape.org/) -->

<svg
   width="210mm"
   height="297mm"
   viewBox="0 0 210 297"
   version="1.1"
   id="svg1"
   xml:space="preserve"
   inkscape:version="1.4.2 (ebf0e94, 2025-05-08)"
   sodipodi:docname="gg_face.svg"
   xmlns:inkscape="http://www.inkscape.org/namespaces/inkscape"
   xmlns:sodipodi="http://sodipodi.sourceforge.net/DTD/sodipodi-0.dtd"
   xmlns="http://www.w3.org/2000/svg"
   xmlns:svg="http://www.w3.org/2000/svg"><sodipodi:namedview
     id="namedview1"
     pagecolor="#505050"
     bordercolor="#eeeeee"
     borderopacity="1"
     inkscape:showpageshadow="0"
     inkscape:pageopacity="0"
     inkscape:pagecheckerboard="0"
     inkscape:deskcolor="#505050"
     inkscape:document-units="mm"
     inkscape:zoom="0.72945683"
     inkscape:cx="395.49976"
     inkscape:cy="1003.4864"
     inkscape:window-width="2560"
     inkscape:window-height="1403"
     inkscape:window-x="2560"
     inkscape:window-y="0"
     inkscape:window-maximized="1"
     inkscape:current-layer="layer1" /><defs
     id="defs1" /><g
     inkscape:label="Layer 1"
     inkscape:groupmode="layer"
     id="layer1"><path
       style="fill:#000000;stroke-width:0.972151"
       d="m 33.540064,244.04398 c 0.326136,0.50641 -0.30202,-0.46897 0,0 z m 48.397286,33.41099 c -9.177248,-0.80157 -17.401566,-3.16715 -21.694429,-6.24001 -4.332866,-3.10151 -7.775839,-8.20711 -7.74213,-11.48087 0.01379,-1.27652 1.041411,-5.07428 1.303074,-4.81264 0.05899,0.059 -0.125643,1.07919 -0.410467,2.26706 -0.678182,2.82898 -0.661756,3.14819 0.262476,5.10187 2.108135,4.45622 5.993579,8.20629 10.725621,10.35189 0.941959,0.4271 3.222861,1.16618 5.068674,1.6424 9.275842,2.3931 19.209427,2.94465 27.534256,1.52877 4.381655,-0.74522 8.073245,-3.15168 11.250655,-7.33404 1.68143,-2.21324 3.53731,-6.0367 3.56632,-7.34731 0.0119,-0.55671 -0.31508,-4.81648 -0.72755,-9.46623 l -0.74996,-8.45403 0.72385,-3.76367 c 0.77649,-4.03736 0.92794,-7.30051 0.44367,-9.55862 -0.44398,-2.07024 -0.97478,-2.55795 -7.04775,-6.47571 -0.99029,-0.63884 -2.99387,-2.21888 -4.452395,-3.51123 -1.458528,-1.29234 -2.94059,-2.42217 -3.293432,-2.51074 -1.242737,-0.3119 -3.072999,0.0928 -5.34978,1.18317 -1.930311,0.92435 -2.539944,1.09717 -3.858217,1.09375 -1.646923,-0.003 -2.375176,-0.24016 -6.541589,-2.1186 -3.595223,-1.6209 -3.874827,-1.61786 -6.756445,0.0732 -1.327942,0.77936 -2.819564,1.59187 -3.314698,1.8056 -0.49515,0.21375 -2.355917,1.01652 -4.135034,1.78393 -5.116432,2.20694 -7.356272,3.95632 -8.609382,6.72421 -1.302846,2.87769 -1.401425,6.28469 -0.356504,12.32331 l 0.498887,2.88323 -1.604558,4.37265 c -0.882511,2.40496 -1.639875,4.18991 -1.683037,3.96654 -0.04306,-0.22335 0.545742,-2.19318 1.308699,-4.3774 l 1.387144,-3.97131 -0.472964,-2.31018 c -1.277993,-6.24237 -1.196574,-10.24595 0.272557,-13.40216 1.473237,-3.16499 3.455903,-4.70291 9.535958,-7.39686 2.192757,-0.97156 5.181304,-2.46192 6.641226,-3.31192 2.526416,-1.47094 2.718641,-1.53882 3.986828,-1.40785 0.829973,0.0859 2.593417,0.69824 4.676241,1.62427 4.593841,2.04241 5.414405,2.09389 8.640316,0.54191 2.711271,-1.30438 4.285692,-1.63928 5.795394,-1.23277 1.156998,0.31156 1.904495,0.85192 5.129485,3.70812 1.24832,1.10554 3.44478,2.70874 4.88107,3.56264 5.35364,3.18288 6.09883,4.35222 6.11963,9.60294 0.009,2.37702 -0.15153,3.90932 -0.7002,6.66553 l -0.71237,3.57898 0.55772,7.8671 c 0.30675,4.3269 0.67499,8.009 0.81833,8.18246 0.14326,0.17345 0.21901,0.83834 0.16817,1.4775 l -0.0924,1.16215 3.68949,-3.66384 c 7.62905,-7.57604 11.37195,-13.00252 13.26059,-19.22533 1.27998,-4.21742 2.75262,-12.10297 4.65611,-24.93233 0.49182,-3.31485 1.01921,-6.15063 1.172,-6.30175 0.19865,-0.19652 0.23676,0.0915 0.13375,1.01132 -0.0793,0.70734 -0.38334,3.54313 -0.67582,6.30176 -0.79226,7.47176 -2.45389,18.115 -3.22061,20.62903 -0.20104,0.65916 3.78576,-1.2054 5.15564,-2.41123 2.24915,-1.97977 3.96035,-6.69585 5.02362,-13.84515 0.90601,-6.09171 1.06906,-8.65611 1.20208,-18.9053 l 0.1303,-10.03138 -1.56107,-0.99028 c -1.56679,-0.99389 -3.10749,-1.30385 -3.67253,-0.73879 -0.39394,0.39392 -0.72759,2.16253 -0.57157,3.02972 0.12107,0.67304 -1.34737,13.98463 -1.568,14.21388 -0.14433,0.14984 -0.3851,-1.8313 -1.01049,-8.31252 -0.85094,-8.81889 -0.98981,-10.88216 -0.70113,-10.4172 0.13175,0.21221 0.48575,3.22162 0.78666,6.68758 0.88281,10.16785 0.86418,10.09775 1.1968,4.50126 0.15975,-2.68789 0.23639,-5.69731 0.17034,-6.68758 -0.14417,-2.16102 0.31762,-3.49598 1.44691,-4.18276 l 0.76362,-0.46438 -2.94282,-1.11903 c -1.61857,-0.61547 -2.9903,-1.07158 -3.04828,-1.0136 -0.058,0.058 -0.23037,1.54929 -0.38304,3.31401 -0.32593,3.76713 -1.06497,7.58762 -1.72618,8.92328 -1.2438,2.51249 -7.40534,3.61467 -18.60302,3.32771 -8.51927,-0.2183 -12.03092,-0.8126 -13.599231,-2.30144 -1.261062,-1.19716 -2.562468,-3.31876 -3.408498,-5.5567 -0.497953,-1.31718 -0.701072,-1.66196 -0.621982,-1.05569 0.06466,0.49513 0.191613,1.5906 0.28227,2.43437 0.234697,2.18449 1.051663,4.70373 1.97041,6.076 0.434414,0.64885 1.649359,1.80633 2.699886,2.57214 2.896785,2.11171 3.931835,3.73146 3.931835,6.15288 0,1.53681 -0.66076,2.98634 -1.79721,3.9426 -1.41534,1.19091 -2.778639,1.2965 -5.660332,0.4384 -1.549478,-0.46137 -2.381503,-0.31767 -3.865788,0.66778 -3.649154,2.4227 -5.175496,2.44818 -8.545612,0.14265 -2.012269,-1.37658 -2.686987,-1.5926 -6.081313,-1.9469 -3.927471,-0.40993 -4.872816,-0.84244 -5.56085,-2.54415 -0.680036,-1.68194 -0.591491,-4.03285 0.202751,-5.38341 0.667457,-1.13495 1.392691,-1.74698 4.298148,-3.62712 1.978837,-1.28054 2.599731,-2.26092 3.184205,-5.02786 0.503485,-2.38339 1.097474,-7.2315 1.307242,-10.66943 0.140806,-2.30773 0.115369,-2.52051 -0.29206,-2.44205 -0.352353,0.0679 -0.5673,0.72615 -1.020989,3.12695 -0.666292,3.52577 -1.879353,7.38495 -2.982479,9.48832 -0.976081,1.86112 -3.131467,3.92977 -4.465462,4.28577 -2.460639,0.65667 -7.281026,1.05818 -12.652885,1.05388 -11.769622,-0.009 -14.39114,-0.83625 -16.485914,-5.19978 -1.303534,-2.71535 -1.806098,-4.62044 -2.002814,-7.59222 -0.139579,-2.10851 -0.212939,-2.37923 -0.644964,-2.37923 -1.825007,0 -13.932976,-3.64614 -15.024812,-4.52452 -0.448648,-0.36093 -0.385769,-0.37921 0.778814,-0.22648 0.696783,0.0914 3.358963,0.74903 5.915945,1.46139 6.793308,1.89262 8.505195,2.24494 11.079445,2.28026 3.966143,0.0545 4.670157,0.61251 1.125496,0.89225 -3.20354,0.2528 -2.979583,0.0682 -2.768099,2.28229 0.300657,3.14748 1.694283,7.09093 3.206834,9.07395 0.819953,1.07503 2.629392,2.00519 4.619276,2.37458 2.499112,0.46394 11.168723,0.63569 15.165358,0.30045 7.365953,-0.61787 8.655728,-1.05389 10.258142,-3.46807 1.614243,-2.43195 3.413907,-7.71302 3.914572,-11.48718 l 0.173287,-1.30644 -2.285911,0.16003 c -2.63595,0.18451 -2.519859,-0.0686 0.40302,-0.87853 1.037061,-0.28739 1.952437,-0.58938 2.034131,-0.67109 0.28463,-0.28463 -1.083745,-2.46429 -1.999887,-3.18565 -3.113633,-2.45157 -8.311836,-3.747 -16.226994,-4.04393 -4.750765,-0.1782 -9.503446,0.16049 -13.503772,0.96236 -3.2285,0.64713 -4.164713,1.10293 -5.139506,2.50211 -0.714785,1.02599 -0.783457,1.31708 -0.864845,3.66531 -0.05071,1.46088 -0.197742,2.55083 -0.344292,2.55083 -0.159284,0 -0.223007,-1.05174 -0.168799,-2.7865 0.08059,-2.57831 0.145402,-2.88096 0.868537,-4.05113 0.657652,-1.0643 1.024406,-1.36153 2.314931,-1.87614 3.824526,-1.52509 9.8683,-2.21755 17.45386,-1.99981 2.985651,0.0856 5.83356,0.2134 6.328694,0.2838 0.495149,0.0704 0.177792,-0.0389 -0.705224,-0.2431 -0.883032,-0.20407 -2.799478,-0.71886 -4.258787,-1.14395 -7.291001,-2.12392 -9.824971,-2.07751 -15.031417,0.27524 -2.870585,1.29721 -4.182776,1.7735 -4.182776,1.51828 0,-0.38978 4.670449,-3.06443 6.860463,-3.92886 2.833752,-1.11849 5.888764,-1.10759 10.115728,0.0361 10.529782,2.84906 9.528619,2.66368 13.568092,2.51233 2.015914,-0.0756 3.665305,-0.0369 3.665305,0.0855 0,0.46347 -3.978417,1.15828 -6.499286,1.1351 l -2.512488,-0.0231 2.378331,0.6012 c 4.702088,1.18861 7.928719,3.33084 8.75627,5.81347 0.590819,1.77246 1.108154,1.42836 1.009957,-0.67178 -0.05638,-1.20511 0.0046,-1.70876 0.1929,-1.59241 0.151378,0.0936 0.275329,0.79994 0.275329,1.56967 0,0.76972 0.05378,1.3995 0.119655,1.3995 0.06589,0 0.905034,-0.43406 1.864812,-0.96456 1.592149,-0.88004 1.914088,-0.96338 3.67416,-0.95116 1.657971,0.0105 2.224182,0.14709 4.028518,0.96456 1.154655,0.52313 2.179978,0.95116 2.278512,0.95116 0.09851,0 0.10342,-0.30157 0.01068,-0.67012 -0.176796,-0.70444 0.0786,-3.05038 0.30729,-2.82177 0.07309,0.0731 0.435335,-0.0794 0.804953,-0.33886 1.789,-1.25574 5.943004,-2.33853 8.982454,-2.34138 0.67317,-6.2e-4 1.04593,-0.10208 0.94936,-0.25825 -0.0873,-0.14141 -0.52829,-0.25736 -0.97972,-0.25755 -0.45143,-1.8e-4 -2.01968,-0.29079 -3.484996,-0.64579 -4.636419,-1.12325 -4.327612,-1.5203 0.575806,-0.74036 4.06023,0.64583 6.20879,0.42532 10.96234,-1.12503 5.60364,-1.82766 6.71205,-2.0164 8.75999,-1.49174 1.70689,0.43729 3.24885,1.31076 5.001,2.83293 1.40489,1.22046 0.8652,1.13627 -1.55421,-0.2425 -1.1153,-0.63558 -2.42465,-1.28657 -2.90966,-1.44663 -1.52591,-0.5036 -4.0149,-0.11711 -8.37882,1.30086 -2.25355,0.73228 -4.73728,1.41149 -5.51938,1.50932 -0.78212,0.0977 1.98767,0.18941 6.15509,0.20348 8.28761,0.0281 11.45588,0.30942 14.3246,1.27241 3.67452,1.23349 4.65122,2.42061 5.23811,6.36643 0.25263,1.69862 0.34796,1.91725 0.83733,1.92049 0.6265,0.003 6.2953,2.21066 8.33537,3.24443 1.45309,0.73637 1.80164,1.30137 0.64067,1.03856 -0.65067,-0.14725 -0.61462,-0.0765 0.45013,0.88437 0.6366,0.57449 1.22095,1.04946 1.29856,1.05548 0.0776,0.007 0.33336,-4.18485 0.56833,-9.31307 0.23498,-5.12823 0.7978,-17.38689 1.25069,-27.24147 l 0.82344,-17.91742 -1.35306,-3.94586 c -4.61428,-13.45591 -9.53263,-22.76247 -15.78869,-29.87526 -1.7724,-2.015132 -4.62968,-3.828197 -9.43436,-5.986511 C 113.0896,92.888977 107.68599,91.560652 97.627102,90.494413 88.289848,89.5047 84.304967,88.77742 79.111451,87.1152 77.179133,86.496734 76.21629,86.334653 74.481575,86.335747 c -3.829997,0.0026 -6.264451,0.755714 -12.722017,3.936378 -5.150904,2.537061 -7.824562,3.630244 -10.535832,4.307792 -1.432037,0.357844 -4.526687,1.891296 -6.003524,2.974825 -0.03493,0.02558 2.048457,-0.0026 4.629877,-0.06278 3.229525,-0.07517 5.887187,0.01859 8.52064,0.300793 4.805355,0.515098 8.792429,0.517037 10.962693,0.0066 4.59191,-1.082698 6.424225,-0.716216 11.83189,2.366535 8.951361,5.10293 12.93589,6.45392 29.927308,10.14714 7.5276,1.63619 8.82196,2.03035 11.3557,3.45802 2.73086,1.53876 4.29824,3.02195 9.47823,8.96909 l 5.08038,5.83279 2.83342,7.77213 c 2.59311,7.11298 2.82711,7.90301 2.75895,9.31541 -0.0409,0.84881 0.009,1.6781 0.11329,1.84284 0.10326,0.16476 0.089,0.33838 -0.0319,0.38583 -0.22777,0.0897 -0.77804,25.78655 -0.62977,29.40878 0.0617,1.5045 0.0119,1.94026 -0.18328,1.62083 -0.54409,-0.88836 -0.75817,-5.78147 -0.76463,-17.47637 l -0.008,-11.99734 -1.57607,-0.27761 c -3.49779,-0.61612 -4.96667,-2.08346 -7.05054,-7.04319 -2.32324,-5.52934 -3.47461,-7.35826 -5.46043,-8.67359 -2.3538,-1.55913 -4.9465,-2.05221 -17.5504,-3.33778 -14.277592,-1.45639 -18.412719,-2.58856 -27.397006,-7.50119 -10.978138,-6.00291 -12.703017,-6.80217 -16.84228,-7.80443 -9.719926,-2.35358 -18.358142,-0.68504 -23.840132,4.60485 l -1.8828,1.81682 v 2.52559 2.52562 l 2.497427,-2.22782 c 1.936946,-1.72783 3.07703,-2.50839 5.079996,-3.47804 3.778546,-1.82921 5.248428,-2.16363 9.527363,-2.16764 3.152871,-0.003 3.920378,0.0853 6.167143,0.70957 3.073827,0.85397 6.141863,2.07211 11.323503,4.49588 4.162613,1.94714 5.126437,2.21171 9.645538,2.64783 2.996868,0.28921 3.308907,0.35861 3.000283,0.66725 -0.293408,0.29341 -7.174863,0.18277 -8.481935,-0.13637 -0.680695,-0.16621 -3.516485,-1.27805 -6.30176,-2.47079 -8.5507,-3.6616 -12.535566,-4.70342 -16.896059,-4.41728 -4.587298,0.30102 -8.201122,1.75111 -12.664023,5.0816 l -2.889876,2.1566 -0.0046,2.4307 c -0.0061,4.62845 -1.041671,0.97261 -1.516228,-5.35857 -0.141266,-1.88569 -0.307153,-3.4787 -0.368455,-3.54003 -0.159085,-0.15906 -3.931747,5.7212 -5.689981,8.86868 -3.633604,6.50468 -6.294712,13.49076 -7.903453,20.74857 -0.523847,2.36333 -0.566519,3.17779 -0.525656,10.03139 0.04673,7.83008 -0.123189,8.68978 -0.832378,4.21292 -0.701609,-4.42885 -0.954983,-8.77227 -0.672405,-11.52597 0.875386,-8.53026 4.637461,-18.44983 10.062624,-26.53231 1.687586,-2.51419 4.434205,-5.99524 5.107453,-6.47318 0.385615,-0.27375 0.478448,-0.92352 0.625797,-4.38055 0.155561,-3.65006 0.493907,-7.1374 0.828992,-8.54443 0.107245,-0.45036 0.06756,-0.43919 -0.31869,0.0897 -0.242648,0.33228 -1.994786,2.70509 -3.893626,5.27292 -10.464067,14.15068 -14.051521,21.21971 -16.232219,31.98557 -1.398499,6.90414 -1.85424,11.76951 -1.856815,19.82258 -9.65e-4,3.29174 -0.0996,5.92456 -0.219145,5.85071 -0.608774,-0.37624 -0.905815,-4.1175 -0.888655,-11.19267 0.01533,-6.22402 0.104028,-7.89363 0.589516,-11.06024 0.68071,-4.44037 1.782671,-9.072 3.016247,-12.67747 2.670042,-7.8039 8.854775,-17.18902 18.825866,-28.56767 0.812859,-0.92759 1.485234,-2.01359 1.751755,-2.82936 0.237913,-0.72817 0.593482,-1.64224 0.790151,-2.03129 0.196668,-0.38903 0.285519,-0.70734 0.197434,-0.70734 -0.410298,0 -5.755971,4.65882 -8.538932,7.4418 -9.282767,9.28276 -16.647588,21.60284 -18.966013,31.72685 -2.426078,10.59413 -1.542208,28.79435 1.950843,40.17059 l 0.822634,2.67918 0.928829,-0.73955 c 1.516336,-1.2073 2.976611,-1.14918 4.296784,0.171 1.228397,1.2284 1.571755,2.04921 3.593476,8.59029 1.718399,5.55967 2.723682,8.11967 3.610269,9.19358 0.482646,0.58464 0.488545,0.51311 0.488545,-5.91595 0,-6.69974 0.300366,-9.71717 1.061607,-10.66487 0.361054,-0.44949 0.372269,-0.44551 0.228353,0.0811 -0.451988,1.6539 -0.639802,4.1509 -0.804248,10.69227 l -0.182144,7.24612 -1.126431,-1.24418 c -1.527384,-1.68703 -2.779132,-4.43785 -4.851321,-10.66123 -1.497844,-4.49844 -1.880839,-5.38638 -2.690481,-6.23747 -1.092662,-1.14864 -1.520212,-1.20586 -3.091201,-0.41366 l -1.147667,0.57875 -0.231005,6.04455 c -0.306846,8.02938 0.0046,12.43078 1.35402,19.16252 1.463262,7.29712 3.008525,12.48546 5.362542,18.00505 1.004196,2.35461 2.341912,4.56033 2.650168,4.36982 0.115224,-0.0711 0.479599,-0.0299 0.809764,0.0919 1.846887,0.68111 1.857949,0.67664 3.160962,-1.28293 l 1.216216,-1.82903 -0.664989,-5.56198 c -0.898262,-7.51311 -1.421496,-13.34982 -1.57079,-17.5225 -0.171297,-4.78716 0.191275,-3.3403 1.031253,4.11545 2.110633,18.73385 3.687919,28.26641 5.363401,32.41448 1.769205,4.38013 5.494753,8.39974 14.491527,15.63536 2.777201,2.23353 3.43427,2.90666 2.228916,2.28335 -2.141138,-1.10725 -8.573086,-6.142 -11.874714,-9.29525 -5.030462,-4.80437 -6.609311,-8.11321 -8.156245,-17.09319 -0.35111,-2.03824 -0.643018,-3.83231 -0.648672,-3.98684 -0.0061,-0.15454 -0.192287,0.0663 -0.414711,0.49068 -0.222424,0.42439 -0.743512,1.31021 -1.157978,1.96849 l -0.753564,1.19682 -1.01872,-0.40015 c -0.941577,-0.36987 -1.056198,-0.36622 -1.514039,0.0483 -0.310569,0.28103 -0.689642,0.38659 -1.016239,0.28293 -1.291384,-0.40988 -4.282061,-5.98403 -6.172368,-11.50437 -2.107215,-6.1538 -3.966588,-15.10607 -4.303082,-20.71794 -0.176214,-2.93874 0.199167,-9.73558 0.784912,-14.21228 l 0.353073,-2.6984 -1.244485,-3.73201 c -2.552051,-7.65309 -3.923464,-16.6396 -3.9453,-25.85241 -0.02635,-11.11688 1.398237,-17.61106 5.783375,-26.36454 6.901556,-13.77673 17.353487,-24.98644 31.129908,-33.386878 0.947444,-0.577742 2.496661,-1.238238 3.472419,-1.480436 2.42468,-0.601915 4.538499,-1.476388 10.378449,-4.293483 7.499436,-3.61761 9.200338,-4.137931 13.503787,-4.130994 2.535165,0.0053 3.127284,0.100493 5.694287,0.926776 4.394078,1.414443 8.255284,2.128522 16.832751,3.112983 4.326208,0.496529 9.070718,1.152462 10.543388,1.457634 5.43977,1.127234 10.27085,2.814867 15.41461,5.384779 4.44971,2.223134 5.70869,3.063739 7.4248,4.957409 6.49635,7.16847 12.08618,17.77371 16.63476,31.56012 l 1.22803,3.7221 -0.42805,6.4379 c -0.23542,3.54084 -1.00123,15.23465 -1.70183,25.98623 -1.55573,23.87484 -1.51216,23.34813 -1.91836,23.19229 -0.25023,-0.096 -0.26164,0.1923 -0.0526,1.33194 0.15229,0.83021 0.2683,5.48407 0.27033,10.84285 0.003,7.40984 -0.0902,10.12012 -0.44163,12.86073 -1.28182,9.99682 -2.8298,14.74285 -5.69122,17.44907 -1.05536,0.9981 -1.87304,1.46492 -3.95431,2.25753 -1.56725,0.59684 -2.62397,1.14147 -2.62419,1.35246 -8.6e-4,0.80443 -1.89763,5.94046 -2.86293,7.75209 -2.48334,4.66077 -6.48086,9.40744 -12.31313,14.62072 -3.02436,2.70339 -4.0723,3.80062 -4.34081,4.5451 -0.92233,2.55703 -4.02037,6.78394 -6.4273,8.76929 -2.38254,1.96522 -4.79985,3.14916 -7.57872,3.71185 -4.587529,0.92896 -10.692175,1.20621 -16.119987,0.73211 z m 8.117404,-63.41756 c 3.500458,-2.15614 3.802478,-2.2152 6.933991,-1.35609 1.575662,0.43229 2.099495,0.47911 2.794406,0.24976 1.057129,-0.34891 1.807009,-1.12502 2.355689,-2.43822 0.89589,-2.14414 -0.1379,-4.40309 -3.002001,-6.55948 -4.028794,-3.03334 -4.926121,-5.10848 -5.400801,-12.48986 -0.154672,-2.40497 -0.415783,-5.46573 -0.580276,-6.8017 l -0.299064,-2.42905 -2.437411,-0.96938 c -3.27546,-1.30271 -4.244232,-1.29469 -6.880366,0.057 l -2.039448,1.04568 -0.173257,3.4524 c -0.205616,4.09701 -0.732052,8.5347 -1.316328,11.09617 -0.537744,2.3575 -1.4427,3.60632 -3.517158,4.85365 -2.568673,1.54449 -3.235563,2.13049 -3.835865,3.37056 -0.99445,2.05423 -0.334487,4.86013 1.329934,5.65451 0.340953,0.16273 2.002108,0.42754 3.691473,0.58848 3.165466,0.30159 4.663417,0.76622 6.174023,1.91501 2.558744,1.9459 3.99268,2.12175 6.202459,0.76063 z m -0.272357,-4.46024 c -0.09377,-0.15183 0.192593,-0.25722 0.699249,-0.25722 1.049225,0 1.860507,-0.53761 2.449546,-1.62321 0.586636,-1.08115 0.568771,-6.1672 -0.03126,-8.87511 -0.481912,-2.17521 -0.503592,-2.44639 -0.179693,-2.24621 0.455114,0.28129 1.304362,3.37279 1.522573,5.54251 0.373158,3.71049 -0.190647,6.35708 -1.558287,7.31502 -0.6366,0.44589 -2.653815,0.54614 -2.902225,0.14417 z m 32.409093,-10.314 c 3.2657,-0.30545 4.42117,-0.55254 6.08378,-1.30092 1.07276,-0.48284 1.23887,-0.67516 1.60373,-1.85679 0.73507,-2.3805 1.44362,-7.33312 1.44362,-10.09071 v -0.87301 h -1.3995 c -0.76973,0 -1.46587,-0.10735 -1.54701,-0.23869 -0.16503,-0.26701 0.25019,-0.41606 1.85335,-0.66538 1.02095,-0.15877 1.0929,-0.22373 1.08914,-0.98335 -0.007,-1.19747 -0.63223,-3.65497 -1.122,-4.40247 -0.62438,-0.95293 -2.77111,-1.93598 -5.4208,-2.48238 -3.43639,-0.70861 -12.47819,-1.0662 -18.94648,-0.74931 -5.947604,0.29138 -7.902951,0.55664 -9.667682,1.31153 -1.897141,0.81149 -2.392413,1.39553 -2.392413,2.82121 0,1.1484 0.04029,1.21715 0.803804,1.36986 0.44209,0.0884 1.165501,0.16234 1.607592,0.16426 1.050957,0.004 1.961262,0.25566 1.961262,0.54092 0,0.12502 -0.94317,0.2272 -2.095924,0.2272 H 93.94999 l 0.155009,2.8937 c 0.09346,1.7455 0.374093,3.65911 0.707155,4.82277 1.232335,4.30542 3.629098,8.13344 5.457826,8.71705 3.67511,1.17284 13.82829,1.53157 21.92151,0.77451 z m -15.0258,-8.85502 c -1.46587,-0.41113 -3.48951,-1.49525 -4.76971,-2.5553 -1.22673,-1.01578 -0.65774,-0.94 1.14349,0.1523 0.91738,0.55632 2.40533,1.23923 3.30659,1.51759 1.89939,0.58667 3.31212,0.68667 1.7279,0.12225 -0.55769,-0.19866 -1.31005,-0.58089 -1.67189,-0.84943 -0.87629,-0.65025 -2.02431,-2.53695 -2.22329,-3.65387 -0.14494,-0.81386 -0.0653,-0.74252 0.83111,0.7435 1.60581,2.6622 3.80923,3.75856 5.68684,2.82959 1.1848,-0.58618 1.73736,-1.46293 2.21654,-3.51698 l 0.36202,-1.55185 -1.67195,-0.31548 c -2.63088,-0.49641 -5.62629,-0.20695 -7.64783,0.73905 -0.92449,0.43262 -2.08665,1.09607 -2.58258,1.47433 -1.1983,0.914 -1.15879,0.39133 0.0506,-0.67062 1.32441,-1.16286 3.74595,-2.23193 5.78007,-2.55181 2.75746,-0.43363 6.3549,0.24615 10.12407,1.91306 1.60646,0.71045 4.74955,2.71035 4.74955,3.02206 0,0.11289 -1.07065,-0.33266 -2.37924,-0.99011 -2.25267,-1.13179 -5.34457,-2.4108 -5.82787,-2.4108 -0.12199,0 -0.29999,0.62639 -0.39561,1.39198 -0.26003,2.08115 -1.08472,3.51502 -2.40489,4.18133 -1.36965,0.69128 -0.96884,0.80573 1.93397,0.55215 1.80746,-0.15789 5.5259,-1.1964 7.59466,-2.12109 0.25562,-0.11434 0.45012,-0.0947 0.45012,0.0455 0,0.30205 -2.95808,1.66933 -4.88708,2.2589 -2.02002,0.6174 -7.64832,0.76187 -9.4957,0.24374 z m -13.73518,-7.8868 c -0.08212,-0.20517 -0.143105,-0.14418 -0.155392,0.15541 -0.01068,0.27115 0.04949,0.42307 0.135136,0.33758 0.08534,-0.0853 0.09469,-0.30731 0.02023,-0.49299 z M 141.0968,148.2721 c 0,-0.4737 -0.20701,-0.66435 -0.96933,-0.89274 -2.01477,-0.60363 -3.61196,-3.02526 -5.20607,-7.89329 -1.54484,-4.71756 -3.94131,-8.88895 -6.60423,-11.49553 -2.75683,-2.69853 -5.87363,-4.13007 -9.98391,-4.58564 -3.4776,-0.38548 -13.81833,-2.00723 -16.492,-2.58652 -4.850339,-1.05086 -8.24353,-2.57316 -11.429634,-5.12772 -7.49271,-6.00753 -19.893707,-8.58024 -37.419379,-7.76303 -6.227586,0.29038 -10.585796,0.76732 -12.030305,1.31651 -0.386457,0.14693 -0.818451,0.57169 -0.959961,0.94392 -0.141573,0.37222 -0.331822,2.81787 -0.422879,5.43479 l -0.165565,4.75803 1.377906,-1.45696 c 5.383272,-5.69202 14.491956,-7.75815 24.436664,-5.543 4.258666,0.94859 7.169332,2.23121 16.103364,7.09601 7.877207,4.28934 11.864342,5.80661 18.119355,6.89518 1.215054,0.21147 5.902794,0.79839 10.417194,1.3043 14.18762,1.58991 16.53375,2.18198 19.0509,4.80776 1.62192,1.69192 2.52246,3.30496 4.10621,7.3551 2.09993,5.37016 3.03771,6.59085 5.79481,7.54297 1.8724,0.64659 2.27686,0.62704 2.27686,-0.11012 z m 0,-2.78735 c 0,-1.06421 -0.55132,-2.80111 -2.74279,-8.64103 l -2.74277,-7.3091 -5.08458,-5.7279 c -7.84132,-8.83342 -8.35498,-9.13363 -20.06795,-11.72875 C 93.467051,108.3133 89.915527,107.09152 80.702747,101.84135 74.947051,98.561306 73.929803,98.293997 70.442934,99.145232 67.963572,99.75051 62.753617,99.695094 57.68499,99.009488 52.471296,98.30431 44.577374,98.224734 43.658811,98.868059 c -0.618228,0.433029 -1.663594,1.950111 -1.934373,2.807281 -0.161183,0.51018 -0.03677,0.51473 15.078408,0.55208 16.263583,0.0401 17.893635,0.14097 21.141087,1.30691 2.274436,0.81661 4.986459,2.17534 4.604444,2.30684 -0.159069,0.0547 -1.663776,-0.32258 -3.343794,-0.83853 -3.745728,-1.1503 -6.121807,-1.36281 -15.467792,-1.38335 -3.714961,-0.008 -9.907415,-0.14832 -13.760992,-0.31132 -3.853591,-0.16307 -7.40608,-0.30776 -7.894396,-0.32153 l -0.887874,-0.0249 -0.429482,1.87891 c -0.236213,1.03338 -0.500267,2.39538 -0.586787,3.02663 l -0.157323,1.14777 0.703018,-0.3576 c 1.434243,-0.72955 5.209372,-1.4748 10.219977,-2.01757 4.739167,-0.51336 17.724087,-0.43022 21.606069,0.13836 7.750956,1.13522 14.7115,3.79347 19.005098,7.25809 2.955759,2.38509 6.655674,3.98443 11.535051,4.98621 2.80847,0.57659 11.78865,2.01384 14.72968,2.35744 7.11391,0.83109 11.52618,3.80928 15.21093,10.26708 1.40206,2.45722 2.2406,4.52166 3.44534,8.48227 1.21922,4.00821 2.07479,5.47671 3.72142,6.38741 0.82581,0.45674 0.90028,0.3714 0.90028,-1.03178 z M 84.123672,262.82974 c -7.176058,-0.19417 -8.863415,-0.42973 -13.050344,-1.82194 -2.609933,-0.86781 -4.389221,-1.72954 -6.369388,-3.08476 -1.353054,-0.92601 -3.640314,-3.07603 -3.272396,-3.07603 0.09668,0 0.806164,0.40321 1.576581,0.89605 3.777688,2.41656 8.384767,4.26688 13.141874,5.27815 2.150332,0.45709 4.060112,0.58935 11.645595,0.80639 9.597046,0.27457 11.128213,0.18686 13.710486,-0.78556 2.20275,-0.82949 3.47572,-2.05395 3.83557,-3.68938 2.17546,-9.88712 2.17667,-11.91753 0.0119,-21.15217 -0.39802,-1.69847 -0.79753,-3.60979 -0.88783,-4.24738 -0.36357,-2.56739 -2.07519,-4.92207 -4.46359,-6.14054 -2.22864,-1.137 -5.619947,-1.70979 -12.396372,-2.09383 -2.611419,-0.14801 -5.531371,-0.38021 -6.488759,-0.51599 -2.230938,-0.31638 -4.985999,0.0491 -8.045913,1.0674 -4.830009,1.60734 -9.54086,4.31194 -10.114227,5.80677 -0.271239,0.70717 -1.322441,15.3224 -1.374565,19.11136 -0.01533,1.06101 -0.114908,2.27637 -0.222885,2.70076 -0.351003,1.37943 -0.271622,-6.97163 0.138202,-14.54335 0.32632,-6.02828 0.474971,-7.4415 0.850319,-8.08427 1.422216,-2.43541 9.335291,-6.25789 14.70381,-7.10285 1.467674,-0.23099 2.662486,-0.23277 5.013469,-0.008 1.697622,0.16271 5.112157,0.41195 7.587843,0.55383 7.047601,0.40395 10.557158,1.33028 13.016988,3.43581 1.23938,1.06086 2.58619,3.47593 2.82081,5.05818 0.0931,0.62796 0.56304,2.84399 1.04427,4.92453 1.08519,4.69153 1.63392,8.26494 1.63589,10.65332 0.003,2.04907 -0.7441,6.74837 -1.62774,10.25653 -0.58274,2.31353 -0.58401,2.31564 -2.11915,3.48131 -2.51074,1.90647 -4.31448,2.37647 -9.369562,2.44149 -2.334206,0.0301 -7.253448,-0.0268 -10.931622,-0.12634 z m -4.501269,-11.49068 c -1.297971,-0.21288 -2.847785,-0.68103 -3.81426,-1.15218 -1.42145,-0.69298 -1.69304,-0.94531 -2.141152,-1.9893 -1.065131,-2.48138 -0.845311,-5.21542 0.496023,-6.16965 1.017954,-0.7242 3.098234,-1.27629 5.562228,-1.47623 2.45439,-0.19913 5.616392,0.0938 4.52704,0.41943 -0.353685,0.10577 -1.337533,0.20441 -2.186338,0.21933 -3.323569,0.0584 -6.354725,0.8092 -7.371271,1.82574 -0.59172,0.59173 -0.730994,0.95687 -0.730994,1.9165 0,2.33955 1.144311,4.04078 3.110783,4.62478 2.785458,0.82718 5.888596,1.01848 11.195781,0.69024 4.985524,-0.30836 5.0811,-0.32515 6.130418,-1.07871 1.428114,-1.02562 2.035679,-2.09268 1.87474,-3.29267 -0.208359,-1.55338 -1.224536,-3.62242 -1.96451,-3.99998 -1.165089,-0.59441 -3.308463,-0.91896 -6.069269,-0.91896 -3.058306,0 -3.792687,-0.38436 -1.253831,-0.65625 2.401989,-0.25723 5.649486,0.003 7.167264,0.57241 1.082687,0.40683 1.396597,0.68556 1.98501,1.76253 0.839334,1.53632 1.363473,3.67117 1.129818,4.60209 -0.189821,0.75632 -1.639415,2.46033 -2.789887,3.27953 -0.637977,0.45428 -1.449734,0.58939 -5.297655,0.88177 -5.458503,0.41475 -6.710986,0.40682 -9.559938,-0.0604 z m 4.115438,-12.09775 c -4.018742,-0.14709 -8.272673,-0.64094 -9.674265,-1.12316 -0.799866,-0.2752 -3.033501,-1.25364 -4.963629,-2.17434 -3.660369,-1.74605 -4.092777,-1.87436 -4.601777,-1.36534 -0.240075,0.24006 -0.30867,0.22293 -0.30867,-0.0772 0,-1.14985 1.304147,-1.27923 3.798755,-0.37682 7.874388,2.84843 7.330009,2.70448 11.33268,2.99655 2.076864,0.15154 6.727165,0.23324 10.333986,0.18151 l 6.55786,-0.094 4.066379,-1.08351 c 4.37132,-1.16478 4.55031,-1.19864 4.55031,-0.86073 0,0.31311 -3.24782,1.73004 -6.332922,2.76293 -2.396672,0.80237 -2.988746,0.89183 -7.459247,1.1269 -2.670746,0.14049 -4.971658,0.23342 -5.113138,0.20659 -0.141418,-0.0268 -1.125298,-0.0806 -2.186322,-0.11935 z m 18.776699,-5.79096 c -0.49515,-0.12515 -2.27681,-0.63566 -3.959279,-1.13447 -1.68247,-0.4988 -3.997416,-1.01195 -5.144301,-1.14035 -3.191866,-0.35733 -12.377525,-0.76312 -17.284127,-0.76354 -4.96346,-4.5e-4 -7.074781,0.38423 -9.879484,1.80002 -0.948823,0.47897 -1.553598,0.66895 -1.488788,0.46767 0.178833,-0.55547 2.773798,-1.98944 4.70385,-2.59936 1.718904,-0.54319 2.196924,-0.56782 10.545823,-0.54351 11.530789,0.0338 14.049161,0.3279 19.44037,2.27191 2.142746,0.77263 3.959936,1.46885 4.038216,1.54712 0.28186,0.28187 -0.0886,0.31789 -0.97228,0.0946 z m 13.1162,-5.74436 c -1.40452,-3.1098 -4.37724,-8.25244 -6.132,-10.60802 -1.64734,-2.21135 -3.70673,-4.22082 -5.18369,-5.05801 -1.40788,-0.79801 -0.69063,-0.89385 0.84119,-0.11249 3.15309,1.60859 7.94008,8.30761 10.71782,14.99873 1.41501,3.40857 1.22253,4.02531 -0.24332,0.77968 z m -58.634688,-6.70671 c -0.01961,-0.6468 2.825463,-4.2715 5.240598,-6.67645 2.776173,-2.76447 5.360551,-4.36549 7.482981,-4.63563 0.968833,-0.12331 0.938818,-0.0944 -0.51444,0.49501 -0.848803,0.34429 -2.122016,0.95346 -2.829354,1.35368 -1.645728,0.93118 -5.037695,4.18395 -6.978119,6.69176 -2.272581,2.93708 -2.392428,3.07539 -2.401666,2.77163 z m 78.442008,-2.04654 c 0,-0.21923 0.16148,-0.71115 0.35886,-1.09316 0.88077,-1.70477 1.48798,-4.17607 1.67077,-6.79983 0.1059,-1.51882 0.28065,-2.84973 0.38848,-2.95758 0.36219,-0.36217 0.88453,0.73477 1.17245,2.46214 0.3554,2.13228 0.0551,3.92006 -1.03107,6.1408 -0.96739,1.97762 -2.55949,3.37575 -2.55949,2.24763 z M 22.927362,213.67057 c -2.170555,-2.34447 -2.835821,-3.78658 -2.843757,-6.16447 -0.0061,-1.72964 0.09775,-2.15234 0.944411,-3.85821 1.037596,-2.09043 2.344992,-3.82418 2.587671,-3.43152 0.08427,0.13637 -0.313221,1.63211 -0.883338,3.32385 -1.394836,4.13879 -1.337227,4.77608 0.770647,8.52629 0.874406,1.5557 1.58982,2.90523 1.58982,2.99897 0,0.55074 -0.902108,-0.0303 -2.165454,-1.39491 z M 17.41335,198.32401 c -0.566042,-1.11905 -1.323698,-4.2816 -1.321614,-5.5166 0.0046,-3.01094 1.90091,-4.85421 3.895005,-3.78699 0.554337,0.29668 1.822831,2.76007 1.603777,3.11452 -0.07216,0.11659 -0.713222,-0.27873 -1.424682,-0.87864 -1.237928,-1.04383 -1.309019,-1.06964 -1.652423,-0.6 -0.595844,0.81485 -0.704274,2.12246 -0.398807,4.80881 0.356059,3.13128 0.363062,3.82346 0.03876,3.82346 -0.138662,0 -0.471554,-0.43405 -0.739897,-0.96456 z m 40.860205,-9.29259 c -3.363421,-0.73909 -8.230891,-2.9843 -8.230891,-3.79668 0,-0.47164 1.698633,-1.77624 3.643086,-2.79803 5.865262,-3.08211 13.887902,-2.3579 18.808215,1.69784 1.574269,1.29767 1.085768,1.29349 -1.081752,-0.009 -1.120381,-0.67335 -3.05915,-1.5593 -4.308354,-1.96876 -1.99408,-0.65356 -2.648069,-0.74444 -5.357884,-0.74444 -2.519154,0 -3.439202,0.11078 -5.00463,0.6023 -2.073523,0.65115 -4.911964,1.99623 -5.898448,2.79516 l -0.614444,0.49763 2.172624,0.93337 c 1.899883,0.81618 4.259783,1.55356 6.740464,2.10614 l 0.739376,0.16471 -0.893344,-0.84889 c -0.949174,-0.90193 -2.013401,-3.33187 -1.981287,-4.52385 0.01532,-0.55708 0.112006,-0.4358 0.481391,0.60157 1.160507,3.25946 2.009725,4.10224 4.133518,4.10224 1.319224,0 1.60724,-0.0956 2.325886,-0.77164 1.071947,-1.00848 1.528501,-2.12453 1.528501,-3.73654 0,-0.80751 0.09851,-1.24859 0.257221,-1.15057 0.395467,0.24443 0.304946,2.60308 -0.140806,3.67009 -0.495931,1.18694 -1.299858,2.07489 -2.302659,2.54332 -0.72623,0.33925 -0.673217,0.35141 0.900238,0.20661 2.075331,-0.19103 4.887388,-0.9262 6.831735,-1.78608 0.813028,-0.35955 1.531673,-0.6003 1.597005,-0.53496 0.260177,0.26017 -2.362858,1.65606 -4.370543,2.32583 -2.858942,0.95377 -6.798089,1.12077 -9.974142,0.42287 z m 77.117035,-6.77921 c -0.0968,-0.52823 -0.36644,-4.17425 -0.5991,-8.10226 -0.23269,-3.92803 -0.54199,-7.36265 -0.68735,-7.63246 -0.1454,-0.26984 -0.53744,-3.15144 -0.87131,-6.40355 -0.68953,-6.71642 -1.21257,-9.81801 -1.9413,-11.51198 -0.4264,-0.99126 -0.99414,-1.53762 -3.6451,-3.50797 -7.12413,-5.29513 -12.27442,-8.08037 -17.75157,-9.59992 -1.0176,-0.28233 -4.0494,-0.92515 -6.73727,-1.42847 -4.005261,-0.75003 -5.883616,-0.9592 -10.409813,-1.15925 -3.0375,-0.13422 -6.741398,-0.44493 -8.230876,-0.6904 -3.010962,-0.49623 -5.968283,-0.52239 -11.710696,-0.10352 -2.122015,0.15479 -7.214882,0.40376 -11.317466,0.5533 -21.473123,0.78265 -20.425858,0.71894 -21.662329,1.3175 -3.362763,1.62789 -4.824294,7.26032 -4.197808,16.17731 0.544593,7.75097 0.611961,10.43935 0.294267,11.73958 -0.167971,0.68738 -1.161824,3.04385 -2.208599,5.23661 -2.057895,4.31086 -2.838594,6.88024 -3.121125,10.27205 -0.145402,1.74554 -0.227955,2.04728 -0.422279,1.54327 -0.38203,-0.99084 -0.0076,-4.8121 0.716838,-7.32743 0.364869,-1.26585 1.296915,-3.66942 2.071179,-5.34124 1.896789,-4.09557 2.198947,-5.48257 1.910072,-8.7679 -0.125642,-1.42805 -0.365849,-4.15115 -0.533974,-6.05137 -0.38131,-4.31002 -0.179922,-10.63318 0.405626,-12.73563 0.878481,-3.15431 2.166663,-5.03289 4.215962,-6.14825 1.588455,-0.86456 3.550653,-1.0488 15.458752,-1.45151 8.928638,-0.30193 20.813956,-0.92432 24.10964,-1.26252 1.512644,-0.15522 2.526201,-0.12238 3.547343,0.115 2.03597,0.47327 6.159789,0.86668 11.954141,1.14044 4.227454,0.19972 5.824153,0.40043 10.160015,1.27718 2.82934,0.57212 6.26703,1.39838 7.63931,1.83613 4.79518,1.52965 11.36574,5.34217 17.56774,10.19353 2.27621,1.78051 2.63627,2.17424 3.12934,3.4219 0.86948,2.19999 1.33118,4.86101 1.76201,10.15522 0.21873,2.68788 0.51788,5.63943 0.66472,6.55898 0.58468,3.66096 1.01211,20.80277 0.44101,17.68767 z m 8.06915,-8.24146 c -0.56331,-0.67876 -0.60204,-3.13812 -0.1692,-10.74461 0.33926,-5.96214 0.40759,-9.76769 0.2861,-15.93501 -0.23612,-11.98543 -0.20089,-11.77131 -2.73942,-16.64182 -4.12685,-7.91785 -8.97307,-15.4362 -12.47152,-19.34813 -3.26199,-3.64752 -4.84288,-4.59762 -11.1494,-6.70086 -4.49426,-1.49881 -9.14648,-2.68633 -16.11644,-4.11381 C 94.572692,99.189715 91.606284,98.353805 84.895316,95.960282 74.287257,92.17682 72.755844,92.046008 65.990007,94.345539 c -2.192756,0.745269 -4.160453,1.413652 -4.372658,1.485329 -0.342944,0.115791 -0.342944,0.08678 0,-0.261993 0.48971,-0.497901 4.583392,-2.325222 7.159955,-3.196041 1.593419,-0.53852 2.464133,-0.667209 4.543325,-0.671416 3.087969,-0.0066 4.477979,0.328355 13.117974,3.157848 7.181466,2.351835 8.64171,2.73661 15.047077,3.964811 8.87526,1.701793 17.20888,4.020333 21.60605,6.011123 4.78282,2.16537 9.44708,7.65125 15.54581,18.28419 2.79702,4.87655 5.70869,10.78525 5.91034,11.99403 0.3681,2.20655 0.58608,12.60409 0.38514,18.37108 -0.11632,3.33538 -0.45883,8.61078 -0.76133,11.72308 -0.30252,3.11229 -0.50669,6.44002 -0.45368,7.39492 0.053,0.95491 0.0778,1.73621 0.0551,1.73621 -0.0227,0 -0.1637,-0.14755 -0.31339,-0.32796 z M 26.323357,173.68298 c -0.20485,-0.20483 0.130535,-1.52298 1.58268,-6.22057 2.108656,-6.82128 2.33108,-8.29513 2.33108,-15.44535 0,-6.00924 0.11736,-7.7725 0.517381,-7.7725 0.431503,0 1.06539,6.57819 1.078184,11.18884 0.01068,4.13798 -0.336265,6.11645 -1.843347,10.48713 -0.91772,2.66149 -3.188754,7.90374 -3.424049,7.90374 -0.05547,0 -0.164233,-0.0636 -0.241929,-0.14127 z m 16.260089,-0.0778 c 0,-0.40836 2.731818,-3.51667 4.647405,-5.28789 0.913584,-0.84476 2.38921,-1.87332 3.321119,-2.31495 1.519661,-0.72016 1.894275,-0.79106 3.991976,-0.75544 1.585284,0.027 3.085104,0.24907 4.758472,0.70481 1.343938,0.36603 3.311634,0.90055 4.372657,1.18778 1.061024,0.28726 3.433825,0.75206 5.272913,1.03293 5.327839,0.81363 7.845045,1.3152 7.845045,1.56316 0,0.32333 -1.272921,0.28952 -6.29828,-0.16737 -3.47478,-0.31589 -5.427108,-0.66026 -9.478594,-1.67188 -8.471349,-2.11523 -9.488553,-1.9002 -15.21782,3.21703 -2.959573,2.64342 -3.214893,2.84132 -3.214893,2.49182 z m 82.272804,-1.63379 c -2.4613,-2.14286 -4.32903,-3.53873 -5.60526,-4.18919 -1.48398,-0.75635 -3.83926,-0.41772 -8.84543,1.27173 -3.88866,1.31234 -4.5401,1.45938 -6.43491,1.45233 -1.48118,-0.007 -2.78592,-0.2042 -4.386618,-0.66806 -4.287685,-1.24253 -4.357137,-1.7375 -0.125484,-0.89492 4.048742,0.80619 5.845342,0.64607 10.000842,-0.8913 7.8664,-2.91024 9.66886,-2.67883 14.43083,1.8528 3.88359,3.69574 4.60165,5.23182 0.96608,2.06661 z"
       id="path1"
       sodipodi:nodetypes="sscscscsscsscscsssscscscsssscscscsssscssssscccssscssssscsssccssscsssssscssssssscsssssssssssssscssscsssssscssssssscssccssscsscscsccssscssscssscssscsscscscsssssssssccsscssscsscssssscssccccsssscscccccccssccssscccssccsssscssccccsscsssssscssccccssssscsscsssssssscsssscscsccscsssssssscsscscsssscsssscsccscssscsssscsssscscssccssssssscsscssssssssscsscsssccsssscssscsssssccssccssscsssscccsscssscssssscsscssccsccssssssssssscscsssssssssscscssssccscscsccccsscssssssssscccsssssssscsssscscssssccssscsssccsssssssssssssssscsssssscsssscsscsssssccssssssscsssscsscscccssssscsscsscssccscsssccscssssccssssscscscsscsccscsccsssssssssssscssssscsssssscscssssssssssssssscssssssssscscssssscssscsssscssssssscssssssssssscssssss" /></g></svg>
