<?xml version="1.0" encoding="UTF-8" standalone="no"?>
<!-- Created with Inkscape (http://www.inkscape.org/) -->

<svg
   width="210mm"
   height="297mm"
   viewBox="0 0 210 297"
   version="1.1"
   id="svg1"
   sodipodi:docname="ggsketch.svg"
   xml:space="preserve"
   inkscape:version="1.4.2 (ebf0e94, 2025-05-08)"
   xmlns:inkscape="http://www.inkscape.org/namespaces/inkscape"
   xmlns:sodipodi="http://sodipodi.sourceforge.net/DTD/sodipodi-0.dtd"
   xmlns="http://www.w3.org/2000/svg"
   xmlns:svg="http://www.w3.org/2000/svg"><sodipodi:namedview
     id="namedview1"
     pagecolor="#505050"
     bordercolor="#eeeeee"
     borderopacity="1"
     inkscape:showpageshadow="0"
     inkscape:pageopacity="0"
     inkscape:pagecheckerboard="0"
     inkscape:deskcolor="#505050"
     inkscape:document-units="mm"
     inkscape:zoom="2.0632155"
     inkscape:cx="457.78059"
     inkscape:cy="803.11534"
     inkscape:window-width="2560"
     inkscape:window-height="1403"
     inkscape:window-x="2560"
     inkscape:window-y="0"
     inkscape:window-maximized="1"
     inkscape:current-layer="layer1" /><defs
     id="defs1" /><g
     inkscape:label="Layer 1"
     inkscape:groupmode="layer"
     id="layer1"><path
       style="fill:#000000;stroke-width:0.690545"
       d="m 39.345143,291.08499 c -0.04358,-0.12616 -0.4036,-1.55072 -0.800085,-3.16568 -1.871854,-7.62436 -2.932766,-15.05701 -2.920714,-20.4622 l 0.0048,-2.11045 5.654522,-3.11597 c 3.109989,-1.71378 5.772755,-3.20318 5.917267,-3.30979 0.377696,-0.27864 -2.204594,-2.17814 -6.651394,-4.89271 -1.963126,-1.19838 -3.593195,-2.24918 -3.622385,-2.33509 -0.133793,-0.39386 3.403947,-5.89133 5.621528,-8.73559 1.264287,-1.62156 3.948518,-4.66629 3.478465,-3.94562 -0.09875,0.1514 -0.876342,1.15312 -1.727989,2.22605 -0.851646,1.07293 -2.177506,2.84671 -2.946358,3.94173 -1.311244,1.86752 -4.099726,6.20058 -4.099726,6.37064 0,0.0424 1.002717,0.67994 2.228264,1.41679 3.90665,2.34886 8.321902,5.45316 8.321902,5.85103 0,0.076 -2.585954,1.69996 -5.74657,3.60868 l -5.746562,3.4704 0.11468,2.56924 c 0.288019,6.45258 1.530314,13.74117 3.62059,21.24215 l 0.447483,1.60579 h -0.53421 c -0.293807,0 -0.569843,-0.10321 -0.613409,-0.2294 z m 29.484228,-0.27528 c -0.18842,-0.92301 -1.55184,-11.82138 -2.00314,-16.0119 -0.92148,-8.55627 -0.99329,-10.12814 -1.0984,-24.0408 -0.0553,-7.31777 -0.13211,-15.12184 -0.17075,-17.34241 -0.0386,-2.22056 -0.0339,-3.60383 0.0109,-3.07391 0.0444,0.5299 0.14773,0.96347 0.22963,0.96347 0.0819,0 0.20456,-0.5701 0.27262,-1.26688 0.15649,-1.60235 0.7163,-3.98117 1.22706,-5.21427 0.37884,-0.91463 1.90711,-3.42881 2.08422,-3.42881 0.0472,0 -0.19657,0.51615 -0.54177,1.14698 -1.59407,2.91299 -2.0947,5.4576 -2.29618,11.67104 l -0.14489,4.46798 0.78656,1.98693 c 3.46135,8.74386 6.90413,14.14382 13.55452,21.26011 1.54388,1.65204 3.22435,3.46671 3.73438,4.0326 l 0.92734,1.0289 2.11301,-4.21612 c 1.16215,-2.31886 2.53457,-4.9059 3.04981,-5.74898 2.24998,-3.68157 5.53213,-6.13912 8.98259,-6.72584 l 0.720519,-0.12251 -0.810999,-0.67261 c -7.36186,-6.10556 -18.00121,-16.04556 -23.65534,-22.10044 -4.99843,-5.3527 -4.91788,-5.50528 0.21206,-0.4017 9.41304,9.36473 14.44902,14.16897 21.42561,20.43969 l 3.149729,2.83106 -1.155239,0.39255 c -3.67665,1.24928 -6.49606,4.3942 -11.35344,12.66412 -1.24499,2.11963 -2.33691,3.97451 -2.42653,4.12194 -0.12765,0.21004 -0.70532,-0.24692 -2.66796,-2.11044 -6.26522,-5.94885 -7.93432,-7.81758 -10.48399,-11.73793 -1.58343,-2.43466 -4.24719,-7.64276 -5.32656,-10.41434 -0.3832,-0.98396 -0.73067,-1.75477 -0.77215,-1.71292 -0.0414,0.0418 0.0132,2.8715 0.12154,6.28812 0.10835,3.41659 0.19696,8.36037 0.19696,10.98615 0,5.01761 0.16998,7.23116 1.28165,16.69158 0.48723,4.14636 1.58546,12.46236 1.96914,14.9108 l 0.15098,0.96347 h -0.59504 c -0.50288,0 -0.61098,-0.0782 -0.69804,-0.50468 z m 27.65341,-2.20221 c -0.46189,-10.77952 -0.67306,-21.8975 -0.49933,-26.28888 0.19444,-4.91421 0.31323,-5.66916 1.20895,-7.68285 0.62618,-1.40771 1.89116,-2.62289 3.079929,-2.95869 1.16971,-0.33041 3.26774,-0.16245 4.23796,0.33927 0.9915,0.51273 0.9915,0.64261 0,0.26562 -0.43509,-0.16542 -1.36998,-0.30121 -2.13837,-0.3106 -1.14079,-0.0139 -1.53326,0.0662 -2.386759,0.48754 -1.21593,0.60018 -1.80103,1.37245 -2.48505,3.27993 -0.46706,1.30247 -0.48727,1.52229 -0.57951,6.30451 -0.0525,2.72523 -0.0409,6.19371 0.0258,7.70773 0.0668,1.51402 0.24979,6.22124 0.40666,10.46049 0.15688,4.23926 0.32897,8.47163 0.38246,9.40528 l 0.0972,1.69754 h -0.61703 -0.61702 z m 14.181469,2.29397 c -0.0456,-0.2271 -0.13187,-2.68394 -0.19158,-5.45964 -0.17632,-8.19761 -0.83143,-18.90978 -1.4538,-23.77198 -0.51601,-4.03127 -1.25752,-6.57697 -2.05166,-7.04354 -0.19277,-0.11326 -0.22592,-0.19 -0.0835,-0.19337 0.71443,-0.0169 1.58494,1.74459 2.21987,4.4919 0.98676,4.26951 2.0719,15.85482 2.44936,26.14995 0.0573,1.5645 0.1512,3.60841 0.20853,4.54206 l 0.10431,1.69754 h -0.55921 c -0.43405,0 -0.57778,-0.0924 -0.64224,-0.41292 z m 25.03814,-9.45116 c -0.0747,-18.21039 -0.88899,-32.64386 -2.33232,-41.33731 -0.22425,-1.35072 0.11956,-0.35003 0.47723,1.38898 1.75046,8.51103 2.74013,22.04618 3.02157,41.32473 l 0.12391,8.48768 h -0.62499 -0.62498 z m 23.60511,9.66307 c 0,-0.11055 0.37925,-2.17138 0.84278,-4.57961 l 0.84278,-4.3786 -3.25295,-3.18245 c -4.24036,-4.14847 -9.54946,-9.23059 -11.66555,-11.16678 l -1.68232,-1.5393 1.95517,-0.93207 c 2.65112,-1.26382 5.7685,-3.06751 9.09182,-5.26044 l 2.77106,-1.8285 -2.04346,-1.58518 c -3.32997,-2.58318 -7.19726,-6.53868 -9.22541,-9.43585 -1.06776,-1.52527 -0.50616,-1.08933 0.88892,0.69003 2.00913,2.56254 6.20823,6.7027 9.20341,9.07426 0.80036,0.6337 1.48289,1.17726 1.51673,1.20788 0.11499,0.10407 -5.69014,3.89486 -7.93214,5.17974 -1.22745,0.70346 -3.00648,1.64097 -3.95341,2.08337 -0.94691,0.4424 -1.71753,0.84566 -1.71247,0.89612 0.004,0.0505 0.9595,0.91759 2.12099,1.92693 4.9416,4.2943 14.66428,13.2613 14.74651,13.60036 0.0488,0.20102 -1.25812,7.84098 -1.54261,9.01818 -0.0689,0.28505 -0.23452,0.41292 -0.53483,0.41292 -0.23926,0 -0.43502,-0.0905 -0.43502,-0.20101 z m -38.81238,-17.98934 c -1.57787,-1.8012 -2.98957,-4.15738 -5.40486,-9.02091 -1.3145,-2.6469 -2.82924,-5.48334 -3.36608,-6.30319 -1.15212,-1.75947 -2.76857,-3.33084 -4.11202,-3.99737 -0.66013,-0.32751 -0.79232,-0.4409 -0.41885,-0.35928 1.22869,0.26853 2.2346,0.9187 3.63799,2.35139 1.81011,1.84792 3.1168,4.02055 5.42554,9.0211 1.86904,4.04817 3.15037,6.31987 4.32226,7.66305 l 0.76457,0.87632 0.72769,-1.25149 c 0.87679,-1.50786 2.81191,-5.54784 3.47871,-7.26249 0.60737,-1.56185 4.22954,-16.04154 5.08409,-20.32376 0.3525,-1.76635 0.80445,-4.34187 1.00434,-5.72337 l 0.36343,-2.51181 -0.99013,-4.15406 c -0.54456,-2.28472 -0.99191,-4.20997 -0.99411,-4.27832 -0.002,-0.0683 -0.43893,0.74642 -0.97049,1.81061 -2.24841,4.5013 -5.53535,8.51859 -10.66707,13.03728 -3.61788,3.18567 -9.38036,7.72883 -10.76055,8.48364 -0.72319,0.39548 -0.40998,0.10805 4.39407,-4.03266 4.20702,-3.6261 9.56545,-8.61384 11.53765,-10.73945 2.08357,-2.24567 3.84042,-4.5839 5.28501,-7.03393 1.10548,-1.87494 1.18445,-1.96421 1.36609,-1.54459 0.17127,0.39562 0.18154,0.37362 0.0921,-0.19695 -0.27117,-1.72983 -0.30708,-4.18346 -0.11072,-7.56587 0.35865,-6.17817 0.68136,-8.07102 1.84726,-10.8352 0.60251,-1.42847 1.88824,-3.47172 2.62043,-4.1643 0.29717,-0.2811 0.10485,0.1099 -0.50947,1.03591 -0.54276,0.81809 -1.24714,2.16847 -1.56531,3.00084 -1.05824,2.76853 -1.26797,3.97805 -1.57397,9.07746 -0.30132,5.02115 -0.24602,8.2009 0.16345,9.39998 0.40942,1.19891 6.66557,8.66321 10.58647,12.63086 4.40443,4.45692 4.04193,4.21976 17.50938,11.45504 l 12.05084,6.47422 v 0.71312 0.71312 l -0.95498,-0.53515 c -0.52523,-0.29434 -4.884,-2.66033 -9.68614,-5.25773 -4.80215,-2.59742 -9.95899,-5.39146 -11.45967,-6.20899 -1.50067,-0.81752 -2.76941,-1.48929 -2.81943,-1.49281 -0.0501,-0.003 -0.34033,-0.25203 -0.64514,-0.55224 -0.30479,-0.30022 -1.51707,-1.44453 -2.69393,-2.54292 -2.56866,-2.39739 -5.90782,-6.14209 -9.62886,-10.79832 -1.51024,-1.88981 -2.77253,-3.40912 -2.80507,-3.37628 -0.0326,0.0328 0.51534,1.64884 1.21757,3.59112 0.70222,1.94227 1.27677,3.73992 1.27677,3.99477 0,0.93096 -0.77319,5.74015 -1.48363,9.22809 -0.73214,3.59445 -3.88333,16.42754 -4.44438,18.09956 -0.16509,0.49197 -0.62563,1.55516 -1.02342,2.36265 -0.84632,1.71797 -3.77933,6.73605 -4.38488,7.5021 l -0.41773,0.52845 z M 26.884707,247.67713 v -0.69416 l 2.137322,-0.70556 c 1.175526,-0.38806 3.610704,-1.27379 5.411506,-1.96832 l 3.274189,-1.26274 2.637544,-2.72638 c 2.895573,-2.99308 4.118199,-3.87269 5.386975,-3.87561 0.49633,-10e-4 0.918878,0.13346 1.254079,0.39948 l 0.505535,0.40119 1.110667,-0.58097 c 1.21606,-0.63612 3.986796,-2.99932 5.070696,-4.32488 0.94839,-1.15984 4.507369,-4.41448 7.192689,-6.57763 2.367942,-1.90748 4.586092,-3.47152 7.120942,-5.02104 l 1.53901,-0.94078 -0.0383,-0.80854 c -0.0612,-1.29577 -0.5627,-13.23718 -0.66908,-15.93353 -0.0535,-1.35425 -0.0518,-2.41659 0.003,-2.36076 0.13522,0.13641 0.54974,5.54423 0.89019,11.61318 0.15288,2.72524 0.32296,5.61564 0.37796,6.42311 l 0.10004,1.46815 -1.23381,0.73407 c -3.37337,2.00701 -7.807476,5.63764 -12.909708,10.57039 -3.897756,3.7683 -5.667624,5.19458 -7.623916,6.14389 -1.265704,0.61419 -1.393935,0.64234 -1.691021,0.37109 -0.44595,-0.40718 -1.444447,-0.36553 -2.202759,0.0919 -0.350161,0.21122 -1.851978,1.62188 -3.337371,3.1348 -3.029263,3.08542 -2.89109,2.99958 -7.789554,4.83942 -2.456945,0.92281 -6.308616,2.28442 -6.462113,2.28442 -0.03038,0 -0.0552,-0.31238 -0.0552,-0.69416 z m 75.943013,-23.27908 c -3.267359,-0.34373 -7.560699,-1.20125 -10.186369,-2.03458 -4.35338,-1.38164 -7.76194,-4.23568 -9.57425,-8.01663 -0.57291,-1.19524 -0.6997,-1.65544 -0.68493,-2.48585 0.01,-0.56047 0.0812,-1.2255 0.15829,-1.47784 0.0793,-0.25963 0.10311,0.13869 0.0547,0.91759 -0.082,1.3217 -0.0562,1.43471 0.65013,2.84452 1.31313,2.62089 3.37968,4.77649 6.0309,6.29071 3.2903,1.87922 9.69554,3.26807 16.007149,3.47081 5.08859,0.16346 9.35616,-0.35973 11.55061,-1.41606 2.85499,-1.37427 5.97803,-5.01994 7.18503,-8.3874 0.38257,-1.06734 0.39637,-1.25575 0.20846,-2.84453 -0.11068,-0.9358 -0.37354,-3.81574 -0.58412,-6.39985 l -0.38288,-4.69838 0.50357,-2.64232 c 0.55979,-2.93723 0.67028,-5.90515 0.27262,-7.32202 -0.29638,-1.05596 -1.44429,-2.16626 -3.4949,-3.3804 -1.86734,-1.10562 -2.51851,-1.59897 -4.64331,-3.51797 -2.49542,-2.2537 -3.11355,-2.34245 -6.24116,-0.89607 -2.53109,1.17054 -3.15119,1.12298 -6.64767,-0.50981 -2.68746,-1.255 -3.502579,-1.32994 -4.943199,-0.45451 -1.45631,0.88497 -3.65454,1.97714 -5.60696,2.78578 -6.44789,2.6705 -7.81312,5.4039 -6.61403,13.24223 l 0.39613,2.58954 -0.69114,1.95719 c -0.38015,1.07645 -0.71951,1.92858 -0.75416,1.89362 -0.0347,-0.0349 0.22702,-0.93724 0.58145,-2.0051 l 0.64443,-1.94157 -0.39148,-1.99106 c -0.48336,-2.45837 -0.65934,-5.84481 -0.37527,-7.22132 0.44915,-2.1764 1.77042,-4.1006 3.65232,-5.31895 0.47794,-0.30942 2.21581,-1.16589 3.86192,-1.90326 1.64614,-0.73739 3.68221,-1.75785 4.52464,-2.2677 0.84242,-0.50987 1.70629,-0.98063 1.91972,-1.04613 0.62208,-0.19095 1.889009,0.18418 4.379209,1.29669 3.08489,1.37818 3.62478,1.39536 6.15822,0.196 2.91948,-1.38212 3.97215,-1.2358 6.27902,0.87281 1.84018,1.68201 3.08032,2.62229 4.84239,3.67152 1.98176,1.18005 3.2095,2.28786 3.60776,3.25536 0.22826,0.55453 0.3442,1.43115 0.39505,2.98709 0.061,1.86544 -0.008,2.62315 -0.45069,4.95497 l -0.52265,2.75275 0.39402,5.63604 c 0.25393,3.63232 0.47325,5.73236 0.61689,5.90698 0.1498,0.18211 0.18259,0.56055 0.0999,1.15412 l -0.12291,0.88316 2.31335,-2.29397 c 4.1235,-4.08896 7.01711,-7.76075 8.57398,-10.87977 1.57162,-3.14857 2.60452,-7.78775 4.33923,-19.48924 0.7707,-5.19865 1.00083,-6.46204 1.00066,-5.49338 -1.1e-4,0.67476 -0.91852,8.62913 -1.28015,11.08753 -0.29024,1.97307 -1.22277,7.18854 -1.54223,8.62532 -1.29542,5.82642 -4.56859,10.76214 -10.89915,16.43512 -2.42143,2.16991 -2.70456,2.4896 -3.27265,3.69512 -1.29978,2.75821 -3.28351,5.1641 -5.48004,6.64631 -2.64594,1.78545 -4.74264,2.22947 -10.90427,2.3092 -2.30102,0.0298 -4.51111,0.0197 -4.91128,-0.0224 z m 2.72849,-1.10772 c 2.34858,-0.19647 4.34916,-0.4826 5.54101,-0.79252 0.74652,-0.19411 1.38654,-0.32345 1.42227,-0.2874 0.12141,0.12249 -1.88601,0.80286 -2.95968,1.0031 -0.58799,0.10967 -1.89305,0.1855 -2.90014,0.16854 -1.00708,-0.017 -1.50364,-0.0582 -1.10346,-0.0917 z m -9.453619,-1.35777 c -0.88893,-0.14993 -2.5374,-0.70576 -2.42612,-0.81803 0.0312,-0.0315 0.49035,0.0562 1.02027,0.19488 0.52991,0.13868 1.96226,0.34389 3.18299,0.456 1.85531,0.17041 2.361269,0.15962 3.083519,-0.0658 1.0086,-0.31468 1.14309,-0.22089 0.23322,0.16267 -0.6961,0.29343 -3.538189,0.3326 -5.093879,0.0702 z m 21.068309,-2.0418 c 1.11758,-1.67204 1.75492,-3.16694 1.75492,-4.11632 0,-0.22806 0.0819,-0.46569 0.1819,-0.52807 0.27869,-0.17378 0.21976,0.99563 -0.10704,2.12302 -0.36314,1.25289 -1.08936,2.41331 -2.17427,3.47426 l -0.84447,0.82583 z m -11.43279,0.94946 c 3.17616,-0.53008 4.53746,-0.97426 6.45743,-2.107 l 0.81855,-0.48293 -0.63665,0.5723 c -1.47376,1.32482 -4.00302,2.15401 -7.00312,2.2959 l -1.819,0.0861 z m -2.09984,-1.95918 c 0.4318,-0.37289 0.9778,-1.09549 1.21332,-1.60578 0.23552,-0.51028 0.42722,-0.80391 0.426,-0.65252 -0.007,0.87289 -1.56433,2.93629 -2.21609,2.93629 -0.11457,0 0.14498,-0.3051 0.57677,-0.67799 z m 4.97155,-0.11853 c 0.86188,-0.8959 1.67607,-2.3929 1.47763,-2.71684 -0.0815,-0.13306 -0.0516,-0.16429 0.0792,-0.0827 0.54183,0.33784 0.0122,1.77694 -1.04735,2.84595 -0.40895,0.41259 -0.86328,0.75016 -1.00961,0.75016 -0.15666,0 0.049,-0.32755 0.50022,-0.79652 z m -14.422329,0.38993 c 2.46157,-0.71763 3.24375,-1.0123 4.15236,-1.5643 0.87762,-0.53317 0.96788,-0.5593 0.61203,-0.17715 -0.64907,0.69705 -2.08656,1.4051 -3.44008,1.69447 -1.40312,0.29997 -2.3014,0.33184 -1.32431,0.047 z m 11.691899,-0.64923 c 0.15874,-0.17696 0.49805,-0.77569 0.75402,-1.33051 0.25596,-0.55481 0.46619,-0.91089 0.46718,-0.79129 0.004,0.60351 -1.00643,2.43971 -1.34519,2.44229 -0.0905,7e-4 -0.0348,-0.14353 0.12399,-0.32049 z m -16.201269,-0.64792 c 0.9882,-0.26231 1.75812,-0.58532 2.04638,-0.85852 0.4828,-0.45762 0.58499,-0.39802 0.28552,0.16653 -0.24968,0.47066 -1.47806,0.92108 -2.7937,1.02439 l -1.12245,0.0881 z m 3.84265,0.13514 c 0.93444,-0.34579 2.4311,-1.47263 2.75504,-2.07428 0.16028,-0.29771 0.26464,-0.37455 0.26909,-0.19815 0.021,0.83263 -2.22416,2.57427 -3.27884,2.54347 -0.36047,-0.0108 -0.31311,-0.0609 0.25471,-0.27104 z m 28.652909,-3.5699 c -0.0666,-1.73694 -0.15426,-2.25188 -0.49544,-2.90958 -0.22798,-0.43953 -0.31736,-0.73856 -0.19862,-0.66451 0.72348,0.45111 1.32676,3.6546 0.94956,5.04224 -0.14587,0.53667 -0.1879,0.29522 -0.2555,-1.46815 z m -34.748759,1.27598 c 0.8326,-0.18962 1.76676,-0.47205 2.07589,-0.62764 0.30913,-0.15559 0.59763,-0.247 0.64111,-0.20314 0.28839,0.29096 -2.64576,1.22544 -3.73957,1.19099 -0.2702,-0.009 0.18996,-0.17061 1.02257,-0.36021 z m 35.979989,-1.27598 c 0.23521,-0.78577 0.11247,-2.42633 -0.27401,-3.66247 -0.42297,-1.35285 -0.4002,-1.69011 0.0349,-0.51665 0.71075,1.91697 0.82183,3.58644 0.2903,4.36265 -0.14093,0.20578 -0.15384,0.15946 -0.0512,-0.18353 z m -12.88946,-0.28113 c -0.0737,-0.0782 -1.83355,-0.12988 -3.91084,-0.11499 -2.07728,0.0149 -4.63636,-0.0635 -5.68683,-0.17433 -4.212949,-0.44427 -7.932789,-1.80254 -10.627349,-3.88047 -1.67365,-1.29064 -1.74401,-1.65309 -0.11445,-0.58957 3.12577,2.04004 7.4736,3.47916 11.876439,3.93107 1.65259,0.16963 7.38686,0.29027 10.94181,0.23022 2.77564,-0.0469 4.66488,-0.65218 5.97102,-1.91304 0.5839,-0.56365 0.66478,-0.79364 1.24466,-3.53911 0.54892,-2.599 0.61897,-3.24194 0.60975,-5.59728 -0.01,-2.38359 -0.0809,-2.9767 -0.68691,-5.68905 -0.37207,-1.66542 -0.80488,-3.6887 -0.96181,-4.49618 -0.68774,-3.53887 -2.32526,-4.9357 -6.77484,-5.779 -1.45649,-0.27605 -9.28017,-0.82908 -11.47832,-0.81138 -1.737349,0.014 -2.112469,0.0842 -4.150919,0.77751 -2.80533,0.95403 -5.25594,2.22035 -6.41874,3.31682 l -0.89548,0.84439 -0.35952,5.41377 c -0.19774,2.97757 -0.38537,5.95056 -0.41696,6.60663 -0.0316,0.65608 -0.0683,0.0367 -0.0816,-1.37638 -0.0132,-1.41308 0.0755,-4.40372 0.19736,-6.64586 0.19687,-3.62265 0.26329,-4.13355 0.59649,-4.58795 1.61582,-2.20354 8.04748,-4.99763 11.529379,-5.00867 0.65029,-0.002 2.32831,0.0793 3.72895,0.18077 1.40062,0.10148 3.65163,0.26432 5.00223,0.36187 4.22103,0.30488 6.5489,1.01671 8.17657,2.5003 1.0627,0.96862 1.57988,2.11111 2.09119,4.61951 0.24182,1.1863 0.64511,3.10662 0.89622,4.26738 0.64523,2.98254 0.85862,5.39082 0.64541,7.28392 -0.16828,1.49408 -0.80793,4.80036 -1.24154,6.41724 -0.33797,1.26028 -2.05836,2.49022 -4.33475,3.099 -1.16823,0.31241 -5.15746,0.57472 -5.3666,0.35286 z m -24.633169,-1.47714 c 0.58442,-0.14275 1.13695,-0.30591 1.22782,-0.36258 0.0909,-0.0566 0.16523,-0.0526 0.16523,0.009 0,0.21528 -1.26682,0.64365 -1.85863,0.62848 -0.48117,-0.0123 -0.39083,-0.0657 0.46558,-0.27484 z m -6.17348,-2.05665 c -3.79692,-2.70236 -7.81186,-6.34115 -9.27779,-8.40854 -1.56525,-2.20746 -2.41901,-4.70375 -3.16299,-9.24808 -0.58095,-3.54865 -0.48765,-3.36437 -1.11261,-2.19736 -0.29586,0.55246 -0.68432,1.19759 -0.86324,1.4336 -0.31653,0.41752 -0.344,0.42124 -1.01676,0.13763 -0.85757,-0.3615 -1.01082,-0.36395 -1.01082,-0.0162 0,0.54864 -0.86028,0.30303 -1.446269,-0.41292 -1.203557,-1.4705 -3.201997,-6.01586 -4.256224,-9.68055 -2.097946,-7.2929 -2.690098,-13.13597 -2.0365,-20.09518 0.165896,-1.76634 0.36621,-3.50342 0.445117,-3.86014 0.115896,-0.52384 0.02416,-0.96105 -0.476616,-2.27307 -1.131713,-2.9647 -2.038151,-7.08454 -2.809439,-12.76909 -0.324158,-2.3891 -0.322923,-11.29857 0.0022,-13.48853 0.679719,-4.5831 1.695766,-7.82215 3.754176,-11.96796 4.723001,-9.51248 11.983215,-17.45535 21.388555,-23.39962 1.05746,-0.668332 2.24434,-1.274372 2.63754,-1.346778 1.40987,-0.259581 3.86583,-1.247346 7.35422,-2.957787 4.13693,-2.028428 5.33913,-2.513435 7.18202,-2.897478 2.6567,-0.553639 4.14495,-0.39293 8.450049,0.912458 2.21777,0.672483 4.86895,1.115894 10.45269,1.748227 2.711,0.307022 5.93863,0.763429 7.1725,1.014264 4.34876,0.88403 9.72195,2.974134 13.71019,5.333072 0.9394,0.555645 1.7577,1.235504 2.47427,2.055702 4.58665,5.24996 8.01599,11.74483 11.42008,21.62869 l 1.14897,3.33606 -1.16137,17.67671 c -0.63875,9.72217 -1.21905,18.64703 -1.28955,19.83301 -0.0705,1.18599 -0.17846,2.15545 -0.23989,2.15436 -0.0615,-0.001 -0.63591,-0.37136 -1.27662,-0.82282 -1.69358,-1.19336 -2.82985,-1.31726 -3.26401,-0.3559 -0.11522,0.25514 -0.21387,1.18261 -0.21921,2.06105 -0.005,0.87842 -0.20858,3.08363 -0.45164,4.90045 -0.24307,1.81683 -0.40276,2.72524 -0.35489,2.01869 0.0479,-0.70654 0.13503,-2.97757 0.19366,-5.04672 0.0586,-2.06917 0.19299,-3.99238 0.29858,-4.27381 0.23783,-0.63386 0.64391,-0.86321 1.53986,-0.86975 0.58474,-0.004 0.32157,-0.14803 -1.67061,-0.91252 -1.30058,-0.49911 -2.53643,-0.90974 -2.74633,-0.91253 -0.35635,-0.004 -0.38937,0.12251 -0.49844,1.92099 -0.15593,2.57131 -0.43267,4.30001 -0.95826,5.98606 l -0.43556,1.39723 -1.0884,0.49279 c -1.54018,0.69733 -3.09775,0.98413 -6.64218,1.22303 -4.31723,0.29099 -9.8845,-0.006 -12.89628,-0.68909 -1.06289,-0.24089 -1.37119,-0.40527 -2.01641,-1.07507 -0.83617,-0.86801 -1.97438,-2.91393 -2.49751,-4.48927 l -0.33528,-1.00963 0.1065,1.61761 c 0.13019,1.97684 0.65918,4.14099 1.26865,5.19021 0.44277,0.76224 0.94054,1.24 2.9918,2.87151 1.8825,1.49729 2.45981,3.69844 1.43342,5.46541 -0.52977,0.912 -1.61926,1.64565 -2.44974,1.6496 -0.28651,10e-4 -1.19117,-0.17496 -2.01034,-0.39184 -1.68543,-0.44619 -1.67283,-0.4493 -3.86056,0.95179 -0.86832,0.5561 -1.12758,0.63044 -2.19869,0.63044 -1.09647,0 -1.31868,-0.0677 -2.2898,-0.69801 -2.04016,-1.32409 -2.71947,-1.56133 -5.049979,-1.76356 -3.14051,-0.27253 -3.88678,-0.86238 -4.07439,-3.22038 -0.15978,-2.00834 0.61387,-3.10423 3.35965,-4.759 1.281609,-0.77237 1.692789,-1.2766 2.111069,-2.5888 0.51833,-1.62609 1.2139,-7.09553 1.2139,-9.54517 0,-1.06108 -0.0295,-1.14845 -0.35932,-1.06145 -0.24337,0.0643 -0.39603,0.31034 -0.47308,0.76277 -0.8938,5.24806 -2.070679,8.44262 -3.725279,10.11193 -1.05818,1.06759 -1.79505,1.33247 -4.71919,1.69641 -2.34578,0.29197 -10.21877,0.28892 -12.33944,-0.005 -1.85152,-0.25641 -3.4701,-0.9605 -4.27543,-1.85983 -1.07967,-1.20569 -2.13733,-4.28621 -2.36563,-6.89004 -0.0888,-1.01198 -0.0708,-0.97485 0.22163,0.45878 0.67725,3.32027 1.794,5.75245 3.03764,6.6157 1.39513,0.96842 2.40457,1.12881 7.71765,1.2262 4.8111,0.0882 8.70873,-0.16852 10.60851,-0.6987 0.84756,-0.23652 1.94691,-1.20803 2.55854,-2.26096 0.98775,-1.70048 2.199629,-5.56619 2.558509,-8.16136 l 0.11087,-0.80163 -0.86962,0.1251 c -1.988899,0.28611 -2.325609,0.30906 -2.051959,0.13983 0.15007,-0.0928 0.86631,-0.3204 1.59163,-0.5058 1.043669,-0.26675 1.318769,-0.40815 1.318769,-0.67784 0,-0.87961 -1.316149,-2.36935 -2.719749,-3.07848 -3.09463,-1.56346 -6.65377,-2.10593 -12.8948,-1.96531 -6.03756,0.13602 -9.36802,0.80309 -10.32421,2.06786 -0.61227,0.80987 -1.02674,2.2116 -0.8931,3.02042 0.0776,0.46986 0.0562,0.5684 -0.0797,0.36703 -0.50602,-0.74946 0.0321,-2.93254 0.97022,-3.93609 0.65243,-0.69793 2.09044,-1.2047 4.68387,-1.65066 6.76729,-1.16368 14.36248,-0.64318 18.45555,1.26475 1.66591,0.77655 2.648599,1.68361 3.189369,2.94394 0.57117,1.33116 1.05386,1.39232 1.09955,0.13932 l 0.0318,-0.87171 0.0694,0.77505 0.0694,0.77505 1.46352,-0.77302 c 1.9315,-1.02017 2.85759,-1.03345 5.07465,-0.0727 1.66119,0.71984 2.0892,0.80465 2.23399,0.44264 0.0586,-0.14659 0.097,-0.12203 0.10606,0.068 0.0114,0.23682 0.32025,0.32646 1.51503,0.43977 1.67404,0.15876 1.41844,0.40457 -0.45475,0.43733 -0.70753,0.0123 -1.04496,0.0925 -1.04296,0.24769 0.0222,1.71619 0.42189,4.54096 0.82455,5.82668 0.86085,2.74874 2.20923,5.00881 3.32519,5.57349 1.70968,0.86511 8.78956,1.27375 14.67389,0.84695 4.50893,-0.32703 6.30136,-0.9299 6.75923,-2.27341 0.43811,-1.28555 0.79067,-3.46164 0.92997,-5.73986 l 0.13665,-2.23515 -1.09348,-0.12997 c -0.80759,-0.096 -0.99837,-0.16795 -0.72969,-0.27531 0.2001,-0.0799 0.66592,-0.15116 1.03518,-0.15825 0.36927,-0.008 0.70682,-0.0748 0.75013,-0.15054 0.16105,-0.28153 -0.23834,-2.65208 -0.57695,-3.42436 -0.29773,-0.67908 -0.52561,-0.88666 -1.50716,-1.37296 -1.57505,-0.78036 -3.13846,-1.08125 -6.88622,-1.3253 -3.48292,-0.22682 -11.01162,-0.11004 -13.33432,0.20683 -2.5812,0.35212 -4.14507,1.16605 -4.62183,2.40547 l -0.23846,0.61992 0.0912,-0.6423 c 0.1908,-1.34355 2.06923,-2.35203 5.37044,-2.88328 2.91918,-0.46976 14.2943,-0.46414 16.77179,0.009 1.97438,0.37649 4.145,1.32066 4.58156,1.99286 0.46317,0.71317 0.85144,2.00919 0.96525,3.22195 0.0906,0.9662 0.16208,1.14699 0.45306,1.14699 0.73426,0 6.87794,2.54804 6.87794,2.85256 0,0.11233 -0.34413,0.0582 -1.36424,-0.21447 -0.2001,-0.0535 -0.0773,0.0823 0.27284,0.30162 0.35017,0.21939 0.98453,0.73848 1.40972,1.15353 0.44528,0.43466 0.77308,0.64298 0.77308,0.49132 0,-0.14481 0.24482,-5.50925 0.54406,-11.92096 0.29925,-6.41172 0.70366,-15.15812 0.89872,-19.43645 l 0.35466,-7.7788 -1.09751,-3.1405 c -3.40522,-9.74411 -6.77332,-16.15382 -10.9205,-20.782427 -1.73607,-1.937612 -4.31721,-3.518714 -8.46776,-5.186997 -4.70118,-1.8896 -7.21464,-2.441622 -15.14497,-3.326212 -5.71959,-0.637995 -8.6326,-1.183331 -11.52285,-2.157131 -1.860099,-0.626725 -2.194899,-0.682965 -4.029559,-0.676915 -2.71264,0.0086 -4.04028,0.415857 -8.6402,2.648101 -4.28172,2.077831 -5.94007,2.766793 -7.73074,3.211758 -0.81615,0.202811 -1.88021,0.680625 -2.96376,1.330849 -0.92976,0.557953 -1.66219,1.042992 -1.62763,1.077869 0.0345,0.03494 1.07286,-0.0302 2.3073,-0.144791 2.25127,-0.20884 4.43986,-0.113862 9.65102,0.418801 2.24974,0.229956 4.23392,0.102452 6.36102,-0.408901 2.44276,-0.5872 3.69451,-0.264099 7.554399,1.949896 6.22987,3.57341 9.30472,4.6134 21.46402,7.25967 4.76678,1.0374 6.10785,1.47103 7.94161,2.56794 1.72721,1.03314 2.79177,2.07923 6.55456,6.44085 l 3.32997,3.85993 1.94552,5.37396 c 2.28703,6.3172 2.09082,4.46012 1.77841,16.83273 -0.1164,4.60958 -0.18335,9.57845 -0.14879,11.04193 0.0346,1.46349 0.0374,2.63507 0.007,2.60352 -0.28926,-0.29331 -0.45139,-3.93087 -0.55203,-12.38513 l -0.11898,-9.99502 -0.61958,-0.17908 c -1.3465,-0.38923 -2.46725,-2.13227 -3.58549,-5.57637 -0.3435,-1.05791 -1.03583,-2.7313 -1.53853,-3.71866 -1.71656,-3.37151 -3.56336,-5.38057 -6.06449,-6.59726 -1.56766,-0.76261 -2.52836,-0.97863 -7.38231,-1.65993 -10.42208,-1.46285 -13.38494,-2.40286 -17.0076,-5.39596 -1.32403,-1.09394 -4.38632,-2.58666 -7.09407,-3.45806 -3.866499,-1.24426 -6.541999,-1.59141 -13.278649,-1.72286 -7.11654,-0.13888 -13.38899,0.34854 -14.57506,1.13259 -0.4345,0.28723 -0.51255,0.88787 -0.72512,5.57979 l -0.1197,2.6419 1.2795,-1.35727 c 4.34418,-4.60825 11.785,-5.81787 19.62649,-3.19058 2.11378,0.70821 2.9934,1.13565 8.520139,4.14012 7.70789,4.19022 10.04759,4.89257 19.82704,5.95196 5.23604,0.5672 9.07071,1.10948 10.53718,1.49008 2.99689,0.7778 4.74835,2.59939 6.19626,6.44436 1.82706,4.85183 2.48357,5.69073 5.00353,6.39359 0.45021,0.12557 0.64924,0.23569 0.4423,0.24472 -0.57189,0.0249 -2.2923,-0.53214 -2.82573,-0.91498 -0.79955,-0.57384 -1.74336,-2.16678 -2.81376,-4.74898 -1.13095,-2.7283 -1.86209,-3.97995 -2.92065,-4.99994 -1.59169,-1.53368 -3.50075,-1.97795 -12.43679,-2.89423 -11.63981,-1.19355 -13.22366,-1.6678 -22.34407,-6.69042 -4.938339,-2.71955 -6.284689,-3.34764 -8.689869,-4.05392 -7.13647,-2.09562 -13.97048,-0.88236 -18.10384,3.21398 l -1.24836,1.23718 v 1.85908 c 0,1.0225 0.0615,1.85527 0.13642,1.85062 0.075,-0.005 0.87312,-0.70589 1.77353,-1.55826 2.89136,-2.73715 6.3372,-4.153 10.18637,-4.18545 3.22654,-0.0272 6.23598,0.84242 11.45806,3.31098 3.764779,1.77967 4.508579,2.01154 7.311259,2.27921 3.38741,0.3235 3.27077,0.58299 -0.21558,0.47968 -3.25928,-0.0966 -3.28007,-0.10191 -7.275989,-1.88148 -3.05227,-1.35929 -6.38828,-2.55204 -8.18506,-2.92648 -4.46908,-0.93133 -8.65514,0.10655 -12.79548,3.17263 -1.16639,0.86373 -2.15233,1.59364 -2.191,1.62203 -0.0387,0.0284 -0.0549,0.75605 -0.0362,1.61703 0.0188,0.86098 -0.0412,1.56542 -0.13338,1.56542 -0.22764,0 -0.52834,-1.6626 -0.77999,-4.31266 -0.26295,-2.76902 -0.10278,-10.27683 0.26043,-12.20392 0.14267,-0.75702 0.2417,-1.39763 0.2201,-1.42358 -0.0845,-0.10148 -5.30786,7.2033 -7.44794,10.41593 -3.35879,5.04213 -4.855685,8.0005 -6.097389,12.05051 -1.714025,5.59049 -2.689311,13.29171 -2.52943,19.9733 0.0398,1.66209 0.01651,2.92011 -0.05161,2.79562 -0.586303,-1.07105 -0.810988,-9.31537 -0.363771,-13.34787 0.537123,-4.84312 1.550753,-9.14129 3.044586,-12.9102 1.957166,-4.93783 5.709614,-10.51339 12.185834,-18.10626 1.06438,-1.2479 1.55132,-1.97994 1.70833,-2.56821 0.12079,-0.45255 0.38048,-1.140969 0.57711,-1.529811 0.19663,-0.388864 0.33045,-0.734321 0.29735,-0.76771 -0.18167,-0.183281 -3.73681,2.957231 -6.4297,5.679821 -6.834878,6.91025 -11.782958,15.27372 -13.347947,22.56127 -1.220647,5.68412 -1.287987,13.8259 -0.17907,21.65369 0.486577,3.43477 1.900103,8.92709 2.297517,8.92709 0.05095,0 0.372332,-0.24774 0.714171,-0.55054 0.703073,-0.62279 1.417046,-0.70773 2.258571,-0.2687 0.912692,0.47617 1.550273,1.60745 2.353301,4.17559 1.654057,5.2897 2.388137,7.41492 2.831757,8.19811 0.39812,0.70287 0.41126,0.77077 0.0929,0.48009 -0.64267,-0.58678 -1.94377,-3.57217 -2.925464,-6.71253 -0.520613,-1.66543 -1.147949,-3.45957 -1.394086,-3.98699 -0.792641,-1.69853 -1.810579,-2.10007 -3.24477,-1.27996 l -0.727597,0.41606 0.0033,6.69223 c 0.0033,6.51544 0.01684,6.76486 0.506345,9.44218 1.05145,5.75084 2.315295,10.27537 3.983235,14.25986 1.274681,3.04507 1.625097,3.48428 3.030887,3.79893 0.62077,0.13893 1.15205,0.22103 1.18062,0.18244 0.0286,-0.0386 0.42899,-0.62284 0.8898,-1.29828 l 0.83784,-1.2281 -0.43001,-3.4516 c -0.59541,-4.77932 -1.50111,-15.30656 -1.29935,-15.10279 0.0488,0.0493 0.42562,2.97998 0.83741,6.5127 1.79393,15.38999 2.79908,20.63015 4.49863,23.4528 1.39505,2.31693 4.06606,4.99468 8.8546,8.87696 1.28642,1.04293 2.26868,1.89314 2.18279,1.88933 -0.0858,-0.003 -0.81893,-0.47866 -1.62902,-1.05523 z m 29.758249,-31.60396 c 0.84992,-0.50467 1.70921,-0.92959 1.90953,-0.94427 0.73347,-0.0537 1.61556,0.0675 2.32282,0.31927 1.58361,0.56371 2.91817,0.11816 3.61632,-1.20731 0.61207,-1.16206 0.32972,-2.9699 -0.62685,-4.01349 -0.22032,-0.24036 -1.0145,-0.9128 -1.76483,-1.4943 -2.4643,-1.90978 -3.1312,-3.69286 -3.49607,-9.3474 -0.12095,-1.87423 -0.20516,-3.95764 -0.18715,-4.62985 l 0.0327,-1.22216 -1.13063,-0.37216 c -0.62185,-0.20469 -1.62035,-0.54996 -2.21889,-0.76727 -1.36634,-0.49606 -2.02215,-0.40393 -3.89803,0.54765 l -1.41486,0.7177 -0.11448,3.08614 c -0.1833,4.94136 -0.81403,8.29242 -1.78428,9.47999 -0.29248,0.35797 -1.041219,0.95701 -1.663869,1.33117 -1.34002,0.80525 -2.23922,1.61308 -2.6264,2.3595 -0.35321,0.68096 -0.34886,2.22022 0.009,3.08364 0.41366,0.99885 0.94712,1.24771 3.069,1.43169 2.644359,0.22929 3.434139,0.46137 4.936069,1.45057 1.61045,1.06067 1.64774,1.07596 2.66687,1.09399 0.66994,0.0119 1.10016,-0.15248 2.36428,-0.9031 z m -0.5457,-2.92682 c -0.21158,-0.14529 -0.13742,-0.18799 0.33029,-0.19016 1.45446,-0.006 2.02441,-1.044 2.03041,-3.69501 0.003,-1.51276 -0.30437,-4.06079 -0.63192,-5.23126 -0.0529,-0.1893 0.0617,-0.0139 0.25483,0.38988 1.21599,2.54209 1.19147,7.15095 -0.0443,8.32222 -0.4916,0.46594 -1.53331,0.68313 -1.93931,0.40433 z M 110.9366,157.056 c 0.009,-0.21378 0.0518,-0.25726 0.10991,-0.11087 0.0525,0.13249 0.046,0.29077 -0.0143,0.35174 -0.0605,0.0609 -0.10343,-0.0473 -0.0956,-0.24087 z m 32.25882,-32.65011 c -1.05885,-2.85978 -2.10279,-5.43859 -2.31984,-5.7307 -1.08776,-1.46377 -7.11637,-8.11997 -7.88262,-8.7032 -2.29428,-1.7463 -3.85631,-2.31189 -10.06535,-3.64448 -4.27217,-0.9169 -9.29346,-2.19196 -11.61207,-2.94866 -2.64096,-0.86189 -5.16894,-2.04915 -8.75026,-4.109577 -2.12337,-1.221646 -3.716829,-2.010213 -4.486999,-2.220541 -1.14675,-0.313179 -1.24614,-0.312974 -2.49705,0.0043 -2.14002,0.543911 -5.17548,0.57222 -8.85161,0.0825 -3.23177,-0.430491 -9.32043,-0.610397 -10.39031,-0.307021 -0.53214,0.150896 -1.31366,1.09135 -1.71775,2.06708 l -0.26599,0.642243 9.23384,0.0075 c 12.03214,0.0086 14.33441,0.136854 16.509819,0.916246 1.59249,0.57052 3.36513,1.3866 3.36513,1.54921 0,0.0443 -0.34787,-0.045 -0.77307,-0.19825 -0.42518,-0.15332 -1.69946,-0.52128 -2.831729,-0.81768 -1.97442,-0.51688 -2.22376,-0.53906 -6.09362,-0.54223 -4.20869,-0.003 -13.7808,-0.26203 -17.43044,-0.470872 l -2.11768,-0.121174 -0.28686,1.272466 c -0.15777,0.69985 -0.341,1.73719 -0.40717,2.3052 l -0.12031,1.03272 0.73473,-0.36676 c 2.80503,-1.40015 14.99436,-2.17932 21.51844,-1.37551 5.713549,0.70396 10.935299,2.62376 14.063669,5.17056 1.92189,1.56463 4.60377,2.81025 7.51937,3.49243 1.30854,0.30618 8.25183,1.45612 10.50826,1.74038 4.81155,0.60616 7.43352,1.93494 9.8159,4.9746 1.48758,1.89799 2.99415,4.96006 3.73091,7.58293 0.94784,3.37441 1.83739,5.00619 3.00604,5.51431 l 0.54569,0.23727 0.13706,-0.91794 c 0.12967,-0.86836 0.033,-1.19889 -1.78813,-6.11756 z m -58.992459,84.91293 c -0.0182,-0.5518 0.40446,-1.68843 0.62779,-1.68843 0.051,0 0.003,0.16901 -0.1066,0.37558 -0.10956,0.20655 -0.26719,0.7227 -0.35027,1.14698 -0.14337,0.73228 -0.15204,0.74069 -0.17097,0.16587 z m 38.510759,-3.5236 c 0.0384,-1.36262 -0.0205,-3.37908 -0.13087,-4.48102 -0.11039,-1.10193 -0.16931,-2.03519 -0.13093,-2.07389 0.17779,-0.17938 0.51603,2.4758 0.58956,4.62796 0.0549,1.60791 0.003,2.7148 -0.15804,3.39508 -0.22832,0.96211 -0.23626,0.89339 -0.16972,-1.46813 z m -21.04707,-0.003 c -2.417679,-0.42413 -3.747659,-1.0796 -4.276919,-2.10787 -0.46108,-0.8958 -0.60796,-3.07386 -0.25302,-3.75207 0.57674,-1.10204 2.53121,-1.66433 5.691009,-1.63729 l 2.18279,0.0187 -2.27374,0.23022 c -3.558149,0.36027 -4.762899,0.79171 -5.207309,1.86479 -0.32941,0.79541 -0.1915,1.92297 0.35786,2.92558 0.5435,0.99194 1.57448,1.4519 4.053389,1.80838 1.70579,0.24532 2.51952,0.26017 5.18414,0.0946 4.33232,-0.26913 4.22432,-0.24339 5.26396,-1.25439 0.83172,-0.8088 0.89813,-0.93865 0.89813,-1.75588 0,-0.55602 -0.17543,-1.27689 -0.47422,-1.94861 -0.39387,-0.88546 -0.59245,-1.11383 -1.1719,-1.34774 -0.96727,-0.39047 -2.70868,-0.65257 -4.53846,-0.68312 l -1.54615,-0.0258 1.4552,-0.16266 c 1.63551,-0.18282 3.82261,0.032 4.94694,0.48585 0.58049,0.23433 0.80745,0.48239 1.22345,1.33717 0.29758,0.61147 0.5505,1.48959 0.606,2.10402 0.0841,0.93084 0.0382,1.13766 -0.39142,1.76304 -0.26766,0.38967 -0.83281,0.9593 -1.25588,1.26583 -0.74763,0.54168 -0.85597,0.56314 -3.85866,0.76425 -1.69918,0.1138 -3.45778,0.23783 -3.90798,0.27561 -0.45019,0.0379 -1.66844,-0.0805 -2.70721,-0.26264 z m -13.243569,-0.82326 c 0.001,-0.60559 0.035,-0.83123 0.0754,-0.50137 0.0405,0.32984 0.0397,0.82534 -0.002,1.10111 -0.0416,0.27575 -0.0747,0.005 -0.0736,-0.59974 z m -2.03248,-0.37441 c -0.0212,-0.94549 0.73751,-6.05132 0.98055,-6.59925 0.1457,-0.32848 -0.10975,1.79898 -0.39117,3.25771 -0.15093,0.7824 -0.33971,2.10373 -0.4195,2.93628 -0.1423,1.48466 -0.14556,1.49245 -0.16988,0.40526 z m 35.642899,-7.51663 c -0.0231,-0.63137 -0.50883,-3.61876 -0.82061,-5.04674 -0.0551,-0.25233 0.0549,0.001 0.24434,0.56375 0.37891,1.12457 0.83212,4.31318 0.69178,4.867 -0.0488,0.19253 -0.10081,0.0197 -0.11551,-0.38401 z m -20.93383,-0.12277 c -2.517659,-0.1957 -3.667329,-0.54513 -6.962359,-2.11625 -1.8375,-0.87613 -2.65261,-1.17458 -3.04803,-1.11603 -0.62646,0.0927 -0.63498,0.0823 -0.24904,-0.30713 0.40579,-0.4094 1.06512,-0.25689 4.51402,1.0442 3.59751,1.35714 4.5145,1.47084 12.020949,1.4905 l 5.45698,0.0142 2.88631,-0.78321 c 1.58748,-0.43077 3.01874,-0.75749 3.18059,-0.72604 0.36692,0.0713 -1.70856,1.0146 -3.89436,1.76999 -2.59419,0.89652 -8.06493,1.1836 -13.90506,0.72966 z m -14.892399,-1.69489 c -0.24952,-0.99974 -0.26361,-2.6691 -0.0257,-3.04556 0.12048,-0.19067 0.1418,-0.0733 0.0693,0.3818 -0.0575,0.36139 -0.0118,1.26042 0.10158,1.99785 0.23541,1.53073 0.15855,1.88313 -0.14525,0.66591 z m 37.166459,-1.30214 c 0.004,-1.21122 -0.0539,-2.44996 -0.13029,-2.75276 -0.12189,-0.483 -0.11175,-0.50551 0.0825,-0.18352 0.2769,0.45888 0.40967,3.42058 0.19744,4.40442 -0.12031,0.55777 -0.15628,0.20518 -0.1497,-1.46814 z m 16.56147,0.57252 c 1.91196,-0.91794 2.57766,-1.44437 3.3354,-2.63756 1.16438,-1.83355 2.3037,-6.39255 2.84023,-11.36524 0.42686,-3.95616 0.70164,-10.58303 0.59596,-14.37263 -0.11472,-4.1137 0.12349,-3.61748 0.42585,0.88708 0.60116,8.95599 -0.77854,20.60203 -2.87345,24.25482 -1.13642,1.98154 -1.89884,2.62691 -4.12501,3.49175 -2.0109,0.78121 -2.10625,0.65747 -0.19898,-0.25822 z m -52.341859,0.19242 c -0.24593,-0.60734 -0.13315,-1.85272 0.23545,-2.60011 0.19912,-0.40374 0.31056,-0.56891 0.24765,-0.36704 -0.0629,0.20186 -0.1667,1.0277 -0.23066,1.83517 -0.0733,0.92433 -0.16673,1.34362 -0.25244,1.13198 z m 27.627739,-2.40877 c -3.27712,-0.96921 -4.72258,-1.13133 -12.46629,-1.39819 -6.910209,-0.23813 -8.106019,-0.10278 -10.841029,1.22706 -0.86139,0.41884 -0.88545,0.42131 -0.45475,0.0466 0.57518,-0.50037 2.11804,-1.22362 3.33579,-1.56373 1.45097,-0.40525 4.68282,-0.49339 9.760959,-0.26622 6.22686,0.27857 7.85622,0.52574 10.98989,1.66712 2.3547,0.85765 2.96153,1.11888 2.54647,1.09624 -0.0917,-0.005 -1.38368,-0.36902 -2.87104,-0.80891 z m 7.00003,-0.75668 c -0.0116,-0.31093 -0.22193,-0.97159 -0.46738,-1.46814 l -0.44629,-0.9028 0.44554,0.55055 c 0.4692,0.57978 0.72149,1.47616 0.57592,2.04624 -0.0529,0.20741 -0.0949,0.11955 -0.1078,-0.22585 z m 4.54421,-3.10749 c -0.96374,-2.11967 -3.0113,-5.61104 -4.30361,-7.33824 -1.08669,-1.45237 -2.02695,-2.4052 -3.06105,-3.10191 -0.95906,-0.64615 -0.56988,-0.60878 0.44453,0.0427 2.25522,1.44836 5.69454,6.55412 7.4615,11.07678 0.60539,1.54958 0.29488,1.15994 -0.54137,-0.67931 z m -38.871299,0.96419 c 0.10518,-0.8379 0.68288,-1.69798 1.3875,-2.0656 0.82511,-0.43047 0.84125,-0.31955 0.0388,0.2669 -0.51942,0.37961 -0.85283,0.82812 -1.12548,1.51402 -0.36549,0.91942 -0.38252,0.93554 -0.30083,0.28468 z m 30.051369,-2.51262 c 0.11105,-0.15636 0.29273,-0.44944 0.40373,-0.65132 0.11101,-0.20186 0.20433,-0.26841 0.20737,-0.14786 0.003,0.12054 -0.17865,0.41362 -0.40374,0.6513 -0.2251,0.23768 -0.31841,0.30422 -0.20736,0.14788 z m -25.568379,-0.61133 c -0.013,-0.49961 0.43971,-1.47544 0.82735,-1.78339 0.31771,-0.25241 0.32647,-0.24948 0.10551,0.0354 -0.13255,0.17085 -0.39475,0.70764 -0.58267,1.19286 -0.18792,0.48523 -0.3455,0.73506 -0.35018,0.55517 z m 24.143689,-0.67044 c 0.16855,-0.29629 0.34222,-0.50262 0.38592,-0.45852 0.11159,0.11258 -0.37604,0.99722 -0.54966,0.99722 -0.0785,0 -0.004,-0.24241 0.16374,-0.5387 z m -22.404889,-0.1495 c 0.149,-0.64183 0.64184,-1.73403 0.73848,-1.63654 0.11587,0.11691 -0.55979,2.13588 -0.71572,2.1387 -0.077,0.001 -0.0871,-0.22458 -0.0228,-0.50216 z m 1.72639,-0.22939 c -0.0256,-0.75317 0.32209,-1.75673 0.73747,-2.12882 l 0.38925,-0.34866 -0.23987,0.45879 c -0.13193,0.25233 -0.38193,0.913 -0.55557,1.46813 -0.20997,0.67133 -0.32092,0.8557 -0.33128,0.55056 z m 18.282369,-0.87634 c -0.0654,-0.58293 -0.28335,-1.33278 -0.48441,-1.66634 -0.20107,-0.33357 -0.28036,-0.55334 -0.17621,-0.4884 0.36175,0.22556 0.7263,1.17009 0.84505,2.18945 0.0657,0.56383 0.0779,1.02516 0.027,1.02516 -0.0508,0 -0.14599,-0.47694 -0.21136,-1.05987 z m -6.1582,0.47651 c 0.22511,-0.24731 0.40928,-0.60261 0.40928,-0.78956 0,-0.18696 0.0507,-0.28871 0.1128,-0.22612 0.21997,0.22192 -0.1231,1.04104 -0.52422,1.25161 l -0.40712,0.21371 z m -2.94361,-0.13706 c -0.17434,-0.19436 -0.28935,-0.47177 -0.25556,-0.61644 0.0359,-0.15382 0.18405,-0.008 0.35674,0.35337 0.3419,0.71372 0.33025,0.74403 -0.10114,0.26307 z m -5.393329,-0.59257 c -0.26498,-0.49956 -0.2944,-1.9765 -0.0482,-2.42038 0.13933,-0.25116 0.16562,-0.0788 0.10344,0.6779 -0.0458,0.55805 0.004,1.26737 0.11064,1.57627 0.225039,0.65128 0.13782,0.73869 -0.16586,0.16621 z m 12.312539,-1.04484 -0.34453,-0.4867 0.42537,0.40781 c 0.23395,0.22431 0.38898,0.44332 0.34453,0.4867 -0.0445,0.0434 -0.23588,-0.14013 -0.42537,-0.40781 z m -25.474819,-0.34907 c 2.07541,-2.80991 3.79397,-4.49341 5.73544,-5.61838 1.39675,-0.80936 1.23976,-0.5393 -0.20624,0.35477 -1.58712,0.98131 -3.01047,2.3326 -4.67445,4.43778 -1.21152,1.53279 -1.78898,2.0907 -0.85475,0.82583 z m 54.468509,0.052 c 0,-0.0619 0.15448,-0.41892 0.3433,-0.79341 0.64083,-1.27095 1.11238,-3.19404 1.231,-5.02026 0.12653,-1.94779 0.34817,-2.24199 0.7292,-0.96792 0.54833,1.83352 0.0649,4.46017 -1.10571,6.0087 -0.50116,0.6629 -1.19779,1.11242 -1.19779,0.77289 z m -79.294976,-3.58709 c -1.784546,-1.87481 -2.506118,-3.64657 -2.190291,-5.37805 0.205704,-1.12774 1.302616,-3.40873 1.92114,-3.99498 0.562128,-0.5328 0.551938,-0.39155 -0.114541,1.58735 -1.136764,3.37524 -1.11411,3.67936 0.488371,6.55476 0.550138,0.98712 0.967308,1.89447 0.927038,2.01633 -0.0409,0.1239 -0.4957,-0.2223 -1.031717,-0.78541 z m 3.419707,-9.31115 c -0.22626,-0.29108 -0.21983,-0.29757 0.0687,-0.0693 0.30301,0.23974 0.39935,0.39044 0.24965,0.39044 -0.0377,0 -0.18102,-0.14452 -0.31832,-0.32116 z m 75.889619,-0.15294 c 0.009,-0.21379 0.0518,-0.25727 0.1099,-0.11087 0.0525,0.13247 0.046,0.29076 -0.0143,0.35174 -0.0605,0.0609 -0.10343,-0.0474 -0.0956,-0.24087 z m -75.511459,-2.64571 c -0.0931,-3.22654 0.0972,-7.52865 0.36949,-8.35005 0.16399,-0.49473 0.17066,-0.47613 0.0658,0.18352 -0.0642,0.40374 -0.16991,3.04639 -0.23494,5.87256 -0.11044,4.80002 -0.12364,4.95112 -0.20034,2.29397 z m -7.994754,0.68501 c -0.847572,-1.93313 -0.970782,-4.79319 -0.248641,-5.77175 0.849036,-1.15049 2.026769,-0.92514 2.79107,0.53404 0.247799,0.47313 0.389542,0.92177 0.314975,0.997 -0.07457,0.0753 -0.444472,-0.16754 -0.822031,-0.53949 -0.377547,-0.37194 -0.813097,-0.67626 -0.967906,-0.67626 -0.659514,0 -0.872336,1.87749 -0.547324,4.82827 0.07566,0.68732 0.06954,1.29213 -0.01367,1.34402 -0.08321,0.0519 -0.311137,-0.27024 -0.506498,-0.71583 z m 83.359503,0.0491 c 0,-0.45421 0.0355,-0.64002 0.0788,-0.41291 0.0434,0.22709 0.0434,0.59872 0,0.82582 -0.0434,0.2271 -0.0788,0.0413 -0.0788,-0.41291 z m -0.17941,-1.92694 c 0.001,-0.50466 0.0367,-0.68935 0.0785,-0.41039 0.0418,0.27896 0.0407,0.69188 -0.003,0.91759 -0.0432,0.22572 -0.0774,-0.003 -0.076,-0.5072 z m -0.18192,-2.01869 c 0.001,-0.50467 0.0367,-0.68935 0.0785,-0.41039 0.0418,0.27895 0.0407,0.69188 -0.003,0.91758 -0.0432,0.22572 -0.0774,-0.003 -0.076,-0.50719 z m -18.95807,-1.47819 c -1.35771,-0.29704 -2.74318,-0.96534 -3.64948,-1.76036 -0.55091,-0.48327 -0.56316,-0.50988 -0.091,-0.19753 1.86829,1.23582 3.90139,1.8699 6.00269,1.87209 2.14833,0.002 3.65058,-0.33154 6.91217,-1.53577 0.20009,-0.0739 0.0773,0.0324 -0.27285,0.23594 -0.90253,0.5249 -3.15768,1.25886 -4.54748,1.48003 -1.56039,0.24831 -2.92256,0.21878 -4.3541,-0.0944 z m 18.77003,-0.35699 c 0.002,-0.40373 0.0393,-0.54729 0.0828,-0.31901 0.0435,0.22828 0.0419,0.55862 -0.003,0.73407 -0.0455,0.17546 -0.0811,-0.0113 -0.0792,-0.41506 z m -18.69056,-0.43861 c -0.79539,-0.37036 -1.303,-0.86862 -1.89017,-1.85535 -0.57857,-0.97229 -0.45916,-1.2932 0.13154,-0.35348 0.65615,1.04384 1.494,1.75438 2.38699,2.02431 1.40648,0.42514 2.52414,-0.33045 3.10363,-2.09818 0.34653,-1.05712 0.36605,-1.08107 0.29327,-0.35944 -0.2402,2.38115 -2.0436,3.56487 -4.02526,2.64214 z m -33.648249,-0.0402 c -1.64862,-0.17442 -3.49871,-0.69921 -5.09633,-1.44559 -1.74422,-0.81486 -1.96697,-1.15563 -0.29598,-0.4528 2.35153,0.9891 4.05852,1.38881 6.38961,1.49624 2.33615,0.10774 4.28884,-0.24347 6.2703,-1.12755 0.57802,-0.2579 1.10215,-0.4686 1.16472,-0.46823 0.32978,0.002 -1.34302,0.8564 -2.55047,1.30271 -1.23877,0.45786 -1.7884,0.56982 -3.8841,0.79121 -0.30014,0.0317 -1.19912,-0.0115 -1.99775,-0.096 z m -0.65837,-0.94365 c -0.62747,-0.41945 -1.32671,-1.61436 -1.5302,-2.61487 -0.0616,-0.30279 0.0927,-0.066 0.34299,0.52626 0.7991,1.89135 1.83225,2.55756 3.33367,2.14967 1.20755,-0.32805 1.85743,-1.24199 2.29429,-3.22647 0.0444,-0.20187 0.0452,0.0396 10e-4,0.53642 -0.087,0.99419 -0.27207,1.44818 -0.85406,2.09614 -0.9242,1.02894 -2.4969,1.26249 -3.58837,0.53285 z m 42.656039,-1.39514 c -2.951,-1.53642 -6.34455,-2.39797 -8.41651,-2.13679 -1.26497,0.15945 -2.58779,0.65044 -3.76168,1.39621 -0.8157,0.51822 -0.86115,0.5292 -0.48204,0.11644 0.99949,-1.08816 3.42178,-1.97299 5.39495,-1.97067 1.30882,10e-4 3.65517,0.54136 5.23442,1.20432 1.06633,0.44763 3.77685,2.02829 3.77685,2.20249 0,0.10418 0.12855,0.16397 -1.74599,-0.812 z m -57.553229,-0.65428 c -2.36307,-0.50117 -8.93768,-2.64205 -9.34586,-3.04328 -0.23775,-0.2337 2.48973,0.40118 5.88725,1.37038 4.12092,1.17556 5.19479,1.38028 7.33588,1.39851 1.40988,0.012 1.72217,0.0557 1.30687,0.18285 -0.99514,0.30468 -3.93442,0.35659 -5.18414,0.0916 z m 23.91978,-0.40987 c -0.69383,-0.55606 -3.31963,-1.71013 -4.56705,-2.0073 -1.60795,-0.38305 -4.1714,-0.38025 -5.82088,0.006 -0.71113,0.16667 -2.0756,0.69135 -3.03214,1.16597 -1.91279,0.94904 -2.02918,0.7744 -0.17945,-0.26924 2.09745,-1.18338 3.65199,-1.58626 6.14165,-1.5917 1.88137,-0.004 2.38374,0.0623 3.63798,0.48134 1.46262,0.48856 3.32923,1.49796 3.99674,2.16129 0.43089,0.4282 0.32921,0.45884 -0.17685,0.0533 z m 44.685419,-1.38075 c -0.0161,-0.16917 -0.1959,-2.76113 -0.39975,-5.7599 -0.20386,-2.99877 -0.44468,-5.59185 -0.53514,-5.7624 -0.0905,-0.17055 -0.29356,-1.70774 -0.4513,-3.41598 -0.51439,-5.5706 -0.9503,-8.20628 -1.57362,-9.51486 -0.26432,-0.55489 -0.83342,-1.10382 -2.20273,-2.12459 -4.50181,-3.35597 -8.54494,-5.67227 -11.69227,-6.69846 -0.80036,-0.26095 -3.09229,-0.80996 -5.09318,-1.22002 -3.25684,-0.66743 -4.12778,-0.77117 -8.31295,-0.99015 -2.61403,-0.13676 -5.42067,-0.38686 -6.36648,-0.56732 -2.10636,-0.40187 -2.31759,-0.40228 -7.876099,-0.0154 -2.50112,0.17409 -8.3128,0.43933 -12.91485,0.58943 -4.60207,0.15011 -8.69479,0.32481 -9.09498,0.38821 -0.9491,0.15039 -1.52684,0.45937 -2.24539,1.20084 -1.91187,1.9729 -2.36949,5.66344 -1.73958,14.02866 0.35337,4.69262 0.31069,4.93699 -1.55157,8.88319 -1.6211,3.43515 -2.09305,5.03014 -2.25355,7.61598 -0.0325,0.52436 -0.071,0.23952 -0.0898,-0.66466 -0.0438,-2.11777 0.55687,-4.46595 1.85846,-7.26417 1.65607,-3.56031 1.7035,-3.87438 1.28662,-8.52077 -0.43477,-4.84597 -0.43949,-9.09856 -0.012,-10.89452 0.62536,-2.62771 1.63273,-4.15312 3.25859,-4.93436 1.20309,-0.57811 1.59494,-0.61211 10.85605,-0.94199 7.98667,-0.28449 12.06061,-0.49679 16.0447,-0.83612 1.932019,-0.16456 2.543909,-0.15004 3.728929,0.0885 1.74871,0.35206 4.54065,0.60612 8.23888,0.7497 2.22788,0.0865 3.62091,0.26611 6.63933,0.85601 5.7973,1.13296 8.59856,2.18923 12.80846,4.82963 1.82268,1.14317 6.45134,4.57641 6.95784,5.16089 0.94282,1.08794 1.58157,4.38082 1.97238,10.1679 0.11246,1.66542 0.28116,3.31708 0.3749,3.67035 0.19172,0.72256 0.60582,10.56656 0.48633,11.5616 -0.0424,0.35327 -0.0902,0.5039 -0.10627,0.33473 z m -24.49458,-6.19299 c -1.83349,-0.40911 -3.05691,-0.75346 -2.97405,-0.83707 0.0352,-0.0355 1.29175,0.10666 2.79233,0.31603 3.30663,0.4613 3.86768,0.39218 8.04554,-0.99124 2.50696,-0.83013 3.063,-0.95145 4.41439,-0.96313 1.40073,-0.0121 1.64878,0.0415 2.63754,0.57023 0.60028,0.32095 1.45975,0.92264 1.90994,1.33707 l 0.81855,0.75352 -1.21875,-0.75284 c -2.76561,-1.70835 -3.88065,-1.78921 -7.51242,-0.54487 -4.43112,1.51821 -6.13886,1.73133 -8.91307,1.1123 z m -40.472619,0.10235 c 0,-0.28412 3.82076,-2.33546 5.18209,-2.78224 1.40449,-0.46094 1.70993,-0.49761 3.32099,-0.39878 1.03446,0.0635 2.45684,0.30332 3.41133,0.57522 6.79823,1.93665 6.31644,1.84186 9.27687,1.82489 2.67897,-0.0154 2.71032,-0.011 1.72804,0.24101 -1.50239,0.38544 -3.95241,0.50106 -5.38314,0.25404 -0.6909,-0.11929 -2.57639,-0.5859 -4.18996,-1.03692 -1.61359,-0.45101 -3.63378,-0.91118 -4.48931,-1.02259 -1.98332,-0.25831 -3.22148,0.003 -6.22955,1.31473 -1.19493,0.52108 -2.27493,0.99003 -2.39999,1.04211 -0.12506,0.0521 -0.22737,0.0469 -0.22737,-0.0114 z m 70.467679,-0.60951 c -0.12869,-0.69212 -0.0535,-3.4582 0.30085,-11.06871 0.20405,-4.3827 0.1342,-8.78718 -0.21532,-13.57314 l -0.1938,-2.65383 -1.06579,-2.14503 c -1.45955,-2.93753 -3.54371,-6.57891 -5.39782,-9.43091 -3.10924,-4.78264 -5.60085,-7.4903 -7.90544,-8.59093 -3.09591,-1.47853 -8.47232,-3.017914 -16.12377,-4.616573 -3.99028,-0.833721 -5.68275,-1.338765 -12.82008,-3.825563 -5.525499,-1.92521 -6.679479,-1.965814 -11.274199,-0.396672 -1.30938,0.447165 -2.40746,0.786011 -2.44019,0.752989 -0.13356,-0.134751 3.37912,-1.631163 4.81311,-2.050417 2.94644,-0.861448 4.55699,-0.628807 11.504359,1.661736 5.56059,1.833328 5.68167,1.865562 11.39957,3.034527 5.47097,1.118483 8.85203,1.980793 11.92037,3.040143 3.0822,1.06414 4.50425,1.76436 5.8105,2.8611 2.9935,2.51339 7.40433,9.0971 11.15052,16.64352 l 1.33493,2.68914 0.20145,3.14318 c 0.38829,6.05853 0.23625,11.66503 -0.54122,19.95797 -0.20746,2.21307 -0.32618,4.29828 -0.26378,4.63382 0.0623,0.33553 0.0725,0.61006 0.0225,0.61006 -0.0501,0 -0.14755,-0.30439 -0.21673,-0.67641 z M 63.900791,149.8486 c 0.0708,-0.33877 0.56302,-2.07301 1.09373,-3.85386 1.54009,-5.16803 1.56539,-5.33712 1.67396,-11.18944 0.053,-2.85932 0.16245,-5.13034 0.24312,-5.04673 0.21915,0.22716 0.52481,3.27066 0.65112,6.48338 0.16625,4.22883 -0.46677,7.16159 -2.58787,11.9896 -0.89721,2.0422 -1.28512,2.62621 -1.07406,1.61705 z m 11.55107,0.42036 c 0,-0.28158 2.2843,-2.82657 3.423,-3.81365 0.56845,-0.49276 1.55292,-1.1457 2.1877,-1.45097 1.11316,-0.53532 1.21982,-0.55138 3.00135,-0.45208 1.3807,0.077 2.49025,0.28789 4.39376,0.83524 2.74696,0.78989 3.23467,0.89184 7.62939,1.59478 1.59499,0.25512 2.93877,0.50298 2.98617,0.55081 0.17279,0.17432 -2.16091,0.0801 -4.94701,-0.19977 -2.07035,-0.20796 -3.59054,-0.48735 -5.53474,-1.01722 -6.44396,-1.75622 -7.09701,-1.57341 -12.45749,3.48721 -0.37518,0.35419 -0.68213,0.56373 -0.68213,0.46565 z m 58.571609,-0.65508 c -1.79528,-1.6302 -3.59615,-2.99291 -4.52359,-3.42301 -1.32701,-0.61538 -2.16454,-0.5049 -5.96927,0.78744 -3.72497,1.26523 -4.895,1.40559 -7.15138,0.85789 -1.50361,-0.36498 -3.0162,-0.90752 -2.88459,-1.03465 0.0359,-0.0346 0.76092,0.0991 1.6113,0.29709 0.85037,0.19799 2.24191,0.3717 3.09228,0.38602 1.45956,0.0246 1.7346,-0.0396 4.91128,-1.14642 5.35878,-1.86706 6.21433,-1.72258 9.69084,1.63647 1.48049,1.43047 2.35578,2.42981 2.09355,2.39026 -0.0285,-0.004 -0.42021,-0.3423 -0.87042,-0.75109 z m -72.550539,-4.51721 c -0.452126,-2.1337 -0.652702,-4.40511 -0.652254,-7.38659 4.04e-4,-2.65224 0.07227,-3.54402 0.412743,-5.12059 1.494401,-6.91995 5.377651,-14.90562 9.494581,-19.52505 0.52135,-0.585 0.9827,-1.02857 1.02519,-0.98569 0.0425,0.0428 -0.61103,1.14088 -1.45226,2.44002 -3.60767,5.5714 -5.85334,10.42041 -7.46826,16.12589 -1.117201,3.9471 -1.276284,5.43064 -1.14635,10.68989 0.06298,2.5486 0.08222,4.63382 0.04286,4.63382 -0.03936,0 -0.154699,-0.39226 -0.256283,-0.8717 z"
       id="path1" /></g></svg>
