<?xml version="1.0" encoding="UTF-8"?>
<svg xmlns="http://www.w3.org/2000/svg" xmlns:xlink="http://www.w3.org/1999/xlink" width="3000" height="2000" viewBox="0 0 3000 2000">
<defs>
<radialGradient id="radial-pattern-0" gradientUnits="userSpaceOnUse" cx="0" cy="0" fx="0" fy="0" r="2092.16" gradientTransform="matrix(1.199999, 0, 0, 0.800001, 1500, 1000)">
<stop offset="0" stop-color="rgb(100%, 100%, 100%)" stop-opacity="1"/>
<stop offset="0.5" stop-color="rgb(100%, 100%, 100%)" stop-opacity="1"/>
<stop offset="0.5625" stop-color="rgb(99.822998%, 99.942017%, 99.987793%)" stop-opacity="1"/>
<stop offset="0.589844" stop-color="rgb(99.578857%, 99.864197%, 99.972534%)" stop-opacity="1"/>
<stop offset="0.640625" stop-color="rgb(99.365234%, 99.794006%, 99.946594%)" stop-opacity="1"/>
<stop offset="0.648438" stop-color="rgb(99.215698%, 99.737549%, 99.766541%)" stop-opacity="1"/>
<stop offset="0.65625" stop-color="rgb(99.205017%, 99.591064%, 99.520874%)" stop-opacity="1"/>
<stop offset="0.664062" stop-color="rgb(99.043274%, 99.346924%, 99.40033%)" stop-opacity="1"/>
<stop offset="0.683594" stop-color="rgb(98.843384%, 99.21875%, 99.195862%)" stop-opacity="1"/>
<stop offset="0.722656" stop-color="rgb(98.661804%, 99.150085%, 98.989868%)" stop-opacity="1"/>
<stop offset="0.730469" stop-color="rgb(98.458862%, 98.989868%, 98.907471%)" stop-opacity="1"/>
<stop offset="0.738281" stop-color="rgb(98.382568%, 98.774719%, 98.815918%)" stop-opacity="1"/>
<stop offset="0.769531" stop-color="rgb(98.374939%, 98.675537%, 98.735046%)" stop-opacity="1"/>
<stop offset="0.773438" stop-color="rgb(98.291016%, 98.640442%, 98.536682%)" stop-opacity="1"/>
<stop offset="0.785156" stop-color="rgb(98.088074%, 98.443604%, 98.310852%)" stop-opacity="1"/>
<stop offset="0.796875" stop-color="rgb(97.961426%, 98.213196%, 98.217773%)" stop-opacity="1"/>
<stop offset="0.820312" stop-color="rgb(97.956848%, 98.146057%, 98.188782%)" stop-opacity="1"/>
<stop offset="0.828125" stop-color="rgb(97.807312%, 98.100281%, 98.179626%)" stop-opacity="1"/>
<stop offset="0.835938" stop-color="rgb(97.613525%, 98.033142%, 98.05603%)" stop-opacity="1"/>
<stop offset="0.84375" stop-color="rgb(97.557068%, 97.886658%, 97.805786%)" stop-opacity="1"/>
<stop offset="0.863281" stop-color="rgb(97.45636%, 97.660828%, 97.633362%)" stop-opacity="1"/>
<stop offset="0.871094" stop-color="rgb(97.254944%, 97.528076%, 97.590637%)" stop-opacity="1"/>
<stop offset="0.886719" stop-color="rgb(97.084045%, 97.47467%, 97.581482%)" stop-opacity="1"/>
<stop offset="0.898438" stop-color="rgb(96.890259%, 97.409058%, 97.463989%)" stop-opacity="1"/>
<stop offset="0.910156" stop-color="rgb(96.630859%, 97.203064%, 97.206116%)" stop-opacity="1"/>
<stop offset="0.929688" stop-color="rgb(96.421814%, 96.94519%, 97.024536%)" stop-opacity="1"/>
<stop offset="0.945312" stop-color="rgb(96.340942%, 96.842957%, 96.894836%)" stop-opacity="1"/>
<stop offset="0.957031" stop-color="rgb(96.282959%, 96.813965%, 96.70105%)" stop-opacity="1"/>
<stop offset="0.964844" stop-color="rgb(96.087646%, 96.748352%, 96.591187%)" stop-opacity="1"/>
<stop offset="0.980469" stop-color="rgb(95.941162%, 96.560669%, 96.51947%)" stop-opacity="1"/>
<stop offset="0.988281" stop-color="rgb(95.928955%, 96.366882%, 96.400452%)" stop-opacity="1"/>
<stop offset="0.992188" stop-color="rgb(95.925903%, 96.313477%, 96.18988%)" stop-opacity="1"/>
<stop offset="1" stop-color="rgb(95.925903%, 96.305847%, 96.032715%)" stop-opacity="1"/>
</radialGradient>
</defs>
<rect x="-300" y="-200" width="3600" height="2400" fill="url(#radial-pattern-0)"/>
<path fill-rule="nonzero" fill="rgb(6.266785%, 5.734253%, 5.047607%)" fill-opacity="1" d="M 1605.128906 713.140625 C 1682.421875 717.121094 1740.691406 725.371094 1790.578125 738.730469 C 1856.328125 757.511719 1867.03125 803.871094 1866.96875 860.980469 C 1873.550781 858.339844 1881.820312 856.480469 1892.28125 854.121094 C 1917.890625 848.351562 1956.601562 839.621094 2020.339844 810.519531 C 2096.179688 775.898438 2181.238281 744.980469 2256.28125 717.691406 C 2313.941406 696.730469 2363.730469 678.628906 2399.871094 662.429688 C 2451.03125 639.511719 2452.691406 629.558594 2452.511719 627.800781 C 2452.238281 625.261719 2444.480469 601.738281 2256.628906 556.570312 C 2181.378906 538.46875 2106.878906 516.820312 2035.179688 492.21875 C 1961.96875 467.101562 1894.851562 442.371094 1835.628906 420.558594 C 1667.710938 358.710938 1546.378906 314.019531 1505.621094 343.640625 C 1493.441406 352.5 1487.96875 368.621094 1488.921875 392.949219 C 1491.96875 471.269531 1497.070312 594.171875 1501.441406 698.351562 C 1546.28125 699.21875 1581.628906 703.46875 1605.128906 713.140625 Z M 1502.578125 725.359375 C 1506.46875 817.988281 1509.539062 889.941406 1509.609375 891.5 C 1509.609375 891.539062 1509.621094 891.71875 1509.621094 891.761719 C 1510.378906 920.578125 1529.871094 937.488281 1547.851562 943.710938 C 1565.449219 949.789062 1590.640625 948.570312 1608.589844 926.898438 C 1639.691406 889.371094 1631.988281 828.429688 1626.890625 788.101562 C 1625.300781 775.46875 1623.921875 764.570312 1623.921875 756.308594 C 1623.921875 748.5 1621.179688 742.101562 1615.539062 736.75 C 1612.03125 733.421875 1607.46875 730.519531 1601.96875 728 C 1571.960938 726.488281 1539.039062 725.628906 1502.578125 725.359375 Z M 1158.488281 997.808594 C 1159.078125 998.648438 1159.78125 999.371094 1160.589844 999.988281 C 1170.21875 1007.410156 1199.078125 1004.5 1248.808594 991.121094 C 1357.789062 961.78125 1553.730469 949.078125 1692.96875 978.609375 C 1706.890625 981.570312 1719.691406 984.390625 1731.421875 986.988281 C 1787.46875 999.371094 1821.300781 1006.839844 1835.449219 995.730469 C 1836.71875 994.730469 1837.898438 993.550781 1838.96875 992.171875 C 1839.570312 989 1839.949219 985.769531 1840.121094 982.480469 C 1840.890625 966.589844 1841.378906 953.160156 1841.820312 941.308594 C 1843.210938 903.679688 1843.851562 886.5 1850.300781 874.910156 C 1850.789062 874.03125 1851.300781 873.199219 1851.839844 872.410156 C 1853.269531 812.960938 1846.691406 770.359375 1786.578125 753.179688 C 1743.269531 741.589844 1693.289062 733.921875 1629.390625 729.601562 C 1635.71875 737.121094 1638.921875 746.078125 1638.921875 756.308594 C 1638.921875 763.621094 1640.238281 774.089844 1641.769531 786.21875 C 1647.191406 829.109375 1655.378906 893.929688 1620.140625 936.46875 C 1601.039062 959.539062 1571.460938 967.75 1542.949219 957.890625 C 1514.390625 948.019531 1495.421875 922.210938 1494.621094 892.160156 L 1494.621094 892.03125 C 1494.550781 890.519531 1491.46875 818.238281 1487.558594 725.289062 C 1469.199219 725.230469 1449.96875 725.320312 1429.789062 725.539062 C 1230.679688 727.730469 1159.988281 748.488281 1159.988281 860.789062 C 1159.988281 885.550781 1158.929688 907.371094 1157.988281 926.621094 C 1156.558594 956.078125 1155.441406 979.050781 1158.488281 997.808594 Z M 1163.960938 1017.46875 C 1172.609375 1037.820312 1190.480469 1052.710938 1225.640625 1066.921875 C 1304.488281 1098.789062 1667.558594 1130.46875 1796.351562 1048.109375 C 1811.878906 1038.179688 1823.320312 1026.898438 1830.621094 1014.390625 C 1810.171875 1019.75 1779.269531 1012.921875 1728.191406 1001.628906 C 1716.488281 999.050781 1703.738281 996.230469 1689.859375 993.289062 C 1554.640625 964.601562 1357.660156 977.351562 1252.710938 1005.601562 C 1208.441406 1017.519531 1180.859375 1021.351562 1163.960938 1017.46875 Z M 1510.660156 1115.46875 C 1504.191406 1115.46875 1498.019531 1115.421875 1492.171875 1115.339844 C 1366.601562 1113.621094 1258.230469 1096.28125 1220.019531 1080.828125 C 1169.699219 1060.488281 1150.691406 1036.609375 1144.371094 1003.488281 C 1139.710938 994.671875 1139.761719 983.21875 1139.808594 971.289062 L 1139.820312 967.328125 C 1139.820312 952.710938 1139.5 941.859375 1139.109375 928.140625 C 1138.5 907.289062 1137.75 881.339844 1137.75 828.71875 C 1137.75 733.398438 1232.289062 709.269531 1384.828125 701.238281 C 1422.109375 699.28125 1456.160156 698.070312 1486.421875 698.179688 C 1482.058594 594.171875 1476.980469 471.671875 1473.929688 393.53125 C 1472.78125 363.820312 1480.261719 343.53125 1496.800781 331.511719 C 1544.039062 297.171875 1655.75 338.320312 1840.808594 406.488281 C 1899.960938 428.269531 1967 452.96875 2040.050781 478.03125 C 2111.300781 502.480469 2185.351562 524 2260.128906 541.980469 C 2313.621094 554.839844 2357.730469 567.25 2391.261719 578.839844 C 2456.730469 601.5 2466.359375 616.070312 2467.421875 626.230469 C 2470.398438 654.511719 2402.640625 680.441406 2261.410156 731.789062 C 2186.621094 758.980469 2101.859375 789.789062 2026.570312 824.171875 C 1961.410156 853.910156 1920.199219 863.199219 1895.578125 868.761719 C 1879.398438 872.398438 1871.269531 874.410156 1866.679688 878.238281 C 1866.441406 886.359375 1866.070312 894.648438 1865.699219 903.078125 C 1865.199219 914.539062 1864.679688 926.398438 1864.410156 938.53125 C 1863.839844 964.179688 1861.488281 984.628906 1853.089844 998.070312 C 1847.570312 1022.558594 1831.261719 1043.589844 1804.429688 1060.738281 C 1731.539062 1107.351562 1596.03125 1115.460938 1510.660156 1115.46875 "/>
<path fill-rule="nonzero" fill="rgb(6.266785%, 5.734253%, 5.047607%)" fill-opacity="1" d="M 711.609375 735.828125 C 766.257812 755.160156 831.316406 778.351562 892.070312 800.019531 C 973.816406 829.171875 1051.03125 856.699219 1081.480469 867.140625 C 1105.820312 876.238281 1123.96875 876.570312 1134.148438 868.148438 C 1143.601562 860.351562 1146.808594 844.320312 1143.179688 823.039062 C 1133.421875 765.628906 1078.628906 687.339844 1007.140625 660.941406 C 927.226562 631.441406 822.710938 646 752.988281 696.359375 C 739.207031 706.320312 724.535156 719.308594 711.609375 735.828125 Z M 672.746094 1039.25 C 671.957031 1053.390625 671.089844 1065.890625 670.296875 1077.308594 C 668.371094 1105.078125 666.847656 1127 667.613281 1152.261719 C 668.371094 1177.289062 682.65625 1195.128906 695.605469 1201.109375 C 699.867188 1203.078125 708.042969 1205.570312 714.871094 1200.101562 C 719.609375 1196.308594 734.054688 1179.238281 721.054688 1118.898438 C 709.816406 1066.730469 689.652344 1042.171875 672.746094 1039.25 Z M 789.65625 1680.851562 C 760.0625 1680.851562 720.386719 1623.351562 686.171875 1529.511719 C 684.753906 1525.621094 686.757812 1521.308594 690.648438 1519.890625 C 694.546875 1518.46875 698.847656 1520.480469 700.261719 1524.371094 C 742.039062 1638.949219 780.613281 1669.28125 791.808594 1665.511719 C 803.054688 1661.71875 810.128906 1620.800781 781.214844 1527.078125 C 766.355469 1478.921875 754.164062 1434.148438 744.363281 1398.179688 C 730.15625 1346.03125 715.480469 1292.148438 706.496094 1285.988281 C 704.601562 1287.511719 699 1294.5 690.09375 1326.21875 C 675.707031 1377.488281 645.496094 1464.070312 616.636719 1536.769531 C 561.933594 1674.570312 549.761719 1672.621094 542.480469 1671.429688 C 531.585938 1669.679688 532.292969 1654.078125 532.636719 1646.589844 C 534.152344 1613.191406 544.363281 1578.101562 556.1875 1537.46875 C 577.871094 1462.960938 604.855469 1370.21875 600.898438 1225.101562 C 597.292969 1092.828125 627.09375 1036.140625 658.425781 1025.75 C 660.351562 985.800781 661.425781 933.121094 658.828125 856.910156 C 657.21875 809.671875 669.757812 772.371094 687.929688 743.378906 C 648.242188 729.378906 615.652344 718.019531 596.71875 711.710938 C 554.308594 697.570312 532.871094 680.089844 533 659.738281 C 533.144531 637.210938 560.179688 617.191406 613.359375 600.21875 C 619.445312 598.269531 1223.390625 405.460938 1347.5 360.328125 C 1351.390625 358.921875 1355.691406 360.929688 1357.109375 364.820312 C 1358.519531 368.710938 1356.519531 373.011719 1352.621094 374.429688 C 1228.238281 419.660156 624.007812 612.558594 617.917969 614.511719 C 574.230469 628.449219 548.09375 645.390625 548 659.828125 C 547.917969 672.410156 567.40625 686.128906 601.460938 697.480469 C 621.066406 704.019531 655.21875 715.929688 696.691406 730.558594 C 711.308594 710.921875 728.304688 695.691406 744.203125 684.210938 C 817.742188 631.089844 928.007812 615.738281 1012.339844 646.871094 C 1088.851562 675.121094 1147.511719 759.011719 1157.96875 820.519531 C 1162.53125 847.320312 1157.460938 868.339844 1143.699219 879.71875 C 1128.941406 891.921875 1106.300781 892.441406 1076.421875 881.261719 C 1046.078125 870.859375 968.820312 843.308594 887.03125 814.148438 C 824.761719 791.941406 757.960938 768.121094 702.523438 748.53125 C 684.75 775.78125 672.277344 811.160156 673.820312 856.390625 C 676.386719 931.691406 675.394531 984.191406 673.523438 1024.140625 C 700.570312 1027.089844 723.941406 1061.058594 735.71875 1115.738281 C 748.910156 1176.988281 736.761719 1201.789062 724.246094 1211.808594 C 714.65625 1219.488281 701.921875 1220.550781 689.316406 1214.730469 C 671.742188 1206.609375 653.578125 1184.289062 652.621094 1152.710938 C 651.832031 1126.710938 653.378906 1104.449219 655.332031 1076.269531 C 656.039062 1066.058594 656.808594 1054.988281 657.527344 1042.628906 C 633.992188 1057.339844 612.941406 1116.378906 615.894531 1224.691406 C 619.914062 1372.160156 592.566406 1466.148438 570.589844 1541.671875 C 559.035156 1581.371094 549.054688 1615.660156 547.621094 1647.269531 C 547.558594 1648.621094 547.527344 1649.820312 547.519531 1650.890625 C 556.5625 1637.640625 575.136719 1601.429688 605.921875 1523.058594 C 633.871094 1451.921875 661.894531 1371.179688 675.652344 1322.171875 C 686.171875 1284.699219 694.523438 1270.738281 706.441406 1270.738281 C 706.460938 1270.738281 706.476562 1270.738281 706.5 1270.738281 C 724.363281 1270.808594 733.292969 1300.46875 758.835938 1394.238281 C 769.113281 1431.96875 780.765625 1474.738281 795.550781 1522.660156 C 823.101562 1611.960938 823.488281 1670.679688 796.589844 1679.71875 C 794.347656 1680.480469 792.035156 1680.851562 789.65625 1680.851562 "/>
</svg>
