<?xml version="1.0" encoding="UTF-8" standalone="no"?>
<!-- Created with Inkscape (http://www.inkscape.org/) -->

<svg
   width="210mm"
   height="297mm"
   viewBox="0 0 210 297"
   version="1.1"
   id="svg1"
   xml:space="preserve"
   sodipodi:docname="intro.svg"
   inkscape:version="1.4.2 (ebf0e94, 2025-05-08)"
   xmlns:inkscape="http://www.inkscape.org/namespaces/inkscape"
   xmlns:sodipodi="http://sodipodi.sourceforge.net/DTD/sodipodi-0.dtd"
   xmlns="http://www.w3.org/2000/svg"
   xmlns:svg="http://www.w3.org/2000/svg"><sodipodi:namedview
     id="namedview1"
     pagecolor="#505050"
     bordercolor="#eeeeee"
     borderopacity="1"
     inkscape:showpageshadow="0"
     inkscape:pageopacity="0"
     inkscape:pagecheckerboard="0"
     inkscape:deskcolor="#505050"
     inkscape:document-units="mm"
     inkscape:zoom="0.51580388"
     inkscape:cx="760.94814"
     inkscape:cy="759.97878"
     inkscape:window-width="2560"
     inkscape:window-height="1403"
     inkscape:window-x="2560"
     inkscape:window-y="0"
     inkscape:window-maximized="1"
     inkscape:current-layer="svg1"
     showgrid="false" /><defs
     id="defs1"><linearGradient
       id="swatch1"
       inkscape:swatch="solid"><stop
         style="stop-color:#000000;stop-opacity:1;"
         offset="0"
         id="stop1" /></linearGradient></defs><path
     style="fill:#000000"
     d="m 23.319831,341.54811 -1.234722,-0.14717 -0.79375,-0.74076 -0.79375,-0.74076 v -2.40122 -2.40123 l -0.79375,-0.18741 -0.79375,-0.18741 -22.2249986,-5.07587 -22.2249984,-5.07587 -8.466666,-1.83799 -8.466666,-1.83799 -1.81937,-0.67967 -1.819369,-0.67967 -0.241648,-0.60425 -0.241647,-0.60426 -0.19223,-4.25347 -0.192229,-4.25348 0.256187,-2.39223 0.256186,-2.39224 1.19198,-0.49804 1.191979,-0.49804 h 5.104992 5.104992 l 0.242946,-1.62007 0.242945,-1.62008 0.748809,-0.85057 0.748809,-0.85057 1.900234,-0.35158 1.900234,-0.35157 h 1.539349 1.53935 v -1.38815 -1.38814 l 0.350533,-0.92198 0.350534,-0.92197 1.250362,-0.52243 1.250362,-0.52244 3.337993,-0.21926 3.337993,-0.21927 v -2.51413 -2.51413 l 0.529604,-0.75612 0.529605,-0.75611 1.034803,-0.22728 1.034802,-0.22728 1.257815,0.3473 1.2578154,0.34729 v -34.54378 -34.54378 h -2.6618694 -2.661868 l -0.865909,-0.86591 -0.865909,-0.86591 v -3.32639 -3.3264 l -3.570431,-0.1434 -3.570431,-0.14341 -0.643566,-0.79477 -0.643567,-0.79477 -0.235745,-1.57206 -0.235745,-1.57207 0.135442,-3.65889 0.135442,-3.65888 0.476941,-0.57468 0.476941,-0.57468 h 1.615769 1.61577 l 7.425062,-4.12337 7.4250614,-4.12337 1.322917,-0.81995 1.322916,-0.81994 v -1.71438 -1.71437 l -1.332109,-0.21301 -1.33211,-0.21302 -0.696363,-0.50919 -0.696362,-0.50919 v -4.59691 -4.59691 l 0.428558,-0.42856 0.428557,-0.42856 1.952693,-0.16193 1.952692,-0.16193 v -1.7462 -1.7462 l 0.888668,-2.64729 0.888668,-2.6473 1.24472001,-1.94581 1.24471999,-1.94581 1.592127,-1.70211 1.592127,-1.70212 -0.3984224,-1.47962 -0.3984224,-1.47963 0.2406517,-1.45958 0.2406517,-1.45957 0.8834268,-2.82222 0.8834268,-2.82223 0.9815238,-1.94027 0.9815237,-1.94028 0.9138151,-0.85197 0.9138151,-0.85196 0.8678027,0.39539 0.867802,0.3954 1.410127,2.92602 1.410126,2.92601 0.90056,3.12627 0.900561,3.12627 v 1.48061 1.48061 l -0.487365,0.66651 -0.487366,0.66651 2.258598,2.66411 2.258598,2.66411 1.20666,2.38723 1.20666,2.38724 0.215796,1.66971 0.215796,1.6697 0.188708,1.32292 0.188709,1.32292 h 1.34102 1.34102 l 0.832832,0.67567 0.832832,0.67567 v 4.08694 4.08694 l 0.185608,-0.0883 0.185607,-0.0883 7.222725,-3.75591 7.222726,-3.7559 4.938888,-2.29548 4.938889,-2.29547 3.880555,-1.74106 3.880555,-1.74106 0.101276,-3.01071 0.101277,-3.0107 -2.011966,-0.16685 -2.011966,-0.16685 -0.646949,-0.79895 -0.646949,-0.79895 v -1.68475 -1.68475 l -1.546872,-0.23197 -1.546872,-0.23196 -0.657989,-0.72593 -0.657989,-0.72593 -0.117959,-4.63725 -0.117958,-4.63725 0.384069,-1.28191 0.38407,-1.28191 0.968611,-0.37289 0.968611,-0.37288 1.234722,-0.23893 1.234723,-0.23893 8.643054,-4.0496 8.643055,-4.0496 2.645833,-1.08427 2.645833,-1.08426 0.440973,-0.53752 0.440972,-0.53752 v -2.37145 -2.37144 l -2.557639,-1.2739 -2.557639,-1.27391 -2.99365,-2.01986 -2.99365,-2.01987 -0.326675,-1.16779 -0.326676,-1.16779 0.741724,-0.74172 0.741724,-0.74173 1.929465,-0.16001 1.929466,-0.16 0.119969,-3.50739 0.11997,-3.50739 0.881945,-0.67416 0.881944,-0.67415 2.645833,-0.56246 2.645833,-0.56246 0.626105,-0.24227 0.626104,-0.24226 4.528144,-11.288652 4.528144,-11.288652 5.031118,-11.818054 5.031119,-11.818055 2.673225,-5.997222 2.67322,-5.997221 -0.0674,-4.736061 -0.0674,-4.73606 0.36459,-1.353988 0.36459,-1.353988 1.08303,-1.233503 1.08303,-1.233504 0.98823,-0.583761 0.98823,-0.583761 0.11876,-5.382667 0.11876,-5.382667 1.68433,-3.225781 1.68434,-3.2257803 0.69855,-2.995897 0.69855,-2.995897 0.54466,-1.053247 0.54465,-1.053248 1.12941,-0.68863598 1.1294,-0.688636 0.82863,-0.0013 0.82863,-0.0013 1.21743,0.577713 1.21744,0.57771198 0.69119,1.354832 0.69118,1.354833 0.5292,2.565371 0.52919,2.565371 1.57257,3.1750003 1.57256,3.175 0.35584,1.5875 0.35583,1.5875 0.0198,4.233332 0.0198,4.233333 1.59032,0.965263 1.59032,0.965263 0.86453,1.856959 0.86453,1.856959 0.003,4.96424 0.003,4.96424 0.58117,1.738537 0.58117,1.738538 4.66928,10.93611 4.66928,10.936111 3.54217,8.643054 3.54217,8.643055 3.11424,7.761111 3.11423,7.761111 3.67901,0.60092 3.67902,0.60093 0.97178,0.40253 0.97179,0.40253 0.37568,1.07766 0.37567,1.07766 v 2.35896 2.35896 l 2.11872,0.58906 2.11872,0.58906 0.7035,0.7035 0.70351,0.70351 v 0.9909 0.99091 l -0.44695,0.61123 -0.44694,0.61123 -2.28708,0.81851 -2.28709,0.81851 -0.34231,0.74059 -0.34231,0.74059 -1.59797,0.86179 -1.59796,0.86179 -1.49931,0.44254 -1.4993,0.44253 v 2.73133 2.73133 l 4.32152,2.13873 4.32153,2.13874 5.11528,2.65642 5.11528,2.65642 1.88935,0.71695 1.88935,0.71694 1.17446,-0.22033 1.17446,-0.22033 1.20574,0.39793 1.20574,0.39793 0.40475,0.88834 0.40476,0.88834 v 5.12187 5.12187 l -0.38118,0.71223 -0.38117,0.71223 -1.195,0.4993 -1.19499,0.4993 h -2.128 -2.128 v 1.25224 1.25224 l -0.52529,1.01582 -0.5253,1.01581 -0.62123,0.18258 -0.62123,0.18258 -1.32292,0.23446 -1.32292,0.23446 v 2.77483 2.77483 l 0.79375,0.51242 0.79375,0.51243 2.82223,1.21483 2.82222,1.21482 4.40972,1.87098 4.40972,1.87098 8.81945,4.02394 8.81944,4.02393 0.35278,0.15129 0.35277,0.15128 -0.10022,-3.2674 -0.10022,-3.26741 0.4622,-0.88194 0.4622,-0.88195 1.22552,-0.39827 1.22552,-0.39828 0.22111,-1.71839 0.22111,-1.71839 0.42893,-1.5875 0.42892,-1.5875 1.27865,-2.46944 1.27865,-2.46945 2.1461,-2.16717 2.1461,-2.16716 -0.25763,-0.65506 -0.25762,-0.65505 -0.0248,-1.65254 -0.0248,-1.65254 1.45357,-4.16829 1.45358,-4.1683 0.83602,-1.79062 0.83602,-1.79062 0.86941,-0.46529 0.86941,-0.46529 0.84732,0.55518 0.84732,0.55519 0.71309,1.52434 0.7131,1.52434 1.2778,3.96222 1.2778,3.96223 v 1.74745 1.74744 l -0.3696,0.97213 -0.36961,0.97214 1.66116,1.41991 1.66116,1.41992 1.35805,2.10117 1.35805,2.10117 0.83853,2.6735 0.83852,2.67349 0.24914,1.85208 0.24914,1.85209 h 1.5378 1.53779 l 0.89746,0.40891 0.89746,0.40891 0.3519,1.26678 0.35189,1.26679 v 2.11666 2.11667 l -0.35279,1.27003 -0.35279,1.27003 -0.65418,0.59203 -0.65419,0.59203 -1.98967,0.0523 -1.98967,0.0524 v 1.875 1.87501 l 3.96875,1.98189 3.96875,1.9819 4.7625,2.57161 4.7625,2.57161 2.01202,0.56979 2.01203,0.56979 0.54561,0.77898 0.54562,0.77898 -0.005,4.41942 -0.005,4.41942 -0.44497,0.88194 -0.44497,0.88195 -1.22552,0.42106 -1.22553,0.42106 -2.68478,0.0199 -2.68479,0.0199 0.0389,3.51462 0.039,3.51461 -0.79685,0.80022 -0.79686,0.80021 -2.64273,0.13345 -2.64273,0.13345 -0.0267,0.22603 -0.0267,0.22602 -0.002,24.16528 -0.002,24.16527 0.0291,9.74724 0.0292,9.74724 1.88431,-0.0458 1.88431,-0.0459 0.89894,0.47973 0.89895,0.47973 0.39174,0.85979 0.39175,0.85978 v 2.05692 2.05691 l 3.0868,0.15522 3.08681,0.15522 1.1301,0.59405 1.1301,0.59406 0.36724,1.32235 0.36724,1.32235 0.002,0.97014 0.002,0.97014 2.38125,0.008 2.38125,0.008 1.41111,0.32695 1.41111,0.32695 0.61736,0.76205 0.61736,0.76205 v 1.5019 1.5019 l 5.61307,0.16177 5.61306,0.16177 0.8907,0.58362 0.89071,0.58361 0.23836,1.58949 0.23836,1.58949 -0.14149,5.03178 -0.1415,5.03178 -0.43308,0.78188 -0.43309,0.78189 -1.70982,0.50776 -1.70983,0.50777 -4.36953,0.94946 -4.36953,0.94946 -15.16944,3.47617 -15.16944,3.47617 -10.93611,2.47317 -10.93611,2.47317 -1.09969,0.3846 -1.09969,0.38459 -0.1859,2.31594 -0.1859,2.31594 -0.75267,0.75268 -0.75268,0.75268 -95.85756,0.0327 -95.857568,0.0327 z M 212.76148,332.2813 v -4.23333 l -29.36874,-1.1e-4 -29.36875,-1e-4 -64.293749,-0.23476 -64.293744,-0.23476 v 4.4682 4.4682 h 93.662493 93.66249 z m 11.46528,-3.50834 4.93889,-1.03924 14.2875,-3.34686 14.2875,-3.34686 10.40694,-2.31695 10.40694,-2.31695 1.05834,-0.28897 1.05833,-0.28897 0.10193,-3.06231 0.10193,-3.06232 -2.04221,9.9e-4 -2.0422,9.9e-4 -3.10946,0.38136 -3.10945,0.38136 -5.00443,1.18983 -5.00444,1.18983 -17.99167,4.05459 -17.99166,4.0546 -4.93889,1.045 -4.93889,1.04501 0.59769,0.031 0.59769,0.031 0.98981,0.85196 0.98981,0.85196 -0.0361,2.66945 -0.036,2.66945 0.74161,-0.16985 0.7416,-0.16986 z M 20.497609,327.01524 v -2.79662 l 0.848555,-0.66747 0.848556,-0.66747 -2.171472,-0.43888 -2.171472,-0.43888 -16.7569436,-3.66663 -16.7569434,-3.66664 -9.993935,-2.1364 -9.993936,-2.1364 -2.970647,-0.47569 -2.970647,-0.47569 v 3.21759 3.2176 l 4.850694,0.98347 4.850694,0.98346 6.173611,1.41652 6.173611,1.41651 10.2305544,2.43046 10.23055501,2.43047 8.46666609,1.92611 8.4666665,1.92611 0.705555,0.16662 0.705556,0.16662 0.617361,0.0409 0.617361,0.0409 z m 184.855541,-5.99149 v -1.73256 l -2.20486,-0.11952 -2.20486,-0.11953 -84.22569,0.10249 -84.225688,0.1025 v 1.74959 1.74958 H 118.9226 205.35315 Z M 27.553163,317.00514 v -1.87061 l -1.675694,-0.37042 -1.675694,-0.37042 -10.406944,-2.19602 -10.4069432,-2.19602 -8.8141914,-1.92662 -8.8141924,-1.92661 -2.651085,-0.67578 -2.651085,-0.67577 -3.175,-0.55314 -3.175,-0.55314 -1.499305,0.2243 -1.499306,0.2243 v 1.1709 1.17089 l 0.617361,0.19103 0.617361,0.19103 16.494293,3.70584 16.4942922,3.70583 8.2001498,1.75995 8.200151,1.75995 2.822221,0.50891 2.822222,0.50891 0.0882,0.0317 0.08819,0.0317 z m 193.933417,-0.57 8.5487,-1.7819 18.08602,-4.07667 18.08601,-4.07667 0.61736,-0.18585 0.61737,-0.18585 v -1.21095 -1.21095 h -2.24203 -2.24202 l -5.60728,1.24538 -5.60728,1.24538 -14.46389,3.12901 -14.46389,3.12902 -6.52639,1.32023 -6.52639,1.32023 -0.26167,0.22913 -0.26167,0.22913 0.40335,1.22 0.40335,1.21999 0.0995,0.40874 0.0995,0.40874 1.34636,-0.29712 1.34635,-0.29712 z m -21.42509,-3.55661 v -1.41111 H 119.48951 38.917538 l -0.214132,0.55801 -0.214133,0.55802 v 0.8531 0.85309 h 80.786107 80.78611 z m -166.079617,-3.08681 0.149756,-1.67569 -0.03809,-0.0708 -0.03809,-0.0709 -17.626832,-3.73421 -17.6268316,-3.73422 -5.115278,-1.19032 -5.1152774,-1.19031 -2.588741,-0.3925 -2.588741,-0.3925 -1.705025,0.22618 -1.705025,0.22618 -0.221319,0.8818 -0.22132,0.88181 0.105364,0.10461 0.105363,0.10461 7.408333,1.60044 7.4083334,1.60043 13.7583318,2.99408 13.7583328,2.99408 5.644443,1.22719 5.644444,1.22719 0.229061,0.0293 0.229061,0.0293 z m 178.250447,-0.10858 5.64444,-1.10179 12.52361,-2.77402 12.52361,-2.77402 7.50496,-1.60378 7.50495,-1.60378 h 0.1914 0.19139 l -0.11163,-0.95619 -0.11162,-0.95619 -0.88195,-0.24337 -0.88194,-0.24336 -1.53546,-0.0352 -1.53546,-0.0352 -17.69093,3.672 -17.69093,3.672 -3.175,0.57836 -3.175,0.57836 -3.81611,0.90137 -3.81612,0.90137 0.2384,0.5809 0.23841,0.58091 0.33176,1.14892 0.33176,1.14892 0.77651,-0.16724 0.7765,-0.16725 z m -16.40417,-4.21375 v -1.05914 l -76.08642,0.089 -76.086423,0.089 -0.259452,0.97014 -0.259452,0.97014 h 76.345877 76.34587 z m -156.946194,-3.0931 0.870789,-1.33002 -5.306041,-1.00267 -5.306041,-1.00267 -10.759721,-2.09648 -10.7597213,-2.09648 -8.37020529,-1.78536 -8.37020501,-1.78536 -0.537433,0.20624 -0.5374334,0.20623 v 0.86362 0.86363 l 3.0868054,0.7169 3.086806,0.71691 7.7611101,1.61007 7.7611105,1.61007 10.759721,2.30735 10.759721,2.30736 1.940278,0.48033 1.940278,0.48034 0.554696,0.03 0.554696,0.03 z m 165.001304,0.29065 2.70461,-0.68658 9.34861,-1.93485 9.34861,-1.93485 10.75973,-2.15623 10.75972,-2.15623 1.32291,-0.35121 1.32292,-0.35121 v -1.04474 -1.04473 h -0.64076 -0.64077 l -2.09326,0.37133 -2.09326,0.37134 -12.7,2.46771 -12.7,2.46772 -8.81945,1.75734 -8.81944,1.75734 -0.65287,0.20115 -0.65288,0.20115 0.38829,0.38829 0.38829,0.38829 v 0.98778 0.98778 h 0.3822 0.38219 z M 63.183716,260.49103 v -38.98194 l -7.849305,-4e-5 -7.849305,-4e-5 v 38.98168 38.98168 l 7.849305,3e-4 7.849305,3e-4 z m 10.93611,0 v -38.98194 h -2.998611 -2.998611 v 38.98194 38.98194 h 2.998611 2.998611 z m 23.988887,9.10682 v -29.87512 l 6.614587,-6.3667 6.61458,-6.3667 2.82222,-2.7348 2.82223,-2.7348 -19.019881,-0.005 -19.019874,-0.005 0.234217,28.31041 0.234217,28.31042 2.42e-4,10.67153 2.41e-4,10.67152 h 9.348611 9.34861 z m 37.394447,1.33828 v -28.53685 l -8.15926,-7.98992 -8.15926,-7.98993 -0.27759,0.10247 -0.27759,0.10247 -7.81505,7.70973 -7.81506,7.70972 -0.20359,23.86388 -0.20358,23.86388 0.26385,4.8507 0.26385,4.85069 h 16.19164 16.19164 z m 23.97284,-9.65135 -0.0183,-38.18819 -0.19746,-0.79375 -0.19746,-0.79375 -18.92356,0.003 -18.92356,0.003 5.99722,5.91108 5.99722,5.91108 3.61597,3.39082 3.61598,3.39081 v 29.67728 29.67728 h 9.52613 9.52613 z m 10.95215,-0.61736 v -38.80555 h -2.99861 -2.99861 v 38.80555 38.80555 h 2.99861 2.99861 z m 20.10834,0.0491 V 221.9601 l -1.85209,-0.22246 -1.85208,-0.22246 -5.55625,-0.003 -5.55625,-0.003 v 38.98194 38.98194 h 7.40833 7.40834 z m -147.817766,-0.31372 -0.0039,-35.89514 -0.218664,-1.32292 -0.218665,-1.32291 h -2.070508 -2.070508 v 36.65948 36.65949 l 1.499305,0.53072 1.499306,0.53071 0.793749,0.0279 0.79375,0.0279 z m 156.460816,35.06504 1.76389,-0.40959 0.0898,-36.59821 0.0898,-36.59821 h -2.82386 -2.82387 v 37.04166 37.04166 l 0.97014,-0.0339 0.97014,-0.0339 z M 33.197607,258.28579 v -36.2483 l -1.499305,-0.71912 -1.499306,-0.71913 -0.600114,-1.22077 -0.600115,-1.22077 -0.182563,-0.61736 -0.182564,-0.61736 H 16.241831 3.8500208 l 0.1217112,35.77763 0.1217113,35.77762 0.2611002,0.26102 0.2611003,0.26102 8.9667092,1.87966 8.966709,1.87966 4.530522,0.85844 4.530523,0.85845 0.79375,0.0288 0.79375,0.0288 z m 185.561103,33.43108 11.1125,-2.15283 2.11666,-0.42916 2.11667,-0.42917 0.0899,-35.71498 0.0899,-35.71497 h -12.17252 -12.17251 v 1.33261 1.33262 l -0.5484,0.78296 -0.54841,0.78295 -1.39187,0.22257 -1.39187,0.22257 v 36.15288 36.15287 l 0.79375,-0.19404 0.79375,-0.19405 z M -0.66905659,252.37714 v -35.45416 h -1.94027701 -1.940278 v 35.09466 35.09467 l 0.970139,0.21397 0.970139,0.21396 0.352777,0.11768 0.352778,0.11768 0.617361,0.0279 0.61736101,0.0279 z m 243.15206659,34.51764 0.61736,-0.16935 v -34.72484 -34.72483 h -2.11667 -2.11666 v 27.10687 27.10688 l 0.23282,7.99991 0.23282,7.99991 1.26648,-0.2126 1.26649,-0.21259 z m -37.48264,-74.20513 v -4.23334 H 119.09899 33.197607 l 0.0054,3.61597 0.0054,3.61598 0.279369,0.43995 0.279369,0.43994 59.775641,0.0902 59.775634,0.0902 25.84097,0.0872 25.84097,0.0872 z m 45.15556,-2.29306 v -1.94028 h -19.93195 -19.93194 v 1.74154 1.74154 l 1.14653,0.14228 1.14653,0.14228 18.78541,0.0565 18.78542,0.0565 z M 28.258719,210.26335 v -1.72074 l -20.1083316,-0.06 -20.1083324,-0.0599 v 1.78069 1.78069 H 8.1503874 28.258719 Z m 186.204331,-6.8838 0.4151,-0.25654 v -1.21391 -1.2139 l -64.20555,-0.0872 -64.205553,-0.0872 -31.132636,-9.8e-4 -31.132636,-9.9e-4 -0.105784,1.63309 -0.105783,1.63309 95.028872,-0.0745 95.02887,-0.0744 z M 19.086498,201.98292 v -1.53451 l -4.497917,-0.40831 -4.497916,-0.40832 -15.2576376,0.003 -15.2576384,0.003 v 1.94028 1.94027 H -0.66905659 19.086498 Z m 239.536092,-0.40577 v -1.94028 h -15.88741 -15.88741 l -0.89053,0.5835 -0.89053,0.58349 -2.62483,0.16845 -2.62484,0.16846 v 1.18832 1.18833 h 19.40278 19.40277 z M 78.705937,191.52298 v -4.23333 H 47.837884 16.969831 v 3.99815 3.99814 l 0.235185,0.23519 0.235185,0.23518 h 30.632868 30.632868 z m 75.141663,0 v -4.23333 H 118.74621 83.644825 v 4.23333 4.23333 h 35.101385 35.10139 z m 68.43888,0 v -4.23333 h -31.74999 -31.75 v 4.23333 4.23333 h 31.75 31.74999 z M 12.17,193.9145 l 0.21372,-1.0686 v -1.00062 -1.00061 l -7.4965268,-0.10182 -7.4965268,-0.10181 -4.085933,2.11666 -4.0859334,2.11667 11.36873941,0.0544 11.36873959,0.0544 z m 234.20187,-0.44731 -2.19656,-1.22272 -2.10382,-0.88548 -2.10381,-0.88548 -2.4368,-0.22648 -2.4368,-0.22648 -4.11075,0.25685 -4.11074,0.25685 v 2.08187 2.08186 l 10.84792,-0.004 10.84792,-0.004 z M 11.825701,185.6644 12.38372,185.45027 v -0.65121 -0.65121 l 0.392975,-0.86249 0.392975,-0.86249 1.052595,-0.21051 1.052596,-0.21052 0.847485,0.2127 0.847485,0.21271 0.95174,-0.23887 0.95174,-0.23888 -0.510768,-0.32313 -0.510767,-0.32314 -8.3784721,-0.005 -8.3784715,-0.005 v 2.29305 2.29306 h 5.0864246 5.086425 z m 224.219119,-2.25531 v -2.11666 h -7.05556 -7.05555 v 0.33116 0.33116 l 1.67569,0.2431 1.67569,0.24309 0.59462,0.30793 0.59461,0.30792 0.44639,1.23448 0.4464,1.23449 h 4.33885 4.33886 z m -158.35826,-1.27098 1.548543,-0.21264 3.986684,-5.52 3.986684,-5.51999 0.884005,-1.4993 0.884006,-1.49931 -12.6318,0.002 -12.6318,0.002 -1.411111,0.38015 -1.411111,0.38016 -14.111109,6.72144 -14.11111,6.72145 -0.146991,0.12837 -0.146991,0.12838 h 21.881779 21.881779 z m 75.10271,0.0139 v -0.19879 l -3.29594,-4.70234 -3.29595,-4.70234 -1.36346,-2.33082 -1.36347,-2.33081 H 120.12812 96.785796 l -1.05053,0.21011 -1.05053,0.2101 -4.051038,6.0517 -4.051038,6.0517 -0.627546,0.97014 -0.627546,0.97014 h 33.730852 33.73085 z m 53.62222,0.0634 V 182.08 l -2.02848,-0.80076 -2.02847,-0.80076 -13.93472,-6.20758 -13.93472,-6.20757 -12.64531,-0.10872 -12.64531,-0.10872 0.27945,0.4615 0.27945,0.4615 0.94717,1.50276 0.94717,1.50276 3.82496,5.28821 3.82495,5.28821 h 23.55693 23.55693 z M 22.261497,175.82437 V 175.2952 H 9.7756305 -2.7102366 l -0.20306,0.52917 -0.20306,0.52917 H 9.5725702 22.261497 Z m 219.780543,0 v -0.52917 h -12.7 -12.7 v 0.29399 0.29398 l 0.23518,0.23518 0.23519,0.23519 h 12.46481 12.46482 z M 18.028164,169.3721 v -0.98421 l -0.526227,-2.02033 -0.526227,-2.02032 -0.884228,-1.74494 -0.884227,-1.74494 -1.147184,-1.30828 -1.147184,-1.30828 -1.375847,-0.9978 -1.375847,-0.99779 H 9.7050653 9.2489372 l -2.0797258,1.92546 -2.0797258,1.92545 -1.106562,2.07613 -1.1065622,2.07612 -0.532772,2.26022 -0.532773,2.26023 -0.0052,0.79375 -0.0052,0.79375 h 8.1138887 8.1138879 z m 218.158996,-1.54146 -0.48125,-2.52568 -1.02583,-2.19215 -1.02583,-2.19215 -1.29659,-1.43517 -1.29659,-1.43517 -1.54063,-0.74581 -1.54063,-0.7458 -1.39479,0.71156 -1.39479,0.71157 -1.13355,1.13356 -1.13355,1.13355 -0.84779,1.34298 -0.84779,1.34298 -0.88164,2.62638 -0.88165,2.62637 v 1.08433 1.08433 h 8.60207 8.60207 z M 93.522602,160.30215 v -2.64583 H 79.235103 64.947605 v 2.64583 2.64583 h 14.287498 14.287499 z m 46.213888,-0.17639 v -2.82222 h -20.6375 -20.637499 v 2.82222 2.82222 h 20.637499 20.6375 z m 32.10278,0.17639 v -2.64583 h -13.40556 -13.40555 v 2.64583 2.64583 h 13.40555 13.40556 z m -89.285194,-7.62083 11.144915,-0.0361 -1.119028,-0.26649 -1.119028,-0.26649 -15.990693,0.19853 -15.990693,0.19853 1.234723,0.25939 1.234722,0.25939 4.730083,-0.15532 4.730084,-0.15532 z m 82.901194,-0.004 11.1465,-0.0406 -1.23473,-0.23639 -1.23472,-0.23639 -14.64028,0.17429 -14.64027,0.17429 1.5875,0.24926 1.5875,0.24925 3.141,-0.14659 3.141,-0.14658 z m -49.95023,-0.22319 -5.35785,-0.10716 -5.57827,0.10689 -5.578263,0.1069 10.936113,2.7e-4 10.93611,2.7e-4 z m 20.61548,0.004 -1.6757,-0.13213 -1.67569,0.13213 -1.67569,0.13213 h 3.35138 3.35139 z m -124.917292,-1.17075 0.371729,-0.37173 -0.32379,-1.78146 -0.32379,-1.78146 -0.363747,-0.93362 -0.363747,-0.93362 -0.6522592,1.5875 -0.6522597,1.5875 -0.019711,1.26412 -0.019711,1.26412 0.2351851,0.23519 0.2351852,0.23519 h 0.7525926 0.752593 z m 217.775912,-0.14524 0.42904,-0.51697 -0.23497,-1.39077 -0.23497,-1.39077 -0.44603,-0.60999 -0.44604,-0.60999 -0.58679,1.46653 -0.58679,1.46654 v 0.81601 0.816 l 0.23519,0.23519 0.23518,0.23519 h 0.60357 0.60356 z M 91.758714,145.0094 v -2.41637 l -11.790188,-0.25322 -11.790187,-0.25323 -6.377867,0.25175 -6.377867,0.25176 v 2.22116 2.22117 l 1.499306,0.13504 1.499305,0.13504 16.668749,0.0616 16.668749,0.0616 z m 49.806146,1.43143 0.14455,-0.98493 -0.14157,-1.48451 -0.14157,-1.48452 H 119.06194 96.697602 v 2.46945 2.46944 h 22.361348 22.36135 z m 42.62163,-1.48451 v -2.46945 h -18.87361 -18.87361 v 2.46945 2.46944 h 18.87361 18.87361 z m -89.718719,-9.26042 1.110009,-1.85208 1.717487,-2.29306 1.717487,-2.29305 -6.184659,0.22027 -6.184659,0.22027 -2.293055,0.5523 -2.293056,0.55229 -2.469444,1.04888 -2.469444,1.04888 -4.693959,2.10816 -4.693959,2.10816 -0.215532,0.21553 -0.215531,0.21554 h 13.029153 13.029153 z m 43.817159,0.52917 -0.80355,-1.32292 -1.86313,-2.91041 -1.86313,-2.91042 h -14.46068 -14.46069 l -1.35074,1.85208 -1.35073,1.85209 -1.48808,2.38125 -1.488076,2.38125 h 19.966176 19.96618 z m 31.08489,0.20207 -1.94028,-1.11423 -5.33664,-2.60927 -5.33663,-2.60927 -4.71753,-0.34563 -4.71753,-0.34562 -3.80492,0.10368 -3.80491,0.10369 2.68815,3.96875 2.68816,3.96875 13.1112,-0.003 13.11121,-0.003 z m -76.729162,-11.94898 7.408332,-0.73412 1.49931,-0.1752 1.4993,-0.17519 v -3.50617 -3.50616 l -0.26458,0.004 -0.26458,0.004 -5.600663,0.8807 -5.600657,0.8807 -3.563025,0.7261 -3.563026,0.7261 -0.449511,0.37306 -0.44951,0.37306 v 2.19107 2.19106 l 0.235185,0.23518 0.235185,0.23519 0.734954,0.006 0.734953,0.006 z m 63.323612,-1.85166 v -2.57427 l -10.31875,-1.8482 -10.31875,-1.84821 -0.26458,0.0128 -0.26459,0.0127 v 3.32638 3.32638 l 1.85209,0.3685 1.85208,0.36851 2.99861,0.37757 2.99861,0.37757 4.58611,0.28607 4.58611,0.28607 1.14653,0.0512 1.14653,0.0512 z m -26.10556,-2.84584 v -3.65621 l -1.63673,-0.22434 -1.63674,-0.22434 h -7.84417 -7.84416 l -1.10243,0.22048 -1.10243,0.22049 v 3.66007 3.66007 h 10.58333 10.58333 z m 30.8448,-4.42004 0.19477,-0.31515 -0.79131,-0.19498 -0.79131,-0.19498 -5.11528,-0.73216 -5.11528,-0.73216 -7.05555,-1.31535 -7.05556,-1.31535 -15.52222,0.0155 -15.52222,0.0155 -6.350004,1.13758 -6.349999,1.13759 -5.644444,1.12763 -5.644444,1.12764 0.640358,0.13086 0.640358,0.13086 2.534642,-0.5527 2.534641,-0.55271 8.113889,-1.49734 8.113893,-1.49735 14.99305,-0.11973 14.99306,-0.11972 2.82222,0.3949 2.82222,0.39491 7.58472,1.37654 7.58472,1.37655 3.175,0.50755 3.175,0.50756 0.42016,0.0369 0.42015,0.0369 z m -71.061463,-7.26747 10.406943,-1.93851 0.79375,-0.18505 0.79375,-0.18504 v -1.75717 -1.75717 h -0.45517 -0.45516 l -10.92192,2.13189 -10.921914,2.13188 -0.617361,0.18494 -0.617361,0.18495 v 1.50493 1.50493 l 0.196816,0.19682 0.196816,0.19681 0.596934,-0.13785 0.596933,-0.13785 z m 73.024993,0.35739 v -1.58078 l -0.79375,-0.18456 -0.79375,-0.18457 -4.16057,-0.88512 -4.16057,-0.88512 -6.59915,-1.0612 -6.59915,-1.0612 -1.34254,-0.20321 -1.34254,-0.20322 0.10782,1.87679 0.10782,1.87679 1.5875,0.31353 1.5875,0.31353 10.23055,1.68935 10.23056,1.68935 0.97014,0.0352 0.97013,0.0352 z m -30.76234,-4.81295 0.10571,-1.63123 -0.63488,-0.27281 -0.63487,-0.27282 -10.05417,-0.12308 -10.05417,-0.12308 -2.02847,0.20968 -2.02847,0.20968 v 1.9101 1.91009 l 12.61181,-0.0927 12.6118,-0.0926 z m -38.253482,-5.053477 6.397772,-1.216654 2.40114,-0.508326 2.40114,-0.508326 0.12555,-0.127103 0.12556,-0.127102 2.86852,-22.224999 2.86851,-22.224998 0.34369,-2.293055 0.34369,-2.293056 0.20327,-0.99341 0.20327,-0.99341 -1.3257,0.111466 -1.3257,0.111466 -3.50028,8.290277 -3.50028,8.290277 -7.861251,18.961804 -7.861256,18.961804 h 0.347291 0.347291 z m 56.079522,-3.986817 -1.92513,-5.203472 -3.47964,-8.290277 -3.47964,-8.290277 -4.02278,-9.524999 -4.02277,-9.524999 -1.70922,-4.321528 -1.70922,-4.321527 h -1.5257 -1.5257 l 0.006,0.617361 0.006,0.617361 0.52159,3.351388 0.52159,3.351389 2.66733,19.755554 2.66733,19.755554 0.20903,1.707355 0.20903,1.707355 0.74086,0.313155 0.74086,0.313154 6.52639,1.230906 6.52639,1.230905 1.94028,0.322649 1.94028,0.322648 0.0506,0.04191 0.0507,0.04191 z m -21.76377,0.529167 -0.20637,-1.146528 -1.43456,-11.641666 -1.43457,-11.641665 -1.37938,-8.819444 -1.37938,-8.819444 -0.44105,-3.96875 -0.44105,-3.968749 h -2.22234 -2.22233 v 0.311724 0.311724 l -0.71536,5.420914 -0.71535,5.420915 -1.91565,14.11111 -1.91565,14.11111 -0.55802,5.115277 -0.55802,5.115277 -0.14705,0.429909 -0.14705,0.42991 4.12983,0.111593 4.12982,0.111593 4.88995,0.07586 4.88996,0.07586 z m 0.77927,-58.640071 -0.12225,-3.342157 -0.74224,-0.741675 -0.74225,-0.741675 -7.37164,-0.20108 -7.37165,-0.20108 -1.14653,0.964884 -1.14652,0.964883 v 3.320029 3.320029 h 9.38266 9.38267 z m -4.94484,-14.384924 -0.14527,-4.321527 -1.67789,-3.585815 -1.6779,-3.585816 -0.44713,-2.4114063 -0.44714,-2.411406 -0.43946,2.223071 -0.43946,2.2230713 -1.57146,3.474726 -1.57146,3.474727 -0.3292,2.592479 -0.32919,2.59248 0.20836,2.028472 0.20836,2.028472 h 4.40205 4.40206 z"
     id="path4" /></svg>
