<?xml version="1.0" encoding="UTF-8" standalone="no"?>
<!-- Created with Inkscape (http://www.inkscape.org/) -->

<svg
   width="210mm"
   height="297mm"
   viewBox="0 0 210 297"
   version="1.1"
   id="svg1"
   xml:space="preserve"
   inkscape:version="1.4.2 (ebf0e94, 2025-05-08)"
   sodipodi:docname="pattern.svg"
   xmlns:inkscape="http://www.inkscape.org/namespaces/inkscape"
   xmlns:sodipodi="http://sodipodi.sourceforge.net/DTD/sodipodi-0.dtd"
   xmlns="http://www.w3.org/2000/svg"
   xmlns:svg="http://www.w3.org/2000/svg"><sodipodi:namedview
     id="namedview1"
     pagecolor="#505050"
     bordercolor="#eeeeee"
     borderopacity="1"
     inkscape:showpageshadow="0"
     inkscape:pageopacity="0"
     inkscape:pagecheckerboard="0"
     inkscape:deskcolor="#505050"
     inkscape:document-units="mm"
     inkscape:zoom="0.81008764"
     inkscape:cx="241.33191"
     inkscape:cy="560.43319"
     inkscape:window-width="2560"
     inkscape:window-height="1403"
     inkscape:window-x="2560"
     inkscape:window-y="0"
     inkscape:window-maximized="1"
     inkscape:current-layer="layer1" /><defs
     id="defs1" /><g
     inkscape:label="Layer 1"
     inkscape:groupmode="layer"
     id="layer1"><path
       style="fill:none;stroke:#2c2c2c;stroke-width:6.96526"
       d="m -184.91419,27.460517 c -7.71246,6.136144 -12.66623,8.446416 -19.05538,-0.06896 9.94678,-4.461824 19.15028,-2.572115 29.19357,-4.841059 5.68039,-1.283279 9.96975,-2.725894 15.68987,-3.553497 19.76364,-2.859439 58.39862,2.995049 69.448857,8.808009 -14.065387,2.724508 -67.229387,-2.99841 -79.548687,-4.208659 m -26.12192,26.283391 c 11.7287,13.123148 23.66591,16.238221 35.25124,23.297297 -9.98301,3.065066 -31.1883,8.839747 -43.15507,-0.68348 -12.24949,-9.748208 11.1446,-29.690597 20.52486,-32.192519 m -13.40476,0.486255 4.20701,-3.192941 m 0,0 3.32715,3.933096 m 113.89239,3.976337 -7.094244,-4.303068 c 20.031013,2.910491 -2.526976,30.457549 -10.442303,36.811478 -21.577623,17.321136 -44.204963,11.579372 -70.098293,13.333059 -6.32527,0.428393 -16.84995,6.429684 -22.56177,2.595952 -6.78645,-4.555 1.51118,-12.082211 5.08975,-15.4886 m 21.59882,-5.090529 c 17.54397,-3.215309 46.13053,-9.512101 65.236376,-18.834652 6.46641,24.62384 -41.817646,21.134431 -50.168036,20.314964 m 41.80942,47.381889 c -6.04528,-2.33306 -12.9109,-6.57537 -5.97602,-14.70585 8.500861,-9.966427 24.579908,-17.854756 35.679238,-25.142826 7.727984,-5.074299 16.739419,-11.031356 24.769871,-15.333304 4.719995,-2.528441 8.84649,-4.934248 14.140025,-6.440937 6.591853,-1.876331 11.467016,-1.279824 19.062173,0.01319 10.6067611,1.806699 18.5400157,8.798255 26.72543,15.148481 l -7.7541195,1.041409 c 2.7117007,10.747267 1.7839219,26.569777 -6.7087139,40.812307 -10.7130486,17.96614 -31.8436996,33.14542 -52.7193076,39.05949 -7.029758,1.99151 -14.522857,3.04385 -21.344573,3.03139 -20.287941,-0.037 -37.949083,-18.01032 -25.223233,-35.51125 7.162387,-9.84987 16.724507,-4.89561 25.498866,2.39921 -8.573641,1.5028 -14.870056,0.80536 -22.602497,-2.22046 m 24.073794,36.62399 c -0.419495,6.0803 -7.659416,18.99309 -11.888137,5.93046 -2.637216,-8.14643 0.501175,-15.14595 2.566575,-23.07416 m 11.658065,-94.419157 c 12.11611,3.491743 25.800684,6.884534 34.90744,10.641694 m -38.71525,66.517903 c 9.286683,10.71192 0.833216,24.36329 -0.192298,32.43699 m 6.062859,-33.66337 c 2.115941,-12.42178 6.837801,-21.94212 17.670212,-30.386094 11.56731,-9.016781 31.894216,-15.578874 46.4386532,-10.196546 -18.1010752,13.138559 -42.2542072,36.04929 -64.1088652,40.58264 m -3.615541,44.72242 c 19.011834,0.0145 57.295637,-14.71924 70.7080021,-27.38495 C 15.534181,125.97627 23.964731,97.438022 12.885411,77.544769 26.551079,71.738949 51.754259,64.256737 66.660651,58.894754 74.985996,55.900029 81.047324,53.478551 90.438845,51.59334 106.64035,48.341094 115.3396,48.587812 128.06985,40.176689 117.15092,35.412402 102.31061,32.055653 88.053916,24.589339 71.8441,16.100166 53.476489,-2.5783839 41.275415,-13.427689 M -69.467398,157.80688 c 0.872963,-7.54793 0.799677,-9.43768 -0.123834,-14.43701 M -2.0867966,59.846412 C 15.944554,59.327546 62.729169,51.012955 76.898113,53.181061 M 3.6876601,74.838492 4.127592,71.275521 M 50.253159,-8.938988 c 9.453318,1.1161435 21.03061,3.8240294 31.642239,6.2069329 20.538932,4.6122554 41.112662,9.2129024 60.912012,16.1891131 33.59965,11.838655 58.19887,40.472185 88.67511,53.812718 16.90218,7.398667 58.26132,10.087086 73.76416,4.73811 C 289.26967,60.347082 243.79523,60.561567 224.91426,58.7067 M 95.953557,53.249986 c 7.669053,0.748089 15.710253,0.06512 28.469803,1.020197 25.87741,1.937045 65.4871,4.558683 88.96967,5.107805 m -81.55607,-18.830757 5.65065,0.555122"
       id="path50626"
       inkscape:transform-center-x="-8.8571956"
       inkscape:transform-center-y="5.5763992" /></g></svg>
