<?xml version="1.0" encoding="UTF-8" standalone="no"?>
<!-- Created with Inkscape (http://www.inkscape.org/) -->

<svg
   width="210mm"
   height="297mm"
   viewBox="0 0 210 297"
   version="1.1"
   id="svg1"
   xml:space="preserve"
   inkscape:version="1.4.2 (ebf0e94, 2025-05-08)"
   sodipodi:docname="rose2.svg"
   xmlns:inkscape="http://www.inkscape.org/namespaces/inkscape"
   xmlns:sodipodi="http://sodipodi.sourceforge.net/DTD/sodipodi-0.dtd"
   xmlns="http://www.w3.org/2000/svg"
   xmlns:svg="http://www.w3.org/2000/svg"><sodipodi:namedview
     id="namedview1"
     pagecolor="#505050"
     bordercolor="#eeeeee"
     borderopacity="1"
     inkscape:showpageshadow="0"
     inkscape:pageopacity="0"
     inkscape:pagecheckerboard="0"
     inkscape:deskcolor="#505050"
     inkscape:document-units="mm"
     inkscape:zoom="0.18236421"
     inkscape:cx="287.88544"
     inkscape:cy="-274.17661"
     inkscape:window-width="2560"
     inkscape:window-height="1403"
     inkscape:window-x="2560"
     inkscape:window-y="0"
     inkscape:window-maximized="1"
     inkscape:current-layer="layer1" /><defs
     id="defs1" /><g
     inkscape:label="Layer 1"
     inkscape:groupmode="layer"
     id="layer1"><path
       style="fill:#000000;stroke-width:2.92027"
       d="m 41.99458,644.75272 c -0.005,-2.53537 -0.84609,-12.54667 -1.86876,-22.24724 -4.94769,-46.93169 -6.35975,-62.67377 -5.89413,-65.70957 0.27306,-1.78034 1.6098,-8.46816 2.97055,-14.86172 C 47.7459,492.3935 47.56626,493.58767 46.91126,477.397 46.32901,463.00443 44.64769,442.46191 42.73535,426.37559 l -1.39539,-11.7379 -6.55611,-14.43891 -6.556111,-14.43889 -10.052906,-9.00204 C 12.645734,371.80672 1.0985793,360.54858 -7.4854987,351.7398 l -15.6074133,-16.01601 -1.519774,1.97131 c -0.835862,1.08418 -3.460009,4.51128 -5.831435,7.61569 -20.476851,26.80624 -49.766649,45.89866 -97.023009,63.24402 -10.14489,3.72368 -10.58752,3.81294 -13.60019,2.74248 -2.89257,-1.02774 -3.38029,-0.97216 -6.85859,0.78179 -3.6536,1.84233 -3.79912,1.8535 -5.991,0.45954 -1.78871,-1.13755 -3.1197,-1.31957 -6.53202,-0.89318 -3.42435,0.42788 -4.48135,0.2815 -5.25992,-0.72848 -1.2519,-1.62399 -2.64457,-1.59718 -5.31707,0.10241 -2.02471,1.28766 -2.35326,1.28742 -5.69985,-0.003 -4.37237,-1.68721 -7.25261,-1.72392 -11.40807,-0.14544 -3.12892,1.18851 -3.24945,1.16978 -5.16082,-0.8017 -2.19618,-2.26525 -4.8378,-2.55085 -10.18523,-1.10122 -2.7688,0.75061 -3.50373,0.71416 -4.04164,-0.20028 -1.13568,-1.9309 -0.73941,-7.46844 0.76124,-10.63734 0.79283,-1.6742 1.27123,-3.52178 1.06311,-4.10568 -0.42932,-1.20448 1.17591,-4.84848 4.30591,-9.77477 1.26084,-1.98444 1.82705,-3.56102 1.38462,-3.85542 -1.44075,-0.95862 -0.70569,-3.28232 3.98257,-12.59 3.45699,-6.86322 4.45538,-9.492 3.72025,-9.79571 -2.31851,-0.95787 -0.91816,-4.5374 4.79768,-12.26375 3.19135,-4.31387 7.79893,-10.87303 10.23906,-14.57589 6.14131,-9.31925 17.04735,-21.46205 23.76973,-26.46523 6.99864,-5.20877 13.06804,-8.20217 22.76793,-11.22896 12.1701,-3.79761 27.56861,-14.98969 34.184886,-24.84654 3.540516,-5.27464 3.360096,-5.17446 15.052617,-8.35709 2.680913,-0.72973 10.175967,-4.82635 20.607457,-11.2635 9.016788,-5.56417 16.719905,-10.11668 17.118035,-10.11668 0.950462,0 4.779166,6.4705 7.115747,12.02556 4.299205,10.22113 4.132134,17.95787 -0.756423,35.02831 -1.491001,5.20622 -2.747578,10.06026 -2.792392,10.78651 -0.07286,1.1809 25.379873,26.94653 25.905875,26.22434 0.114919,-0.15787 1.243179,-2.37591 2.50724,-4.92922 l 2.2983053,-4.64233 -1.3858883,-3.3747 c -3.150401,-7.67136 -4.640422,-15.75463 -4.32687,-23.47301 0.265961,-6.5467 0.610837,-8.05427 3.066024,-13.40258 2.1586453,-4.70229 4.0829573,-7.35956 8.7595223,-12.09594 C 6.0260963,251.51644 22.154765,241.6408 33.3346,238.5605 l 3.75668,-1.03468 -8.527404,-0.45436 c -4.933064,-0.26269 -11.038402,-1.16466 -14.484682,-2.13948 -7.8792507,-2.22882 -18.4203167,-7.88871 -23.2706157,-12.49489 -3.4685353,-3.29396 -3.9094633,-4.0682 -3.9094633,-6.86473 0,-1.89194 1.190768,-6.15261 2.978636,-10.6578 l 2.9786433,-7.50578 -0.01379,-12.72986 c -0.0071,-7.00145 -0.659111,-22.29021 -1.447693,-33.97506 -2.1841343,-32.36299 -2.5609313,-46.33432 -1.5675633,-58.123536 1.5611793,-18.528023 4.0349683,-28.799169 7.2535383,-30.116616 2.51101204,-1.027803 7.542191,-0.93879 12.287488,0.217391 4.5765617,1.115086 20.8720057,9.811822 28.6185957,15.273493 5.98657,4.220779 7.29989,6.033291 9.72085,13.415572 0.94129,2.87027 1.75188,4.857911 1.80133,4.416968 0.0495,-0.440929 0.30784,-5.328401 0.5742,-10.861037 l 0.48429,-10.059333 -4.16239,0.325528 c -4.96855,0.388551 -6.79099,-0.490719 -12.82195,-6.186217 -3.64813,-3.4452 -4.788327,-4.084557 -7.28435,-4.084557 -4.721969,0 -7.821888,-1.796319 -8.841865,-5.123641 -1.351283,-4.408054 0.32469,-16.304464 5.433631,-38.56922 4.947378,-21.56061913 7.355804,-38.504641 6.951214,-48.903953 l -0.12477,-3.206818 4.43015,0.169 c 5.58577,0.213055 11.14174,3.05643 19.95128,10.210348 15.28523,12.4126369 23.23837,16.5148759 33.1769,17.1127239 l 6.17672,0.371537 2.53583,-3.189487 c 1.39471,-1.754197 5.57618,-5.4161569 9.2922,-8.1377029 3.71599,-2.721492 7.92424,-6.339934 9.35164,-8.040937 4.66357,-5.557432 10.42779,-7.411203 27.52896,-8.853254 13.86667,-1.169315 18.07905,-2.050513 25.40163,-5.313922 9.11847,-4.063733 10.37808,-3.861213 15.83085,2.545364 7.06652,8.302629 17.20996,25.2106739 24.53143,40.8913199 l 2.28559,4.8951611 5.06988,0.555059 c 9.59196,1.050128 15.64634,2.841268 21.98074,6.502762 7.33949,4.242452 10.09955,4.487024 21.69453,1.922372 11.91627,-2.635755 19.10578,-1.169034 19.10578,3.897726 0,2.33461 -1.51204,11.091573 -5.15297,29.843406 -3.15504,16.249286 -5.13474,31.532368 -5.7251,44.197154 l -0.50405,10.812566 14.44082,12.06777 c 14.81762,12.38264 24.15359,19.31754 30.98276,23.01444 5.67759,3.07349 6.6779,5.96027 4.00442,11.55601 -2.39246,5.00745 -8.31051,9.85912 -21.1179,17.31254 -6.74086,3.92294 -8.25144,5.55186 -9.0675,9.77805 -0.53891,2.79092 0.10108,3.66597 21.94194,29.9989 6.40007,7.71638 11.85969,14.68131 12.13246,15.47762 0.27271,0.79627 0.0383,2.6271 -0.52114,4.06846 -1.72081,4.434 -4.70949,6.60002 -28.75452,20.83938 -3.07169,1.81906 -7.44306,5.29161 -9.71414,7.71677 -3.75556,4.01041 -4.45559,5.35236 -7.73641,14.83152 -5.79263,16.73625 -8.75336,21.98881 -13.63143,24.18314 -2.96029,1.33163 -6.06372,0.60557 -11.73038,-2.74441 l -3.71774,-2.19782 -2.23955,3.60765 c -2.06409,3.32507 -2.51416,3.6267 -5.74491,3.85063 -1.92793,0.13362 -5.24259,-0.0969 -7.36587,-0.51247 -3.19498,-0.6252 -5.28663,-0.40621 -12.13251,1.27018 -8.11701,1.98766 -8.36238,2.00052 -13.09758,0.68655 -9.41515,-2.61295 -25.82854,-12.22021 -40.85681,-23.91514 l -6.21546,-4.83682 -3.09281,0.99334 c -1.70104,0.54635 -3.96911,1.47903 -5.04017,2.07262 -2.27412,1.26033 -4.38223,5.58383 -4.38223,8.98744 0,2.02211 -0.34871,2.45926 -2.29635,2.87862 -1.61851,0.34852 -2.53065,1.16276 -3.09014,2.75864 -0.69745,1.98932 -2.82381,3.2171 -17.51753,10.11501 -9.19806,4.31796 -19.17367,8.9518 -22.16799,10.2974 -4.9312,2.21597 -5.51267,2.71778 -6.16954,5.32439 -0.7272,2.88576 -4.40204,15.69773 -10.94333,38.15282 -6.08439,20.88668 -13.54772,47.93461 -14.48952,52.51163 -0.94,4.56837 -0.88362,51.45747 0.0631,52.47454 0.25356,0.27241 4.94491,-2.76447 10.42524,-6.74864 9.94405,-7.22932 9.9916,-7.2528 23.46189,-11.58331 10.40537,-3.34518 14.35179,-4.99996 17.22597,-7.22303 13.30603,-10.29169 28.12764,-12.00265 39.09503,-4.51297 l 3.54391,2.42017 10.2323,-4.46543 c 5.62775,-2.45596 10.47668,-4.71552 10.7754,-5.02115 0.29873,-0.30567 0.90299,-3.34113 1.34278,-6.74544 0.97795,-7.56968 -0.35212,-17.34404 -3.30502,-24.28813 -1.06252,-2.49865 -1.92397,-4.95037 -1.91432,-5.44824 0.008,-0.49789 2.3901,-2.88946 5.2899,-5.31464 3.20696,-2.68203 5.86658,-5.66561 6.78923,-7.61618 4.68016,-9.89446 14.76865,-22.03008 24.55544,-29.53812 7.35178,-5.64 18.4378,-11.44448 27.75334,-14.5312 12.71655,-4.21365 18.78617,-5.22304 30.16637,-5.01682 10.43146,0.18907 12.65255,-0.3517 16.5503,-4.02935 1.14865,-1.08376 1.9538,-1.06109 7.59725,0.21391 6.13926,1.38709 6.36958,1.38451 8.3958,-0.0939 1.78088,-1.29957 3.48873,-1.52027 11.76391,-1.52027 8.61375,0 10.02609,-0.19878 12.81573,-1.80383 1.72433,-0.9921 4.01935,-1.80383 5.10008,-1.80383 3.35956,0 6.82583,-2.37251 10.0599,-6.8856 1.70984,-2.38606 3.60274,-4.33827 4.20644,-4.33827 0.60371,0 2.13083,0.79207 3.3936,1.7601 l 2.29595,1.76011 6.01026,-1.67436 c 3.30564,-0.92088 8.48943,-2.70505 11.5195,-3.96477 5.40001,-2.245 5.59053,-2.42159 9.6062,-8.90451 5.71915,-9.2329 6.45821,-8.93356 5.85734,2.3726 l -0.47762,8.98668 -4.116,4.47807 c -3.70261,4.02823 -4.06887,4.73205 -3.64631,7.00669 0.3908,2.10372 0.12665,2.84645 -1.57277,4.42011 -1.83067,1.69528 -1.93951,2.06911 -1.04921,3.6039 0.88824,1.53127 0.77882,1.92647 -1.03423,3.73549 -1.77092,1.76695 -1.96755,2.4274 -1.55316,5.21731 0.41567,2.7985 0.15225,3.67086 -2.12501,7.04062 -1.42969,2.11548 -3.18718,5.08775 -3.90549,6.60506 -1.24052,2.62033 -1.24129,2.88825 -0.014,5.33997 1.28359,2.56606 1.27726,2.60306 -1.07712,6.28717 -4.03881,6.31989 -5.48077,10.57806 -4.5527,13.44426 1.25313,3.87008 1.00079,4.5191 -2.10739,5.42016 -4.23014,1.22632 -6.06013,3.19001 -7.10618,7.62536 -0.90124,3.82133 -1.03403,3.96274 -4.77333,5.08265 -3.62559,1.08586 -6.84795,3.90843 -8.84236,7.74526 -0.36833,0.70858 -2.65819,1.84402 -5.08853,2.52317 -4.58205,1.28044 -7.02513,2.96256 -7.02513,4.83698 0,2.43417 -14.51884,10.7957 -25.31845,14.58109 -8.9512,3.13754 -12.48302,3.96211 -23.05614,5.38291 -20.33018,2.73196 -43.48023,0.26361 -63.73646,-6.79549 l -6.46468,-2.25292 -6.35582,4.29597 c -3.49569,2.36281 -6.21658,4.29598 -6.04636,4.29598 0.17027,0 10.02293,2.70458 21.89495,6.0102 l 21.58546,6.01019 5.91018,-2.11738 c 5.90349,-2.11495 5.91574,-2.11583 10.79757,-0.75842 4.51038,1.25408 5.27683,1.26122 9.93602,0.0927 12.15743,-3.04924 26.10576,-4.35554 30.85382,-2.8895 6.45579,1.99334 18.89385,13.71649 23.17578,21.84373 4.12842,7.83592 5.44,13.01182 5.87601,23.18919 0.47075,10.98728 -0.3752,17.14858 -3.93354,28.64978 -7.28331,23.54072 -25.97511,52.37528 -40.97161,63.20413 -4.25387,3.07167 -13.43104,8.65676 -27.49569,16.73351 -12.66875,7.27513 -29.06002,17.40384 -40.39819,24.96339 -6.24602,4.16443 -11.715,7.33312 -12.15324,7.04151 -0.48831,-0.32492 -0.60785,-1.73462 -0.3087,-3.64089 0.44035,-2.80616 0.29969,-3.20312 -1.43678,-4.05493 -1.42316,-0.6981 -1.92492,-1.54764 -1.92492,-3.25895 0,-2.77471 -2.85088,-5.91295 -6.06109,-6.67204 -2.20498,-0.52143 -2.21675,-0.55386 -1.72821,-4.76332 0.38549,-3.32186 0.17196,-5.017 -0.98766,-7.83927 -1.86655,-4.5429 -2.68267,-5.07559 -4.13074,-2.69627 -0.80951,1.3301 -2.15199,2.0603 -4.47842,2.4359 -3.99132,0.6444 -6.414,2.87914 -8.94063,8.24718 -1.02749,2.18303 -3.06401,5.25657 -4.52559,6.83009 -2.16142,2.32699 -2.65737,3.45978 -2.65737,6.06951 0,2.82869 -0.25892,3.30571 -2.18621,4.02904 -3.0578,1.1476 -4.35299,4.39703 -5.03994,12.6443 -0.47895,5.74995 -0.83615,7.16683 -1.86002,7.37784 -0.99447,0.20515 -1.60712,-1.00089 -2.84627,-5.60249 -2.2507,-8.35791 -3.71684,-11.76977 -5.82484,-13.55493 -1.01445,-0.85908 -2.61419,-3.62883 -3.555,-6.15496 -1.20061,-3.22366 -2.82989,-5.66856 -5.46496,-8.20066 -3.32256,-3.19271 -3.75481,-3.9765 -3.75824,-6.81449 -0.006,-4.45954 -1.22062,-8.7136 -2.97841,-10.4262 -0.89249,-0.8696 -1.48513,-2.46757 -1.48513,-4.00448 0,-2.87346 -1.60492,-4.81706 -4.65413,-5.63635 -1.68727,-0.45337 -2.0498,-0.99365 -2.05921,-3.06886 -0.014,-3.41961 -0.5827,-4.16673 -4.55512,-5.99995 l -3.41965,-1.57815 0.35293,-3.95447 c 0.31713,-3.55317 0.11737,-4.2433 -1.96846,-6.80095 -5.44745,-6.67952 -10.97456,-26.27473 -12.38606,-43.91207 -1.02897,-12.85707 2.32356,-34.32904 7.66693,-49.10439 1.2358,-3.41726 2.03334,-6.21319 1.7723,-6.21319 -0.26118,0 -4.12563,1.15521 -8.58794,2.56712 l -8.11332,2.56714 -10.87974,14.35722 c -5.98388,7.89647 -11.25382,15.12907 -11.71106,16.07249 -1.27872,2.63843 -12.53802,55.24172 -17.01216,79.48058 -3.11432,16.87203 -6.99167,50.55239 -8.26029,71.7525 -0.56383,9.42238 -0.81476,10.42217 -2.61582,10.42217 -1.25447,0 -1.44034,-0.59153 -1.4485,-4.60981 z m 2.49119,-10.56913 c -0.90837,-1.15732 -1.36849,1.95759 -1.05791,7.16189 l 0.35884,6.0128 0.48588,-6.41365 c 0.26722,-3.5275 0.36317,-6.56996 0.21319,-6.76104 z m 0.89771,-23.7037 c 1.92185,-20.19399 3.24763,-29.71143 6.75655,-48.5031 3.37309,-18.06434 13.65317,-66.68695 15.48422,-73.23714 0.67476,-2.41378 4.49383,-8.19806 12.43669,-18.83627 l 11.46292,-15.35279 6.32961,-2.04839 c 15.60461,-5.04993 16.42081,-5.42401 18.06876,-8.28188 1.52374,-2.64248 1.52578,-2.69006 0.08,-1.85694 -0.81617,0.47026 -7.27261,2.70584 -14.34762,4.96797 l -12.86371,4.11297 -10.68862,8.00928 c -8.75717,6.56196 -10.73052,8.39855 -10.92037,10.16353 -0.12879,1.19735 -0.76041,2.26203 -1.42197,2.3969 -1.68385,0.34327 -2.15078,-7.64697 -2.15626,-36.89799 -0.004,-21.66022 0.13774,-24.41106 1.54967,-30.06389 2.57884,-10.32476 6.31369,-23.57425 20.28514,-71.9619 3.05561,-10.5825 7.61827,-26.817 10.1393,-36.07669 2.52102,-9.25967 4.70889,-17.24415 4.86198,-17.74329 0.31939,-1.04165 -9.04742,-9.40108 -9.52758,-8.50286 -0.17393,0.32538 -1.72965,6.54429 -3.45711,13.81974 -8.23126,34.66698 -16.26605,64.56297 -24.75696,92.11613 -6.4223,20.84043 -8.15606,24.93269 -10.56327,24.93269 -0.57153,0 -9.13807,-9.71714 -19.03676,-21.59365 -13.806273,-16.56482 -18.514473,-21.71586 -20.21683,-22.1184 -2.799008,-0.66187 -24.492734,-23.09621 -24.492734,-25.32891 0,-2.29846 3.9467463,-9.50155 5.2126233,-9.5134 0.614338,-0.006 3.873393,0.51178 7.24233504,1.1501 C 31.23104,329.98925 48.23287,329.3516 69.18414,321.66863 c 3.27649,-1.20154 6.05034,-2.22979 6.16413,-2.28502 0.28474,-0.13818 4.47908,-16.77498 9.06105,-35.9404 3.10834,-13.00158 3.64088,-16.16365 2.86067,-16.98629 -0.52728,-0.55595 -6.99041,-7.00684 -14.36256,-14.33533 l -13.40387,-13.32444 -8.93592,0.3639 c -13.91964,0.56689 -27.16298,5.55096 -41.3286347,15.55384 -20.9800223,14.81472 -26.0195543,29.81039 -17.604092,52.38291 1.081424,2.90067 1.966236,5.73172 1.966236,6.29119 0,1.65581 -6.1099113,13.80188 -7.1613383,14.23623 -0.854264,0.35294 -30.816327,-28.06192 -30.816327,-29.22498 0,-0.25028 1.576957,-5.53499 3.504365,-11.74387 3.347947,-10.78498 3.505811,-11.70027 3.537128,-20.5084 0.03142,-8.84627 -0.06576,-9.43061 -2.399381,-14.43066 -1.337687,-2.86611 -3.013168,-5.99175 -3.723298,-6.94586 l -1.291149,-1.73476 -16.010185,9.94909 c -8.805606,5.47198 -16.535785,9.95049 -17.178194,9.95221 -0.642393,0.003 -2.938839,0.56936 -5.103226,1.26132 l -3.935222,1.25818 9.155133,5.97661 c 5.035317,3.28717 10.850287,7.36165 12.922161,9.0545 4.463484,3.64686 15.309251,15.13791 15.309251,16.22008 0,0.41584 -0.511497,0.96737 -1.136646,1.22565 -0.7521,0.31071 -3.334417,-1.80809 -7.632767,-6.26277 -7.57511,-7.85062 -13.010805,-12.14586 -24.550668,-19.39967 l -8.373982,-5.26381 -2.930451,4.27071 c -3.11877,4.54509 -8.410413,9.68765 -14.707323,14.29286 l -3.85466,2.81911 7.57795,0.38812 c 11.848476,0.60686 22.673702,5.07729 33.939013,14.01564 3.516849,2.7904 6.508166,4.70564 6.647365,4.25606 0.139198,-0.44956 1.146676,-0.81769 2.238833,-0.81805 1.092172,-3.4e-4 4.110207,-1.08264 6.706757,-2.40512 5.76363,-2.93549 6.370754,-2.95418 9.320055,-0.28694 6.397538,5.78605 20.585652,20.71405 20.585652,21.65913 0,1.39329 -2.778677,1.36116 -12.659226,-0.14636 -13.834953,-2.1107 -15.787115,-3.06057 -27.65231,-13.45477 -11.825397,-10.35937 -20.217799,-15.34949 -30.787029,-18.30601 -7.1976,-2.01339 -17.60407,-1.98542 -22.84856,0.0615 -2.18663,0.85341 -7.15913,2.49683 -11.04998,3.65204 -16.0721,4.7719 -29.28296,15.31678 -41.73981,33.31664 -8.2225,11.88129 -10.3403,14.87045 -13.77459,19.44218 -3.27011,4.35317 -3.36827,4.61566 -1.54147,4.12204 1.3921,-0.37616 1.94449,-0.21514 1.92819,0.56186 -0.0126,0.59896 -2.34289,5.56302 -5.17851,11.03123 -4.00388,7.72107 -4.99724,10.26091 -4.44648,11.36885 0.53233,1.07085 0.0507,2.78999 -1.9317,6.89358 -1.45248,3.00681 -3.11293,5.97967 -3.68987,6.60635 -0.90244,0.98023 -0.88977,1.26478 0.0906,2.03659 0.98869,0.77834 0.78717,1.46111 -1.52137,5.15435 -1.46357,2.34146 -2.66102,5.07469 -2.66102,6.07386 0,1.75161 0.18514,1.80237 5.17254,1.41819 4.2537,-0.32764 5.6141,-0.11787 7.6581,1.18042 1.63965,1.04152 2.98379,1.36913 3.94953,0.96268 2.5941,-1.09179 9.99443,-0.78849 12.31752,0.50485 1.99461,1.11047 2.37938,1.11047 3.85201,0 2.01483,-1.51935 6.50522,-1.60531 8.34156,-0.1597 0.88402,0.69592 2.63505,0.94257 4.97399,0.70062 1.98535,-0.20544 4.54947,0.0457 5.69807,0.55786 1.6718,0.74551 2.6342,0.68574 4.82499,-0.29968 3.15169,-1.41776 6.72808,-1.58959 8.75668,-0.42075 1.07752,0.62086 3.66697,-0.0243 11.07531,-2.75526 49.717874,-18.33424 78.572371,-37.93739 99.747082,-67.76609 l 4.395887,-6.19245 -17.218797,-0.94517 c -9.470336,-0.51983 -20.263092,-1.1436 -23.983892,-1.38616 l -6.765075,-0.44096 -16.319368,9.35331 c -8.975667,5.14432 -19.000157,10.89053 -22.276667,12.76935 -33.65589,19.29903 -64.30792,36.51054 -65.02165,36.51054 -0.48443,0 -0.88076,-0.67128 -0.88076,-1.4917 0,-1.01434 1.48942,-2.33484 4.65413,-4.12634 8.99634,-5.09269 17.35784,-9.86509 21.78132,-12.43186 2.45735,-1.42592 16.3639,-9.35099 30.90338,-17.61128 14.53947,-8.26028 28.445999,-16.1873 30.903372,-17.61556 2.457382,-1.42826 6.91001,-3.96664 9.894726,-5.6408 l 5.426762,-3.04395 25.104297,1.396 c 13.807367,0.76784 25.32725,1.63137 25.599754,1.91899 0.27249,0.28754 0.607582,1.24447 0.744649,2.12634 0.324524,2.08784 30.2143083,32.74098 42.995652,44.09375 l 9.928478,8.81873 6.63524,14.77385 c 5.29585,11.79156 6.78921,15.91831 7.39797,20.44344 2.37661,17.6663 5.13934,53.22076 5.14387,66.19827 0.003,9.06071 -0.96786,16.11506 -4.46931,32.46904 -1.22729,5.73218 -3.73794,17.57481 -5.57924,26.31697 l -3.34779,15.89483 3.35105,32.47807 c 1.84308,17.86295 3.41562,34.34052 3.49453,36.61679 0.12945,3.73402 0.16591,3.62914 0.37287,-1.07233 0.12617,-2.86612 0.7444,-10.6226 1.37386,-17.23664 z M -6.7712847,319.06044 c -0.590922,-1.02939 -0.230189,-1.65046 4.950342,-8.52347 C 14.217873,289.25842 34.00888,277.87281 66.95006,270.97363 c 4.50518,-0.94359 9.79947,-2.0546 11.76505,-2.46892 5.46598,-1.15219 7.37551,-0.99093 7.0911,0.59882 -0.1925,1.07633 -3.05177,1.95306 -14.01698,4.29793 -26.47786,5.66224 -40.05275,11.09052 -53.516581,21.40004 -5.749159,4.40221 -15.0176787,14.17324 -19.3991327,20.45087 -3.101517,4.44369 -4.671779,5.50304 -5.644801,3.80807 z m 9.403241,-11.02342 c 0.926258,-1.27157 0.89992,-1.29993 -0.281169,-0.30271 -0.716733,0.60517 -1.303147,1.23651 -1.303147,1.40299 0,0.65981 0.611506,0.23513 1.584303,-1.10028 z m 8.1912657,-8.81875 c 0.926258,-1.27154 0.899913,-1.2999 -0.28117,-0.3027 -1.2404137,1.04733 -1.6348827,1.70567 -1.0220037,1.70567 0.154627,0 0.7410547,-0.63133 1.3031537,-1.40297 z M 42.51263,628.36792 c -0.23769,-0.63958 -0.41416,-0.44958 -0.44989,0.48435 -0.0323,0.84513 0.14368,1.31865 0.39111,1.05223 0.24745,-0.26633 0.2739,-0.95786 0.0587,-1.53658 z m 2.96314,-1.65352 c -0.20659,-0.55116 -0.37559,-0.10033 -0.37559,1.00214 0,1.10233 0.169,1.55329 0.37559,1.00213 0.20657,-0.55121 0.20657,-1.4531 0,-2.00427 z m 110.9772,-4.39413 c -0.18884,-0.78003 -0.35568,-0.33591 -0.37086,0.98687 -0.014,1.32282 0.13932,1.96105 0.34328,1.41825 0.20405,-0.54277 0.21642,-1.62506 0.0282,-2.40512 z m -114.685,-0.36601 c -0.2377,-0.63953 -0.41416,-0.44956 -0.44989,0.48439 -0.0323,0.84512 0.14367,1.31863 0.3911,1.05222 0.24746,-0.26634 0.27391,-0.95786 0.0587,-1.53661 z m 115.37309,-8.61131 c 0.76294,-1.39054 2.14453,-2.73284 3.07018,-2.98298 1.33639,-0.36112 1.68296,-1.01837 1.68296,-3.19171 0,-2.06026 0.71308,-3.575 2.88395,-6.1263 1.58617,-1.86413 3.75941,-5.261 4.82945,-7.54857 2.29,-4.89575 5.65665,-7.90221 9.76909,-8.72391 1.75183,-0.35004 3.52775,-1.36661 4.34755,-2.48864 1.64811,-2.25574 5.04127,-4.26997 7.19315,-4.26997 0.94521,0 1.80836,-0.74649 2.22396,-1.92336 0.89598,-2.53711 3.57977,-4.49028 6.16998,-4.49028 1.59043,0 2.27161,-0.52351 2.86405,-2.20114 1.87598,-5.31221 6.45584,-9.48707 11.97076,-10.91216 3.32872,-0.86018 14.85983,-15.81358 20.18081,-26.1702 5.07503,-9.87782 7.99872,-21.27792 7.98076,-31.11845 -0.0113,-5.98448 -2.09115,-17.73801 -4.195,-23.70244 l -1.38016,-3.91273 -11.54223,-5.35936 c -20.22051,-9.38892 -24.96818,-13.26573 -31.78761,-25.95695 -2.09047,-3.89044 -3.9682,-6.77658 -4.17273,-6.41362 -0.36648,0.6503 -3.11614,11.44856 -7.31319,28.71955 -2.83931,11.68402 -12.85024,56.60746 -15.54296,69.74826 -5.62174,27.43492 -14.27019,68.08873 -14.61113,68.68263 -0.74753,1.30217 -2.52771,0.63755 -2.52771,-0.94369 0,-0.88466 3.20606,-16.84857 7.12451,-35.47539 3.9185,-18.62682 7.91619,-37.655 8.88374,-42.28484 4.50033,-21.53444 13.75617,-61.83601 17.85991,-77.76528 0.96556,-3.74799 2.13955,-8.38368 2.60886,-10.30156 0.69098,-2.82372 1.12056,-3.4118 2.25824,-3.09149 0.77274,0.21757 1.52555,0.006 1.67296,-0.46998 0.24457,-0.79018 10.4963,1.82658 29.58981,7.55289 3.07174,0.92123 9.57737,2.81365 14.45695,4.20541 l 8.87199,2.53047 0.18492,12.56298 c 0.1016,6.90966 0.41173,13.33297 0.68918,14.27404 0.38008,1.2893 0.14719,1.81162 -0.94431,2.11896 -1.3344,0.37566 -1.37298,0.64458 -0.4889,3.40725 5.26104,16.44008 3.98839,35.64166 -3.41991,51.5983 -5.73853,12.3602 -18.66598,29.67878 -22.96568,30.76657 -1.08298,0.27391 -3.14764,1.19241 -4.58814,2.04098 -2.41526,1.42275 -3.51557,2.82596 -6.95783,8.87312 -0.96679,1.69845 -1.82856,2.20469 -3.75294,2.20469 -2.8808,0 -3.9666,1.1117 -4.64325,4.75409 -0.45473,2.44787 -0.62605,2.568 -2.98305,2.09196 -1.37534,-0.27786 -2.49921,-0.39853 -2.4975,-0.26817 0.002,0.13029 0.83944,2.01155 1.86166,4.18073 1.28215,2.72085 1.85853,5.25249 1.85853,8.16345 0,3.45487 0.25864,4.30787 1.42791,4.70738 2.66023,0.90902 5.15739,3.63702 5.68167,6.20691 0.2871,1.40729 1.31813,3.23293 2.29114,4.05695 0.97305,0.82402 1.76917,2.18763 1.76917,3.03026 0,1.27617 1.29238,0.67197 7.73832,-3.61758 9.59585,-6.38574 25.50601,-16.11573 44.01555,-26.91805 21.83643,-12.74393 26.00784,-15.74754 33.56036,-24.16512 15.82495,-17.63745 28.41997,-41.76556 32.42745,-62.12075 2.84274,-14.43924 1.22055,-27.90596 -4.62858,-38.42421 -5.1226,-9.2117 -17.06054,-19.79475 -23.50212,-20.83472 -4.03332,-0.6512 -15.60537,0.7812 -25.33669,3.13611 -7.42655,1.79723 -7.57063,1.80155 -12.25165,0.36921 l -4.73673,-1.4494 -5.7633,2.1928 -5.76328,2.19277 -18.8105,-5.13789 c -28.12601,-7.68234 -30.70236,-8.4953 -30.93349,-9.76084 -0.12215,-0.66834 1.72996,-2.40405 4.46796,-4.18742 2.57202,-1.6753 6.63748,-4.34427 9.03433,-5.9311 l 4.35795,-2.88514 6.06731,2.09755 c 31.35491,10.83997 64.24757,11.23518 89.32423,1.07329 7.80514,-3.16288 18.33017,-9.30266 19.72851,-11.50864 2.561,-4.04007 4.81107,-5.74734 8.86059,-6.72298 3.46867,-0.83572 4.39793,-1.46159 5.97177,-4.02199 1.71672,-2.79287 7.97943,-7.09637 10.32707,-7.09637 0.48831,0 1.10607,-1.25206 1.37271,-2.78236 0.63743,-3.65798 3.56595,-7.30833 6.77914,-8.45 2.47192,-0.87832 2.56238,-1.04619 2.13048,-3.9542 -0.49319,-3.32038 1.05515,-7.96939 4.44051,-13.33307 1.4133,-2.23915 1.71474,-3.36299 1.18689,-4.42486 -1.68618,-3.39206 -0.57008,-7.46006 3.82881,-13.95519 2.27877,-3.36467 2.65754,-4.49234 2.3581,-7.02075 -0.23303,-1.96875 0.0558,-3.68992 0.83396,-4.96864 0.6549,-1.07603 1.00268,-2.48392 0.77287,-3.12863 -0.48303,-1.35522 1.61019,-6.12715 2.68775,-6.12715 0.39902,0 0.72773,-1.17248 0.73042,-2.60555 0.006,-2.97849 1.43434,-5.51923 5.32229,-9.46479 2.315,-2.3493 2.78278,-3.41891 3.1359,-7.17055 l 0.41502,-4.40938 -2.01203,3.77839 c -1.68447,3.16325 -2.80117,4.16447 -6.85921,6.14992 -5.84983,2.8621 -14.36654,5.61749 -19.31272,6.24817 -2.66477,0.33978 -4.07933,0.12271 -5.32615,-0.81761 -1.64813,-1.24281 -1.81905,-1.14194 -5.84623,3.44963 -3.34198,3.81034 -4.72754,4.82235 -7.1271,5.20563 -2.88407,0.46062 -4.08325,0.85342 -10.42524,3.41469 -2.22527,0.89869 -4.95655,1.10667 -10.7986,0.8223 -6.65751,-0.32405 -8.20546,-0.15817 -10.41359,1.11692 -3.00826,1.73695 -5.50085,1.82761 -11.15959,0.40593 -3.83317,-0.96298 -4.22167,-0.91632 -6.55342,0.78724 -3.58797,2.6214 -8.93191,3.51506 -19.90293,3.32838 -8.41516,-0.14303 -10.70267,0.11907 -17.49951,2.00592 -8.71082,2.41824 -16.96289,5.66919 -23.74119,9.35299 -14.72461,8.00234 -28.46896,22.10144 -34.97558,35.87822 -1.40405,2.97292 -3.3702,5.10023 -9.6337,10.42333 l -1.7034,1.44763 1.89813,5.01746 c 2.75655,7.28651 3.82418,18.78912 2.50533,26.99213 l -1.02175,6.35504 -12.45734,5.48572 -12.45735,5.48575 -3.79972,-2.81399 c -8.50133,-6.29583 -16.76593,-6.73207 -27.68641,-1.46137 -4.0442,1.95191 -4.63708,2.62297 -9.97775,11.29363 -8.1005,13.15125 -12.55326,27.80169 -14.42811,47.47112 -1.72527,18.1001 4.369,47.62881 11.61092,56.25882 2.19579,2.61666 2.57377,3.6427 2.57377,6.9864 0,3.54678 0.18294,3.96875 1.92576,4.43967 2.69548,0.72834 5.52083,4.00923 5.52083,6.4109 0,1.42445 0.64542,2.37944 2.18879,3.23868 2.52588,1.40624 4.51315,4.15103 4.51315,6.23354 0,0.7932 0.90234,2.91015 2.0052,4.70431 1.46354,2.38103 2.09469,4.59494 2.33668,8.19657 0.31406,4.67438 0.5093,5.10289 3.70526,8.13157 2.12825,2.0169 4.12401,4.97861 5.40605,8.02272 1.11779,2.65408 2.78413,5.54623 3.70299,6.42704 1.97466,1.89284 4.36118,7.18824 4.51552,10.01933 0.06,1.10236 0.36135,0.1509 0.66948,-2.11459 0.30813,-2.26537 1.18447,-5.25656 1.94741,-6.64704 z m 64.62973,-28.61438 c 0.25472,-0.71463 5.95201,-9.64363 12.66062,-19.84218 28.19152,-42.85724 38.62977,-67.23221 37.53221,-87.6439 -0.65824,-12.24203 -6.86572,-21.73555 -17.89754,-27.37199 -3.90552,-1.9954 -5.75737,-3.38845 -5.77112,-4.34122 -0.0113,-0.85842 0.5369,-1.40299 1.41501,-1.40299 2.02999,0 10.85018,5.08896 14.68742,8.47416 11.93278,10.52707 14.16966,29.23486 6.25784,52.33663 -5.42195,15.83154 -16.00458,35.5921 -32.05,59.84568 -2.91711,4.40934 -7.21259,10.97892 -9.54553,14.599 -3.24475,5.03492 -4.65426,6.58948 -5.99687,6.61404 -1.31792,0.0242 -1.63979,-0.29148 -1.29204,-1.26723 z m 52.34907,-106.32008 c -0.17815,-0.99725 -0.33061,-0.37013 -0.33886,1.39361 -0.008,1.76378 0.13736,2.57971 0.32382,1.8132 0.18633,-0.76648 0.19308,-2.20956 0.0141,-3.20681 z m -6.48393,-20.10241 c 0,-0.13787 -1.08908,-1.31044 -2.42015,-2.60552 l -2.42013,-2.35469 2.18712,2.60555 c 2.03871,2.42872 2.65316,2.97404 2.65316,2.35466 z m -75.21066,-38.14936 c 0,-2.95862 20.25293,-22.35751 34.99902,-33.52317 18.21726,-13.794 46.68074,-29.32952 77.81698,-42.47291 23.49847,-9.91931 33.38234,-13.87635 34.6601,-13.87635 2.33787,0 1.68528,2.38817 -0.96427,3.5288 -1.33106,0.57302 -5.93864,2.50351 -10.23906,4.28997 -69.7016,28.95501 -95.8843,44.5385 -126.34931,75.2009 -4.57641,4.60601 -8.68135,8.3746 -9.12211,8.3746 -0.44073,0 -0.80135,-0.68483 -0.80135,-1.52184 z m 12.2869,-11.30542 c 0.74127,-0.88187 1.18025,-1.60341 0.97547,-1.60341 -0.2049,0 -0.97884,0.72154 -1.72015,1.60341 -0.7413,0.88188 -1.18027,1.60343 -0.97549,1.60343 0.2049,0 0.97887,-0.72155 1.72017,-1.60343 z M 46.23593,618.74745 c -0.23771,-0.63955 -0.41416,-0.44957 -0.44989,0.48436 -0.0324,0.84515 0.14365,1.31866 0.39111,1.05225 0.24745,-0.26635 0.2739,-0.95785 0.0587,-1.53661 z m 0.74467,-7.21532 c -0.23771,-0.63957 -0.41418,-0.44958 -0.4499,0.48435 -0.0324,0.84515 0.14367,1.31865 0.39111,1.05224 0.24744,-0.26634 0.2739,-0.95786 0.0587,-1.53659 z m -6.70194,-4.81024 c -0.23772,-0.63955 -0.41417,-0.44956 -0.4499,0.48436 -0.0323,0.84515 0.14367,1.31864 0.39111,1.05225 0.24745,-0.26635 0.27391,-0.95786 0.0587,-1.53661 z m 7.43109,-4.05862 c -0.20659,-0.55116 -0.3756,-0.10032 -0.3756,1.00215 0,1.10232 0.16901,1.55328 0.3756,1.00213 0.20658,-0.55117 0.20658,-1.45311 0,-2.00428 z M 39.534,600.30825 c -0.23771,-0.63952 -0.41417,-0.44958 -0.4499,0.48439 -0.0323,0.84511 0.14368,1.31862 0.3911,1.05222 0.24746,-0.26634 0.27392,-0.95787 0.0587,-1.53661 z m 8.93592,-4.00851 c -0.23771,-0.63953 -0.41416,-0.44956 -0.4499,0.48437 -0.0323,0.84512 0.14368,1.31862 0.39111,1.05225 0.24744,-0.26634 0.2739,-0.95789 0.0587,-1.53662 z m -9.68058,-4.00851 c -0.23771,-0.63957 -0.41417,-0.44958 -0.4499,0.48435 -0.0324,0.84514 0.14368,1.31865 0.39111,1.05224 0.24745,-0.26633 0.27391,-0.95786 0.0587,-1.53659 z m 10.42524,-2.40512 c -0.23771,-0.63956 -0.41417,-0.44957 -0.44991,0.48435 -0.0324,0.84514 0.14369,1.31867 0.39112,1.05225 0.24744,-0.26634 0.2739,-0.95785 0.0587,-1.5366 z m 86.38054,-2.40511 c -0.23782,-0.63955 -0.41414,-0.44958 -0.44989,0.48435 -0.0324,0.84515 0.14383,1.31865 0.39113,1.05225 0.24739,-0.26635 0.27385,-0.95786 0.0589,-1.5366 z m -97.55044,-2.40512 c -0.23771,-0.63955 -0.41416,-0.44958 -0.4499,0.48435 -0.0324,0.84515 0.14368,1.31867 0.39111,1.05226 0.24745,-0.26634 0.27391,-0.95786 0.0587,-1.53661 z m -0.74466,-6.41364 c -0.23771,-0.63953 -0.41417,-0.44957 -0.4499,0.48439 -0.0323,0.84511 0.14368,1.31862 0.39111,1.05222 0.24745,-0.26635 0.27391,-0.95787 0.0587,-1.53661 z M 35.8107,563.42987 c -0.23771,-0.63955 -0.41417,-0.44956 -0.4499,0.48435 -0.0324,0.84515 0.14367,1.31866 0.39111,1.05225 0.24745,-0.26634 0.27391,-0.95786 0.0587,-1.5366 z m 88.10584,1.45104 c 0,-0.16635 -0.58642,-0.79782 -1.30315,-1.40299 -1.18106,-0.99722 -1.2074,-0.96886 -0.28116,0.30271 0.97279,1.33545 1.58429,1.76011 1.58429,1.10028 z m 169.03781,-7.48041 c 0,-0.60198 -0.66856,0.0346 -3.75439,3.57414 l -3.31986,3.80812 3.53713,-3.57417 c 1.94542,-1.96579 3.53712,-3.67942 3.53712,-3.80809 z m -69.15837,-5.64544 c 0.92626,-1.27156 0.89992,-1.29991 -0.28117,-0.30271 -0.71676,0.60517 -1.30318,1.23653 -1.30318,1.403 0,0.65982 0.61152,0.23513 1.58432,-1.10029 z M 103.57476,513.72424 c -0.23782,-0.63955 -0.41418,-0.4496 -0.44989,0.48434 -0.0324,0.84513 0.14354,1.31862 0.39109,1.05223 0.24739,-0.26634 0.27385,-0.95786 0.0589,-1.53657 z m -0.70919,-16.9101 c -0.1562,-1.86069 -0.28209,-0.13604 -0.27976,3.83228 0.002,3.96845 0.13003,5.49081 0.28395,3.38307 0.15396,-2.10778 0.15199,-5.35467 -0.003,-7.21535 z M 48.4544,492.82979 c -0.20658,-0.55117 -0.37559,-0.10032 -0.37559,1.00215 0,1.10233 0.16901,1.55329 0.37559,1.00212 0.20658,-0.55116 0.20658,-1.45309 0,-2.00427 z m 195.11644,0.85182 c -0.23781,-0.63951 -0.41418,-0.44958 -0.4499,0.48436 -0.0324,0.84515 0.14354,1.31864 0.3911,1.05224 0.2474,-0.26633 0.27385,-0.95785 0.0589,-1.5366 z m 81.91262,-4.81022 c -0.23784,-0.63953 -0.41419,-0.44958 -0.44994,0.48435 -0.0324,0.84515 0.14382,1.31867 0.39113,1.05225 0.24739,-0.26634 0.27384,-0.95786 0.0589,-1.5366 z M 48.47454,472.38636 c -0.1873,-0.77163 -0.34054,-0.14029 -0.34054,1.40299 0,1.54326 0.15324,2.1746 0.34054,1.40297 0.1873,-0.77164 0.1873,-2.03433 0,-2.80596 z M 239.8638,460.96963 c -0.0839,-6.16896 -0.15255,-11.22228 -0.15255,-11.22962 0,-0.006 -10.28548,-3.01586 -22.85664,-6.68559 -25.6918,-7.49987 -23.88263,-7.70704 -17.9283,2.0531 1.80878,2.96485 4.52074,6.43991 6.02661,7.72236 3.96093,3.37324 15.54278,9.77216 25.63627,14.16388 4.81237,2.0939 8.74974,4.11871 8.74974,4.49961 0,0.38091 0.15254,0.69254 0.33878,0.69254 0.18631,0 0.27018,-5.04732 0.18631,-11.21628 z m 1.45755,2.19712 c -0.20657,-0.55117 -0.37561,-0.10029 -0.37561,1.00214 0,1.10234 0.16915,1.55329 0.37561,1.00213 0.20658,-0.55117 0.20658,-1.45309 0,-2.00427 z M 65.63462,455.1709 c -0.15731,-1.88564 -0.28822,-0.54229 -0.29094,2.98519 -0.003,3.52751 0.12601,5.0703 0.28602,3.42846 0.16,-1.64188 0.16223,-4.52801 0.005,-6.41365 z m -17.90201,5.20513 c -0.1888,-0.78002 -0.35569,-0.33593 -0.37087,0.9869 -0.0152,1.32281 0.13929,1.961 0.34327,1.41822 0.20401,-0.54279 0.21641,-1.62508 0.0276,-2.40512 z M 241.3442,449.9539 c -0.18884,-0.78003 -0.35568,-0.33595 -0.37086,0.98685 -0.014,1.32284 0.13932,1.96103 0.34329,1.41825 0.20404,-0.54277 0.21643,-1.62508 0.0282,-2.4051 z m -194.3636,0.43569 c -0.23771,-0.63953 -0.41418,-0.44957 -0.4499,0.48436 -0.0324,0.84514 0.14367,1.31864 0.39111,1.05224 0.24744,-0.26634 0.2739,-0.95786 0.0587,-1.5366 z m 263.84559,-6.566 c 0,-0.16635 -0.58642,-0.79781 -1.30314,-1.40297 -1.18106,-0.99724 -1.20741,-0.96887 -0.28116,0.3027 0.97278,1.33543 1.58429,1.76013 1.58429,1.1003 z m -265.3349,-8.66637 c -0.23772,-0.63956 -0.41418,-0.44957 -0.44992,0.48435 -0.0324,0.84515 0.14369,1.31866 0.39111,1.05226 0.24745,-0.26635 0.27391,-0.95787 0.0587,-1.53661 z m 241.69195,-1.18232 c -0.51194,-0.22242 -1.3497,-0.22242 -1.86165,0 -0.51195,0.2224 -0.0932,0.40435 0.93083,0.40435 1.0239,0 1.44278,-0.18181 0.93082,-0.40435 z M 44.74662,427.94188 c -0.23771,-0.63955 -0.41418,-0.44956 -0.44991,0.48435 -0.0323,0.84515 0.14368,1.31865 0.39112,1.05226 0.24745,-0.26635 0.27391,-0.95786 0.0587,-1.53661 z m 208.92694,-1.98405 c -0.51196,-0.22241 -1.34971,-0.22241 -1.86167,0 -0.51193,0.2224 -0.0931,0.4044 0.93083,0.4044 1.02391,0 1.44278,-0.18211 0.93084,-0.4044 z m 20.10581,0 c -0.51196,-0.22241 -1.3497,-0.22241 -1.86165,0 -0.51195,0.2224 -0.0932,0.4044 0.93083,0.4044 1.0239,0 1.44277,-0.18211 0.93082,-0.4044 z m -27.94027,-0.75509 c -0.24739,-0.26635 -0.88971,-0.29483 -1.42724,-0.0633 -0.59405,0.25603 -0.41762,0.44587 0.44989,0.48436 0.78498,0.0349 1.2248,-0.15455 0.97735,-0.42107 z m 35.74368,0 c -0.24739,-0.26635 -0.88971,-0.29483 -1.42724,-0.0633 -0.59406,0.25603 -0.41761,0.44587 0.4499,0.48436 0.78498,0.0349 1.22478,-0.15455 0.97734,-0.42107 z m -216.7135,-8.53482 c -0.17748,-0.99213 -0.32271,-0.18028 -0.32271,1.80384 0,1.9842 0.14522,2.79592 0.32271,1.80382 0.17748,-0.99209 0.17748,-2.61555 0,-3.60766 z m 120.6227,-2.80598 c -0.18744,-0.77164 -0.34056,-0.1403 -0.34056,1.40301 0,1.54327 0.1534,2.17461 0.34056,1.40297 0.18744,-0.77166 0.18744,-2.03431 0,-2.80598 z m -0.0197,-6.01277 c -0.20658,-0.55117 -0.37561,-0.10028 -0.37561,1.00213 0,1.10235 0.16914,1.5533 0.37561,1.00214 0.20658,-0.55117 0.20658,-1.4531 0,-2.00427 z m -376.5469,1.50115 c 0,-0.16635 -0.58643,-0.79781 -1.30316,-1.40298 -1.18106,-0.99722 -1.20742,-0.96886 -0.28115,0.30271 0.97279,1.33544 1.58431,1.76013 1.58431,1.10031 z M 57.98509,381.13947 c 2.63293,-8.34864 6.95171,-22.93583 9.59725,-32.41598 7.00539,-25.10325 7.17434,-25.79571 6.18562,-25.34851 -0.47334,0.21423 -3.96466,1.49564 -7.75851,2.84787 -18.07214,6.44152 -34.50533,6.77852 -65.55493966,1.34435 l -6.17810104,-1.08124 -1.438597,3.03587 -1.438604,3.03592 10.472871,10.68839 c 5.948329,6.07076 11.4462037,11.00933 12.7258177,11.43121 2.142443,0.70634 10.219181,9.81213 30.757053,34.67577 3.68606,4.46243 6.95866,7.85526 7.27246,7.53962 0.3138,-0.31568 2.72475,-7.40463 5.35768,-15.75327 z m -8.53452,15.38357 c 0,-0.16635 -0.58642,-0.79782 -1.30316,-1.40298 -1.18107,-0.9972 -1.20741,-0.96887 -0.28116,0.3027 0.9728,1.33544 1.5843,1.76014 1.5843,1.10028 z M 42.74863,388.506 c 0,-0.16635 -0.58642,-0.79781 -1.30315,-1.40297 -1.18107,-0.99723 -1.20742,-0.96887 -0.28117,0.3027 0.9728,1.33543 1.58431,1.76013 1.58431,1.10031 z m -12.65921,-3.18071 c 0,-0.15211 -0.75398,-0.96386 -1.675492,-1.80382 l -1.675488,-1.52725 1.41857,1.80382 c 1.33311,1.69518 1.93241,2.16881 1.93241,1.52725 z m 5.95727,-4.83631 c 0,-0.16636 -0.58642,-0.79782 -1.30315,-1.40298 -1.18108,-0.99723 -1.20742,-0.96886 -0.28116,0.3027 0.9728,1.33544 1.58429,1.76014 1.58429,1.1003 z m -5.95729,-7.18925 c 0,-0.15211 -0.75398,-0.96387 -1.675491,-1.80383 l -1.675488,-1.52724 1.418563,1.80383 c 1.333116,1.69516 1.932416,2.1688 1.932416,1.52724 z m 331.14507,-2.71455 c -0.18884,-0.78002 -0.35569,-0.33593 -0.37086,0.98686 -0.0141,1.32284 0.1393,1.96103 0.34328,1.41825 0.20404,-0.54276 0.21643,-1.62507 0.0281,-2.40511 z M 22.642788,364.45489 c 0,-0.16636 -0.586422,-0.79782 -1.303154,-1.40299 -1.18107,-0.99722 -1.207415,-0.96886 -0.281129,0.3027 0.972796,1.33542 1.584295,1.7601 1.584295,1.10029 z m -23.8291217,-8.75423 c 0,-0.1309 -1.424152,-1.66423 -3.164807,-3.40721 l -3.164793,-3.16911 2.9436,3.40724 c 2.737516,3.16869 3.386,3.77564 3.386,3.16908 z M 209.64744,352.93243 c 0.92624,-1.27154 0.89993,-1.29989 -0.28116,-0.3027 -0.71673,0.60516 -1.30316,1.23651 -1.30316,1.40298 0,0.65982 0.61151,0.23513 1.58432,-1.10031 z M 9.2389123,353.30819 c 0,-0.12393 -2.094361,-2.37884 -4.654124,-5.01063 l -4.65412496,-4.78515 4.44464496,5.01063 c 4.128707,4.65449 4.863604,5.37753 4.863604,4.78515 z m -42.3506363,-6.78937 c 0.926259,-1.27156 0.899914,-1.29993 -0.281162,-0.3027 -0.716733,0.60516 -1.30316,1.2365 -1.30316,1.40297 0,0.65983 0.6115,0.23514 1.584303,-1.10027 z m 14.798223,-8.46833 c 0,-0.13786 -1.089068,-1.31048 -2.420151,-2.60555 l -2.420144,-2.35469 2.18713,2.60554 c 2.038729,2.42872 2.653165,2.97404 2.653165,2.3547 z m 56.427681,-8.34895 c -1.52505,-0.1721 -4.20582,-0.17452 -5.95728,-0.006 -1.75148,0.16938 -0.50372,0.31031 2.77278,0.31322 3.2765,0.003 4.70953,-0.13574 3.1845,-0.30792 z m -72.251721,-0.77156 c -0.716726,-0.20181 -1.889568,-0.20181 -2.606302,0 -0.716739,0.2018 -0.130312,0.36663 1.303155,0.36663 1.433473,0 2.019886,-0.16513 1.303147,-0.36663 z m 55.833996,0.0681 c -0.247451,-0.26634 -0.889717,-0.29482 -1.427268,-0.0633 -0.594038,0.25604 -0.417592,0.44591 0.449897,0.48436 0.784989,0.0349 1.22481,-0.15454 0.977371,-0.42106 z m -69.237864,-0.8699 c -0.71674,-0.2018 -1.889582,-0.2018 -2.606315,0 -0.716747,0.2018 -0.130312,0.36664 1.303154,0.36664 1.433466,0 2.019887,-0.16514 1.303161,-0.36664 z m 63.280579,0.0681 c -0.247445,-0.26634 -0.889711,-0.29482 -1.427268,-0.0633 -0.594038,0.25604 -0.417586,0.44587 0.449911,0.48435 0.784988,0.0349 1.224809,-0.15483 0.977357,-0.42108 z m 247.22712,0 c -0.24739,-0.26634 -0.88971,-0.29482 -1.42727,-0.0633 -0.59403,0.25604 -0.41758,0.44587 0.44989,0.48435 0.78501,0.0349 1.22483,-0.15483 0.97738,-0.42108 z m 8.93592,0 c -0.24739,-0.26634 -0.88971,-0.29482 -1.42727,-0.0633 -0.59402,0.25604 -0.41759,0.44587 0.4499,0.48435 0.785,0.0349 1.22481,-0.15483 0.97737,-0.42108 z m -333.592163,-0.86982 c -0.716735,-0.20181 -1.889571,-0.20181 -2.606322,0 -0.716719,0.2018 -0.130305,0.36664 1.303165,0.36664 1.433478,0 2.019892,-0.16484 1.303157,-0.36664 z m 31.260198,-3.13854 c -0.247445,-0.26634 -0.889712,-0.29483 -1.427268,-0.0633 -0.594038,0.25603 -0.417579,0.44591 0.44991,0.48436 0.784989,0.0349 1.22481,-0.15454 0.977358,-0.42106 z m -138.210085,-1.7203 c 0.92625,-1.27156 0.89991,-1.29993 -0.28116,-0.3027 -0.71674,0.60517 -1.30317,1.2365 -1.30317,1.40298 0,0.65983 0.6115,0.23513 1.58432,-1.10028 z m 461.78037,0.87203 c -0.51194,-0.22241 -1.34969,-0.22241 -1.86165,0 -0.51194,0.2224 -0.0932,0.40435 0.93083,0.40435 1.02391,0 1.44278,-0.18211 0.93082,-0.40435 z m 22.71213,-0.8234 c -0.71673,-0.2018 -1.88957,-0.2018 -2.60631,0 -0.71673,0.20181 -0.13031,0.36664 1.30317,0.36664 1.43345,0 2.01987,-0.16513 1.30314,-0.36664 z m 10.40972,0.0681 c -0.24739,-0.26634 -0.8897,-0.29482 -1.42725,-0.0633 -0.59405,0.25605 -0.41761,0.44592 0.44989,0.48436 0.78499,0.0348 1.2248,-0.15453 0.97736,-0.42105 z m -367.563446,-9.13867 -8.466707,-8.74576 -3.572475,1.949 c -1.964877,1.07195 -4.927722,2.18232 -6.58411,2.46745 l -3.011627,0.51847 3.50857,3.19353 c 4.739941,4.31435 9.827894,6.76063 16.932704,8.14114 10.675382,2.07433 10.648653,2.24283 1.193645,-7.52383 z m 10.328338,7.76878 c 0,-0.13786 -1.089067,-1.31046 -2.420151,-2.60554 l -2.420144,-2.35471 2.187131,2.60557 c 2.038721,2.42872 2.653164,2.97402 2.653164,2.35468 z m 10.425247,-1.62913 c 0,-0.15211 -0.753977,-0.96388 -1.675483,-1.80386 l -1.675488,-1.52726 1.418557,1.80386 c 1.333112,1.69514 1.932414,2.16881 1.932414,1.52726 z M 94.4491,313.64869 c -0.37066,-0.33069 -0.92402,-0.96203 -1.2297,-1.40297 -0.31717,-0.45751 -0.56065,-0.19938 -0.56718,0.60128 -0.006,0.77988 0.53982,1.40298 1.22973,1.40298 0.68259,0 0.93781,-0.27057 0.56715,-0.60129 z m 286.74748,-2.60553 c 0.74131,-0.88188 1.18027,-1.60339 0.97547,-1.60339 -0.2049,0 -0.97885,0.72151 -1.72015,1.60339 -0.7413,0.88186 -1.18024,1.60341 -0.97546,1.60341 0.2049,0 0.97884,-0.72155 1.72014,-1.60341 z m -409.935334,0.49902 c 0,-0.16636 -0.586415,-0.79782 -1.303155,-1.40299 -1.181068,-0.99722 -1.207407,-0.96886 -0.281161,0.3027 0.972803,1.33541 1.584303,1.76012 1.584303,1.10029 z M 118.8526,300.63389 c 13.84647,-6.42913 16.27994,-7.8175 17.0049,-9.70178 0.46531,-1.20945 1.75694,-2.60521 2.87029,-3.1017 1.44999,-0.64661 2.24752,-1.80328 2.81128,-4.07728 0.4329,-1.74604 0.51933,-3.17459 0.19195,-3.17459 -0.32724,0 -2.75823,0.5401 -5.40219,1.20027 -11.78201,2.94173 -24.96795,2.9777 -30.35803,0.0827 -1.32105,-0.70952 -2.4744,-1.1983 -2.56295,-1.08613 -0.0887,0.11211 -1.86293,6.53802 -3.94307,14.27978 -2.08017,7.74172 -4.00513,14.70156 -4.27771,15.46629 -0.43371,1.21683 0.003,1.15475 3.50548,-0.49721 2.20059,-1.03819 11.27256,-5.26391 20.15994,-9.39047 z m 231.01664,7.28062 c -0.19588,-0.21088 -0.93462,0.26665 -1.64161,1.06141 -1.22815,1.38047 -1.21227,1.39755 0.35619,0.38345 0.90291,-0.58374 1.48135,-1.23393 1.28542,-1.44486 z m -392.756538,1.27451 c 0,-0.13786 -1.089054,-1.31047 -2.420131,-2.60554 l -2.420145,-2.35469 2.187125,2.60554 c 2.038714,2.42873 2.653151,2.97405 2.653151,2.35469 z m 6.701948,-4.83597 c 0,-0.15211 -0.753964,-0.96386 -1.675489,-1.80383 l -1.675482,-1.52725 1.418563,1.80383 c 1.333112,1.69517 1.932408,2.16883 1.932408,1.52725 z m 245.55163,-1.07773 c -0.71673,-0.20181 -1.88958,-0.20181 -2.6063,0 -0.71674,0.2018 -0.13032,0.36663 1.30314,0.36663 1.43347,0 2.01989,-0.16483 1.30316,-0.36663 z m 8.74977,-3.62715 c 5.38702,-1.44593 6.53816,-1.50309 12.02594,-0.59719 3.33776,0.55095 6.56111,0.79833 7.16298,0.54968 0.60185,-0.24876 2.50432,-3.27747 4.2277,-6.7307 1.72335,-3.45328 4.02912,-7.306 5.12389,-8.56169 1.0948,-1.25566 5.67731,-4.1979 10.18334,-6.53833 4.50605,-2.34042 9.09061,-5.15111 10.18794,-6.24599 2.45948,-2.45399 6.75431,-11.48924 8.45478,-17.78674 1.81216,-6.71111 1.22749,-15.08869 -1.38842,-19.89433 -6.4944,-11.93075 -23.99108,-19.4704 -54.38832,-23.43687 l -9.58006,-1.25008 -6.15796,4.45692 c -6.52083,4.71962 -18.38756,11.04258 -26.4358,14.08581 -2.66215,1.00662 -5.08973,2.05848 -5.39463,2.33743 -0.4509,0.41253 13.00083,9.31277 19.26377,12.74572 1.18241,0.64812 4.0992,0.47072 11.54222,-0.70204 15.48791,-2.44033 23.08841,-4.66105 27.50062,-8.03518 2.10753,-1.61168 4.1872,-0.93469 3.45335,1.12416 -1.18536,3.3256 -12.9854,7.53274 -27.59485,9.83845 l -8.83485,1.39435 8.64871,4.6686 c 8.05062,4.34577 9.92168,6.11899 7.88586,7.47358 -0.99423,0.66155 -23.67839,-12.04125 -38.97952,-21.82799 -24.169,-15.45874 -51.18194,-36.30286 -73.07367,-56.3862 -10.00172,-9.17559 -24.03298,-19.78309 -28.66941,-21.67386 -4.91821,-2.00572 -8.1616,-1.32999 -11.47208,2.3901 -7.40538,8.32166 2.56306,34.61793 20.40935,53.83891 6.34531,6.8341 8.07939,8.19193 16.04678,12.56509 13.7841,7.56592 19.42048,11.75627 55.81158,41.49322 20.92653,17.1001 35.74004,26.71428 48.02199,31.16698 5.9311,2.15029 6.32978,2.1388 16.01877,-0.46181 z m 8.37742,0.42033 c -0.71673,-0.2018 -1.88958,-0.2018 -2.60631,0 -0.71673,0.2018 -0.13031,0.36665 1.30316,0.36665 1.43346,0 2.01988,-0.16515 1.30315,-0.36665 z m 160.05208,-1.20111 c -0.23783,-0.63953 -0.41418,-0.44958 -0.44988,0.48438 -0.0324,0.84513 0.14353,1.31863 0.39109,1.05222 0.24739,-0.26634 0.27385,-0.95786 0.0589,-1.5366 z m -129.14869,0.42108 c -0.51195,-0.22241 -1.3497,-0.22241 -1.86165,0 -0.51195,0.22242 -0.0932,0.40437 0.93083,0.40437 1.02389,0 1.44278,-0.18211 0.93082,-0.40437 z m 2.40722,-3.14133 c 2.50326,-1.76585 5.85081,-7.73001 8.06328,-14.36607 1.02909,-3.08653 2.12814,-6.31083 2.44233,-7.16509 0.49227,-1.33829 0.21813,-1.26739 -1.98207,0.51268 -1.40434,1.13619 -6.1263,3.86952 -10.49323,6.07406 -6.67632,3.37038 -8.26564,4.5382 -9.98684,7.33833 l -2.04696,3.3301 1.74908,1.36859 c 5.47462,4.2837 9.08808,5.14099 12.25441,2.9074 z m -314.605936,-3.81956 c 0,-0.15212 -0.753963,-0.96388 -1.675475,-1.80384 l -1.675488,-1.52724 1.41857,1.80383 c 1.333105,1.69517 1.932393,2.16882 1.932393,1.52725 z m -52.684684,-2.69432 c -0.92151,-0.19119 -2.42946,-0.19119 -3.35097,0 -0.92152,0.19121 -0.16755,0.34744 1.67548,0.34744 1.84303,0 2.59701,-0.15635 1.67549,-0.34744 z m 228.25161,-7.22238 c -1.11894,-0.18302 -3.12954,-0.18666 -4.46796,-0.009 -1.33841,0.17847 -0.4229,0.32812 2.0345,0.33261 2.45736,0.004 3.55244,-0.14151 2.43346,-0.32444 z M 133.11066,278.87 c 6.4147,-1.36489 14.17152,-3.62225 18.66,-5.43041 1.15284,-0.46439 -1.06278,-2.63064 -11.82398,-11.56055 -10.5655,-8.76749 -13.45149,-10.80239 -14.27588,-10.0658 -1.48981,1.33114 -9.35618,0.44033 -15.15814,-1.71654 -10.87365,-4.04228 -31.94471,-16.26066 -45.42425,-26.34 -13.79711,-10.31677 -26.38537,-23.32765 -30.01544,-31.02309 -1.8917,-4.01023 -2.84734,-4.49365 -5.77418,-2.92086 -2.932346,1.57572 -7.400665,8.25723 -7.400665,11.06622 0,1.48648 1.404841,2.90996 6.541963,6.62876 12.160832,8.80333 19.928382,15.78953 44.839572,40.32922 18.35557,18.08181 30.27807,28.84247 34.14621,30.81865 5.44878,2.78366 13.30184,2.84922 25.68479,0.21452 z m -234.73111,-1.29777 c 0.92627,-1.27154 0.89994,-1.2999 -0.28116,-0.30271 -1.24041,1.04734 -1.63487,1.70569 -1.02201,1.70569 0.15464,0 0.74106,-0.63135 1.30317,-1.40298 z m 66.705293,-14.02984 c -0.177481,-0.99209 -0.322708,-0.18028 -0.322708,1.80384 0,1.98423 0.145215,2.79596 0.322708,1.80385 0.177479,-0.99213 0.177479,-2.61557 0,-3.60769 z M 84.44959,261.06112 c 0,-0.15212 -0.75397,-0.96384 -1.67551,-1.80384 l -1.67547,-1.52724 1.41857,1.80383 c 1.33309,1.69517 1.93241,2.16883 1.93241,1.52725 z m 195.19588,-1.12638 c 0.92627,-1.27156 0.89993,-1.29992 -0.28117,-0.30269 -0.71677,0.60515 -1.30317,1.2365 -1.30317,1.40298 0,0.65982 0.61153,0.23512 1.58431,-1.10029 z m 2.51354,-4.57693 c 1.63945,-1.3435 8.92861,-5.98416 16.19808,-10.31255 7.26947,-4.32842 14.38928,-9.05991 15.82181,-10.51444 2.5327,-2.57164 3.36636,-5.46148 1.8639,-6.46118 -0.76294,-0.50763 -19.47719,-22.94578 -29.75719,-35.67849 -1.25305,-1.55199 -1.71556,-1.7454 -2.04963,-0.85715 -1.1194,2.97641 -7.63703,7.52074 -14.55565,10.14875 -6.78063,2.57562 -16.75146,3.76765 -35.5541,4.25055 l -18.98884,0.4877 8.19127,1.04236 c 16.16644,2.05723 33.92635,7.31276 41.70097,12.34018 5.92104,3.82884 11.35292,10.03096 13.04205,14.89139 1.75594,5.05263 1.96599,13.84923 0.47815,20.02435 -1.09263,4.53489 -1.13609,4.52719 3.60918,0.63853 z M 75.51364,252.24238 c 0,-0.1521 -0.75397,-0.96386 -1.67548,-1.80385 l -1.67548,-1.52722 1.41857,1.80384 c 1.33311,1.69514 1.93239,2.16879 1.93239,1.52723 z m 47.45657,-1.00949 c -0.24739,-0.26635 -0.88971,-0.29483 -1.42727,-0.0633 -0.59402,0.25604 -0.41758,0.44587 0.44992,0.48436 0.78498,0.0348 1.2248,-0.15483 0.97735,-0.42109 z m -0.85518,-3.74998 C 115.78581,242.30496 106.28,235.95474 97.83961,231.26615 86.98424,225.23595 79.30872,218.2567 71.70345,207.50063 l -4.44799,-6.29072 h -4.35119 c -3.93081,0 -11.55879,-1.93251 -20.02851,-5.07409 l -3.10453,-1.15154 3.98889,4.63854 c 5.07783,5.90482 9.86828,10.47843 17.70141,16.90019 18.82135,15.4301 50.52546,32.77792 59.84871,32.74792 l 2.97866,-0.009 z m 156.4728,-3.97378 c -0.17816,-0.99724 -0.33063,-0.37008 -0.33887,1.39366 -0.008,1.76373 0.13736,2.57968 0.32383,1.81319 0.18632,-0.76653 0.19307,-2.20959 0.014,-3.20685 z m -212.0101,-0.0855 c 0,-0.15211 -0.75397,-0.96387 -1.67549,-1.80382 l -1.67549,-1.52724 1.41858,1.80382 c 1.3331,1.69517 1.9324,2.1688 1.9324,1.52724 z m -21.59514,-6.13709 c 0,-0.44092 -0.75397,-0.79618 -1.67549,-0.78942 -1.35485,0.009 -1.46173,0.1609 -0.55849,0.78942 1.44372,1.00447 2.23398,1.00447 2.23398,0 z m 9.69518,-0.58446 c -1.83499,-0.18 -3.75744,-0.70374 -4.27211,-1.1636 -0.51468,-0.45985 -1.77786,-0.60856 -2.80709,-0.33046 -3.74209,1.01115 -1.73032,1.88376 4.27212,1.853 3.3789,-0.0181 4.64209,-0.17878 2.80708,-0.35894 z m -16.95561,-0.78301 c -0.92153,-0.19118 -2.42945,-0.19118 -3.35098,0 -0.92151,0.1912 -0.16754,0.34743 1.67549,0.34743 1.84304,0 2.597,-0.15635 1.67549,-0.34743 z m 11.98562,-2.51082 3.6082,-0.53106 -8.82082,-7.88904 c -4.85145,-4.33895 -12.33934,-10.42553 -16.639743,-13.52568 -4.300411,-3.10015 -8.065123,-6.04388 -8.366027,-6.54163 -0.300904,-0.49775 -0.552221,-2.08908 -0.558492,-3.53628 -0.047,-10.83051 13.645372,-21.00221 17.491792,-12.99428 0.91282,1.9004 2.30316,2.70549 8.36448,4.84344 11.56355,4.07873 20.30124,5.93409 20.30124,4.3108 0,-0.25209 -0.8489,-2.01801 -1.88645,-3.92408 -2.99576,-5.50346 -11.41065,-30.2976 -13.37048,-39.39563 -1.808,-8.39308 -2.61355,-22.81366 -1.92097,-34.38792 0.54046,-9.03178 0.42653,-11.43369 -0.85393,-18.00466 C 46.24391,97.661839 44.60733,92.035635 43.41976,89.329543 41.38921,84.702675 40.82772,84.118661 33.99946,79.53136 15.063904,66.810247 0.75818534,61.781536 -2.2824487,66.777615 c -1.719825,2.825869 -3.937,15.689819 -4.861522,28.206444 -0.895511,12.123731 -0.712768,18.315641 1.576374,53.412171 0.938212,14.38422 1.409237,28.44511 1.262239,37.68008 l -0.234506,14.73271 -2.495751,5.61193 c -3.8466163,8.64944 -3.8556463,9.98939 -0.09072,13.4589 5.881837,5.42033 16.487778,10.53553 26.8745937,12.96155 4.992173,1.16599 23.508151,1.5163 29.959501,0.56684 z m 128.12227,-9.49261 c 8.9993,-3.79535 20.10039,-9.9415 25.49127,-14.11332 l 4.36948,-3.38136 -3.5747,-0.24604 c -1.9661,-0.13545 -8.12696,0.7034 -13.69084,1.86376 -9.93374,2.07175 -10.23863,2.08731 -16.9084,0.86331 -6.0635,-1.11274 -23.09467,-5.78814 -26.83129,-7.36574 -1.16126,-0.4903 -1.33729,-0.33786 -0.9299,0.80517 0.27639,0.77549 0.71569,3.36226 0.97618,5.74841 0.26062,2.38614 0.84649,4.847 1.30222,5.4686 0.45572,0.62155 4.99393,4.07285 10.08487,7.66953 10.43695,7.37354 9.0489,7.18429 19.71111,2.68764 z m 135.23014,-2.16414 c 0,-0.16636 -0.58642,-0.79782 -1.30317,-1.40297 -1.18105,-0.99724 -1.2074,-0.96887 -0.28116,0.3027 0.97279,1.33543 1.58429,1.76013 1.58429,1.1003 z m -5.9573,-7.18924 c 0,-0.15212 -0.75396,-0.96387 -1.67547,-1.80384 l -1.67549,-1.52724 1.41858,1.80383 c 1.33309,1.69517 1.93238,2.1688 1.93238,1.52725 z m -163.49034,-6.73831 c -1.07439,-6.76689 -4.94715,-21.45076 -7.49864,-28.43159 -4.18758,-11.45724 -10.60697,-24.75278 -20.13216,-41.69679 C 97.63447,105.05822 93.9509,98.238585 89.25427,88.213131 83.34654,75.602514 81.75176,70.755513 80.28258,60.945691 78.27854,47.564327 79.81577,33.91596 84.43706,24.059924 l 2.31955,-4.946941 -3.57367,0.558833 c -11.55075,1.806223 -22.29333,6.402917 -26.22208,11.220285 -3.11523,3.819846 -3.03218,6.691938 0.30862,10.673067 1.43347,1.708228 2.60631,3.499201 2.60631,3.979926 0,0.480751 -1.42416,1.269038 -3.1648,1.751773 -8.54269,2.369156 -10.76571,4.031303 -9.96801,7.45308 0.72387,3.105032 16.95281,36.487544 20.92397,43.040079 5.86167,9.671934 11.29601,17.314404 29.07343,40.886924 18.6111,24.67796 29.41889,43.2651 34.4822,59.30223 1.10048,3.48557 2.00679,4.59968 6.84789,8.41781 3.06878,2.42028 5.67852,4.40791 5.79949,4.41692 0.12102,0.009 0.006,-1.33648 -0.25752,-2.98997 z m -93.41733,1.14186 c 0,-0.14361 -0.92152,-1.13572 -2.04783,-2.20467 l -2.04781,-1.9436 1.80529,2.2047 c 1.68731,2.0606 2.29035,2.57234 2.29035,1.94357 z m 171.0701,-0.2233 c -0.24739,-0.26635 -0.88971,-0.29483 -1.42726,-0.0633 -0.59402,0.25603 -0.41759,0.44591 0.44992,0.48435 0.78498,0.0349 1.22479,-0.15453 0.97734,-0.42105 z m -39.44278,-0.86819 c -0.71195,-0.20059 -2.05234,-0.20786 -2.97862,-0.0151 -0.9263,0.19181 -0.3438,0.35595 1.29448,0.36481 1.63823,0.009 2.39611,-0.14786 1.68414,-0.34864 z m 33.48552,0.0664 c -0.2474,-0.26634 -0.88973,-0.29482 -1.42727,-0.0633 -0.59404,0.25604 -0.41758,0.44587 0.44989,0.48435 0.78501,0.0349 1.22483,-0.15484 0.97738,-0.42108 z m 85.09289,-1.42171 c 0,-0.16664 -0.5864,-0.79784 -1.30315,-1.40301 -1.18106,-0.9972 -1.2074,-0.96884 -0.28116,0.30271 0.97278,1.33543 1.58428,1.76012 1.58428,1.1003 z m -111.32663,-1.7282 c 5.63076,-1.51752 27.33276,-2.66403 40.79104,-2.155 18.22399,0.68927 35.10254,-1.94357 44.20705,-6.89573 5.82987,-3.17097 6.82713,-4.5458 8.48828,-11.70245 0.7784,-3.35346 1.73349,-6.73737 2.12242,-7.5198 0.38896,-0.78242 5.07437,-4.0491 10.41209,-7.25927 11.38543,-6.84738 16.58282,-11.08118 18.25195,-14.86809 1.58195,-3.58905 1.10645,-4.63411 -3.10738,-6.82951 -6.04765,-3.15083 -17.39911,-11.54553 -30.61583,-22.64124 -21.24951,-17.83936 -31.21841,-23.21319 -42.74367,-23.04137 -8.23739,0.1228 -8.68777,0.39038 -12.06228,7.16679 -2.09804,4.21306 -5.18015,8.4107 -10.42525,14.19848 l -7.44659,8.21708 4.85846,3.56978 c 12.95482,9.51858 20.52884,21.49032 22.1524,35.01471 l 0.54154,4.51128 7.07427,-2.97198 c 7.44524,-3.1278 21.8376,-10.68974 26.92135,-14.14482 4.04923,-2.75198 6.96079,-1.5844 3.77915,1.51552 -3.58641,3.49429 -25.02114,14.4011 -37.03011,18.84232 -19.51948,7.21882 -51.67311,13.49454 -85.43024,16.6742 -9.73063,0.91656 -6.71356,2.7986 13.94288,8.69751 3.68607,1.05264 7.5397,2.07556 8.5636,2.27315 4.17466,0.8056 12.55757,0.47963 16.75487,-0.65156 z m 9.85119,-0.057 c -0.24738,-0.26633 -0.88969,-0.29483 -1.42726,-0.0633 -0.59402,0.25603 -0.41758,0.44589 0.44993,0.48439 0.78497,0.0349 1.22479,-0.15483 0.97733,-0.42109 z m 10.8131,-0.8483 c -0.51195,-0.22239 -1.34968,-0.22239 -1.86166,0 -0.51195,0.22241 -0.0932,0.40436 0.93083,0.40436 1.02393,0 1.44278,-0.18209 0.93083,-0.40436 z m 13.77623,-0.0581 c -1.94544,-0.16513 -5.12886,-0.16513 -7.0743,0 -1.94541,0.16515 -0.35369,0.3003 3.53713,0.3003 3.89086,0 5.48258,-0.13515 3.53717,-0.3003 z m 23.45677,0.0242 c -0.92151,-0.19118 -2.42945,-0.19118 -3.35096,0 -0.92152,0.19121 -0.16745,0.34744 1.67548,0.34744 1.84303,0 2.597,-0.15635 1.67548,-0.34744 z M 44.98259,203.33845 c 0,-0.15211 -0.75397,-0.96386 -1.67549,-1.80384 l -1.67548,-1.52724 1.41857,1.80383 c 1.3331,1.69518 1.9324,2.16884 1.9324,1.52725 z m 210.53711,-0.20786 c -0.24739,-0.26635 -0.88975,-0.29482 -1.42727,-0.0633 -0.59405,0.25605 -0.41758,0.44587 0.4499,0.48435 0.78499,0.0349 1.22481,-0.15483 0.97737,-0.42107 z M 66.37605,199.92376 c -0.24744,-0.26634 -0.88971,-0.29482 -1.42726,-0.0633 -0.59404,0.25602 -0.41759,0.44589 0.4499,0.48437 0.78499,0.0349 1.22481,-0.15483 0.97736,-0.42108 z m 59.20581,-7.73311 c -6.2648,-15.08892 -13.76982,-27.4201 -29.64211,-48.70351 -6.41223,-8.59828 -13.88052,-18.65207 -16.59619,-22.34177 l -4.93758,-6.70854 -0.60007,3.10087 c -0.33005,1.70549 -1.06401,5.0851 -1.63101,7.51025 -1.4551,6.22385 -3.9364,19.68817 -4.52162,24.53589 l -0.49404,4.09245 3.21474,0.55343 c 1.7681,0.30439 4.56937,1.20684 6.22503,2.00543 4.1099,1.98242 17.35254,12.37391 29.46106,23.11815 12.4269,11.02673 21.9013,19.34165 22.11,19.40413 0.087,0.0272 -1.07789,-2.92904 -2.58821,-6.56678 z m 25.68544,0.51778 c -0.2474,-0.26635 -0.88971,-0.29483 -1.42727,-0.0633 -0.59406,0.25604 -0.41759,0.4459 0.44989,0.48438 0.785,0.0349 1.22482,-0.15483 0.97738,-0.42108 z m 11.37159,-3.10018 c 19.59267,-2.51514 28.98485,-3.97329 39.11908,-6.07342 10.38868,-2.15284 22.86768,-5.50915 23.70479,-6.37556 0.91863,-0.9508 -4.52636,-11.53949 -8.23093,-16.00639 -4.53809,-5.47195 -9.33785,-7.98546 -30.01917,-15.72023 -12.13194,-4.5373 -18.58672,-8.23889 -23.18071,-13.29326 -1.89593,-2.08596 -9.4798,-11.84042 -16.85303,-21.67657 C 128.83014,85.984902 118.88088,75.439335 106.50188,67.347773 l -2.8938,-1.89153 0.37008,10.755378 c 0.20348,5.915463 1.30711,17.609958 2.45238,25.987769 l 2.08228,15.23238 7.22673,12.82726 c 15.43279,27.39278 22.3235,42.32799 26.53929,57.52228 1.27562,4.59751 -0.19477,4.46557 20.36005,1.82694 z m 7.98958,0.69508 c -0.24739,-0.26635 -0.88975,-0.29483 -1.42727,-0.0633 -0.59405,0.25603 -0.41759,0.44591 0.44989,0.48439 0.78501,0.0348 1.22479,-0.15484 0.97738,-0.4211 z m 6.70193,-0.80171 c -0.24739,-0.26635 -0.88974,-0.29483 -1.42726,-0.0633 -0.59406,0.25605 -0.41759,0.44591 0.44988,0.48436 0.78501,0.0349 1.22481,-0.15452 0.97738,-0.42106 z M 32.50954,187.04991 c -0.51195,-0.2224 -1.3497,-0.2224 -1.86165,0 -0.51196,0.22241 -0.0931,0.40435 0.93083,0.40435 1.0239,0 1.44278,-0.1818 0.93082,-0.40435 z m 198.4319,-15.8132 c -1.18083,-12.30209 -8.18803,-23.44062 -21.07847,-33.50601 -5.17599,-4.04163 -23.35351,-14.12852 -33.82021,-18.76716 -6.41076,-2.84113 -7.66851,-3.77433 -13.40988,-9.94967 C 159.14833,105.26591 152.27904,97.329027 147.36782,91.37638 135.81468,77.373314 130.05153,71.2798 123.15881,65.779565 117.80522,61.507553 105.63332,54.673647 104.8603,55.505901 c -0.20265,0.218252 -0.55712,1.647652 -0.78758,3.176433 -0.39813,2.641461 -0.23923,2.892161 3.19666,5.044742 12.69163,7.951108 24.33932,20.068422 41.5933,43.270254 15.12669,20.34127 20.08505,25.99753 25.48915,29.07693 2.36347,1.34675 10.88746,4.97989 18.94218,8.07361 15.95148,6.12676 16.28249,6.2825 22.06857,10.38223 4.20148,2.97696 7.97022,8.27459 11.98488,16.8469 2.79169,5.96098 4.17444,5.907 3.59398,-0.14029 z m -173.29963,-0.8067 c 0,-0.17332 -0.52005,-0.52992 -1.15566,-0.79255 -0.6627,-0.27391 -0.9616,-0.13938 -0.70071,0.31511 0.4373,0.76179 1.85637,1.12676 1.85637,0.47744 z m -63.5274467,-5.89803 c -0.187304,-0.77164 -0.340548,-0.14029 -0.340548,1.40297 0,1.5433 0.153244,2.17464 0.340548,1.40299 0.187303,-0.77164 0.187303,-2.03432 0,-2.80596 z M 60.63369,157.8944 c 3.2381,-3.49513 3.40007,-3.90075 4.3215,-10.82301 0.52652,-3.9555 2.31799,-13.72131 3.98103,-21.70182 l 3.02371,-14.51001 -5.20883,-8.33855 c -2.86485,-4.586204 -6.91952,-11.765844 -9.01037,-15.954747 -2.09084,-4.188904 -3.85148,-7.435815 -3.91252,-7.215328 -0.54569,1.97099 -2.2061,30.446805 -2.59639,44.527745 -0.51154,18.45538 -0.11176,22.90585 3.23288,35.98993 1.04874,4.10259 1.32516,4.54354 2.01035,3.2068 0.43694,-0.8524 2.30831,-3.18386 4.15864,-5.18101 z m 158.59933,2.12595 c 0,-0.16648 -0.58642,-0.79782 -1.30315,-1.40298 -1.18106,-0.99722 -1.20741,-0.96886 -0.28116,0.30269 0.9728,1.33546 1.58429,1.76014 1.58429,1.10031 z M -6.6504327,154.51068 c -0.206582,-0.55118 -0.375596,-0.10021 -0.375596,1.00214 0,1.10233 0.169001,1.5533 0.375596,1.00213 0.206576,-0.55118 0.206576,-1.4531 0,-2.00427 z M 315.78734,150.50217 c -0.20658,-0.55119 -0.37558,-0.10022 -0.37558,1.00212 0,1.10235 0.16886,1.5533 0.37558,1.00213 0.20658,-0.55118 0.20658,-1.4531 0,-2.00425 z m -93.57568,-4.08471 c 0,-0.15212 -0.75397,-0.96384 -1.67547,-1.80382 l -1.67549,-1.52724 1.41857,1.80383 c 1.3331,1.69516 1.93239,2.1688 1.93239,1.52723 z M -7.3722237,142.90123 c -0.188796,-0.78003 -0.355695,-0.33594 -0.370876,0.98688 -0.01525,1.3228 0.139294,1.961 0.343285,1.41823 0.203983,-0.54279 0.216394,-1.62508 0.02758,-2.40511 z M 49.24835,126.85189 c -0.16065,-1.65351 -0.2921,-0.30063 -0.2921,3.00639 0,3.30704 0.13144,4.65992 0.2921,3.00641 0.16065,-1.65353 0.16065,-4.35929 0,-6.0128 z m -57.3652367,4.02378 c -0.188795,-0.78003 -0.355701,-0.33594 -0.370869,0.98688 -0.01525,1.32281 0.139308,1.96102 0.343279,1.41824 0.203983,-0.54279 0.216406,-1.62509 0.02758,-2.40512 z M 167.10684,132.804 c 0,-0.14362 -0.92151,-1.13572 -2.04783,-2.20469 l -2.04781,-1.94358 1.80529,2.20468 c 1.68732,2.06061 2.29035,2.57234 2.29035,1.94359 z m 40.22808,-14.37002 c 4.98691,-10.89349 5.37581,-11.01909 -5.08087,1.64095 l -4.6921,5.68076 2.0858,1.21749 c 1.14717,0.66961 2.33451,1.23192 2.63853,1.24957 0.30401,0.0177 2.5759,-4.38729 5.04864,-9.78877 z m 15.27279,-13.02252 c 4.16048,-9.296374 5.12117,-14.834681 4.62892,-26.685973 -0.43489,-10.470555 -2.43919,-19.730358 -7.26385,-33.558954 -10.66569,-30.570318 -26.53993,-61.968483 -38.78668,-76.717362 -3.61857,-4.357881 -4.05283,-4.641556 -6.38461,-4.170603 -1.37607,0.277907 -4.59181,1.513576 -7.14611,2.745882 -5.47054,2.639223 -10.95172,3.782595 -23.63302,4.929813 -17.78529,1.608944 -22.58789,3.122555 -27.45067,8.651419 -1.3775,1.566207 -5.73033,5.232899 -9.67294,8.148202 -8.61862,6.3729529 -10.93727,9.6304799 -12.28203,17.2552809 L 93.62446,11.63526 97.40957,9.6168259 c 7.87543,-4.199618 20.46083,-2.926137 31.75788,3.2134371 6.19639,3.367539 11.94893,11.245113 18.29101,25.047845 2.06486,4.493889 3.16804,6.102131 3.96104,5.774516 2.94192,-1.215415 7.75165,-1.225572 13.68335,-0.0288 l 6.53345,1.318044 6.6407,-2.827151 c 8.80205,-3.747311 13.6585,-4.362393 17.54617,-2.2222 12.79246,7.042255 24.22599,29.661896 24.40274,48.277258 0.0695,7.32095 -2.21861,15.077331 -8.50041,28.815401 l -4.23675,9.26555 5.94375,-6.8093 c 4.55176,-5.21457 6.70056,-8.50032 9.17521,-14.02982 z m -18.90823,7.48484 c 6.27106,-7.46585 12.38017,-16.99829 13.25222,-20.678423 0.43881,-1.851838 0.35936,-4.945627 -0.2274,-8.85846 l -0.90184,-6.012783 -0.48318,4.696834 c -0.55564,5.401097 -2.15982,8.365026 -8.79172,16.243652 -2.46881,2.93295 -5.59686,7.36811 -6.95116,9.8559 -3.10606,5.70567 -6.45431,14.60428 -5.87491,15.61363 0.24233,0.42206 1.47395,-0.52438 2.73702,-2.10318 1.26306,-1.57879 4.52154,-5.51952 7.24108,-8.75717 z m -5.31692,9.34578 c 0.96189,-1.10234 1.58136,-2.00426 1.37657,-2.00426 -0.20488,0 -1.15933,0.90192 -2.12126,2.00426 -0.96189,1.10233 -1.58137,2.00425 -1.37657,2.00425 0.20489,0 1.15933,-0.90192 2.12126,-2.00425 z m -7.44662,-2.37985 c 0,-0.59547 1.66353,-4.66018 3.69674,-9.03268 2.58866,-5.56704 5.29214,-9.85422 9.01936,-14.302816 2.92744,-3.494063 5.94567,-7.423383 6.70719,-8.731821 3.12767,-5.374252 2.39822,-14.883101 -1.49369,-19.470616 -2.66578,-3.142229 -6.70378,-5.342543 -13.55668,-7.38706 -6.29719,-1.878713 -5.86304,-1.802571 -5.85947,-1.027662 0.002,0.330713 2.15701,1.800507 4.79,3.266244 14.44652,8.042026 18.48626,24.882141 6.48775,27.044812 -1.49431,0.269339 -5.23015,1.325999 -8.30187,2.348137 -12.88819,4.288658 -18.84556,5.522555 -26.90587,5.572807 l -7.91703,0.04938 2.64703,3.206815 c 6.82926,8.27351 10.1015,10.84863 19.85029,15.62139 5.30304,2.59625 9.91062,4.54164 10.23908,4.32309 0.32844,-0.21856 0.59717,-0.88456 0.59717,-1.48002 z M -8.8379077,114.43982 c -0.16574,-1.44096 -0.304749,-0.45529 -0.308932,2.19033 -0.004,2.64562 0.131405,3.82457 0.301328,2.61988 0.169908,-1.20467 0.173342,-3.36928 0.0071,-4.81021 z M 106.55339,112.87216 c -0.23781,-0.63955 -0.41415,-0.44958 -0.4499,0.48436 -0.0324,0.84512 0.14383,1.31863 0.39114,1.05223 0.24739,-0.2664 0.27383,-0.95787 0.0588,-1.53659 z m -56.60966,-1.65352 c -0.20659,-0.55118 -0.3756,-0.10021 -0.3756,1.00213 0,1.10234 0.16901,1.55331 0.3756,1.00213 0.20658,-0.55117 0.20658,-1.45309 0,-2.00426 z m 119.39709,2.32893 c 0,-0.15213 -0.75397,-0.96385 -1.67551,-1.80382 l -1.67548,-1.52724 1.41858,1.80384 c 1.3331,1.69515 1.93241,2.16879 1.93241,1.52722 z m 37.32797,-1.12638 c 0.92626,-1.27155 0.89993,-1.2999 -0.28117,-0.30267 -0.71673,0.60517 -1.30316,1.2365 -1.30316,1.40298 0,0.65983 0.61151,0.23514 1.58429,-1.10028 z M 102.85902,99.794357 c -1.19019,-7.618988 -1.5172,-13.539995 -1.57183,-28.460494 -0.0681,-18.567426 -0.0391,-18.935338 1.99599,-25.425651 3.5966,-11.4703 9.93798,-20.194991 19.81318,-27.259756 l 4.02009,-2.875999 -2.68396,-1.482444 c -6.35945,-3.512511 -15.84588,-4.8021541 -22.33983,-3.036992 -12.99071,3.531096 -21.74912,24.354856 -19.20975,45.672658 1.13444,9.523294 3.60736,17.69108 8.54226,28.214051 3.9854,8.498243 12.52676,24.82606 12.79697,24.46285 0.0768,-0.10331 -0.53658,-4.51698 -1.36312,-9.808223 z m 163.05162,7.465873 c -0.23783,-0.63955 -0.41417,-0.44958 -0.44989,0.48436 -0.0324,0.84513 0.14354,1.31864 0.3911,1.05224 0.24739,-0.26641 0.27383,-0.95787 0.0589,-1.5366 z M 264.2357,96.787974 c 0.78445,-16.206098 2.14006,-25.670783 7.91922,-55.290178 1.61019,-8.252482 2.92761,-15.543532 2.92761,-16.202317 0,-0.700451 -1.22224,-1.592035 -2.9436,-2.147287 -2.48883,-0.802782 -4.30083,-0.665308 -11.7284,0.889837 -13.42394,2.810637 -16.06566,2.567417 -25.08189,-2.309343 -6.37963,-3.450644 -8.71623,-4.263399 -15.27205,-5.312175 -4.25701,-0.681014 -7.84995,-1.11988 -7.98429,-0.975242 -0.13425,0.144621 0.78492,2.58797 2.04279,5.429642 5.30279,11.979522 11.27573,29.41519 14.5407,42.445903 1.39378,5.562629 1.93239,27.265251 0.81577,32.869872 l -0.55904,2.805967 7.18417,-0.258193 c 6.0858,-0.218739 8.10672,0.05702 13.21827,1.80376 3.31873,1.13409 7.70958,3.10556 9.75738,4.38109 2.0478,1.2755 3.9316,2.35783 4.18623,2.40516 0.2547,0.0474 0.69431,-4.69408 0.97713,-10.536496 z M 50.54292,101.10401 c -0.19124,-0.20588 -0.3477,0.0678 -0.3477,0.60832 0,0.54044 -0.2867,0.79187 -0.63711,0.55872 -0.35039,-0.23314 -0.4606,0.55727 -0.2449,1.75653 l 0.39216,2.18042 0.59263,-2.36482 c 0.32595,-1.30066 0.43616,-2.53327 0.24492,-2.73917 z m 110.60663,3.62482 c 0,-0.15214 -0.75397,-0.96385 -1.67548,-1.80383 l -1.67548,-1.52724 1.41855,1.80384 c 1.33313,1.69516 1.93241,2.16879 1.93241,1.52723 z M -8.8520557,97.589662 c -0.177479,-0.9921 -0.322714,-0.180368 -0.322714,1.80384 0,1.984218 0.145221,2.795938 0.322714,1.803838 0.17748,-0.99211 0.17748,-2.615563 0,-3.607678 z M 215.78066,101.40238 c -0.23472,-0.65888 -0.76274,-0.97456 -1.17312,-0.7015 -0.45878,0.30527 -0.35705,0.76188 0.26428,1.18568 1.35589,0.92493 1.40236,0.90017 0.90894,-0.48418 z m 50.15998,-6.217822 c -0.1652,-1.433051 -0.30036,-0.260552 -0.30036,2.605551 0,2.866071 0.13509,4.038581 0.30036,2.605531 0.16522,-1.433055 0.16522,-3.778031 0,-5.211082 z m -105.73742,1.31948 c -0.24739,-0.266412 -0.88972,-0.294891 -1.42728,-0.0633 -0.59405,0.255917 -0.41758,0.445898 0.44989,0.484366 0.78501,0.03471 1.22483,-0.154679 0.97739,-0.421069 z m 10.42525,0 c -0.24739,-0.266412 -0.88975,-0.294891 -1.42727,-0.0633 -0.59405,0.255917 -0.41759,0.445898 0.44989,0.484366 0.78501,0.03471 1.22479,-0.154679 0.97738,-0.421069 z m 2.43562,-2.281255 c 3.4813,-0.635848 8.50777,-1.811235 11.16991,-2.611941 4.56542,-1.373166 4.87833,-1.620998 5.51005,-4.364221 1.02865,-4.467113 0.32118,-5.488631 -3.81119,-5.502878 -4.78199,-0.01641 -5.78761,-0.838101 -5.6947,-4.652685 l 0.0763,-3.1356 -2.69436,0.674339 c -6.68638,1.673427 -16.48699,0.717074 -27.26819,-2.660862 -4.99222,-1.564144 -13.96929,-2.297816 -14.96742,-1.223237 -0.26174,0.281796 2.66375,4.207334 6.5011,8.723437 3.83736,4.516102 8.14985,9.593085 9.58334,11.282205 3.87674,4.568092 10.10738,5.569676 21.59511,3.471443 z m 35.37136,-0.441201 c 0.74131,-0.881887 1.18027,-1.603423 0.9755,-1.603423 -0.2049,0 -0.97885,0.721536 -1.72015,1.603423 -0.7413,0.881872 -1.18028,1.603401 -0.97549,1.603401 0.20489,0 0.97883,-0.721529 1.72014,-1.603401 z M 51.43304,91.977736 c -0.20657,-0.551165 -0.37559,-0.100216 -0.37559,1.002135 0,1.102343 0.16901,1.553307 0.37559,1.002127 0.20659,-0.551171 0.20659,-1.453076 0,-2.004262 z M -8.1397507,87.167519 c -0.206582,-0.551178 -0.375603,-0.100208 -0.375603,1.002128 0,1.102352 0.169008,1.553301 0.375603,1.002136 0.206576,-0.551179 0.206576,-1.453099 0,-2.004264 z m 141.7368907,2.32893 c 0,-0.152139 -0.75396,-0.963848 -1.67551,-1.803832 l -1.67548,-1.527232 1.41858,1.803838 c 1.3331,1.695154 1.93241,2.168797 1.93241,1.527226 z m 65.15774,-2.184421 c 4.6438,-0.931383 6.60971,-3.159642 5.89191,-6.67813 -1.03871,-5.091473 -4.76872,-9.798643 -10.99754,-13.878565 -3.5123,-2.30059 -4.48825,-2.640057 -5.01504,-1.744504 -0.35978,0.611588 -0.65923,1.407724 -0.6655,1.769209 -0.006,0.361502 -1.0167,2.230338 -2.24538,4.152973 -1.22869,1.922651 -2.23398,4.422806 -2.23398,5.555951 0,1.933827 0.22515,2.06024 3.67012,2.06024 4.93186,0 6.21732,1.429693 5.88827,6.549154 -0.20545,3.198187 -0.051,3.808776 0.86686,3.426101 0.61434,-0.256129 2.79245,-0.801719 4.84028,-1.212429 z m 20.24952,-1.331807 c -0.18885,-0.780038 -0.35569,-0.335941 -0.37086,0.986867 -0.014,1.322815 0.13933,1.961015 0.34328,1.418245 0.20406,-0.542778 0.21643,-1.625081 0.0282,-2.405112 z M 102.8146,83.158985 c -0.20658,-0.551157 -0.37562,-0.100208 -0.37562,1.002136 0,1.102352 0.16915,1.5533 0.37562,1.002128 0.20658,-0.551164 0.20658,-1.453077 0,-2.004264 z m 126.63336,-2.794926 c -0.17113,-1.218645 -0.31576,-0.411881 -0.32137,1.792806 -0.006,2.204688 0.13453,3.201756 0.3112,2.215721 0.17675,-0.986058 0.18125,-2.78989 0.0113,-4.008527 z m -23.10551,-0.01111 c -0.18745,-0.771651 -0.34054,-0.140296 -0.34054,1.402976 0,1.543287 0.15338,2.174627 0.34054,1.402991 0.18745,-0.771644 0.18745,-2.034331 0,-2.805967 z M 52.21006,75.943454 c -0.17748,-0.992115 -0.3227,-0.180368 -0.3227,1.803839 0,1.984216 0.14521,2.79594 0.3227,1.80384 0.17749,-0.992108 0.17749,-2.615571 0,-3.607679 z m 88.83367,4.759798 c 0,-0.13799 -1.08906,-1.310459 -2.42016,-2.605544 l -2.42013,-2.354678 2.18712,2.605543 c 2.03875,2.428721 2.65317,2.974032 2.65317,2.354679 z m -16.38251,-0.853537 c 0,-0.166476 -0.58642,-0.797816 -1.30316,-1.402983 -1.18108,-0.99722 -1.20742,-0.968854 -0.28116,0.302667 0.9728,1.335445 1.58432,1.760137 1.58432,1.100294 z m 57.08732,-3.906261 c -0.20657,-0.551164 -0.37558,-0.100216 -0.37558,1.002136 0,1.102343 0.16886,1.553307 0.37558,1.002128 0.20658,-0.551165 0.20658,-1.453084 0,-2.004264 z M 46.27023,74.056111 c -0.24745,-0.266405 -0.88971,-0.294884 -1.42726,-0.0633 -0.59404,0.255917 -0.4176,0.445897 0.4499,0.484374 0.785,0.03478 1.2248,-0.154694 0.97736,-0.421077 z m 88.81621,0.207775 c 0,-0.152139 -0.75397,-0.963863 -1.67547,-1.803832 l -1.67548,-1.527236 1.41858,1.803836 c 1.33309,1.695153 1.93237,2.168789 1.93237,1.527232 z m -32.97,-7.124813 c -0.16577,-1.440936 -0.30477,-0.455291 -0.30894,2.190332 -0.002,2.645625 0.13144,3.824583 0.30135,2.619898 0.16999,-1.204676 0.17337,-3.369276 0.008,-4.81023 z m 61.0654,6.115342 c -0.24739,-0.266413 -0.8897,-0.294892 -1.42727,-0.0633 -0.59401,0.255917 -0.41758,0.445882 0.44993,0.484351 0.78499,0.03478 1.2248,-0.154679 0.97734,-0.421069 z M 48.75959,71.302723 c 1.38056,-0.795452 1.30799,-1.115534 -1.62452,-7.165525 -1.68831,-3.483065 -3.22856,-7.888539 -3.42279,-9.789937 -0.4873,-4.770531 1.73692,-7.015391 9.70338,-9.793361 1.28992,-0.449821 1.28048,-0.581001 -0.18618,-2.588382 -2.12244,-2.904944 -2.08638,-8.564627 0.0762,-11.962507 4.25843,-6.690849 19.46788,-13.076681 33.7314,-14.162462 l 2.95989,-0.225319 0.92345,-6.0127851 c 0.50793,-3.307033 1.10915,-6.824513 1.33611,-7.816619 0.39487,-1.72613803 0.21136,-1.80384303 -4.25803,-1.80384303 -9.80089,0 -19.41005,-4.52394897 -33.33538,-15.69420087 -9.39527,-7.536457 -13.9408,-10.343442 -18.55872,-11.460494 l -3.03642,-0.734506 v 3.954896 c 0,10.091943 -3.00547,28.8696049 -8.134789,50.824771 -2.415622,10.33964 -4.58974,22.880173 -4.749175,27.393727 -0.194285,5.5002 0.888651,6.592908 7.385435,7.451983 4.545459,0.601052 5.379299,0.990385 7.360189,3.436632 4.7922,5.917977 10.11913,8.28599 13.82991,6.147932 z m 131.51582,-0.771678 c 2.76263,-1.072857 4.25469,-3.245437 5.41507,-7.884833 1.06429,-4.255226 0.39463,-5.6134 -4.40151,-8.926824 -4.66379,-3.222015 -12.24593,-6.098883 -19.08451,-7.241211 -6.01319,-1.00445 -8.51104,-0.347096 -10.3857,2.733152 -1.27011,2.086895 -4.25952,11.063523 -5.141,15.4374 -0.50706,2.516024 -0.47903,2.544635 3.81567,3.894153 9.38515,2.949033 13.28896,3.571098 20.33669,3.240617 3.89085,-0.18244 8.14123,-0.746041 9.44529,-1.252454 z m -41.66734,-2.086859 c -0.2474,-0.266397 -0.88971,-0.294877 -1.42728,-0.0633 -0.59401,0.255932 -0.41758,0.445906 0.44993,0.484376 0.78498,0.03477 1.22479,-0.15469 0.97735,-0.421069 z m 0.32181,-1.636617 4.21571,-0.493928 1.23457,-5.306609 c 0.67902,-2.918622 1.87905,-6.879568 2.66677,-8.80208 l 1.43216,-3.495497 -2.0422,1.396909 c -3.64934,2.496244 -5.54716,4.729128 -6.92518,8.147947 -1.53893,3.817941 -3.57231,5.504335 -7.59008,6.294774 -1.53584,0.302172 -2.79245,0.797848 -2.79245,1.10153 0,1.392317 2.01741,2.537524 3.72328,2.113566 1.02394,-0.254475 3.75875,-0.684956 6.07742,-0.956612 z m 72.11187,1.042675 c 0,-0.152144 -0.75397,-0.963846 -1.67547,-1.803834 l -1.67548,-1.527236 1.41858,1.803826 c 1.3331,1.695173 1.93237,2.168813 1.93237,1.527244 z m 0.0915,-4.338531 c -3.22892,-6.886389 -8.71822,-14.322481 -13.35517,-18.091592 -5.09197,-4.138979 -7.72701,-4.302721 -16.09886,-1.000446 l -5.9057,2.329526 3.7827,1.924295 c 2.08047,1.058345 5.07315,3.086349 6.65037,4.506645 1.98394,1.786548 4.58879,3.037809 8.45262,4.060221 7.44986,1.971342 14.54166,5.629281 16.53156,8.526956 0.8912,1.297738 1.72973,2.359525 1.86337,2.359525 0.13369,0 -0.73077,-2.076807 -1.92092,-4.61513 z m -176.57591,3.53682 c 0,-0.152135 -0.75397,-0.963855 -1.67549,-1.803834 l -1.67547,-1.527227 1.41857,1.803825 c 1.3331,1.695165 1.9324,2.168805 1.93239,1.527236 z m 99.0108,-6.795014 c 1.79682,-0.938571 2.75393,-2.103101 3.16051,-3.84542 0.55214,-2.366223 4.82213,-7.260288 8.68653,-9.956057 l 1.76512,-1.231341 -2.79432,-5.983997 C 140.92352,31.821875 134.96865,21.739845 132.6909,19.436103 l -1.70902,-1.728553 -4.06428,2.526252 c -2.23533,1.389437 -6.47901,4.995727 -9.43036,8.013967 -4.19361,4.288701 -6.01668,6.923938 -8.3437,12.060827 -3.43112,7.574206 -4.49096,11.784157 -2.96664,11.784157 1.56756,0 15.88153,7.775217 17.01078,9.240111 1.2221,1.585363 6.28734,1.05868 10.38043,-1.079345 z m -52.34869,-5.95608 c -0.20658,-0.55116 -0.37559,-0.100206 -0.37559,1.002141 0,1.102339 0.16915,1.553293 0.37559,1.002132 0.20658,-0.551186 0.20658,-1.453086 0,-2.004273 z M 18.668,52.694052 c -0.206589,-0.551169 -0.375603,-0.100215 -0.375603,1.002132 0,1.102339 0.169014,1.553302 0.375603,1.002133 0.206575,-0.55117 0.206575,-1.453078 0,-2.004265 z m 62.55145,-9.620454 c -0.20658,-0.551169 -0.37559,-0.100215 -0.37559,1.002133 0,1.102356 0.16915,1.55331 0.37559,1.002132 0.20658,-0.551161 0.20658,-1.453087 0,-2.004265 z m 75.26044,1.319476 c -0.24738,-0.266397 -0.8897,-0.294886 -1.42726,-0.0633 -0.59402,0.255906 -0.41758,0.445888 0.44992,0.484359 0.78499,0.03468 1.22481,-0.154681 0.97734,-0.421087 z m 4.85583,-0.04662 c -0.51195,-0.222405 -1.3497,-0.222405 -1.86166,0 -0.51195,0.222413 -0.0931,0.404371 0.93083,0.404371 1.0239,0 1.44278,-0.181958 0.93083,-0.404371 z M 56.24747,29.043765 c 0.92626,-1.271541 0.89992,-1.299889 -0.28117,-0.302673 -0.71674,0.605179 -1.30316,1.236503 -1.30316,1.402992 0,0.659821 0.61151,0.235126 1.58431,-1.100293 z m 59.89698,-2.004256 2.18715,-2.605536 -2.42015,2.354678 c -1.33107,1.295069 -2.42013,2.467563 -2.42013,2.605537 0,0.619375 0.61443,0.0741 2.65313,-2.354679 z m 132.31649,-2.735636 c -0.51195,-0.222396 -1.34971,-0.222396 -1.86166,0 -0.51196,0.222404 -0.0932,0.404363 0.93083,0.404363 1.0239,0 1.44278,-0.18195 0.93083,-0.404363 z M 216.05271,13.928308 c -0.2474,-0.266397 -0.88971,-0.294877 -1.42728,-0.0633 -0.59404,0.255915 -0.41758,0.445889 0.4499,0.484359 0.78501,0.03477 1.22483,-0.154681 0.97738,-0.421052 z M 92.40486,10.253838 c -0.23783,-0.6395411 -0.41418,-0.4495841 -0.44989,0.484351 -0.0324,0.845142 0.14354,1.318632 0.3911,1.052235 0.24739,-0.266415 0.27384,-0.957867 0.0589,-1.536586 z m 17.54932,-1.9840461 c -0.51197,-0.222404 -1.3497,-0.222404 -1.86165,0 -0.51196,0.222405 -0.0932,0.404363 0.93082,0.404363 1.02391,0 1.44278,-0.18195 0.93083,-0.404363 z m -18.25969,-9.573862 c -0.24739,-0.266397 -0.88971,-0.294877 -1.42728,-0.0633 -0.59401,0.255923 -0.41758,0.44589697 0.44993,0.48436797 0.78498,0.03477 1.22479,-0.15466397 0.97735,-0.42106997 z M 30.59807,-10.590447 c -0.23771,-0.639541 -0.41417,-0.449576 -0.4499,0.484359 -0.0323,0.8451329 0.14368,1.3186409 0.39111,1.0522269 0.24744,-0.266389 0.2739,-0.9578499 0.0587,-1.5365859 z m 0.78218,-14.459586 c -0.1573,-1.88564 -0.28823,-0.542311 -0.29093,2.985203 -0.003,3.527489 0.126,5.070272 0.286,3.428424 0.16001,-1.641858 0.16223,-4.527997 0.005,-6.413627 z m 82.9507,5.991591 c 0.92627,-1.271558 0.89993,-1.299915 -0.28116,-0.302673 -1.24039,1.04731 -1.63486,1.705657 -1.02198,1.705657 0.1545,0 0.74105,-0.631324 1.30314,-1.402975 z m -79.57327,-10.34676 c -0.50416,-0.219603 -1.50946,-0.232974 -2.23398,-0.02976 -0.72453,0.203274 -0.31204,0.382941 0.91665,0.399297 1.22869,0.01642 1.82149,-0.149993 1.31733,-0.369588 z m 104.98289,-0.0061 c -0.51195,-0.222413 -1.3497,-0.222413 -1.86165,0 -0.51195,0.222404 -0.0932,0.404363 0.93083,0.404363 1.0239,0 1.44277,-0.18195 0.93082,-0.404363 z m 9.68057,-0.801702 c -0.51194,-0.222422 -1.34968,-0.222422 -1.86165,0 -0.51195,0.222404 -0.0932,0.404362 0.93083,0.404362 1.02393,0 1.44277,-0.181949 0.93082,-0.404362 z"
       id="path5788" /></g></svg>
