<?xml version="1.0" encoding="UTF-8" standalone="no"?>
<!-- Created with Inkscape (http://www.inkscape.org/) -->

<svg
   width="210mm"
   height="297mm"
   viewBox="0 0 210 297"
   version="1.1"
   id="svg1"
   xml:space="preserve"
   inkscape:version="1.4.2 (ebf0e94, 2025-05-08)"
   sodipodi:docname="rose.svg"
   xmlns:inkscape="http://www.inkscape.org/namespaces/inkscape"
   xmlns:sodipodi="http://sodipodi.sourceforge.net/DTD/sodipodi-0.dtd"
   xmlns="http://www.w3.org/2000/svg"
   xmlns:svg="http://www.w3.org/2000/svg"><sodipodi:namedview
     id="namedview1"
     pagecolor="#505050"
     bordercolor="#eeeeee"
     borderopacity="1"
     inkscape:showpageshadow="0"
     inkscape:pageopacity="0"
     inkscape:pagecheckerboard="0"
     inkscape:deskcolor="#505050"
     inkscape:document-units="mm"
     inkscape:zoom="0.18236421"
     inkscape:cx="287.88544"
     inkscape:cy="164.50596"
     inkscape:window-width="2560"
     inkscape:window-height="1403"
     inkscape:window-x="2560"
     inkscape:window-y="0"
     inkscape:window-maximized="1"
     inkscape:current-layer="layer1" /><defs
     id="defs1" /><g
     inkscape:label="Layer 1"
     inkscape:groupmode="layer"
     id="layer1"><path
       style="fill:#000000;stroke-width:3.48199"
       d="m 27.178394,700.69471 c -0.0066,-2.88792 -1.056044,-14.2913 -2.332483,-25.34075 -6.175438,-53.4576 -7.937898,-71.38864 -7.356742,-74.84657 0.34082,-2.0279 2.009274,-9.64566 3.70768,-16.92826 13.160031,-56.42938 12.935805,-55.06916 12.118276,-73.51117 -0.726734,-16.39387 -2.82527,-39.79285 -5.21214,-58.116 L 26.361329,438.58189 18.178349,422.13523 9.9953662,405.6886 -2.5521248,395.43481 C -9.4532463,389.79522 -23.865779,376.97162 -34.57996,366.93797 l -19.480327,-18.24306 -1.896899,2.24542 c -1.043277,1.23494 -4.318596,5.13858 -7.278481,8.67467 -25.558095,30.53368 -62.116033,52.28093 -121.098853,72.03818 -12.66231,4.24146 -13.21477,4.34313 -16.97503,3.12382 -3.61034,-1.17064 -4.21909,-1.10734 -8.56051,0.8905 -4.56023,2.09851 -4.74186,2.11123 -7.47765,0.52344 -2.23257,-1.29572 -3.89384,-1.50305 -8.15291,-1.01737 -4.27409,0.48737 -5.59338,0.32064 -6.56515,-0.82978 -1.56255,-1.84981 -3.30081,-1.81927 -6.63647,0.11665 -2.52714,1.46671 -2.93722,1.46644 -7.11425,-0.003 -5.45735,-1.92181 -9.05231,-1.96363 -14.23893,-0.16566 -3.90535,1.35377 -4.05579,1.33244 -6.44146,-0.91318 -2.74115,-2.58023 -6.03828,-2.90555 -12.71265,-1.25434 -3.45586,0.85498 -4.37317,0.81346 -5.04455,-0.22813 -1.4175,-2.1994 -0.92289,-8.50694 0.95013,-12.11648 0.98957,-1.907 1.58668,-4.01149 1.32692,-4.67658 -0.53585,-1.37196 1.46771,-5.52267 5.3744,-11.13396 1.57372,-2.26038 2.28043,-4.05619 1.72821,-4.39152 -1.79826,-1.09192 -0.8808,-3.73873 4.97083,-14.34066 4.31483,-7.81756 5.56096,-10.81188 4.64341,-11.15782 -2.89383,-1.09106 -1.14599,-5.16833 5.98821,-13.96904 3.98327,-4.91372 9.7342,-12.38493 12.77984,-16.60268 7.66525,-10.61511 21.27757,-24.44638 29.66808,-30.14526 8.73533,-5.93305 16.31082,-9.34269 28.4177,-12.79036 15.19006,-4.32567 34.40964,-17.07402 42.66772,-28.30148 4.41908,-6.00809 4.19389,-5.89398 18.78786,-9.51915 3.34617,-0.83121 12.70109,-5.49747 25.72111,-12.82971 11.254266,-6.33787 20.868879,-11.52342 21.365803,-11.52342 1.186315,0 5.965096,7.37024 8.88149,13.69773 5.366035,11.64239 5.157505,20.45494 -0.944126,39.89904 -1.860987,5.93016 -3.429378,11.45916 -3.485312,12.28639 -0.09094,1.34511 31.677781,30.69348 32.334308,29.87087 0.143435,-0.17982 1.551668,-2.70628 3.129401,-5.61463 l 2.868619,-5.28785 -1.72979,-3.84396 c -3.93216,-8.73807 -5.791923,-17.94533 -5.400564,-26.73696 0.331958,-7.45703 0.762413,-9.17423 3.826844,-15.26623 2.694304,-5.35615 5.096126,-8.38292 10.933161,-13.7779 11.734306,-10.84567 31.8652362,-22.09453 45.819305,-25.60315 l 4.688874,-1.17855 -10.643438,-0.51754 c -6.1571838,-0.29922 -13.7775348,-1.32661 -18.0789948,-2.43698 -9.8344542,-2.53874 -22.9912412,-8.98564 -29.0451212,-14.23232 -4.329237,-3.75199 -4.879579,-4.63388 -4.879579,-7.81928 0,-2.15501 1.486252,-7.00813 3.717772,-12.13978 l 3.71778,-8.54946 -0.01721,-14.49997 c -0.0089,-7.97501 -0.822667,-25.38969 -1.806932,-38.69933 -2.726118,-36.86311 -3.196415,-52.777178 -1.956548,-66.205696 1.94858,-21.104368 5.036229,-32.80373 9.053473,-34.30437 3.134109,-1.17072 9.413754,-1.06933 15.336577,0.24762 5.7122162,1.27014 26.051303,11.176168 35.720174,17.397292 7.472116,4.807683 9.111335,6.872228 12.133038,15.281024 1.174872,3.269385 2.186607,5.53341 2.248325,5.031153 0.06173,-0.50224 0.384235,-6.069322 0.71669,-12.371278 l 0.604464,-11.458096 -5.195277,0.370793 c -6.201469,0.44258 -8.47614,-0.558954 -16.003664,-7.046418 -4.553388,-3.92426 -5.976523,-4.65252 -9.0919238,-4.65252 -5.893706,0 -9.762856,-2.0461 -11.035936,-5.83609 -1.686598,-5.021 0.40526,-18.57162 6.781963,-43.9323198 6.175049,-24.5586502 9.1811118,-43.8587602 8.6761298,-55.7041102 l -0.155731,-3.65273 5.529469,0.1925 c 6.971853,0.24268 13.906511,3.48143 24.902101,11.63011 19.078195,14.13863 29.004883,18.81129 41.40961,19.49227 l 7.70945,0.4232 3.16509,-3.63299 c 1.7408,-1.99812 6.959886,-6.16928 11.598016,-9.26926 4.6381,-3.09992 9.8906,-7.22151 11.67221,-9.15904 5.82082,-6.3302 13.0154,-8.44174 34.36016,-10.08431 17.30762,-1.33191 22.56529,-2.33564 31.70493,-6.05283 11.38118,-4.6288 12.95336,-4.39812 19.75921,2.8993 8.82005,9.45712 21.48054,28.71625 30.6188,46.57731 l 2.85275,5.57584 6.32795,0.63224 c 11.97216,1.19615 19.52891,3.23635 27.43516,7.40698 9.16076,4.8323702 12.60572,5.1109502 27.07794,2.18968 14.87324,-3.00226 23.8468,-1.33159 23.8468,4.4397102 0,2.65924 -1.88725,12.63387 -6.43166,33.9931698 -3.93795,18.50877 -6.4089,35.916984 -7.14576,50.342824 l -0.62912,12.316063 18.02424,13.745809 c 18.49455,14.10447 30.1472,22.00368 38.67101,26.21463 7.08646,3.50087 8.33499,6.78906 4.99809,13.16289 -2.98614,5.70375 -10.37273,11.23005 -26.35821,19.71987 -8.41358,4.46843 -10.299,6.32386 -11.31756,11.1377 -0.67264,3.179 0.12616,4.17573 27.38674,34.17029 7.98822,8.78935 14.80261,16.72277 15.14307,17.6298 0.34039,0.90699 0.0478,2.9924 -0.65045,4.63419 -2.14783,5.05055 -5.87813,7.51776 -35.88984,23.73712 -3.83391,2.072 -9.29002,6.02741 -12.12466,8.7898 -4.68749,4.56806 -5.56123,6.09661 -9.65617,16.89386 -7.23004,19.06345 -10.92547,25.04638 -17.01401,27.54584 -3.69487,1.51679 -7.56841,0.68977 -14.64123,-3.12603 l -4.64027,-2.50343 -2.79529,4.1093 c -2.57629,3.78742 -3.13804,4.131 -7.17048,4.38607 -2.40634,0.1522 -6.54352,-0.11044 -9.19368,-0.58374 -3.98781,-0.71213 -6.59849,-0.46269 -15.14314,1.4468 -10.13122,2.26405 -10.43747,2.2787 -16.34769,0.78202 -11.75149,-2.97628 -32.23779,-13.91945 -50.99526,-27.24057 l -7.7578,-5.50939 -3.86028,1.13147 c -2.12314,0.62232 -4.95402,1.68469 -6.29086,2.36082 -2.83844,1.43558 -5.46967,6.36027 -5.46967,10.23716 0,2.30328 -0.43524,2.80122 -2.86618,3.27889 -2.02013,0.39698 -3.15862,1.32444 -3.85694,3.14223 -0.87052,2.26594 -3.52453,3.66445 -21.86443,11.52152 -11.48052,4.91838 -23.93153,10.19656 -27.668886,11.72926 -6.15486,2.52411 -6.88061,3.0957 -7.70048,6.06476 -0.90765,3.28703 -5.49439,17.88052 -13.658878,43.45802 -7.594204,23.791 -16.909527,54.59997 -18.085028,59.81344 -1.173258,5.2036 -1.102885,58.61269 0.07877,59.77119 0.316477,0.31029 6.171971,-3.14888 13.012218,-7.68705 12.411628,-8.23456 12.470968,-8.26131 29.283854,-13.19398 12.98743,-3.81034 17.91313,-5.69521 21.50053,-8.2274 16.60786,-11.72277 35.10739,-13.67164 48.79629,-5.14051 l 4.42332,2.7567 12.7714,-5.08635 c 7.02425,-2.79747 13.07642,-5.37122 13.44927,-5.71935 0.37286,-0.34818 1.12707,-3.80572 1.67599,-7.6834 1.22062,-8.62226 -0.4395,-19.75576 -4.12515,-27.66543 -1.32618,-2.84609 -2.40139,-5.63872 -2.38935,-6.20582 0.0106,-0.56713 2.98319,-3.29125 6.60257,-6.05365 4.00275,-3.05497 7.32234,-6.45342 8.47394,-8.67522 5.84152,-11.2703 18.43343,-25.09339 30.64877,-33.64543 9.17609,-6.42426 23.01306,-13.03585 34.64021,-16.55179 15.87212,-4.79956 23.44788,-5.94931 37.65203,-5.71441 13.01999,0.21536 15.79223,-0.40061 20.65719,-4.58964 1.43368,-1.23446 2.43863,-1.20864 9.48248,0.24366 7.66269,1.57996 7.95016,1.57702 10.47918,-0.10698 2.2228,-1.48028 4.35444,-1.73167 14.68307,-1.73167 10.75122,0 12.51402,-0.22642 15.9959,-2.05466 2.15222,-1.13005 5.01673,-2.05465 6.36564,-2.05465 4.19323,0 8.51963,-2.70241 12.55622,-7.84305 2.13414,-2.71785 4.49675,-4.94151 5.25025,-4.94151 0.75352,0 2.65959,0.9022 4.23571,2.00484 l 2.86569,2.00486 7.50168,-1.90718 c 4.12592,-1.04894 10.59604,-3.08119 14.37801,-4.51608 6.74,-2.55717 6.97779,-2.75832 11.98994,-10.14269 7.13833,-10.51675 8.06078,-10.17579 7.31081,2.70251 l -0.59614,10.23629 -5.13737,5.10075 c -4.62139,4.58836 -5.07854,5.39005 -4.55112,7.98098 0.48777,2.39624 0.15807,3.24225 -1.96305,5.03473 -2.28494,1.93101 -2.42079,2.35682 -1.30957,4.10503 1.10866,1.74419 0.97208,2.19435 -1.29087,4.25491 -2.21036,2.01265 -2.45578,2.76494 -1.93857,5.94278 0.51882,3.18764 0.19004,4.1813 -2.65232,8.01963 -1.78446,2.40964 -3.97806,5.79521 -4.87462,7.5235 -1.54835,2.9847 -1.54931,3.28987 -0.0175,6.0825 1.60211,2.92288 1.59421,2.96502 -1.3444,7.16141 -5.04102,7.19868 -6.8408,12.04896 -5.68243,15.31371 1.56409,4.40822 1.24913,5.14748 -2.63033,6.17383 -5.27984,1.39685 -7.56393,3.63359 -8.86955,8.68568 -1.12488,4.35269 -1.29062,4.51376 -5.95781,5.7894 -4.52527,1.23685 -8.54724,4.4519 -11.03656,8.82225 -0.45973,0.80711 -3.3178,2.10043 -6.35122,2.87402 -5.71907,1.45849 -8.76839,3.37451 -8.76839,5.50957 0,2.77264 -18.12163,12.29685 -31.60112,16.60861 -11.1724,3.57381 -15.58062,4.51304 -28.77742,6.13141 -25.37503,3.11184 -54.26967,0.30026 -79.55239,-7.74042 l -8.06886,-2.56619 -7.93299,4.89333 c -4.36314,2.69136 -7.7592,4.89335 -7.54675,4.89335 0.21253,0 12.51008,3.08065 27.32809,6.84592 l 26.9418,6.84592 7.37677,-2.41181 c 7.36842,-2.40904 7.38371,-2.41004 13.47694,-0.86388 5.62961,1.42846 6.58626,1.4366 12.4016,0.1056 15.17425,-3.47324 32.5838,-4.96118 38.51007,-3.29128 8.05777,2.27051 23.58228,15.62378 28.92675,24.88112 5.15287,8.92552 6.78991,14.82113 7.33412,26.41368 0.58756,12.51508 -0.46831,19.53311 -4.90964,32.63357 -9.09063,26.81409 -32.42072,59.65813 -51.13854,71.99274 -5.30945,3.49879 -16.76389,9.8605 -34.31863,19.06033 -15.81244,8.28675 -36.27113,19.82387 -50.42283,28.43458 -7.79594,4.7435 -14.62202,8.3528 -15.16901,8.02064 -0.60948,-0.3701 -0.75868,-1.97582 -0.3853,-4.14716 0.54962,-3.19636 0.37405,-3.64852 -1.79331,-4.61877 -1.77631,-0.79517 -2.40258,-1.76284 -2.40258,-3.71211 0,-3.16054 -3.55832,-6.73516 -7.56513,-7.5998 -2.75214,-0.59393 -2.76683,-0.63087 -2.15706,-5.42567 0.48115,-3.78376 0.21463,-5.71462 -1.23274,-8.92932 -2.32973,-5.1746 -3.34836,-5.78136 -5.15576,-3.0712 -1.01039,1.51506 -2.686,2.34679 -5.58973,2.77462 -4.98175,0.73401 -8.0056,3.27949 -11.1592,9.39396 -1.28246,2.48658 -3.82434,5.9875 -5.6486,7.77982 -2.69777,2.65056 -3.31678,3.94087 -3.31678,6.91349 0,3.22202 -0.32317,3.76537 -2.72872,4.58928 -3.81657,1.30718 -5.43316,5.00844 -6.29057,14.40251 -0.5978,6.54948 -1.04364,8.16338 -2.32158,8.40374 -1.24124,0.23367 -2.00592,-1.14007 -3.55256,-6.38153 -2.8092,-9.52009 -4.63916,-13.40637 -7.27025,-15.43976 -1.26618,-0.97854 -3.26289,-4.13342 -4.43716,-7.01081 -1.49853,-3.67192 -3.53211,-6.45678 -6.82107,-9.34098 -4.14703,-3.63666 -4.68654,-4.52943 -4.69082,-7.76205 -0.007,-5.07965 -1.52352,-9.92524 -3.7175,-11.87598 -1.11395,-0.99051 -1.85365,-2.81068 -1.85365,-4.5613 0,-3.27302 -2.00318,-5.48688 -5.80904,-6.4201 -2.10596,-0.51641 -2.55845,-1.13182 -2.57019,-3.49559 -0.0175,-3.89511 -0.7273,-4.74611 -5.68546,-6.83425 l -4.26822,-1.79759 0.44051,-4.50434 c 0.39582,-4.04725 0.14649,-4.83334 -2.45693,-7.74663 -6.79921,-7.60832 -13.69784,-29.92827 -15.4596,-50.0181 -1.284306,-14.64487 2.90014,-39.10254 9.56945,-55.93242 1.54245,-3.89244 2.5379,-7.07715 2.21208,-7.07715 -0.32599,0 -5.14939,1.31585 -10.719,2.92409 l -10.126606,2.9241 -13.579495,16.35361 c -7.468765,8.99448 -14.046418,17.23279 -14.617116,18.30739 -1.596027,3.00531 -15.649271,62.92315 -21.233649,90.53246 -3.887131,19.2181 -8.726629,57.58176 -10.310054,81.72977 -0.70374,10.73258 -1.016932,11.87139 -3.264927,11.87139 -1.565759,0 -1.797755,-0.67378 -1.80794,-5.25081 z m 3.109369,-12.03878 c -1.133781,-1.31825 -1.708078,2.22979 -1.320426,8.15776 l 0.447882,6.84889 0.606442,-7.30548 c 0.333538,-4.018 0.453301,-7.48352 0.266102,-7.70117 z m 1.120468,-26.99973 c 2.398745,-23.00199 4.05352,-33.84284 8.433155,-55.24752 4.210111,-20.57621 17.041147,-75.95985 19.326574,-83.42086 0.842195,-2.74942 5.608945,-9.33801 15.522799,-21.45547 l 14.307395,-17.48762 7.90027,-2.33322 c 19.476826,-5.75213 20.495566,-6.17823 22.552446,-9.43349 1.90186,-3.00992 1.9044,-3.06411 0.0998,-2.11515 -1.01869,0.53565 -9.07727,3.08209 -17.90792,5.65878 l -16.055776,4.68488 -13.340958,9.12298 c -10.930231,7.47441 -13.393259,9.56638 -13.630219,11.57678 -0.160746,1.36385 -0.949099,2.57657 -1.774819,2.73019 -2.101688,0.39101 -2.68449,-8.71029 -2.691325,-42.0287 -0.005,-24.6721 0.171916,-27.80545 1.934207,-34.24431 3.218772,-11.76043 7.880413,-26.85228 25.318814,-81.9683 3.81384,-12.054 9.50871,-30.54593 12.65532,-41.0932 3.14661,-10.54723 5.87739,-19.64197 6.068466,-20.21051 0.39864,-1.18649 -11.292506,-10.70831 -11.891806,-9.6852 -0.21709,0.37063 -2.15886,7.45429 -4.31498,15.7414 -10.273815,39.48746 -20.302401,73.54053 -30.900294,104.92499 -8.015964,23.73832 -10.179957,28.39961 -13.184507,28.39961 -0.713346,0 -11.405641,-11.06832 -23.760649,-24.59627 C -1.1580158,380.30781 -7.0345358,374.44051 -9.1593256,373.982 -12.652896,373.2281 -39.729828,347.67423 -39.729828,345.13107 c 0,-2.61806 4.926114,-10.82275 6.506113,-10.83625 0.766783,-0.007 4.834559,0.58295 9.03949,1.31002 37.928093,6.55814 59.148862,5.83182 85.299094,-2.91947 4.089546,-1.36862 7.551715,-2.53985 7.693736,-2.60276 0.355399,-0.15739 5.590542,-19.10756 11.30951,-40.93796 3.879669,-14.80946 4.544349,-18.41123 3.570539,-19.34825 -0.65812,-0.63326 -8.725057,-7.98115 -17.926574,-16.32868 L 49.032098,238.2905 37.878773,238.705 c -17.373749,0.64572 -33.9033618,6.32283 -51.584164,17.71662 -26.186126,16.87473 -32.476196,33.95556 -21.972473,59.66682 1.349775,3.30401 2.454149,6.52872 2.454149,7.16599 0,1.88605 -7.62606,15.72105 -8.938393,16.2158 -1.066247,0.40201 -38.463269,-31.96397 -38.463269,-33.28876 0,-0.28508 1.968273,-6.30463 4.373959,-13.37686 4.178726,-12.28465 4.375763,-13.32721 4.414851,-23.36012 0.03922,-10.07636 -0.08208,-10.74195 -2.994777,-16.43727 -1.669628,-3.26464 -3.760873,-6.82491 -4.647219,-7.91169 l -1.611542,-1.97598 -19.983045,11.33253 c -10.99068,6.23286 -20.63907,11.33411 -21.44089,11.33607 -0.8018,0.003 -3.6681,0.64853 -6.36957,1.43671 l -4.91173,1.43313 11.42694,6.80767 c 6.28481,3.74425 13.54274,8.3853 16.12874,10.31354 5.57108,4.15396 19.108178,17.24286 19.108178,18.4755 0,0.47367 -0.638423,1.10189 -1.4187,1.39608 -0.938731,0.35391 -4.161839,-2.05951 -9.526806,-7.13362 -9.454842,-8.94226 -16.239382,-13.83475 -30.642812,-22.09722 l -10.45195,-5.99574 -3.65763,4.86455 c -3.89268,5.17709 -10.49742,11.03473 -18.35688,16.2803 l -4.81118,3.21111 9.45839,0.44209 c 14.78862,0.69125 28.30008,5.7833 42.36083,15.96454 4.38954,3.1784 8.12314,5.35996 8.29688,4.84787 0.17374,-0.51208 1.43122,-0.9314 2.79439,-0.93181 1.36319,-3.8e-4 5.130138,-1.23318 8.371011,-2.73955 7.193851,-3.34367 7.95163,-3.36496 11.632788,-0.32684 7.985059,6.59061 25.693894,23.59437 25.693894,24.67086 0,1.58703 -3.468194,1.55043 -15.80056,-0.16671 -17.267987,-2.4042 -19.70457,-3.48615 -34.514063,-15.32567 -14.75982,-11.79986 -25.23476,-17.48386 -38.4267,-20.85149 -8.98366,-2.29335 -21.97245,-2.26149 -28.51833,0.0701 -2.72924,0.97208 -8.93564,2.84402 -13.79199,4.15986 -20.06032,5.43544 -36.5494,17.4466 -52.09737,37.94936 -10.26288,13.5334 -12.9062,16.93821 -17.19269,22.14564 -4.08158,4.95848 -4.20409,5.25748 -1.92398,4.69522 1.73754,-0.42847 2.427,-0.24506 2.40666,0.63998 -0.0157,0.68225 -2.92427,6.33657 -6.46354,12.56514 -4.99742,8.7947 -6.23728,11.6877 -5.54985,12.9497 0.66442,1.21976 0.0633,3.17795 -2.41104,7.85214 -1.81291,3.42492 -3.88539,6.81116 -4.6055,7.52498 -1.12637,1.11653 -1.11056,1.44065 0.1131,2.31978 1.23402,0.88656 0.9825,1.66427 -1.89889,5.87107 -1.82675,2.66704 -3.32135,5.78033 -3.32135,6.91843 0,1.99518 0.23109,2.05299 6.45609,1.61539 5.30924,-0.3732 7.00721,-0.13426 9.55842,1.34456 2.04652,1.18635 3.72421,1.55951 4.92959,1.09655 3.23782,-1.24361 12.47451,-0.89813 15.37406,0.57504 2.48957,1.26489 2.96982,1.26489 4.80787,0 2.5148,-1.73061 8.11946,-1.82853 10.41149,-0.1819 1.10338,0.79269 3.28892,1.07363 6.20826,0.79804 2.478,-0.23401 5.6784,0.0521 7.11202,0.63543 2.08665,0.84918 3.28787,0.78109 6.02229,-0.34135 3.93377,-1.6149 8.39762,-1.81062 10.92961,-0.47925 1.34491,0.70719 4.57692,-0.0277 13.8236,-3.13839 62.05516,-20.88364 98.069779,-43.21263 124.498904,-77.18905 l 5.486708,-7.05352 -21.491568,-1.07659 c -11.82036,-0.59212 -25.291294,-1.30262 -29.935394,-1.57891 l -8.4438,-0.50228 -20.36895,10.6539 c -11.20294,5.85965 -23.71496,12.40488 -27.80453,14.54495 -42.00745,21.98258 -80.26566,41.58737 -81.15649,41.58737 -0.60464,0 -1.09932,-0.76462 -1.09932,-1.69912 0,-1.15538 1.85901,-2.6595 5.80903,-4.70011 11.22874,-5.80084 21.66511,-11.23685 27.18626,-14.16053 3.06714,-1.62419 20.42453,-10.65125 38.57192,-20.06015 18.14739,-9.40888 35.50476,-18.43816 38.57192,-20.06503 3.06717,-1.62686 8.6247,-4.5182 12.35006,-6.42516 l 6.77339,-3.46721 31.333822,1.59012 c 17.233607,0.8746 31.6121,1.85821 31.952224,2.18582 0.340108,0.32753 0.758351,1.41752 0.929431,2.42201 0.405053,2.37816 37.71186,37.29366 53.6648412,50.22505 l 12.3921898,10.04498 8.281745,16.82818 c 6.60999,13.43119 8.473923,18.13177 9.233746,23.28612 2.966356,20.12282 6.414641,60.62117 6.420301,75.40323 0.0041,10.32061 -1.208028,18.35587 -5.578355,36.9839 -1.531834,6.52924 -4.665497,20.01861 -6.9637,29.97638 l -4.178536,18.10502 4.182607,36.99419 c 2.300421,20.34681 4.263183,39.11561 4.36168,41.7084 0.161565,4.25324 0.207082,4.13378 0.465398,-1.22144 0.157477,-3.26466 0.929116,-12.09968 1.714772,-19.63342 z M -33.688517,329.7145 c -0.737557,-1.17253 -0.287309,-1.87996 6.178748,-9.70867 20.0187802,-24.23736 44.720838,-37.20615 85.836238,-45.06467 5.623119,-1.0748 12.231163,-2.3403 14.684502,-2.81223 6.822333,-1.3124 9.205703,-1.12872 8.850723,0.68209 -0.24027,1.226 -3.809058,2.22463 -17.495237,4.89556 -33.048234,6.44959 -49.991671,12.63267 -66.7964938,24.37574 -7.1757882,5.01435 -18.7442522,16.14405 -24.2129462,23.29459 -3.871145,5.0616 -5.831061,6.26825 -7.045534,4.33759 z m 11.736615,-12.55624 c 1.156106,-1.44838 1.123232,-1.48069 -0.350939,-0.3448 -0.894587,0.68932 -1.626518,1.40845 -1.626518,1.59808 0,0.75156 0.763249,0.26782 1.977441,-1.25328 z m 10.223894,-10.04501 c 1.156105,-1.44835 1.123223,-1.48065 -0.35094,-0.34479 -1.548218,1.19297 -2.040573,1.94285 -1.275611,1.94285 0.192998,0 0.924945,-0.71912 1.626526,-1.59806 z m 39.553,374.91833 c -0.296676,-0.72851 -0.516931,-0.51209 -0.561529,0.5517 -0.04038,0.96265 0.179329,1.50201 0.48816,1.19855 0.308856,-0.30337 0.341871,-1.09106 0.07331,-1.75025 z m 3.698426,-1.88344 c -0.257852,-0.6278 -0.46879,-0.11428 -0.46879,1.14149 0,1.25561 0.210938,1.76928 0.46879,1.14147 0.257837,-0.62785 0.257837,-1.65515 0,-2.28296 z M 170.03914,675.143 c -0.2357,-0.8885 -0.44394,-0.38262 -0.46288,1.1241 -0.0175,1.50676 0.17389,2.23373 0.42846,1.61545 0.25469,-0.61824 0.27013,-1.85102 0.0352,-2.73955 z M 26.895553,674.7261 c -0.296693,-0.72846 -0.516939,-0.51208 -0.561529,0.55174 -0.04038,0.96264 0.179321,1.50199 0.488152,1.19853 0.308856,-0.30337 0.341879,-1.09105 0.07331,-1.75027 z m 144.002427,-9.80873 c 0.95226,-1.58389 2.67669,-3.11284 3.83203,-3.39776 1.66801,-0.41134 2.10058,-1.15998 2.10058,-3.63553 0,-2.34674 0.89003,-4.0721 3.5996,-6.97817 1.97977,-2.12334 4.69229,-5.99254 6.02785,-8.5982 2.85825,-5.57652 7.06032,-9.00103 12.19325,-9.93699 2.18654,-0.39871 4.40315,-1.55664 5.42638,-2.83469 2.05708,-2.5694 6.29223,-4.86371 8.9781,-4.86371 1.17975,0 2.25709,-0.85029 2.77582,-2.19081 1.11832,-2.88989 4.46808,-5.11465 7.70104,-5.11465 1.98508,0 2.8353,-0.59631 3.57475,-2.50721 2.3415,-6.05088 8.05783,-10.80626 14.94125,-12.42951 4.15473,-0.97979 18.54723,-18.01248 25.1886,-29.8092 6.33437,-11.25135 9.98356,-24.23665 9.96114,-35.44551 -0.0141,-6.81664 -2.61005,-20.20451 -5.23597,-26.9983 l -1.72264,-4.4568 -14.40638,-6.10459 c -25.23815,-10.69446 -31.16393,-15.11034 -39.67557,-29.56629 -2.60922,-4.43141 -4.9529,-7.71887 -5.20818,-7.30545 -0.45742,0.74073 -3.8894,13.0405 -9.12792,32.71305 -3.54388,13.30869 -16.03898,64.4788 -19.39988,79.44684 -7.01676,31.24978 -17.81128,77.55655 -18.23682,78.23304 -0.93303,1.48324 -3.15495,0.7262 -3.15495,-1.07491 0,-1.00768 4.00162,-19.19139 8.89242,-40.40829 4.89086,-21.21691 9.88056,-42.89098 11.08821,-48.1646 5.61706,-24.52884 17.1697,-70.43439 22.29176,-88.57865 1.20517,-4.26915 2.67048,-9.54944 3.25624,-11.734 0.86245,-3.21636 1.39862,-3.88621 2.81862,-3.52136 0.96449,0.24782 1.90411,0.007 2.08809,-0.53534 0.30526,-0.90005 13.10092,2.08057 36.9324,8.60313 3.83398,1.04933 11.95395,3.20489 18.04438,4.79018 l 11.07354,2.88233 0.2308,14.30988 c 0.12682,7.87046 0.5139,15.18694 0.8602,16.25887 0.4744,1.46858 0.18372,2.06353 -1.17864,2.4136 -1.66552,0.4279 -1.71367,0.73421 -0.61022,3.88103 6.56655,18.7261 4.9781,40.59768 -4.26854,58.77311 -7.16252,14.07891 -23.29786,33.80565 -28.66452,35.0447 -1.35171,0.312 -3.92871,1.35822 -5.72666,2.32478 -3.0146,1.62059 -4.38795,3.21892 -8.68439,10.10694 -1.2067,1.93462 -2.28231,2.51126 -4.68422,2.51126 -3.59566,0 -4.95089,1.26628 -5.79545,5.41515 -0.56757,2.78825 -0.7814,2.92509 -3.72328,2.38285 -1.71663,-0.3165 -3.11938,-0.45394 -3.11724,-0.30546 0.002,0.14841 1.04774,2.29126 2.32362,4.76207 1.60031,3.09919 2.31972,5.98285 2.31972,9.29858 0,3.93528 0.32282,4.90689 1.78224,5.36195 3.32035,1.03542 6.43717,4.14275 7.09155,7.06999 0.35834,1.60298 1.64521,3.68247 2.85968,4.62107 1.2145,0.93861 2.20818,2.49183 2.20818,3.45163 0,1.45362 1.61307,0.76541 9.65855,-4.12061 11.97702,-7.27369 31.83522,-18.35664 54.93782,-30.66104 27.25505,-14.51599 32.46157,-17.93726 41.88822,-27.52531 19.75184,-20.08996 35.47226,-47.57312 40.47419,-70.75872 3.54815,-16.44704 1.52342,-31.78632 -5.77715,-43.76715 -6.39375,-10.4926 -21.29404,-22.54723 -29.33407,-23.73181 -5.03417,-0.74175 -19.47778,0.88983 -31.62388,3.57219 -9.26942,2.04713 -9.44925,2.05206 -15.29184,0.42055 l -5.91213,-1.65094 -7.19344,2.49771 -7.19342,2.49767 -23.47824,-5.85232 c -35.10536,-8.75057 -38.32103,-9.67658 -38.60951,-11.11809 -0.15246,-0.76128 2.15924,-2.73834 5.57667,-4.76969 3.21025,-1.90825 8.28454,-4.94834 11.27616,-6.75583 l 5.43935,-3.28632 7.57289,2.38922 c 39.1355,12.34728 80.19033,12.79745 111.48966,1.22253 9.74195,-3.60268 22.87873,-10.5962 24.62406,-13.10893 3.1965,-4.60185 6.00491,-6.54651 11.0593,-7.65782 4.32941,-0.95193 5.48926,-1.66482 7.45365,-4.58125 2.14271,-3.18122 9.95949,-8.08313 12.88968,-8.08313 0.60949,0 1.38054,-1.42616 1.71335,-3.16925 0.7956,-4.16663 4.45082,-8.32456 8.46135,-9.62498 3.08532,-1.00046 3.19822,-1.19167 2.65915,-4.50404 -0.61557,-3.78208 1.31698,-9.07755 5.54241,-15.18705 1.764,-2.55051 2.14024,-3.83062 1.4814,-5.04014 -2.10459,-3.86374 -0.71154,-8.4974 4.77892,-15.89568 2.84423,-3.83253 3.31699,-5.11701 2.94325,-7.99699 -0.29086,-2.24251 0.0696,-4.20301 1.0409,-5.65954 0.81741,-1.22566 1.25149,-2.82931 0.96466,-3.56367 -0.60289,-1.54367 2.00975,-6.97914 3.3547,-6.97914 0.49804,0 0.90831,-1.33551 0.91167,-2.96785 0.008,-3.39266 1.79027,-6.28669 6.643,-10.78089 2.88946,-2.67597 3.47331,-3.89431 3.91406,-8.16762 l 0.518,-5.02251 -2.5113,4.30378 c -2.10247,3.6031 -3.49627,4.74354 -8.5613,7.00507 -7.30144,3.26008 -17.93153,6.39861 -24.10509,7.11699 -3.32602,0.38703 -5.09159,0.13977 -6.64781,-0.9313 -2.0571,-1.41562 -2.27044,-1.30073 -7.29695,3.92931 -4.17128,4.34017 -5.90066,5.4929 -8.89565,5.92948 -3.59974,0.52467 -5.0965,0.97208 -13.01223,3.8895 -2.77745,1.02366 -6.18649,1.26056 -13.47822,0.93665 -8.30955,-0.36912 -10.24161,-0.18017 -12.99768,1.27222 -3.75475,1.97848 -6.86586,2.08174 -13.9288,0.46238 -4.78435,-1.09688 -5.26925,-1.04374 -8.17962,0.8967 -4.47831,2.98591 -11.14832,4.00384 -24.84176,3.7912 -10.50334,-0.16292 -13.35849,0.13563 -21.84194,2.28485 -10.87237,2.7545 -21.17215,6.4575 -29.63246,10.65353 -18.37846,9.11508 -35.53341,25.17467 -43.65462,40.86714 -1.75246,3.3863 -4.2065,5.80942 -12.02426,11.8727 l -2.1261,1.64893 2.36915,5.71514 c 3.44057,8.29971 4.77313,21.40177 3.12701,30.74542 l -1.27529,7.23872 -15.54858,6.24851 -15.54859,6.24855 -4.7426,-3.20528 c -10.6109,-7.17127 -20.92632,-7.66817 -34.55667,-1.66457 -5.04776,2.22333 -5.78775,2.9877 -12.45369,12.86402 -10.1106,14.97995 -15.6683,31.66756 -18.00839,54.07204 -2.15338,20.61695 5.45315,54.25166 14.49213,64.08169 2.74066,2.9805 3.21244,4.14922 3.21244,7.95786 0,4.03997 0.22833,4.52061 2.40363,5.05702 3.36435,0.82961 6.8908,4.56671 6.8908,7.30234 0,1.62252 0.80557,2.7103 2.73192,3.68902 3.15267,1.60178 5.63308,4.72824 5.63308,7.10032 0,0.9035 1.12625,3.31481 2.50277,5.35845 1.82672,2.71212 2.61448,5.23387 2.91652,9.33632 0.39199,5.32435 0.63568,5.81245 4.62471,9.26227 2.65636,2.29735 5.14736,5.67089 6.74754,9.13829 1.39516,3.02313 3.47499,6.31744 4.62187,7.32073 2.46466,2.15604 5.44339,8.18777 5.63603,11.41253 0.0749,1.25564 0.45101,0.17188 0.8356,-2.40863 0.38459,-2.58037 1.47839,-5.98749 2.43065,-7.57132 z m 80.66733,-32.59324 c 0.31792,-0.81401 7.42897,-10.98459 15.80229,-22.60126 35.18713,-48.8166 48.21559,-76.58094 46.84568,-99.8309 -0.82159,-13.9443 -8.56942,-24.75791 -22.33874,-31.1781 -4.87466,-2.27287 -7.18604,-3.85962 -7.2032,-4.94487 -0.0141,-0.97779 0.67013,-1.59808 1.76613,-1.59808 2.53373,0 13.54261,5.79659 18.33205,9.6525 14.89385,11.99087 17.6858,33.30001 7.81069,59.61411 -6.76738,18.03293 -19.97605,40.54122 -40.00307,68.1673 -3.64098,5.02246 -9.00236,12.50555 -11.91421,16.629 -4.04992,5.73504 -5.8092,7.50576 -7.48497,7.53374 -1.64496,0.0276 -2.0467,-0.33202 -1.61265,-1.44344 z M 316.90458,511.2201 c -0.22236,-1.13592 -0.41265,-0.42159 -0.42295,1.5874 -0.0105,2.00903 0.17144,2.93842 0.40418,2.06532 0.23256,-0.87306 0.24099,-2.5168 0.0176,-3.65272 z m -8.09289,-22.89767 c 0,-0.15704 -1.35934,-1.49266 -3.02071,-2.96782 l -3.02067,-2.68212 2.72985,2.96786 c 2.5446,2.76643 3.31153,3.38758 3.31153,2.68208 z m -93.87387,-43.45408 c 0,-3.37002 25.27861,-25.46635 43.68388,-38.18461 22.7378,-15.71207 58.26436,-33.40783 97.12693,-48.37882 29.32952,-11.29861 41.66603,-15.80588 43.26086,-15.80588 2.918,0 2.10347,2.72025 -1.20355,4.01949 -1.66136,0.6527 -7.41229,2.85162 -12.77984,4.88649 -86.99776,32.98124 -119.67758,50.73164 -157.70236,85.65768 -5.71202,5.24649 -10.83559,9.5391 -11.38572,9.5391 -0.5501,0 -1.0002,-0.78005 -1.0002,-1.73345 z m 15.33584,-12.87745 c 0.92522,-1.0045 1.47312,-1.82637 1.21753,-1.82637 -0.25575,0 -1.22174,0.82187 -2.147,1.82637 -0.92525,1.0045 -1.47315,1.82638 -1.21755,1.82638 0.25574,0 1.22177,-0.82188 2.14702,-1.82638 z M 32.472219,671.07338 c -0.296701,-0.72849 -0.516939,-0.51209 -0.561537,0.55171 -0.04038,0.96267 0.179296,1.50202 0.48816,1.19856 0.308856,-0.30338 0.341871,-1.09104 0.07331,-1.75027 z m 0.929447,-8.21863 c -0.296692,-0.7285 -0.516947,-0.51209 -0.561537,0.5517 -0.04038,0.96267 0.179321,1.50201 0.488169,1.19856 0.308839,-0.30338 0.341862,-1.09105 0.07331,-1.75026 z m -8.364999,-5.4791 c -0.296701,-0.72848 -0.516939,-0.51208 -0.561537,0.55171 -0.04038,0.96266 0.179329,1.502 0.48816,1.19856 0.308864,-0.30338 0.341879,-1.09105 0.07331,-1.75027 z m 9.275085,-4.62298 c -0.257853,-0.6278 -0.468799,-0.11427 -0.468799,1.1415 0,1.2556 0.210946,1.76927 0.468799,1.14148 0.257844,-0.62782 0.257844,-1.65517 0,-2.28298 z m -10.204524,-2.68249 c -0.296701,-0.72845 -0.516947,-0.51209 -0.561537,0.55175 -0.04038,0.96262 0.179329,1.50197 0.488152,1.19853 0.308864,-0.30338 0.341887,-1.09107 0.07331,-1.75028 z m 11.153333,-4.5659 c -0.296693,-0.72846 -0.516939,-0.51207 -0.561538,0.55172 -0.04038,0.96264 0.17933,1.50198 0.488161,1.19857 0.308839,-0.30338 0.341862,-1.09109 0.07331,-1.75029 z m -12.08278,-4.5659 c -0.296693,-0.7285 -0.516939,-0.51209 -0.561537,0.5517 -0.04038,0.96266 0.179329,1.50201 0.48816,1.19856 0.308856,-0.30337 0.341879,-1.09105 0.07331,-1.75026 z m 13.012227,-2.73955 c -0.296701,-0.72849 -0.516947,-0.51209 -0.561554,0.5517 -0.04038,0.96266 0.179346,1.50203 0.488169,1.19857 0.308847,-0.30338 0.34187,-1.09105 0.07331,-1.75027 z m 107.815502,-2.73955 c -0.29683,-0.72848 -0.51691,-0.51209 -0.56153,0.5517 -0.0404,0.96267 0.17952,1.50201 0.48819,1.19857 0.30878,-0.30338 0.3418,-1.09105 0.0735,-1.75027 z M 22.248334,632.71973 c -0.296693,-0.72848 -0.51693,-0.51209 -0.561529,0.5517 -0.04038,0.96267 0.179329,1.50203 0.48816,1.19858 0.308848,-0.30338 0.341871,-1.09106 0.07331,-1.75028 z m -0.929439,-7.30546 c -0.296701,-0.72846 -0.516939,-0.51209 -0.561537,0.55174 -0.04038,0.96262 0.179329,1.50197 0.48816,1.19853 0.308856,-0.30338 0.341879,-1.09106 0.07331,-1.75027 z m -1.858886,-17.35046 c -0.296701,-0.72848 -0.516947,-0.51207 -0.561537,0.5517 -0.04038,0.96267 0.179321,1.50203 0.48816,1.19857 0.308856,-0.30337 0.341871,-1.09105 0.07331,-1.75027 z m 109.968931,1.65281 c 0,-0.18948 -0.73194,-0.90875 -1.62652,-1.59807 -1.47414,-1.13589 -1.50702,-1.10359 -0.35093,0.3448 1.21418,1.52114 1.97742,2.00485 1.97742,1.25327 z m 210.98383,-8.52057 c 0,-0.68568 -0.83447,0.0394 -4.68603,4.07113 l -4.14367,4.33765 4.41485,-4.07117 c 2.42817,-2.23913 4.41485,-4.19105 4.41485,-4.33761 z m -86.31973,-6.43044 c 1.15611,-1.44837 1.12323,-1.48067 -0.35094,-0.3448 -0.89462,0.68932 -1.62656,1.40847 -1.62656,1.59808 0,0.75157 0.76327,0.26783 1.97746,-1.25328 z M 104.03943,551.44655 c -0.29683,-0.72848 -0.51695,-0.51212 -0.56153,0.55169 -0.0404,0.96265 0.17916,1.50198 0.48814,1.19855 0.30878,-0.30338 0.34181,-1.09106 0.0735,-1.75024 z m -0.88517,-19.26147 c -0.19496,-2.11942 -0.35209,-0.15496 -0.34918,4.36516 0.002,4.52027 0.16229,6.25432 0.35441,3.8535 0.19216,-2.40087 0.1897,-6.09925 -0.004,-8.21866 z M 35.24119,527.6467 c -0.257844,-0.62781 -0.46879,-0.11427 -0.46879,1.1415 0,1.25561 0.210946,1.76928 0.46879,1.14147 0.257837,-0.6278 0.257837,-1.65514 0,-2.28297 z m 243.53375,0.97027 c -0.29682,-0.72844 -0.51695,-0.51209 -0.56153,0.55171 -0.0404,0.96267 0.17916,1.502 0.48815,1.19856 0.30879,-0.30337 0.3418,-1.09105 0.0735,-1.75027 z m 102.23889,-5.47909 c -0.29685,-0.72845 -0.51697,-0.51209 -0.56158,0.5517 -0.0404,0.96267 0.1795,1.50203 0.48818,1.19857 0.30878,-0.30338 0.3418,-1.09105 0.0735,-1.75027 z M 35.266328,504.36059 c -0.233775,-0.87893 -0.425044,-0.1598 -0.425044,1.59807 0,1.75786 0.191269,2.47699 0.425044,1.59806 0.233774,-0.87894 0.233774,-2.31721 0,-3.19613 z M 274.14802,491.35635 c -0.10469,-7.02677 -0.1904,-12.78276 -0.1904,-12.79112 0,-0.007 -12.83778,-3.43522 -28.52842,-7.61523 -32.06712,-8.54273 -29.80901,-8.77871 -22.37714,2.33859 2.25762,3.37712 5.64255,7.33539 7.52209,8.79616 4.94382,3.8423 19.39966,11.131 31.9978,16.13339 6.00654,2.38506 10.92096,4.69142 10.92096,5.12529 0,0.43387 0.19039,0.78884 0.42284,0.78884 0.23255,0 0.33723,-5.74916 0.23255,-12.77592 z m 1.81924,2.50263 c -0.25784,-0.62781 -0.46882,-0.11424 -0.46882,1.14149 0,1.25562 0.21112,1.76928 0.46882,1.14148 0.25784,-0.62781 0.25784,-1.65515 0,-2.28297 z M 56.684611,484.7513 c -0.19635,-2.14784 -0.359751,-0.6177 -0.363136,3.40028 -0.0041,4.01802 0.157279,5.77533 0.356988,3.90519 0.199701,-1.87018 0.202489,-5.15763 0.0066,-7.30547 z m -22.344321,5.92891 c -0.235645,-0.88849 -0.443959,-0.38265 -0.462899,1.12413 -0.01895,1.50674 0.173852,2.23367 0.428453,1.61542 0.254626,-0.61826 0.270107,-1.85105 0.0345,-2.73955 z m 241.65549,-11.87135 c -0.23571,-0.88849 -0.44395,-0.38266 -0.46289,1.12408 -0.0175,1.50678 0.17389,2.23371 0.42847,1.61546 0.25467,-0.61824 0.27014,-1.85105 0.0352,-2.73954 z m -242.594114,0.49628 c -0.296692,-0.72846 -0.516947,-0.51208 -0.561537,0.55171 -0.04038,0.96266 0.179321,1.502 0.488169,1.19856 0.308839,-0.30338 0.341862,-1.09106 0.07331,-1.75027 z m 329.317764,-7.47901 c 0,-0.18948 -0.73194,-0.90875 -1.62651,-1.59806 -1.47414,-1.1359 -1.50702,-1.10359 -0.35093,0.34479 1.21417,1.52113 1.97742,2.00488 1.97742,1.2533 z M 31.542789,461.95469 c -0.296701,-0.72849 -0.516956,-0.51209 -0.561554,0.5517 -0.04038,0.96267 0.179338,1.50202 0.48816,1.19857 0.308856,-0.30338 0.341879,-1.09106 0.07331,-1.75027 z m 301.666791,-1.34673 c -0.63898,-0.25334 -1.68462,-0.25334 -2.32361,0 -0.63899,0.25333 -0.11629,0.46058 1.16181,0.46058 1.27798,0 1.8008,-0.20709 1.1618,-0.46058 z M 30.613342,453.73605 c -0.296701,-0.72849 -0.516956,-0.51208 -0.561554,0.5517 -0.04038,0.96267 0.179329,1.50201 0.488177,1.19857 0.308847,-0.30338 0.34187,-1.09105 0.07331,-1.75027 z m 260.771268,-2.25994 c -0.639,-0.25333 -1.68463,-0.25333 -2.32363,0 -0.63897,0.25333 -0.11626,0.46063 1.16181,0.46063 1.27799,0 1.8008,-0.20743 1.16182,-0.46063 z m 25.09498,0 c -0.63899,-0.25333 -1.68462,-0.25333 -2.32361,0 -0.63899,0.25333 -0.11628,0.46063 1.16181,0.46063 1.27798,0 1.80079,-0.20743 1.1618,-0.46063 z m -34.87352,-0.86008 c -0.30878,-0.30339 -1.11049,-0.33583 -1.78141,-0.0721 -0.74146,0.29164 -0.52125,0.50787 0.56153,0.55171 0.97977,0.0397 1.52873,-0.17603 1.21988,-0.47961 z m 44.61332,0 c -0.30878,-0.30339 -1.11049,-0.33583 -1.78141,-0.0721 -0.74147,0.29164 -0.52123,0.50787 0.56154,0.55171 0.97977,0.0397 1.52871,-0.17603 1.21987,-0.47961 z m -270.490042,-9.7216 c -0.22152,-1.13009 -0.402786,-0.20535 -0.402786,2.05466 0,2.26011 0.181257,3.1847 0.402786,2.05465 0.22152,-1.13005 0.22152,-2.97925 0,-4.10931 z m 150.554712,-3.19616 c -0.23395,-0.87893 -0.42506,-0.15981 -0.42506,1.5981 0,1.75787 0.19146,2.477 0.42506,1.59806 0.23396,-0.87896 0.23396,-2.31719 0,-3.19616 z m -0.0246,-6.84885 c -0.25784,-0.62781 -0.46882,-0.11423 -0.46882,1.14148 0,1.25563 0.21112,1.76929 0.46882,1.14148 0.25784,-0.62781 0.25784,-1.65515 0,-2.28296 z m -469.98542,1.70989 c 0,-0.18948 -0.73195,-0.90875 -1.62653,-1.59807 -1.47414,-1.13588 -1.50703,-1.10358 -0.35091,0.3448 1.21418,1.52114 1.97744,2.00488 1.97744,1.25331 z M 47.136879,400.4257 c 3.286282,-9.50953 8.676743,-26.12508 11.978763,-36.92346 8.743748,-28.59389 8.954628,-29.38264 7.720561,-28.87325 -0.590803,0.24401 -4.948479,1.70361 -9.683753,3.24386 -22.556666,7.33723 -43.067688,7.72109 -81.822122,1.53129 l -7.71117,-1.23159 -1.795579,3.45801 -1.795587,3.45807 13.071669,12.17462 c 7.424382,6.91491 14.2865312,12.5402 15.8836762,13.02074 2.674081,0.80456 12.755027,11.17652 38.3892818,39.49748 4.600742,5.08294 8.685431,8.94754 9.077088,8.58801 0.391673,-0.35957 3.40089,-8.43425 6.687172,-17.94378 z m -10.652322,17.52268 c 0,-0.18948 -0.731947,-0.90876 -1.626534,-1.59807 -1.474146,-1.13586 -1.507029,-1.10359 -0.350931,0.34479 1.214191,1.52113 1.97744,2.00489 1.97744,1.25328 z m -8.364999,-9.13182 c 0,-0.18948 -0.731939,-0.90875 -1.626526,-1.59806 -1.474146,-1.1359 -1.507029,-1.10359 -0.350939,0.34479 1.214191,1.52113 1.977448,2.00488 1.977448,1.25331 z m -15.800546,-3.62299 c 0,-0.17327 -0.941072,-1.09789 -2.091254,-2.05465 l -2.0912538,-1.73961 1.770583,2.05464 c 1.6639088,1.93089 2.4119248,2.47038 2.4119248,1.73962 z m 7.435547,-5.50881 c 0,-0.18949 -0.731939,-0.90876 -1.626518,-1.59807 -1.474166,-1.13589 -1.507039,-1.10358 -0.350934,0.34479 1.214195,1.52114 1.977427,2.00489 1.977427,1.2533 z m -7.435571,-8.18893 c 0,-0.17326 -0.941073,-1.09789 -2.091254,-2.05465 l -2.0912538,-1.7396 1.770574,2.05465 c 1.6639178,1.93088 2.4119338,2.47037 2.4119338,1.7396 z m 413.317322,-3.09201 c -0.2357,-0.88848 -0.44396,-0.38264 -0.46289,1.12409 -0.0176,1.50678 0.17387,2.23371 0.42846,1.61546 0.25468,-0.61824 0.27014,-1.85104 0.0351,-2.73955 z M 3.0245332,381.42111 c 0,-0.18949 -0.731939,-0.90876 -1.626526,-1.59808 -1.47414703,-1.13588 -1.50702903,-1.10358 -0.35089,0.34479 1.214192,1.52111 1.977432,2.00485 1.977432,1.25329 z m -29.7422172,-9.97152 c 0,-0.1491 -1.777549,-1.89564 -3.95014,-3.88099 l -3.950123,-3.60977 3.674042,3.88102 c 3.416818,3.6093 4.226221,4.30065 4.226221,3.60974 z M 236.4336,368.29644 c 1.15608,-1.44835 1.12324,-1.48065 -0.35093,-0.34479 -0.89458,0.6893 -1.62653,1.40844 -1.62653,1.59806 0,0.75157 0.76325,0.26783 1.97746,-1.25331 z m -250.139057,0.42801 c 0,-0.14117 -2.614068,-2.70963 -5.809026,-5.70737 l -5.809026,-5.45053 5.547565,5.70737 c 5.153228,5.3017 6.070487,6.12528 6.070487,5.45053 z M -66.565224,360.991 c 1.156106,-1.44837 1.123224,-1.48068 -0.350931,-0.34479 -0.894587,0.68931 -1.626534,1.40844 -1.626534,1.59806 0,0.75158 0.763241,0.26783 1.977441,-1.25327 z m 18.470339,-9.64586 c 0,-0.15703 -1.359315,-1.4927 -3.020701,-2.96785 l -3.020693,-2.68212 2.729858,2.96785 c 2.54463,2.76644 3.311536,3.38758 3.311536,2.68212 z m 70.429967,-9.50988 c -1.903476,-0.19603 -5.249477,-0.19879 -7.435555,-0.007 -2.186102,0.19293 -0.628708,0.35346 3.46084,0.35677 4.089554,0.003 5.878175,-0.15462 3.974715,-0.35074 z m -90.180675,-0.87885 c -0.894579,-0.22987 -2.358457,-0.22987 -3.253045,0 -0.894595,0.22986 -0.162648,0.41761 1.626527,0.41761 1.789183,0 2.521113,-0.18809 1.626518,-0.41761 z m 69.6889652,0.0776 c -0.308855,-0.30338 -1.11049703,-0.33582 -1.78143803,-0.0721 -0.741446,0.29164 -0.521216,0.50791 0.561537,0.5517 0.97978003,0.0397 1.52874103,-0.17602 1.21990103,-0.4796 z m -86.4189472,-0.99086 c -0.894596,-0.22986 -2.358473,-0.22986 -3.253061,0 -0.894604,0.22986 -0.162648,0.41762 1.626527,0.41762 1.789174,0 2.521113,-0.18811 1.626534,-0.41762 z m 78.9833872,0.0776 c -0.308848,-0.30338 -1.110489,-0.33582 -1.781438,-0.0721 -0.741446,0.29164 -0.521209,0.50787 0.561554,0.5517 0.979779,0.0397 1.52874,-0.17636 1.219884,-0.47964 z m 308.5754878,0 c -0.30879,-0.30338 -1.11049,-0.33582 -1.78145,-0.0721 -0.74143,0.29164 -0.5212,0.50787 0.56153,0.5517 0.97981,0.0397 1.52877,-0.17636 1.21992,-0.47964 z m 11.15333,0 c -0.30878,-0.30338 -1.11049,-0.33582 -1.78145,-0.0721 -0.74142,0.29164 -0.52121,0.50787 0.56154,0.5517 0.9798,0.0397 1.52875,-0.17636 1.21991,-0.47964 z m -416.37165,-0.99083 c -0.89459,-0.22987 -2.35846,-0.22987 -3.25307,0 -0.89457,0.22986 -0.16264,0.41763 1.62654,0.41763 1.78919,0 2.52112,-0.18777 1.62653,-0.41763 z m 39.017284,-3.57495 c -0.308848,-0.30338 -1.11049,-0.33583 -1.781438,-0.0721 -0.741447,0.29164 -0.5212,0.50792 0.561553,0.55171 0.97978,0.0397 1.528741,-0.17602 1.219885,-0.4796 z m -172.506334,-1.95951 c 1.1561,-1.44838 1.12322,-1.48069 -0.35093,-0.3448 -0.89459,0.68932 -1.62654,1.40844 -1.62654,1.59807 0,0.75158 0.76324,0.26782 1.97746,-1.25327 z m 576.36922,0.99328 c -0.63898,-0.25334 -1.68462,-0.25334 -2.32362,0 -0.63897,0.25333 -0.11627,0.46058 1.16181,0.46058 1.27799,0 1.8008,-0.20743 1.16181,-0.46058 z m 28.34804,-0.93789 c -0.89458,-0.22986 -2.35846,-0.22986 -3.25305,0 -0.89458,0.22987 -0.16265,0.41762 1.62654,0.41762 1.78916,0 2.5211,-0.18809 1.62651,-0.41762 z m 12.99285,0.0776 c -0.30878,-0.30337 -1.11048,-0.33581 -1.78141,-0.0721 -0.74146,0.29165 -0.52124,0.50792 0.56152,0.55171 0.97978,0.0397 1.52873,-0.17602 1.21989,-0.4796 z m -458.772757,-10.40941 -10.567684,-9.96187 -4.45897,2.22001 c -2.452453,1.221 -6.150515,2.48577 -8.217929,2.81055 l -3.75895,0.59056 4.379208,3.6376 c 5.916137,4.91427 12.266644,7.7007 21.134482,9.27318 13.324433,2.36276 13.291071,2.55469 1.489843,-8.57003 z m 12.891272,8.84904 c 0,-0.15703 -1.359315,-1.49269 -3.020701,-2.96785 l -3.020693,-2.68213 2.729858,2.96787 c 2.544621,2.76644 3.311536,3.38757 3.311536,2.68211 z m 13.012227,-1.85567 c 0,-0.17326 -0.941073,-1.0979 -2.091246,-2.05469 l -2.091254,-1.73962 1.770566,2.05469 c 1.663918,1.93085 2.411934,2.47038 2.411934,1.73962 z m 143.532492,-6.76213 c -0.46264,-0.37668 -1.15331,-1.09581 -1.53484,-1.59806 -0.39587,-0.52113 -0.69977,-0.2271 -0.70792,0.68489 -0.007,0.88832 0.67377,1.59807 1.53488,1.59807 0.85197,0 1.17052,-0.3082 0.70788,-0.6849 z m 357.902656,-2.96784 c 0.92526,-1.0045 1.47315,-1.82634 1.21753,-1.82634 -0.25574,0 -1.22175,0.82184 -2.147,1.82634 -0.92525,1.00449 -1.47311,1.82637 -1.21752,1.82637 0.25575,0 1.22174,-0.82188 2.14699,-1.82637 z m -511.65905,0.56841 c 0,-0.18949 -0.731931,-0.90876 -1.626527,-1.59807 -1.474146,-1.13589 -1.50702,-1.10359 -0.35093,0.34479 1.214199,1.5211 1.97744,2.00486 1.97744,1.25328 z M 123.1084,308.72572 c 17.28242,-7.32311 20.31974,-8.90454 21.2246,-11.05083 0.58077,-1.37762 2.19292,-2.96747 3.58254,-3.53299 1.80979,-0.73652 2.80523,-2.05403 3.50889,-4.64423 0.54032,-1.98883 0.64819,-3.61603 0.23958,-3.61603 -0.40845,0 -3.44268,0.61521 -6.74273,1.36717 -14.70566,3.35079 -31.16363,3.39176 -37.89124,0.0942 -1.64887,-0.80818 -3.08841,-1.36492 -3.19893,-1.23715 -0.11065,0.1277 -2.32522,7.44714 -4.921536,16.2654 -2.59635,8.81821 -4.99898,16.74583 -5.3392,17.61689 -0.54133,1.38604 0.004,1.31532 4.37535,-0.56634 2.746656,-1.18255 14.069796,-5.99587 25.162536,-10.69623 z m 288.34244,8.293 c -0.24448,-0.24021 -1.16654,0.30373 -2.04896,1.209 -1.53291,1.57242 -1.5131,1.59188 0.44457,0.43677 1.12696,-0.66491 1.84894,-1.40551 1.60439,-1.64577 z m -490.217406,1.45173 c 0,-0.15703 -1.359298,-1.49269 -3.020676,-2.96785 l -3.020693,-2.68211 2.72985,2.96785 c 2.544613,2.76644 3.311519,3.38759 3.311519,2.68211 z m 8.365008,-5.50842 c 0,-0.17326 -0.941056,-1.09789 -2.091254,-2.05465 l -2.091246,-1.73962 1.770574,2.05466 c 1.663918,1.93088 2.411926,2.4704 2.411926,1.73961 z m 306.484228,-1.22759 c -0.89458,-0.22987 -2.35847,-0.22987 -3.25304,0 -0.8946,0.22986 -0.16266,0.41761 1.62651,0.41761 1.78917,0 2.52111,-0.18775 1.62653,-0.41761 z m 10.92099,-4.13151 c 6.72379,-1.64699 8.16057,-1.71209 15.01013,-0.68023 4.166,0.62756 8.18922,0.90934 8.94044,0.62611 0.75119,-0.28335 3.12575,-3.7332 5.27678,-7.66661 2.151,-3.93346 5.02893,-8.32191 6.39537,-9.7522 1.36646,-1.43026 7.0861,-4.78163 12.71029,-7.4475 5.6242,-2.66585 11.3464,-5.86737 12.71603,-7.1145 3.06979,-2.79522 8.43037,-13.08683 10.5528,-20.26001 2.26184,-7.64429 1.53208,-17.18679 -1.73295,-22.66066 -8.10596,-13.58974 -29.94437,-22.17778 -67.88455,-26.6958 l -11.95731,-1.4239 -7.68604,5.07666 c -8.13894,5.37589 -22.95035,12.57806 -32.99573,16.04446 -3.32275,1.14659 -6.35272,2.34471 -6.73328,2.66245 -0.56279,0.4699 16.22693,10.60773 24.04399,14.51803 1.47582,0.73824 5.1164,0.53617 14.40637,-0.79966 19.33117,-2.77966 28.81771,-5.30917 34.32478,-9.15248 2.63051,-1.83579 5.22624,-1.06466 4.31029,1.28047 -1.4795,3.78804 -16.20767,8.58018 -34.4424,11.2065 l -11.02718,1.58824 10.79485,5.31777 c 10.04835,4.95006 12.38371,6.96985 9.84271,8.5128 -1.24095,0.75354 -29.55408,-13.7156 -48.65212,-24.8632 -30.16644,-17.6083 -63.88252,-41.35082 -91.2066,-64.22678 -12.483596,-10.45146 -29.996656,-22.53395 -35.783597,-24.68764 -6.138651,-2.28461 -10.186874,-1.51492 -14.318826,2.72245 -9.242997,9.4788 3.199071,39.4316 25.473838,61.32528 7.919879,7.78439 10.084259,9.33103 20.028719,14.31228 17.204566,8.61797 24.239596,13.391 69.660986,47.26291 26.11937,19.47789 44.60878,30.42893 59.93845,35.50079 7.40287,2.44929 7.90048,2.4362 19.99376,-0.52603 z m 10.45624,0.47878 c -0.89459,-0.22986 -2.35847,-0.22986 -3.25305,0 -0.89459,0.22986 -0.16265,0.41763 1.62653,0.41763 1.78917,0 2.5211,-0.18811 1.62652,-0.41763 z m 199.76833,-1.36813 c -0.29685,-0.72845 -0.51696,-0.51209 -0.56152,0.55174 -0.0404,0.96264 0.17914,1.50198 0.48814,1.19853 0.30878,-0.30338 0.3418,-1.09105 0.0735,-1.75027 z m -161.19639,0.47964 c -0.63899,-0.25334 -1.68463,-0.25334 -2.32362,0 -0.63899,0.25334 -0.11628,0.46059 1.16181,0.46059 1.27797,0 1.8008,-0.20743 1.16181,-0.46059 z m 3.00455,-3.57814 c 3.12444,-2.01139 7.30267,-8.80488 10.06416,-16.36369 1.28445,-3.51572 2.65622,-7.18836 3.04838,-8.16141 0.61442,-1.52438 0.27226,-1.44362 -2.47392,0.58397 -1.75281,1.29418 -7.64651,4.40758 -13.09707,6.91867 -8.33302,3.83903 -10.31673,5.16924 -12.46504,8.35873 l -2.5549,3.79316 2.18311,1.55889 c 6.83312,4.87935 11.34324,5.85585 15.29528,3.31168 z M -93.63767,299.2644 c 0,-0.17327 -0.941056,-1.0979 -2.091237,-2.05466 l -2.091254,-1.73961 1.770582,2.05466 c 1.66391,1.93088 2.411909,2.4704 2.411909,1.73961 z m -65.75817,-3.06896 c -1.15018,-0.21778 -3.03232,-0.21778 -4.1825,0 -1.15019,0.21779 -0.20912,0.39575 2.09125,0.39575 2.30037,0 3.24144,-0.17809 2.09125,-0.39575 z m 284.89129,-8.22667 c -1.39661,-0.20847 -3.90613,-0.21261 -5.57667,-0.0104 -1.67053,0.20329 -0.52784,0.37375 2.53935,0.37886 3.06714,0.004 4.43397,-0.16118 3.03732,-0.36955 z m 15.40909,-4.03324 c 8.00648,-1.55468 17.68812,-4.12593 23.2904,-6.18552 1.43891,-0.52896 -1.3265,-2.99643 -14.75805,-13.16806 -13.18728,-9.98661 -16.78942,-12.30447 -17.81838,-11.46546 -1.8595,1.51624 -11.67787,0.50156 -18.91957,-1.95522 C 99.127044,246.5569 72.827289,232.63954 56.002856,221.15866 38.782057,209.40732 23.070074,194.58727 18.539209,185.82177 c -2.361116,-4.56786 -3.553893,-5.1185 -7.20701,-3.32701 -3.6599998,1.79482 -9.2371128,9.4054 -9.2371128,12.60499 0,1.69318 1.753446,3.31459 8.1653228,7.55049 15.17849,10.02745 24.87353,17.98509 55.966324,45.93706 22.910421,20.5961 37.791437,32.85305 42.619447,35.10402 6.80087,3.17073 16.60263,3.24541 32.05836,0.24435 z M -152.0741,282.4573 c 1.15612,-1.44834 1.12325,-1.48065 -0.35093,-0.3448 -1.54821,1.19298 -2.04056,1.94287 -1.27562,1.94287 0.19301,0 0.92496,-0.71914 1.62655,-1.59807 z m 83.257928,-15.9807 c -0.221521,-1.13005 -0.402786,-0.20535 -0.402786,2.05466 0,2.26014 0.181249,3.18474 0.402786,2.05468 0.22152,-1.13009 0.22152,-2.97927 0,-4.10934 z m 148.984603,-2.8263 c 0,-0.17327 -0.941064,-1.09786 -2.091278,-2.05466 l -2.091238,-1.73961 1.770582,2.05466 c 1.663902,1.93088 2.411934,2.47041 2.411934,1.73961 z m 243.632909,-1.283 c 1.15612,-1.44837 1.12325,-1.48068 -0.35094,-0.34478 -0.89463,0.6893 -1.62655,1.40844 -1.62655,1.59806 0,0.75157 0.76328,0.26782 1.97745,-1.25328 z m 3.13727,-5.21336 c 2.04627,-1.53032 11.1442,-6.81627 20.21756,-11.74652 9.07336,-4.93029 17.95992,-10.31971 19.74793,-11.97649 3.16118,-2.92923 4.2017,-6.2209 2.32642,-7.35962 -0.95227,-0.57821 -24.31038,-26.13641 -37.14132,-40.63962 -1.56399,-1.7678 -2.14126,-1.98811 -2.55823,-0.97634 -1.39718,3.39028 -9.53213,8.56651 -18.16758,11.55995 -8.46321,2.93376 -20.90826,4.29154 -44.3767,4.84159 l -23.70083,0.55551 10.22389,1.18731 c 20.17808,2.34329 42.34504,8.3296 52.04889,14.05609 7.39032,4.36125 14.1701,11.42578 16.27838,16.96206 2.19167,5.7552 2.45384,15.77498 0.5968,22.80876 -1.36376,5.16547 -1.418,5.1567 4.50479,0.72732 z M 69.015058,253.60531 c 0,-0.17325 -0.941056,-1.09789 -2.091238,-2.05468 l -2.091237,-1.73958 1.770582,2.05466 c 1.66391,1.93085 2.411893,2.47036 2.411893,1.7396 z m 59.232722,-1.14987 c -0.30878,-0.30338 -1.11049,-0.33582 -1.78144,-0.0721 -0.74143,0.29165 -0.5212,0.50787 0.56157,0.55171 0.97977,0.0397 1.52872,-0.17636 1.21987,-0.47964 z m -1.06739,-4.27142 C 119.2806,242.28608 107.41596,235.05285 96.881134,229.7123 83.332044,222.8436 73.751871,214.89387 64.259395,202.64216 l -5.551744,-7.16545 h -5.430922 c -4.906222,0 -14.427054,-2.20123 -24.998494,-5.77965 l -3.87491,-1.31167 4.978722,5.28354 c 6.337871,6.72589 12.317042,11.93547 22.093932,19.25018 23.491796,17.57568 63.063141,37.33573 74.699911,37.30156 l 3.71781,-0.0101 z m 195.30086,-4.52633 c -0.22236,-1.13591 -0.41267,-0.42154 -0.42295,1.58745 -0.0101,2.00897 0.17144,2.93838 0.40418,2.06531 0.23256,-0.87311 0.24098,-2.51683 0.0175,-3.65276 z m -264.619508,-0.0974 c 0,-0.17326 -0.941056,-1.0979 -2.091254,-2.05465 l -2.091254,-1.7396 1.770599,2.05464 c 1.663901,1.93089 2.411909,2.47037 2.411909,1.73961 z m -26.953884,-6.99046 c 0,-0.50224 -0.941056,-0.90689 -2.091254,-0.8992 -1.691049,0.0101 -1.824448,0.18328 -0.697071,0.8992 1.801975,1.14414 2.788325,1.14414 2.788325,0 z m 12.101008,-0.66574 c -2.290334,-0.20502 -4.68984,-0.80159 -5.332226,-1.3254 -0.642386,-0.52379 -2.219026,-0.69318 -3.503649,-0.37641 -4.670677,1.15176 -2.159699,2.1457 5.332226,2.11067 4.217359,-0.0206 5.794,-0.20364 3.503649,-0.40886 z m -21.163078,-0.89188 c -1.150198,-0.21777 -3.03231,-0.21777 -4.182511,0 -1.150173,0.21778 -0.209117,0.39574 2.091257,0.39574 2.300379,0 3.241435,-0.17809 2.091254,-0.39574 z m 14.959797,-2.85996 4.50356,-0.6049 -11.009665,-8.98602 c -6.05532,-4.94229 -15.401301,-11.87522 -20.7688258,-15.40645 -5.36754,-3.53123 -10.06644903,-6.88428 -10.44202103,-7.45125 -0.37557197,-0.56696 -0.68925197,-2.37957 -0.69707897,-4.028 -0.058665,-12.33651 17.0314158,-23.9226 21.8323078,-14.80115 1.139326,2.16465 2.874676,3.08169 10.440094,5.51692 14.432995,4.64589 25.3389,6.75924 25.3389,4.91023 0,-0.28715 -1.059553,-2.29862 -2.354568,-4.46973 C 49.909143,180.56317 39.40614,152.32138 36.959984,141.95825 34.703342,132.39811 33.697896,115.97232 34.56234,102.78865 35.236904,92.500985 35.094702,89.765092 33.496507,82.280417 32.482173,77.530128 30.43949,71.121593 28.957218,68.039215 26.422799,62.768976 25.72198,62.103753 17.199311,56.878582 -6.4350188,42.388594 -24.290641,36.660634 -28.085795,42.351424 c -2.146592,3.21881 -4.91395,17.871509 -6.067888,32.128586 -1.117729,13.809552 -0.889639,20.862457 1.967544,60.8392 1.171025,16.38437 1.758933,32.40045 1.575458,42.91955 l -0.292697,16.78131 -3.115061,6.39228 c -4.801138,9.85215 -4.812408,11.37842 -0.113234,15.33037 7.34139,6.17404 20.57915,12.00051 33.54341017,14.76388 6.23095903,1.32812 29.34160183,1.72714 37.39382283,0.64565 z M 196.72086,221.33968 c 11.23244,-4.32309 25.08822,-11.32387 31.81682,-16.07579 l 5.45375,-3.85154 -4.46175,-0.28025 c -2.45398,-0.15429 -10.14363,0.8012 -17.08817,2.12291 -12.39875,2.35983 -12.7793,2.37756 -21.10414,0.98336 -7.56814,-1.26747 -28.82552,-6.59299 -33.48936,-8.38996 -1.44943,-0.55848 -1.66913,-0.38484 -1.16066,0.91713 0.34498,0.88332 0.89329,3.82979 1.21842,6.54774 0.32529,2.71793 1.05655,5.52098 1.62536,6.22901 0.5688,0.70798 6.23315,4.63919 12.58739,8.73599 13.02684,8.39884 11.29434,8.18327 24.60234,3.06136 z m 168.78692,-2.46506 c 0,-0.18949 -0.73194,-0.90876 -1.62654,-1.59806 -1.47413,-1.1359 -1.50701,-1.10359 -0.35093,0.34479 1.21418,1.52113 1.97742,2.00488 1.97742,1.2533 z m -7.43557,-8.18892 c 0,-0.17327 -0.94106,-1.09789 -2.09124,-2.05466 l -2.09125,-1.73961 1.77059,2.05466 c 1.66389,1.93088 2.4119,2.47037 2.4119,1.73961 z m -204.05978,-7.67528 c -1.341,-7.70783 -6.17477,-24.43351 -9.35939,-32.38503 -5.22671,-13.05038 -13.23905,-28.19468 -25.12787,-47.49478 C 96.625084,85.954998 92.027454,78.187082 86.165374,66.767576 78.791666,52.403437 76.801143,46.882454 74.967395,35.708564 72.466065,20.466504 74.38475,4.9203142 80.152793,-6.3062158 l 2.895131,-5.6348202 -4.46046,0.63654 c -14.417018,2.0573802 -27.82532,7.2932502 -32.728969,12.7804802 -3.888264,4.351 -3.784612,7.62246 0.385195,12.1571698 1.789183,1.94576 3.253053,3.98577 3.253053,4.53334 0,0.5476 -1.77755,1.4455 -3.950132,1.99536 -10.662516,2.69859 -13.437171,4.59186 -12.441521,8.48944 0.90349,3.53679 21.159569,41.561183 26.116165,49.024857 7.31622,11.016833 14.099068,19.721998 36.287869,46.572299 23.229366,28.10947 36.719066,49.28118 43.038816,67.54829 1.37356,3.97024 2.50477,5.23927 8.54717,9.58831 3.83028,2.75683 7.08762,5.02084 7.2386,5.0311 0.15106,0.01 0.007,-1.52232 -0.32142,-3.40573 z m -116.59845,1.30064 c 0,-0.16358 -1.15019,-1.29364 -2.555982,-2.51123 l -2.555965,-2.21386 2.253265,2.51127 c 2.106007,2.34712 2.858682,2.93002 2.858682,2.21382 z m 213.52043,-0.25435 c -0.30878,-0.30338 -1.11049,-0.33582 -1.78143,-0.0721 -0.74143,0.29163 -0.52122,0.50791 0.56156,0.5517 0.97977,0.0397 1.52872,-0.17602 1.21987,-0.4796 z m -49.23034,-0.98891 c -0.88862,-0.22848 -2.56162,-0.23676 -3.71776,-0.0172 -1.15615,0.21848 -0.42911,0.40544 1.6157,0.41554 2.04476,0.01 2.9907,-0.16842 2.10206,-0.39712 z m 41.79481,0.0756 c -0.30879,-0.30338 -1.11052,-0.33582 -1.78145,-0.0721 -0.74144,0.29164 -0.5212,0.50786 0.56154,0.55169 0.9798,0.0397 1.52876,-0.17636 1.21991,-0.47963 z M 349.70721,201.524 c 0,-0.18982 -0.73192,-0.90878 -1.62652,-1.5981 -1.47414,-1.13586 -1.50702,-1.10356 -0.35093,0.3448 1.21417,1.52112 1.97741,2.00487 1.97741,1.2533 z m -138.95187,-1.96851 c 7.02801,-1.72853 34.11528,-3.03447 50.91317,-2.45466 22.7462,0.78512 43.81309,-2.21382 55.17684,-7.85459 7.27653,-3.6119 8.52125,-5.1779 10.59461,-13.32969 0.97156,-3.81976 2.16365,-7.67421 2.64909,-8.56544 0.48548,-0.89121 6.33356,-4.61213 12.99581,-8.26868 14.21068,-7.79951 20.69778,-12.62203 22.78109,-16.93551 1.97451,-4.08812 1.38101,-5.27849 -3.87846,-7.77916 -7.54835,-3.58896 -21.71663,-13.15096 -38.21302,-25.78954 -26.52248,-20.319943 -38.96513,-26.441017 -53.35033,-26.245301 -10.28147,0.139872 -10.8436,0.444665 -15.05549,8.163335 -2.61865,4.798897 -6.46558,9.580226 -13.01223,16.172806 l -9.29443,9.35967 6.06407,4.06616 c 16.1695,10.84216 25.62298,24.47858 27.64942,39.88356 l 0.67593,5.13858 8.82972,-3.38524 c 9.29274,-3.56273 27.2565,-12.17616 33.60177,-16.11168 5.05402,-3.13464 8.68808,-1.80471 4.71693,1.72626 -4.47637,3.98017 -31.23003,16.40359 -46.21898,21.46237 -24.36316,8.2226 -64.49557,15.37097 -106.62939,18.99277 -12.14525,1.044 -8.3795,3.18774 17.40275,9.9069 4.60075,1.19901 9.41064,2.36417 10.68861,2.58924 5.21059,0.91762 15.67368,0.54632 20.91252,-0.74216 z m 12.29573,-0.0649 c -0.30877,-0.30337 -1.11047,-0.33583 -1.78143,-0.0721 -0.74143,0.29164 -0.5212,0.5079 0.56157,0.55175 0.97976,0.0397 1.52872,-0.17636 1.21986,-0.47964 z m 13.49632,-0.96626 c -0.63899,-0.25332 -1.6846,-0.25332 -2.32362,0 -0.63899,0.25334 -0.11629,0.46059 1.16181,0.46059 1.27801,0 1.8008,-0.20742 1.16181,-0.46059 z m 17.19474,-0.0662 c -2.42819,-0.18809 -6.40156,-0.18809 -8.82975,0 -2.42816,0.18811 -0.44146,0.34205 4.41485,0.34205 4.85636,0 6.84306,-0.15394 4.4149,-0.34205 z m 29.27747,0.0276 c -1.15018,-0.21777 -3.0323,-0.21777 -4.18248,0 -1.1502,0.21779 -0.20901,0.39575 2.09124,0.39575 2.30037,0 3.24143,-0.17809 2.09124,-0.39575 z M 30.907858,197.90122 c 0,-0.17326 -0.941056,-1.09788 -2.091254,-2.05467 l -2.091237,-1.7396 1.770574,2.05465 c 1.663909,1.9309 2.411917,2.47042 2.411917,1.73962 z m 262.781002,-0.23676 c -0.30878,-0.30339 -1.11053,-0.33582 -1.78144,-0.0721 -0.74146,0.29165 -0.5212,0.50786 0.56154,0.5517 0.97979,0.0397 1.52875,-0.17636 1.2199,-0.47963 z M 57.61002,194.01172 c -0.308847,-0.30338 -1.110489,-0.33582 -1.78143,-0.0721 -0.741446,0.29162 -0.521216,0.5079 0.561538,0.55173 0.979788,0.0397 1.52874,-0.17636 1.219892,-0.47964 z m 73.89748,-8.80842 c -7.81938,-17.18705 -17.18674,-31.2329 -36.997676,-55.47579 -8.00339,-9.79388 -17.324909,-21.24567 -20.714463,-25.44842 l -6.16282,-7.641374 -0.748975,3.532054 c -0.411954,1.94263 -1.328039,5.79218 -2.035742,8.55456 -1.816174,7.08928 -4.913197,22.42583 -5.643639,27.94763 l -0.616636,4.66151 4.012471,0.63039 c 2.206846,0.34672 5.703238,1.37465 7.769744,2.28429 5.129753,2.25808 21.6585,14.09452 36.771696,26.33276 15.51058,12.56001 27.33602,22.03113 27.5965,22.1023 0.10854,0.031 -1.34536,-3.33633 -3.23046,-7.47991 z m 32.05917,0.58978 c -0.30879,-0.30338 -1.11049,-0.33582 -1.78144,-0.0721 -0.74147,0.29165 -0.52121,0.50791 0.56153,0.55174 0.9798,0.0397 1.52876,-0.17636 1.21991,-0.47964 z m 14.1934,-3.53126 c 24.45451,-2.86487 36.17732,-4.52578 48.82632,-6.91794 12.96659,-2.45219 28.5422,-6.2752 29.58703,-7.26209 1.14659,-1.08301 -5.64956,-13.14407 -10.2734,-18.2321 -5.6642,-6.23283 -11.655,-9.09584 -37.4683,-17.90614 -15.14243,-5.16822 -23.19893,-9.38452 -28.9329,-15.14171 -2.3664,-2.37602 -11.83218,-13.48685 -21.03504,-24.690728 C 135.56183,64.229509 123.1437,52.217567 107.69291,43.000864 l -3.61189,-2.15455 0.46191,12.250927 c 0.25398,6.738016 1.63147,20.058645 3.06093,29.601405 l 2.59899,17.350454 9.02001,14.61091 c 19.26238,31.20179 27.86298,48.21376 33.1249,65.52083 1.59216,5.2368 -0.2431,5.08652 25.41231,2.08098 z m 9.97216,0.79173 c -0.30877,-0.30339 -1.11053,-0.33583 -1.78144,-0.0721 -0.74146,0.29163 -0.52121,0.50791 0.56153,0.55174 0.97981,0.0397 1.52872,-0.17637 1.21991,-0.47965 z m 8.36499,-0.91319 c -0.30878,-0.30338 -1.11052,-0.33582 -1.78143,-0.0721 -0.74147,0.29166 -0.52121,0.50792 0.56152,0.55171 0.9798,0.0397 1.52874,-0.17601 1.21991,-0.47961 z M 15.33968,179.34774 c -0.638993,-0.25333 -1.684628,-0.25333 -2.323613,0 -0.638994,0.25333 -0.116155,0.46058 1.161807,0.46058 1.277978,0 1.8008,-0.20708 1.161806,-0.46058 z m 247.67194,-18.01205 c -1.47385,-14.01271 -10.21986,-26.70006 -26.30901,-38.16506 -6.46039,-4.60363 -29.14858,-16.09311 -42.21255,-21.37676 -8.00157,-3.236192 -9.57142,-4.29916 -16.73748,-11.333183 -4.34923,-4.269118 -12.92311,-13.309638 -19.05302,-20.090008 -14.42001,-15.95021 -21.61326,-22.891035 -30.21638,-29.156085 -6.68206,-4.86604 -21.87437,-12.65021 -22.83921,-11.70223 -0.25293,0.2486 -0.69537,1.87676 -0.98301,3.61812 -0.49693,3.00876 -0.29859,3.29432 3.9899,5.74622 15.841,9.05672 30.37901,22.858962 51.9145,49.287035 18.88031,23.169751 25.06907,29.612521 31.81417,33.120121 2.94996,1.53402 13.58914,5.67235 23.6426,9.19625 19.90977,6.9787 20.32292,7.15609 27.5448,11.8259 5.24405,3.39091 9.94799,9.42518 14.95887,19.18948 3.48444,6.78986 5.21031,6.72838 4.48582,-0.1598 z M 46.708418,160.41682 c 0,-0.19742 -0.649105,-0.60361 -1.442439,-0.90275 -0.827144,-0.312 -1.200217,-0.15876 -0.874589,0.35892 0.545817,0.86772 2.317028,1.28344 2.317028,0.54383 z m -79.291517,-6.71816 c -0.233783,-0.87894 -0.425053,-0.15979 -0.425053,1.59806 0,1.7579 0.19127,2.47702 0.425053,1.59808 0.233782,-0.87894 0.233782,-2.3172 0,-3.19614 z m 83.025812,-7.56054 c 4.04163,-3.98113 4.243788,-4.44316 5.39387,-12.32797 0.657164,-4.50551 2.893186,-15.62927 4.9689,-24.71948 L 64.579512,92.563022 58.07814,83.064985 C 54.502381,77.841063 49.441569,69.663084 46.831887,64.891709 c -2.609682,-4.771376 -4.807211,-8.469774 -4.883401,-8.218628 -0.681102,2.245058 -2.75354,34.680476 -3.240674,50.719389 -0.638472,21.02162 -0.139497,26.09094 4.035109,40.99437 1.308982,4.67307 1.653988,5.17533 2.509206,3.65272 0.545362,-0.97093 2.881114,-3.62658 5.190586,-5.90144 z m 197.955087,2.42156 c 0,-0.18962 -0.73194,-0.90875 -1.62652,-1.59806 -1.47414,-1.13589 -1.50702,-1.10358 -0.35093,0.34478 1.21419,1.52115 1.97742,2.00489 1.97742,1.25331 z m -281.935476,-6.27579 c -0.257844,-0.62782 -0.468798,-0.11415 -0.468798,1.14149 0,1.25561 0.210937,1.76928 0.468798,1.14147 0.257837,-0.62782 0.257837,-1.65515 0,-2.28296 z m 402.449336,-4.5659 c -0.25784,-0.62783 -0.46878,-0.11416 -0.46878,1.14147 0,1.25563 0.21077,1.76928 0.46878,1.14147 0.25785,-0.62782 0.25785,-1.65515 0,-2.28294 z M 252.11557,133.0653 c 0,-0.17328 -0.94106,-1.09787 -2.09123,-2.05465 l -2.09125,-1.7396 1.77058,2.05465 c 1.6639,1.93088 2.4119,2.47038 2.4119,1.7396 z m -286.554146,-4.00517 c -0.235645,-0.8885 -0.44396,-0.38265 -0.462908,1.1241 -0.01903,1.50674 0.17386,2.23369 0.42847,1.61544 0.254601,-0.61826 0.270091,-1.85105 0.03442,-2.73954 z M 36.232157,110.7791 c -0.20052,-1.88343 -0.364583,-0.34243 -0.364583,3.42444 0,3.76688 0.164046,5.30788 0.364583,3.42445 0.200512,-1.88345 0.200512,-4.96545 0,-6.84889 z m -71.600181,4.5833 c -0.235644,-0.8885 -0.443967,-0.38266 -0.462899,1.1241 -0.01903,1.50675 0.173877,2.2337 0.428462,1.61545 0.254601,-0.61826 0.270107,-1.85106 0.03442,-2.73955 z m 218.704754,2.19646 c 0,-0.16359 -1.15018,-1.29364 -2.55599,-2.51125 l -2.55597,-2.21384 2.25327,2.51125 c 2.10602,2.34714 2.85869,2.93002 2.85869,2.21384 z m 50.2105,-16.36819 c 6.2244,-12.40824 6.7098,-12.551307 -6.34166,1.86913 l -5.85643,6.47068 2.60339,1.38678 c 1.43183,0.76272 2.9138,1.40322 3.29327,1.42332 0.37945,0.0201 3.21509,-4.99734 6.30143,-11.14991 z M 252.6099,86.35736 c 5.19289,-10.589052 6.39197,-16.897468 5.77757,-30.396697 -0.54281,-11.926499 -3.04446,-22.473889 -9.06634,-38.225369 -13.31234,-34.82116 -33.12571,-70.58528 -48.41143,-87.38501 -4.51651,-4.96385 -5.05852,-5.28697 -7.96893,-4.75053 -1.71753,0.31655 -5.73125,1.72404 -8.91938,3.1277 -6.82803,3.00621 -13.66935,4.30857 -29.49746,5.61531 -22.19863,1.83267 -28.19298,3.55675 -34.26243,9.85441 -1.71933,1.78399 -7.15229,5.96054 -12.07324,9.28122 -10.757296,7.25912 -13.651316,10.96961 -15.329766,19.65465 l -1.23849,6.40841 4.72437,-2.2991 c 9.829686,-4.78358 25.538096,-3.33302 39.638466,3.66027 7.734,3.8358 14.914,12.8087602 22.82984,28.5307802 2.57725,5.1187698 3.95418,6.9506398 4.94396,6.5774698 3.67195,-1.38442 9.67519,-1.39599 17.07882,-0.0328 l 8.15469,1.50132 8.28857,-3.22027 c 10.98624,-4.2683798 17.04779,-4.9689898 21.90018,-2.5312 15.96685,8.02149 30.23756,33.78642 30.45817,54.990272 0.0868,8.338937 -2.76915,17.173852 -10.60975,32.822215 l -5.28808,10.553939 7.41866,-7.75614 c 5.68126,-5.939663 8.36328,-9.682302 11.452,-15.980684 z m -23.60022,8.525617 c 7.8272,-8.503988 15.45225,-19.36193 16.5407,-23.55379 0.5477,-2.109338 0.44853,-5.633322 -0.28383,-10.09024 l -1.12563,-6.848868 -0.60308,5.349935 c -0.69352,6.152126 -2.69577,9.528193 -10.97334,18.502352 -3.08144,3.340776 -6.9857,8.392653 -8.67606,11.226374 -3.87682,6.49905 -8.05593,16.63503 -7.33275,17.78473 0.30247,0.48074 1.8397,-0.5973 3.4162,-2.39563 1.57649,-1.79833 5.64354,-6.287017 9.03793,-9.974863 z m -6.6363,10.645313 c 1.20059,-1.25562 1.97377,-2.28295 1.71817,-2.28295 -0.25573,0 -1.44702,1.02733 -2.64764,2.28295 -1.20059,1.25562 -1.97378,2.28295 -1.71817,2.28295 0.25574,0 1.44702,-1.02733 2.64764,-2.28295 z m -9.29446,-2.71077 c 0,-0.67827 2.07633,-5.308175 4.61407,-10.288687 3.23102,-6.34114 6.60536,-11.224462 11.25748,-16.291637 3.65387,-3.979917 7.42106,-8.455613 8.37154,-9.945992 3.90379,-6.121548 2.99334,-16.952615 -1.86434,-22.17803 -3.32728,-3.57916 -8.36729,-6.08543 -16.92071,-8.41424 -7.85981,-2.13995 -7.31793,-2.05322 -7.31347,-1.17056 0.002,0.3767 2.69226,2.05087 5.97861,3.72042 18.03137,9.16028 23.07355,28.342034 8.09766,30.805428 -1.86511,0.306791 -6.52798,1.510381 -10.36194,2.674648 -16.08634,4.885001 -23.52201,6.290474 -33.58245,6.347713 l -9.88161,0.05625 3.30388,3.652727 c 8.52392,9.423957 12.60815,12.357142 24.77606,17.793569 6.61896,2.957261 12.3699,5.173151 12.77986,4.924211 0.40995,-0.24894 0.74536,-1.00755 0.74536,-1.68581 z M -36.267964,96.641119 c -0.206867,-1.641321 -0.380371,-0.518598 -0.385592,2.494894 -0.005,3.013497 0.164013,4.356387 0.376101,2.984187 0.212071,-1.37218 0.216357,-3.837786 0.0089,-5.479081 z M 107.7572,94.855473 c -0.29683,-0.728483 -0.51692,-0.512094 -0.56154,0.55171 -0.0404,0.962642 0.17951,1.501991 0.48819,1.19855 0.30878,-0.303449 0.34179,-1.091067 0.0734,-1.75026 z M 37.100085,92.972034 c -0.257853,-0.627822 -0.468799,-0.114151 -0.468799,1.141475 0,1.255617 0.210946,1.769297 0.468799,1.141475 0.257844,-0.627813 0.257844,-1.655137 0,-2.28295 z m 149.024975,2.652769 c 0,-0.173285 -0.94106,-1.097871 -2.09128,-2.054648 l -2.09124,-1.739605 1.77059,2.054674 c 1.6639,1.930859 2.41193,2.470354 2.41193,1.739579 z m 46.59075,-1.283009 c 1.15611,-1.448353 1.12324,-1.480655 -0.35094,-0.344753 -0.89459,0.689325 -1.62653,1.408436 -1.62653,1.59807 0,0.751577 0.76325,0.267831 1.97742,-1.253283 z M 103.14608,79.959187 c -1.48553,-8.678419 -1.89368,-15.422749 -1.96187,-32.417963 -0.085,-21.14925 -0.0488,-21.56832 2.49129,-28.96112 4.48908,-13.0652598 12.40405,-23.0031298 24.72973,-31.05026 l 5.01766,-3.27591 -3.34997,-1.68858 c -7.93752,-4.00093 -19.77797,-5.4699 -27.88336,-3.45929 -16.214306,4.0221 -27.146074,27.7414302 -23.976568,52.0235 1.415937,10.84752 4.502512,20.151047 10.661982,32.137251 4.97436,9.679935 15.635226,28.278151 15.972486,27.864444 0.0959,-0.117674 -0.66973,-5.145071 -1.70138,-11.172072 z M 306.65827,88.4632 c -0.29684,-0.728483 -0.51694,-0.512094 -0.56153,0.55171 -0.0404,0.962643 0.17916,1.502 0.48815,1.198551 0.30878,-0.30345 0.34179,-1.091059 0.0735,-1.750261 z M 304.5677,76.534762 c 0.97911,-18.459576 2.67111,-29.240338 9.88434,-62.978348 2.00975,-9.3999998 3.65409,-17.7048798 3.65409,-18.4552698 0,-0.79785 -1.52554,-1.81341 -3.67404,-2.44587 -3.10642,-0.91441 -5.36807,-0.75782 -14.63876,1.01357 -16.75503,3.20146 -20.05228,2.92442 -31.30585,-2.63046 -7.96271,-3.9304602 -10.87913,-4.8562302 -19.06174,-6.0508402 -5.31338,-0.77571 -9.79789,-1.2756 -9.96556,-1.11085 -0.16757,0.16473 0.97969,2.94783 2.5497,6.1846402 6.61865,13.64529 14.07375,33.5054098 18.14891,48.3480598 1.73964,6.33612 2.4119,31.056519 1.0182,37.44047 l -0.69776,3.196141 8.96689,-0.294095 c 7.59596,-0.249156 10.11837,0.06495 16.49832,2.05458 4.14226,1.291778 9.62268,3.537387 12.17864,4.99028 2.55595,1.452866 4.90721,2.685691 5.22502,2.739605 0.31791,0.05401 0.8666,-5.346799 1.2196,-12.001613 z M 37.847968,81.450953 c -0.238698,-0.234512 -0.433988,0.07727 -0.433988,0.6929 0,0.61559 -0.35784,0.901984 -0.795197,0.636409 -0.437348,-0.265548 -0.5749,0.634765 -0.30567,2.000778 l 0.489468,2.48361 0.739684,-2.693651 c 0.406832,-1.481516 0.544401,-2.885516 0.305703,-3.120046 z m 138.053192,4.12885 c 0,-0.173293 -0.94106,-1.097871 -2.09124,-2.054648 l -2.09124,-1.739613 1.77055,2.054674 c 1.66394,1.930867 2.41193,2.470362 2.41193,1.739587 z M -36.285622,77.447926 c -0.22152,-1.130053 -0.402794,-0.205449 -0.402794,2.054666 0,2.260132 0.181257,3.184718 0.402794,2.054665 0.221521,-1.130062 0.221521,-2.979261 0,-4.109331 z m 280.374372,4.342879 c -0.29296,-0.7505 -0.95201,-1.110069 -1.46422,-0.79904 -0.57263,0.347716 -0.44565,0.867822 0.32986,1.350543 1.69234,1.053553 1.75035,1.025351 1.13448,-0.551503 z m 62.60697,-7.082416 c -0.2062,-1.632319 -0.37489,-0.296782 -0.37489,2.967856 0,3.264604 0.16861,4.600149 0.37489,2.96783 0.20621,-1.632319 0.20621,-4.303367 0,-5.935686 z m -131.97571,1.502956 c -0.30879,-0.303458 -1.1105,-0.335897 -1.78146,-0.0721 -0.74146,0.291502 -0.5212,0.5079 0.56153,0.551718 0.9798,0.03954 1.52877,-0.176188 1.21993,-0.47962 z m 13.01222,0 c -0.30877,-0.303458 -1.11053,-0.335897 -1.78144,-0.0721 -0.74146,0.291502 -0.52121,0.5079 0.56153,0.551718 0.97981,0.03954 1.52872,-0.176188 1.21991,-0.47962 z m 3.04002,-2.598467 c 4.34516,-0.724263 10.61893,-2.06309 13.94167,-2.975135 5.69831,-1.564106 6.08887,-1.846399 6.87734,-4.971071 1.28391,-5.088271 0.40088,-6.251832 -4.75691,-6.26806 -5.96862,-0.01869 -7.22378,-0.954641 -7.10782,-5.299647 l 0.0952,-3.57161 -3.36296,0.768107 c -8.34557,1.906119 -20.57816,0.816784 -34.03467,-3.030858 -6.23102,-1.78164 -17.43572,-2.61733 -18.68152,-1.39333 -0.32669,0.32098 3.32474,4.79237 8.11432,9.936442 4.78958,5.144072 10.17219,10.927016 11.9614,12.85101 4.83874,5.203292 12.61548,6.344147 26.95385,3.954152 z m 44.14861,-0.50255 c 0.92526,-1.004515 1.47315,-1.826381 1.21756,-1.826381 -0.25574,0 -1.22174,0.821866 -2.14699,1.826381 -0.92525,1.004497 -1.47316,1.826355 -1.21756,1.826355 0.25573,0 1.22173,-0.821858 2.14699,-1.826355 z M 38.958971,71.055654 c -0.257837,-0.627805 -0.468799,-0.114151 -0.468799,1.141483 0,1.255626 0.210946,1.769297 0.468799,1.141475 0.257844,-0.627813 0.257844,-1.655128 0,-2.282958 z m -74.355533,-5.479083 c -0.257844,-0.627821 -0.468807,-0.114142 -0.468807,1.141475 0,1.255635 0.210946,1.769289 0.468807,1.141484 0.257837,-0.627821 0.257837,-1.655154 0,-2.282959 z m 176.908302,2.65277 c 0,-0.173294 -0.94106,-1.097872 -2.09128,-2.054657 l -2.09124,-1.739596 1.77059,2.054665 c 1.6639,1.930867 2.41193,2.470371 2.41193,1.739588 z m 81.32635,-2.488167 c 5.79615,-1.060893 8.24989,-3.598994 7.35397,-7.606733 -1.29646,-5.799449 -5.95206,-11.161157 -13.72654,-15.808397 -4.38386,-2.62049 -5.60199,-3.00716 -6.25949,-1.98708 -0.44906,0.69663 -0.82282,1.60347 -0.83065,2.01522 -0.007,0.41177 -1.26899,2.54047 -2.80256,4.73045 -1.53358,2.189997 -2.78833,5.037802 -2.78833,6.328512 0,2.202729 0.28102,2.346719 4.58084,2.346719 6.15568,0 7.76012,1.628494 7.34942,7.459823 -0.25643,3.642899 -0.0636,4.338391 1.08197,3.902504 0.76679,-0.291743 3.48538,-0.913199 6.04137,-1.381018 z m 25.27436,-1.516997 c -0.23571,-0.888503 -0.44395,-0.382654 -0.46289,1.124092 -0.0175,1.506755 0.1739,2.233697 0.42847,1.615454 0.25469,-0.618252 0.27013,-1.851051 0.0352,-2.739546 z M 103.09064,61.010645 c -0.25784,-0.627796 -0.46883,-0.114142 -0.46883,1.141484 0,1.255635 0.21113,1.769288 0.46883,1.141475 0.25784,-0.627804 0.25784,-1.655129 0,-2.282959 z m 158.05689,-3.183564 c -0.21359,-1.388099 -0.39411,-0.469154 -0.40111,2.042098 -0.007,2.511252 0.16791,3.646964 0.38842,2.523819 0.22061,-1.12317 0.22623,-3.177827 0.0141,-4.565917 z m -28.83904,-0.01266 c -0.23396,-0.87895 -0.42505,-0.159804 -0.42505,1.598062 0,1.757883 0.19144,2.477012 0.42505,1.598079 0.23396,-0.878942 0.23396,-2.317208 0,-3.196141 z M 39.928805,52.791785 c -0.221521,-1.13007 -0.402786,-0.205449 -0.402786,2.054665 0,2.260124 0.181249,3.184719 0.402786,2.054666 0.221528,-1.130062 0.221528,-2.979269 0,-4.109331 z m 110.877365,5.421654 c 0,-0.157178 -1.35931,-1.49268 -3.02072,-2.967848 l -3.02067,-2.682099 2.72984,2.967847 c 2.54466,2.766438 3.31155,3.387575 3.31155,2.6821 z m -20.44776,-0.972222 c 0,-0.189625 -0.73194,-0.908754 -1.62653,-1.59807 -1.47417,-1.135885 -1.50704,-1.103574 -0.35093,0.344753 1.21419,1.52114 1.97746,2.004886 1.97746,1.253291 z m 71.2533,-4.449432 c -0.25784,-0.627804 -0.46878,-0.114151 -0.46878,1.141484 0,1.255626 0.21076,1.769296 0.46878,1.141475 0.25784,-0.627805 0.25784,-1.655137 0,-2.282959 z M 32.515022,50.642005 c -0.308847,-0.303449 -1.110489,-0.335889 -1.781421,-0.0721 -0.741455,0.291502 -0.521225,0.507899 0.561537,0.551727 0.979788,0.03962 1.528732,-0.176205 1.219884,-0.479629 z M 143.3706,50.878671 c 0,-0.173294 -0.94106,-1.097889 -2.09123,-2.054657 l -2.09124,-1.7396 1.77059,2.054661 c 1.66389,1.930867 2.41188,2.470362 2.41188,1.739596 z m -41.15136,-8.115527 c -0.20691,-1.6413 -0.3804,-0.5186 -0.38561,2.4949 -0.003,3.013503 0.16406,4.356396 0.37613,2.984198 0.21218,-1.372188 0.21639,-3.837778 0.0106,-5.479098 z m 76.21852,6.965688 c -0.30878,-0.303458 -1.11048,-0.335898 -1.78145,-0.0721 -0.74141,0.291502 -0.5212,0.507882 0.56158,0.551701 0.97978,0.03962 1.52873,-0.176188 1.21987,-0.47962 z M 35.622107,47.505754 c 1.723146,-0.90606 1.632567,-1.27065 -2.027641,-8.1619 -2.107248,-3.96739 -4.029705,-8.98545 -4.272135,-11.15124 -0.608221,-5.43388 2.167932,-7.99089 12.111227,-11.15514 1.610019,-0.51237 1.598236,-0.66179 -0.232377,-2.9483 C 38.552064,10.780294 38.597076,4.3336242 41.296301,0.46326419 46.611441,-7.1579558 65.595052,-14.431746 83.398014,-15.668506 l 3.69437,-0.25665 1.1526,-6.84887 c 0.63397,-3.76688 1.38438,-7.77347 1.66766,-8.90353 0.49285,-1.96616 0.26381,-2.05467 -5.31464,-2.05467 -12.232946,0 -24.226577,-5.15301 -41.607418,-17.8765 -11.726669,-8.58441 -17.400153,-11.78171 -23.163985,-13.05409 l -3.789893,-0.83664 v 4.50483 c 0,11.49524 -3.751267,32.88396 -10.1534048,57.8920202 -3.015049,11.77738 -5.72866503,26.0616898 -5.92766303,31.2028598 -0.242496,6.26501 1.10916603,7.50966 9.21809903,8.48819 5.6733928,0.68463 6.7141468,1.1281 9.1865848,3.9145 5.981364,6.74088 12.630151,9.438168 17.261748,7.00281 z m 164.150913,-0.87898 c 3.44817,-1.22204 5.31048,-3.69672 6.7588,-8.98123 1.32839,-4.84692 0.49255,-6.39395 -5.49372,-10.16811 -5.82109,-3.67004 -15.28471,-6.94694 -23.82026,-8.24811 -7.50533,-1.14412 -10.62302,-0.39536 -12.96286,3.1132 -1.58529,2.37708 -5.31651,12.60192 -6.41672,17.58399 -0.63289,2.86588 -0.5979,2.89847 4.76251,4.43564 11.71403,3.3591 16.58656,4.067664 25.38315,3.691229 4.85635,-0.207809 10.16144,-0.849779 11.7891,-1.426609 z m -52.00691,-2.37704 c -0.30879,-0.30344 -1.11049,-0.33588 -1.78146,-0.0721 -0.7414,0.29152 -0.52119,0.50791 0.56158,0.55173 0.97977,0.0396 1.52872,-0.1762 1.21988,-0.47962 z m 0.40166,-1.86419 5.26183,-0.56261 1.54092,-6.0445 c 0.84751,-3.32446 2.34533,-7.83618 3.32852,-10.02602 l 1.78754,-3.98155 -2.54896,1.59115 c -4.55491,2.84335 -6.92367,5.38672 -8.64364,9.28093 -1.9208,4.34883 -4.45876,6.26972 -9.47352,7.17007 -1.91696,0.34419 -3.48539,0.90879 -3.48539,1.2547 0,1.58592 2.51803,2.89037 4.6472,2.40746 1.27802,-0.28986 4.69147,-0.7802 7.5855,-1.08963 z m 90.00613,1.18766 c 0,-0.1733 -0.94106,-1.09787 -2.09123,-2.05466 l -2.09124,-1.7396 1.77059,2.05465 c 1.6639,1.93089 2.41188,2.47039 2.41188,1.73961 z m 0.11417,-4.94181 c -4.03013,-7.84395 -10.88158,-16.31404 -16.66916,-20.60725 -6.35552,-4.71451 -9.64444,-4.90102 -20.09373,-1.13956 l -7.37117,2.65345 4.72136,2.19187 c 2.59673,1.20551 6.33203,3.51551 8.30063,5.1333 2.47625,2.03497 5.72748,3.46022 10.5501,4.6248 9.29851,2.24546 18.15011,6.41204 20.6338,9.71264 1.11235,1.47819 2.15895,2.68762 2.32576,2.68762 0.16686,0 -0.91211,-2.36559 -2.39759,-5.25687 z m -220.392474,4.02862 c 0,-0.17329 -0.941064,-1.09788 -2.091254,-2.05466 l -2.091238,-1.73959 1.770591,2.05465 c 1.663893,1.93088 2.411909,2.47038 2.411901,1.7396 z m 123.579914,-7.73987 c 2.24269,-1.06908 3.4373,-2.39554 3.94477,-4.38013 0.68915,-2.69525 6.01872,-8.26984 10.84206,-11.34046 l 2.20312,-1.40256 -3.48771,-6.81608 c -4.32162,-8.4458698 -11.75417,-19.9298198 -14.59713,-22.5539 l -2.13311,-1.96891 -5.07281,2.87753 c -2.79002,1.5826402 -8.08675,5.6903902 -11.77047,9.1283202 -5.23423,4.88505 -7.50969,7.88672 -10.41415,13.7378998 -4.28254,8.62741 -5.60537,13.42276 -3.7028,13.42276 1.95655,0 19.82246,8.85637 21.23193,10.52496 1.52536,1.80581 7.84752,1.20589 12.9563,-1.22943 z m -65.338803,-6.78428 c -0.257837,-0.6278 -0.468791,-0.11414 -0.468791,1.14149 0,1.25562 0.211128,1.76928 0.468791,1.14148 0.257844,-0.62783 0.257844,-1.65514 0,-2.28297 z m -78.0732878,-1.82634 c -0.257853,-0.62781 -0.468807,-0.11415 -0.468807,1.14148 0,1.25562 0.210954,1.76929 0.468807,1.14148 0.257836,-0.62781 0.257836,-1.65513 0,-2.28296 z M 76.136748,15.351334 c -0.257845,-0.62781 -0.468791,-0.11415 -0.468791,1.14148 0,1.25564 0.211128,1.7693 0.468791,1.14148 0.257845,-0.6278 0.257845,-1.65514 0,-2.28296 z m 93.936002,1.50295 c -0.30877,-0.30344 -1.11048,-0.33589 -1.78143,-0.0721 -0.74143,0.29149 -0.5212,0.50789 0.56156,0.55171 0.97978,0.0395 1.52874,-0.17619 1.21987,-0.47964 z m 6.06078,-0.0531 c -0.63899,-0.25333 -1.68462,-0.25333 -2.32362,0 -0.63899,0.25334 -0.11627,0.4606 1.16181,0.4606 1.27798,0 1.8008,-0.20726 1.16181,-0.4606 z M 44.968078,-0.62936581 c 1.156106,-1.44834999 1.123224,-1.48063999 -0.350939,-0.34476 -0.894596,0.68933 -1.626535,1.40844 -1.626535,1.59808 0,0.75157001 0.763249,0.26782 1.977449,-1.25329 z m 74.760162,-2.28294999 2.72988,-2.96784 -3.0207,2.6821 c -1.66137,1.47515 -3.02068,2.81067999 -3.02068,2.96783999 0,0.7055 0.7669,0.0844 3.3115,-2.68209999 z m 165.15026,-3.11603 c -0.63898,-0.25332 -1.68463,-0.25332 -2.32362,0 -0.639,0.25333 -0.11628,0.46059 1.16181,0.46059 1.27798,0 1.8008,-0.20725 1.16181,-0.46059 z M 244.42831,-17.846646 c -0.30879,-0.30344 -1.11049,-0.33588 -1.78145,-0.0721 -0.74145,0.2915 -0.5212,0.50789 0.56153,0.55171 0.97981,0.0396 1.52877,-0.17619 1.21992,-0.4796 z m -154.330546,-4.18541 c -0.29684,-0.72847 -0.51695,-0.5121 -0.56153,0.5517 -0.0404,0.96266 0.17916,1.50199 0.48816,1.19855 0.30878,-0.30346 0.34179,-1.09106 0.0735,-1.75025 z m 21.904116,-2.25993 c -0.63902,-0.25333 -1.68463,-0.25333 -2.32361,0 -0.639,0.25333 -0.11628,0.46059 1.1618,0.46059 1.27798,0 1.8008,-0.20725 1.16181,-0.46059 z m -22.790756,-10.90512 c -0.30878,-0.30344 -1.11049,-0.33588 -1.78145,-0.0721 -0.74142,0.29151 -0.5212,0.5079 0.56157,0.55172 0.97977,0.0396 1.52872,-0.17617 1.21988,-0.47962 z m -76.257239,-10.57766 c -0.296701,-0.72847 -0.516939,-0.51209 -0.561537,0.55171 -0.04038,0.96265 0.179329,1.502 0.48816,1.19854 0.30884,-0.30343 0.341863,-1.09104 0.07331,-1.75025 z m 0.976272,-16.47021 c -0.196334,-2.14784 -0.359752,-0.61772 -0.363119,3.4003 -0.0041,4.01799 0.157262,5.7753 0.356971,3.90515 0.199709,-1.87016 0.202489,-5.15762 0.0066,-7.30545 z m 103.534573,6.82473 c 1.15612,-1.44837 1.12324,-1.48067 -0.35093,-0.34476 -1.54819,1.19294 -2.04055,1.94283 -1.27559,1.94283 0.19285,0 0.92494,-0.71911 1.62652,-1.59806 z m -99.31904,-11.78549 c -0.629274,-0.25014 -1.884026,-0.26537 -2.788344,-0.0339 -0.90431,0.23154 -0.389464,0.43619 1.144116,0.45482 1.533592,0.0187 2.273482,-0.17085 1.644228,-0.42098 z m 131.03395,-0.007 c -0.63899,-0.25334 -1.68463,-0.25334 -2.32362,0 -0.63899,0.25333 -0.11628,0.46059 1.16181,0.46059 1.27798,0 1.80079,-0.20725 1.16181,-0.46059 z m 12.08276,-0.91318 c -0.63898,-0.25335 -1.6846,-0.25335 -2.32361,0 -0.63899,0.25333 -0.11629,0.46059 1.16181,0.46059 1.27801,0 1.80079,-0.20725 1.1618,-0.46059 z"
       id="path5788" /></g></svg>
