<?xml version="1.0" encoding="UTF-8" standalone="no"?>
<!-- Created with Inkscape (http://www.inkscape.org/) -->

<svg
   width="210mm"
   height="297mm"
   viewBox="0 0 210 297"
   version="1.1"
   id="svg1"
   xml:space="preserve"
   sodipodi:docname="temple.svg"
   inkscape:version="1.4.2 (ebf0e94, 2025-05-08)"
   xmlns:inkscape="http://www.inkscape.org/namespaces/inkscape"
   xmlns:sodipodi="http://sodipodi.sourceforge.net/DTD/sodipodi-0.dtd"
   xmlns="http://www.w3.org/2000/svg"
   xmlns:svg="http://www.w3.org/2000/svg"><sodipodi:namedview
     id="namedview1"
     pagecolor="#505050"
     bordercolor="#eeeeee"
     borderopacity="1"
     inkscape:showpageshadow="0"
     inkscape:pageopacity="0"
     inkscape:pagecheckerboard="0"
     inkscape:deskcolor="#505050"
     inkscape:document-units="mm"
     inkscape:zoom="0.72945684"
     inkscape:cx="538.07159"
     inkscape:cy="778.66156"
     inkscape:window-width="2560"
     inkscape:window-height="1403"
     inkscape:window-x="2560"
     inkscape:window-y="0"
     inkscape:window-maximized="1"
     inkscape:current-layer="svg1"
     showgrid="false" /><defs
     id="defs1"><linearGradient
       id="swatch1"
       inkscape:swatch="solid"><stop
         style="stop-color:#000000;stop-opacity:1;"
         offset="0"
         id="stop1" /></linearGradient></defs><path
     style="fill:#000000;stroke-width:0.525802"
     d="m 63.579966,272.95097 -0.657495,-0.0764 -0.422676,-0.38459 -0.422676,-0.38458 v -1.24668 -1.24669 l -0.422676,-0.0973 -0.422676,-0.0973 -11.834922,-2.63532 -11.834923,-2.63531 -4.508541,-0.95426 -4.508542,-0.95425 -0.968824,-0.35288 -0.968823,-0.35287 -0.128678,-0.31372 -0.128679,-0.31372 -0.102363,-2.20834 -0.102363,-2.20833 0.136421,-1.24201 0.13642,-1.24202 0.634735,-0.25858 0.634735,-0.25857 h 2.718434 2.718434 l 0.129369,-0.84112 0.129369,-0.84111 0.398745,-0.44161 0.398745,-0.4416 1.011884,-0.18254 1.011884,-0.18253 h 0.819711 0.819711 v -0.7207 -0.7207 l 0.186661,-0.47868 0.186662,-0.47867 0.665823,-0.27124 0.665824,-0.27124 1.777498,-0.11384 1.777498,-0.11384 v -1.3053 -1.30529 l 0.282017,-0.39257 0.282017,-0.39256 0.551038,-0.118 0.551037,-0.118 0.669793,0.1803 0.669793,0.18032 v -17.93459 -17.9346 H 44.691908 43.27445 l -0.461101,-0.44957 -0.4611,-0.44956 v -1.72701 -1.72702 l -1.901273,-0.0744 -1.901272,-0.0744 -0.342703,-0.41263 -0.342702,-0.41264 -0.125535,-0.81618 -0.125536,-0.8162 0.07212,-1.89964 0.07212,-1.89963 0.253974,-0.29837 0.253974,-0.29836 h 0.860405 0.860406 l 3.953882,-2.14079 3.953882,-2.14079 0.70446,-0.4257 0.704459,-0.4257 v -0.89009 -0.89007 l -0.709355,-0.11059 -0.709355,-0.1106 -0.370817,-0.26436 -0.370816,-0.26436 v -2.38665 -2.38664 l 0.22821,-0.2225 0.228208,-0.22251 1.039819,-0.0841 1.039818,-0.0841 v -0.9066 -0.9066 l 0.47322,-1.37443 0.47322,-1.37444 0.66282,-1.01023 0.66282,-1.01024 0.847815,-0.8837 0.847816,-0.88372 -0.212162,-0.7682 -0.212162,-0.7682 0.128149,-0.75779 0.128147,-0.75779 0.47043,-1.46524 0.470429,-1.46527 0.522666,-1.00735 0.522667,-1.00736 0.486611,-0.44233 0.486611,-0.44233 0.462109,0.20528 0.462109,0.20529 0.750899,1.51913 0.7509,1.51915 0.479552,1.62311 0.479554,1.62311 v 0.76871 0.76871 l -0.259525,0.34605 -0.259524,0.34603 1.202715,1.38317 1.202714,1.38316 0.642552,1.23942 0.642552,1.23942 0.114914,0.86688 0.114912,0.86688 0.100488,0.68684 0.100488,0.68684 h 0.714101 0.7141 l 0.443487,0.3508 0.443487,0.35079 v 2.12188 2.12188 l 0.09884,-0.0459 0.09884,-0.0458 3.846137,-1.95001 3.846137,-1.95 2.629982,-1.19178 2.629984,-1.19177 2.066417,-0.90394 2.066413,-0.90392 0.05395,-1.56312 0.05395,-1.56311 -1.071385,-0.0866 -1.071377,-0.0866 -0.344509,-0.4148 -0.3445,-0.4148 v -0.8747 -0.8747 l -0.823714,-0.12043 -0.823719,-0.12043 -0.350383,-0.3769 -0.350383,-0.37688 -0.06281,-2.40759 -0.06281,-2.40759 0.204519,-0.66555 0.204519,-0.66555 0.51579,-0.19359 0.515788,-0.1936 0.657494,-0.12405 0.657502,-0.12405 4.602465,-2.10249 4.602473,-2.10249 1.408919,-0.56293 1.408919,-0.56294 0.23482,-0.27907 0.23482,-0.27907 v -1.23122 -1.23121 l -1.361953,-0.6614 -1.361962,-0.66138 -1.594127,-1.04869 -1.594135,-1.04868 -0.17396,-0.6063 -0.173953,-0.6063 0.394973,-0.38509 0.394966,-0.3851 1.027452,-0.0831 1.027452,-0.0831 0.0639,-1.82098 0.0639,-1.82098 0.46964,-0.35002 0.469639,-0.35001 1.408919,-0.29201 1.408915,-0.29202 0.3334,-0.12579 0.33341,-0.12577 2.41126,-5.86089 2.41125,-5.8609 2.679103,-6.13575 2.6791,-6.13575 1.4235,-3.11366 1.4235,-3.11367 -0.0359,-2.45888 -0.0359,-2.4589 0.19415,-0.70297 0.19415,-0.70296 0.57672,-0.64042 0.57671,-0.64042 0.52624,-0.30308 0.52624,-0.30308 0.0633,-2.7946 0.0633,-2.79459 0.89693,-1.67478 0.89691,-1.67477 0.37198,-1.555422 0.37199,-1.55543 0.29003,-0.54683 0.29003,-0.54682 0.60142,-0.35754 0.6014,-0.35752 0.44125,-6.8e-4 0.44126,-6.7e-4 0.64829,0.29993 0.64829,0.29994 0.36805,0.70341 0.36806,0.70341 0.28181,1.3319 0.2818,1.331902 0.83739,1.64842 0.8374,1.6484 0.18949,0.8242 0.18948,0.82422 0.0106,2.19787 0.0106,2.19788 0.84685,0.50116 0.84685,0.50115 0.46037,0.96409 0.46037,0.96411 0.002,2.57736 0.002,2.57735 0.30947,0.90263 0.30947,0.90262 2.48642,5.67786 2.48642,5.67786 1.88622,4.48733 1.88622,4.48734 1.65835,4.02945 1.65835,4.02945 1.95909,0.31199 1.95909,0.31199 0.51748,0.20899 0.51748,0.20899 0.20005,0.5595 0.20005,0.5595 v 1.22474 1.22474 l 1.12823,0.30583 1.12823,0.30583 0.37462,0.36524 0.37462,0.36526 v 0.51446 0.51446 l -0.23801,0.31734 -0.23799,0.31734 -1.21788,0.42496 -1.21789,0.42496 -0.18229,0.3845 -0.18228,0.3845 -0.85092,0.44743 -0.85093,0.44743 -0.79839,0.22976 -0.79838,0.22976 v 1.41806 1.41807 l 2.30123,1.11039 2.30124,1.1104 2.72391,1.37917 2.72391,1.37917 1.00609,0.37223 1.00609,0.37222 0.6254,-0.11439 0.62541,-0.11438 0.64206,0.20659 0.64207,0.2066 0.21553,0.46122 0.21553,0.4612 v 2.6592 2.6592 l -0.20298,0.36977 -0.20297,0.36978 -0.63634,0.25923 -0.63635,0.25923 h -1.13316 -1.13317 v 0.65014 0.65015 l -0.27973,0.5274 -0.27972,0.52739 -0.3308,0.0948 -0.33082,0.0948 -0.70446,0.12174 -0.70446,0.12172 v 1.44065 1.44065 l 0.42268,0.26604 0.42268,0.26604 1.50284,0.63072 1.50285,0.63072 2.3482,0.97138 2.3482,0.97139 4.6964,2.08916 4.69639,2.08917 0.18786,0.0786 0.18786,0.0786 -0.0534,-1.69639 -0.0534,-1.69638 0.24612,-0.45789 0.24612,-0.4579 0.6526,-0.20677 0.65261,-0.20679 0.11773,-0.89215 0.11774,-0.89216 0.22841,-0.82421 0.2284,-0.82421 0.68089,-1.28209 0.68089,-1.2821 1.14281,-1.12516 1.1428,-1.12516 -0.13718,-0.3401 -0.13719,-0.34009 -0.0132,-0.85797 -0.0132,-0.85797 0.77403,-2.16412 0.77404,-2.16411 0.44519,-0.92966 0.44518,-0.92967 0.46297,-0.24157 0.46296,-0.24157 0.45121,0.28824 0.45119,0.28825 0.37974,0.79141 0.37972,0.79141 0.68043,2.05713 0.68044,2.05712 v 0.90725 0.90725 l -0.19682,0.50472 -0.19682,0.50472 0.88459,0.73719 0.88457,0.7372 0.72317,1.09089 0.72317,1.0909 0.44652,1.38804 0.44652,1.38804 0.13266,0.96157 0.13267,0.96157 h 0.81888 0.81889 l 0.4779,0.2123 0.4779,0.2123 0.18739,0.65769 0.18738,0.6577 v 1.09893 1.09895 l -0.18786,0.65938 -0.18786,0.65938 -0.34836,0.30737 -0.34835,0.30737 -1.05951,0.0272 -1.05951,0.0272 v 0.97348 0.97347 l 2.11338,1.02897 2.11338,1.02897 2.53606,1.33514 2.53604,1.33514 1.07142,0.29582 1.07141,0.29583 0.29054,0.40444 0.29055,0.40443 -0.002,2.29449 -0.002,2.2945 -0.23695,0.45789 -0.23695,0.4579 -0.6526,0.2186 -0.6526,0.21861 -1.42965,0.0103 -1.42967,0.0103 0.0207,1.82473 0.0208,1.82474 -0.42433,0.41546 -0.42432,0.41545 -1.40728,0.0693 -1.40727,0.0693 -0.0142,0.11735 -0.0142,0.11735 -7.9e-4,12.54624 -7.9e-4,12.54623 0.0156,5.06061 0.0156,5.06062 1.0034,-0.0238 1.00341,-0.0239 0.47869,0.24907 0.47869,0.24908 0.2086,0.44638 0.20861,0.44639 v 1.06792 1.06791 l 1.64374,0.0806 1.64374,0.0806 0.60178,0.30842 0.60179,0.30842 0.19556,0.68655 0.19555,0.68654 7.9e-4,0.50369 7.9e-4,0.50367 1.26803,0.004 1.26803,0.004 0.75142,0.16975 0.75143,0.16975 0.32875,0.39565 0.32875,0.39564 v 0.77977 0.77976 l 2.98898,0.084 2.98898,0.084 0.47431,0.303 0.47431,0.303 0.12692,0.82524 0.12693,0.82524 -0.0754,2.61242 -0.0753,2.61242 -0.23063,0.40594 -0.23061,0.40594 -0.9105,0.26363 -0.91049,0.26362 -2.3268,0.49295 -2.32679,0.49294 -8.07781,1.80478 -8.0778,1.80477 -5.82353,1.28403 -5.82353,1.28403 -0.5856,0.19969 -0.58559,0.19966 -0.099,1.20241 -0.099,1.2024 -0.4008,0.39078 -0.4008,0.39078 -51.04464,0.0169 -51.044623,0.017 z m 100.878624,-4.81119 v -2.19787 l -15.639,-6e-5 -15.63901,-5e-5 -34.236733,-0.12189 -34.236745,-0.12188 v 2.31982 2.31982 h 49.875738 49.87575 z m 6.10531,-1.82147 2.62998,-0.53956 7.60817,-1.73764 7.60816,-1.73763 5.54176,-1.20293 5.54175,-1.20292 0.56356,-0.15003 0.56356,-0.15002 0.0543,-1.58991 0.0543,-1.58991 -1.08749,5.1e-4 -1.08747,5.2e-4 -1.6558,0.19799 -1.6558,0.198 -2.66489,0.61774 -2.66489,0.61774 -9.58064,2.10508 -9.58066,2.10509 -2.62998,0.54255 -2.62999,0.54255 0.31827,0.0161 0.31828,0.0161 0.52708,0.44233 0.52708,0.44233 -0.0192,1.38593 -0.0192,1.38594 0.3949,-0.0882 0.3949,-0.0882 z M 62.077119,265.40573 v -1.45196 l 0.45186,-0.34654 0.45186,-0.34654 -1.156319,-0.22786 -1.15632,-0.22786 -8.923156,-1.90365 -8.923156,-1.90367 -5.321821,-1.10918 -5.32182,-1.10919 -1.581884,-0.24697 -1.581884,-0.24697 v 1.67052 1.67053 l 2.583019,0.5106 2.583018,0.51059 3.287479,0.73543 3.287478,0.73544 5.447822,1.26186 5.447821,1.26186 4.508542,1.00001 4.508542,1 0.375711,0.0865 0.375712,0.0865 0.328748,0.0212 0.328748,0.0212 z m 98.436491,-3.11069 v -0.89952 l -1.1741,-0.062 -1.1741,-0.062 -44.85059,0.0532 -44.850601,0.0532 v 0.90836 0.90836 h 46.024701 46.02469 z m -94.679373,-2.0864 v -0.97119 l -0.892315,-0.19232 -0.892316,-0.19231 -5.541749,-1.14014 -5.54175,-1.14014 -4.6936,-1.00027 -4.693601,-1.00026 -1.411717,-0.35087 -1.411716,-0.35084 -1.690703,-0.28719 -1.690703,-0.28717 -0.798388,0.11645 -0.798388,0.11645 v 0.60791 0.60791 l 0.328748,0.0992 0.328748,0.0992 8.783293,1.92402 8.783293,1.924 4.366621,0.91374 4.366621,0.91374 1.502847,0.26422 1.502847,0.26422 0.04696,0.0165 0.04696,0.0165 z m 103.270513,-0.29593 4.55222,-0.92513 9.6309,-2.11655 9.63089,-2.11655 0.32875,-0.0965 0.32875,-0.0965 v -0.6287 -0.62871 h -1.1939 -1.19388 l -2.98591,0.64658 -2.9859,0.64658 -7.7021,1.62454 -7.70209,1.62453 -3.47534,0.68545 -3.47533,0.68544 -0.13934,0.11896 -0.13934,0.11897 0.21478,0.6334 0.2148,0.6334 0.053,0.21221 0.053,0.21221 0.71694,-0.15426 0.71694,-0.15426 z m -11.40898,-1.84654 v -0.73263 H 114.7908 71.885824 l -0.114027,0.28971 -0.114026,0.28972 v 0.44291 0.44291 h 43.018999 43.019 z m -88.438213,-1.60263 0.07975,-0.86999 -0.02028,-0.0368 -0.02028,-0.0368 -9.386376,-1.93875 -9.386377,-1.93874 -2.723909,-0.618 -2.723911,-0.61799 -1.378518,-0.20378 -1.378517,-0.20378 -0.907935,0.11743 -0.907934,0.11742 -0.117854,0.45782 -0.117853,0.45782 0.0561,0.0543 0.05611,0.0543 3.944974,0.83093 3.944974,0.83092 7.326381,1.55447 7.32638,1.55448 3.005695,0.63714 3.005694,0.63714 0.121976,0.0152 0.121977,0.0152 z m 94.919253,-0.0564 3.00569,-0.57203 6.66888,-1.44024 6.66888,-1.44023 3.99643,-0.83265 3.99644,-0.83266 h 0.10191 0.10191 l -0.0595,-0.49644 -0.0594,-0.49643 -0.46965,-0.12636 -0.46963,-0.12636 -0.81765,-0.0183 -0.81764,-0.0183 -9.4205,1.90644 -9.42051,1.90644 -1.69071,0.30028 -1.6907,0.30028 -2.0321,0.46797 -2.0321,0.46798 0.12695,0.3016 0.12695,0.3016 0.17666,0.59649 0.17667,0.59651 0.4135,-0.0868 0.41349,-0.0868 z m -8.73531,-2.18772 v -0.54988 l -40.51639,0.0462 -40.516401,0.0462 -0.138159,0.50368 -0.13816,0.50369 h 40.65455 40.65456 z m -83.574624,-1.6059 0.463699,-0.69052 -2.825493,-0.52056 -2.825493,-0.52058 -5.729606,-1.08845 -5.729605,-1.08846 -4.457176,-0.92694 -4.457176,-0.92693 -0.286185,0.10708 -0.286186,0.10707 v 0.44838 0.44838 l 1.643739,0.37221 1.643739,0.3722 4.13283,0.83593 4.13283,0.83592 5.729606,1.19794 5.729605,1.19795 1.033207,0.24937 1.033207,0.24939 0.295379,0.0156 0.295379,0.0156 z m 87.864014,0.15091 1.44022,-0.35646 4.97819,-1.00455 4.97817,-1.00454 5.72961,-1.11948 5.7296,-1.11948 0.70446,-0.18234 0.70446,-0.18234 v -0.54242 -0.5424 h -0.3412 -0.34122 l -1.11467,0.19279 -1.11468,0.19279 -6.76281,1.28119 -6.76281,1.28121 -4.6964,0.91238 -4.6964,0.91238 -0.34766,0.10444 -0.34765,0.10443 0.20677,0.20159 0.20677,0.2016 v 0.51284 0.51284 h 0.20351 0.20352 z M 84.807687,230.86737 v -20.23883 l -4.179799,-10e-6 -4.179791,-3e-5 v 20.23868 20.23869 l 4.179791,1.6e-4 4.179799,1.5e-4 z m 5.82353,0 v -20.23883 h -1.596773 -1.596781 v 20.23883 20.23881 h 1.596781 1.596773 z m 12.774203,4.72811 v -15.51069 l 3.5223,-3.3055 3.5223,-3.3055 1.50285,-1.41985 1.50284,-1.41987 -10.12818,-0.002 -10.128173,-0.002 0.12473,14.69832 0.12471,14.69833 1.3e-4,5.54049 1.3e-4,5.5405 h 4.97818 4.978183 z m 19.91273,0.69482 v -14.81589 l -4.34485,-4.14824 -4.34484,-4.14825 -0.14782,0.0532 -0.14781,0.0532 -4.16157,4.00278 -4.16155,4.00276 -0.10841,12.38976 -0.10842,12.38976 0.14051,2.5184 0.14051,2.5184 h 8.62211 8.62214 z m 12.76565,-5.01084 -0.01,-19.82671 -0.10515,-0.4121 -0.10515,-0.41211 -10.07688,0.002 -10.07689,0.002 3.19355,3.06894 3.19355,3.06894 1.92553,1.76047 1.92551,1.76045 v 15.40799 15.40798 h 5.07272 5.07271 z m 5.83208,-0.32051 V 210.8117 h -1.59677 -1.59678 v 20.14725 20.14723 h 1.59678 1.59677 z m 10.70779,0.0255 v -20.12172 l -0.98625,-0.1155 -0.98624,-0.1155 -2.95873,-0.002 -2.95873,-0.002 v 20.23882 20.23881 h 3.94497 3.94498 z m -78.713696,-0.16287 -0.0021,-18.63621 -0.116439,-0.68683 -0.116441,-0.68684 h -1.102546 -1.102556 v 19.03303 19.03304 l 0.798387,0.27555 0.798388,0.27553 0.422675,0.0145 0.422677,0.0145 z m 83.316166,18.20522 0.93927,-0.21265 0.0478,-19.00123 0.0478,-19.00122 h -1.50372 -1.50372 v 19.23146 19.23145 l 0.51661,-0.0176 0.51659,-0.0176 z M 68.839932,229.72247 v -18.81955 l -0.798387,-0.37336 -0.798389,-0.37337 -0.319563,-0.6338 -0.319565,-0.6338 -0.09721,-0.32053 -0.09722,-0.32052 h -6.598701 -6.598701 l 0.06481,18.57518 0.06481,18.57519 0.139038,0.13552 0.139037,0.13552 4.774817,0.97589 4.774818,0.97589 2.412526,0.44569 2.412526,0.4457 0.422676,0.0149 0.422676,0.0149 z m 98.812208,17.3569 5.91746,-1.11772 1.12713,-0.22282 1.12714,-0.22281 0.0479,-18.54267 0.0479,-18.54265 h -6.48193 -6.48192 v 0.69187 0.69187 l -0.29203,0.4065 -0.29203,0.4065 -0.74117,0.11555 -0.74118,0.11555 v 18.77002 18.77001 l 0.42267,-0.10074 0.42268,-0.10075 z M 50.805765,226.65478 v -18.40724 h -1.033208 -1.033208 v 18.2206 18.22061 l 0.516604,0.11109 0.516604,0.11109 0.187856,0.0611 0.187855,0.0611 0.328748,0.0145 0.328749,0.0145 z m 129.479675,17.92103 0.32875,-0.0879 v -18.0286 -18.02859 h -1.12713 -1.12713 v 14.07346 14.07347 l 0.12397,4.15343 0.12398,4.15344 0.67441,-0.11039 0.67441,-0.11037 z m -19.95968,-38.52615 v -2.19789 H 114.58284 68.839932 l 0.0028,1.87736 0.0028,1.87736 0.148765,0.22842 0.148766,0.22841 31.830827,0.0468 31.83083,0.0468 13.76044,0.0452 13.76045,0.0453 z m 24.04555,-1.19052 v -1.00737 H 173.75745 163.1436 v 0.90418 0.90419 l 0.61052,0.0739 0.61054,0.0739 10.00332,0.0293 10.00333,0.0293 z m -118.161361,-0.0692 v -0.89339 l -10.707787,-0.0312 -10.707787,-0.0311 v 0.92451 0.92451 h 10.707787 10.707787 z m 99.154731,-3.57397 0.22104,-0.13319 v -0.63024 -0.63024 l -34.18977,-0.0452 -34.189773,-0.0453 -16.578289,-5.1e-4 -16.578282,-5.2e-4 -0.05633,0.84788 -0.05633,0.84788 50.603344,-0.0387 50.60335,-0.0386 z m -104.038985,-0.7251 v -0.7967 l -2.395162,-0.21198 -2.395164,-0.21199 -8.124767,0.002 -8.124769,0.002 v 1.00736 1.00736 h 10.519932 10.51993 z M 188.87985,200.2802 v -1.00736 h -8.46012 -8.46013 l -0.47421,0.30294 -0.4742,0.30294 -1.39775,0.0875 -1.39774,0.0875 v 0.61696 0.61696 h 10.33208 10.33207 z m -95.806503,-5.21997 v -2.19787 H 76.635953 60.19856 v 2.07577 2.07578 l 0.125238,0.1221 0.125236,0.1221 H 76.76119 93.073347 Z m 40.013303,0 v -2.19787 H 114.395 95.703327 v 2.19787 2.19788 H 114.395 133.08665 Z m 36.44405,0 v -2.19787 h -16.90703 -16.90704 v 2.19787 2.19788 h 16.90704 16.90703 z m -111.888074,1.24164 0.113807,-0.5548 v -0.51951 -0.51949 l -3.991938,-0.0529 -3.991938,-0.0529 -2.17578,1.09894 -2.175779,1.09894 6.05391,0.0282 6.05391,0.0282 z m 124.713664,-0.23224 -1.16969,-0.63482 -1.12029,-0.45972 -1.12029,-0.45972 -1.29761,-0.11759 -1.29761,-0.11759 -2.18898,0.13335 -2.18899,0.13336 v 1.08087 1.08087 l 5.77656,-0.002 5.77657,-0.002 z m -124.897005,-4.05108 0.297148,-0.11117 v -0.3381 -0.3381 l 0.209261,-0.44779 0.209261,-0.44779 0.560512,-0.1093 0.560513,-0.1093 0.45129,0.11044 0.45129,0.11043 0.506806,-0.12402 0.506806,-0.12402 -0.271986,-0.16776 -0.271986,-0.16778 -4.461579,-0.002 -4.461577,-0.002 v 1.19052 1.19051 h 2.708546 2.708546 z m 119.397795,-1.17092 v -1.09894 h -3.75712 -3.75712 v 0.17193 0.17194 l 0.89232,0.12621 0.89231,0.12621 0.31663,0.15987 0.31664,0.15987 0.23771,0.64092 0.2377,0.64092 h 2.31046 2.31047 z m -84.326554,-0.65987 0.824601,-0.1104 2.12293,-2.86591 2.12293,-2.86589 0.47074,-0.77841 0.47074,-0.77842 -6.726503,8e-4 -6.726499,7.9e-4 -0.751418,0.19737 -0.751425,0.19737 -7.514238,3.48967 -7.514236,3.48967 -0.07828,0.0666 -0.07828,0.0666 h 11.652153 11.652162 z m 39.992564,0.007 v -0.1032 l -1.7551,-2.44138 -1.75511,-2.44139 -0.72606,-1.21012 -0.72605,-1.21013 h -12.4299 -12.42991 l -0.55941,0.10909 -0.55941,0.10909 -2.157203,3.14194 -2.15719,3.14195 -0.33418,0.50368 -0.33417,0.50369 h 17.961843 17.96185 z m 28.55409,0.0329 v -0.0703 l -1.08017,-0.41574 -1.08017,-0.41574 -7.42031,-3.22288 -7.42031,-3.22287 -6.73369,-0.0565 -6.73369,-0.0565 0.14881,0.2396 0.14881,0.23961 0.50438,0.78021 0.50437,0.7802 2.0368,2.74556 2.03681,2.74556 h 12.54418 12.54418 z m -98.060781,-3.31807 v -0.27474 h -6.648787 -6.648786 l -0.108131,0.27474 -0.10813,0.27474 h 6.756917 6.756917 z m 117.034231,0 v -0.27474 h -6.76282 -6.76281 v 0.15264 0.15262 l 0.12524,0.12211 0.12523,0.12211 h 6.63759 6.63757 z M 60.762128,183.55986 v -0.51099 l -0.280219,-1.04892 -0.280219,-1.04892 -0.470855,-0.90594 -0.470856,-0.90595 -0.610881,-0.67924 -0.610881,-0.67924 -0.732645,-0.51804 -0.732645,-0.51804 h -0.242891 -0.242891 l -1.107464,0.99966 -1.107464,0.99968 -0.58925,1.07789 -0.58925,1.07789 -0.283704,1.17347 -0.283704,1.17348 -0.0028,0.4121 -0.0028,0.4121 h 4.320687 4.320685 z m 116.170742,-0.8003 -0.25626,-1.3113 -0.54626,-1.13813 -0.54626,-1.13813 -0.69044,-0.74512 -0.69044,-0.74511 -0.8204,-0.38721 -0.82039,-0.38721 -0.74273,0.36943 -0.74273,0.36943 -0.60363,0.58853 -0.60361,0.58852 -0.45146,0.69725 -0.45145,0.69726 -0.46948,1.36357 -0.46948,1.36358 v 0.56296 0.56297 h 4.58065 4.58065 z m -75.96958,-3.90868 v -1.37367 h -7.608163 -7.608161 v 1.37367 1.37368 h 7.608161 7.608163 z m 24.60913,-0.0916 v -1.46525 h -10.98958 -10.98956 v 1.46525 1.46526 h 10.98956 10.98958 z m 17.09489,0.0916 v -1.37367 h -7.13854 -7.13852 v 1.37367 1.37368 h 7.13852 7.13854 z m -47.544813,-3.95661 5.934723,-0.0188 -0.59589,-0.13836 -0.595883,-0.13836 -8.515126,0.10308 -8.515124,0.10307 0.657494,0.13467 0.657494,0.13467 2.518794,-0.0806 2.518794,-0.0806 z m 44.145293,-0.002 5.93557,-0.0211 -0.6575,-0.12273 -0.6575,-0.12273 -7.79602,0.0905 -7.79601,0.0905 0.84535,0.12942 0.84535,0.1294 1.6726,-0.0761 1.6726,-0.0761 z m -26.59874,-0.11587 -2.85308,-0.0557 -2.97045,0.0555 -2.97046,0.0555 5.82353,1.5e-4 5.82353,1.3e-4 z m 10.97784,0.002 -0.89231,-0.0686 -0.89232,0.0686 -0.89231,0.0686 h 1.78463 1.78463 z m -66.519075,-0.60785 0.197947,-0.19299 -0.172419,-0.92491 -0.17242,-0.9249 -0.193697,-0.48473 -0.193697,-0.48472 -0.347331,0.82421 -0.347332,0.8242 -0.0105,0.65631 -0.0105,0.65631 0.125238,0.12211 0.125237,0.12211 h 0.40076 0.400759 z m 115.966755,-0.0754 0.22846,-0.2684 -0.12512,-0.72207 -0.12512,-0.72207 -0.23751,-0.31669 -0.23752,-0.3167 -0.31246,0.7614 -0.31247,0.76141 v 0.42366 0.42365 l 0.12523,0.1221 0.12524,0.12211 h 0.3214 0.3214 z m -73.07056,-3.18402 v -1.25454 l -6.278323,-0.13147 -6.278341,-0.13147 -3.396242,0.1307 -3.396251,0.13071 v 1.15319 1.1532 l 0.798391,0.0701 0.798383,0.0701 8.876195,0.032 8.876188,0.032 z m 26.52202,0.74318 0.077,-0.51136 -0.0753,-0.77074 -0.0754,-0.77073 H 114.5632 102.65409 v 1.28209 1.2821 h 11.90753 11.90752 z m 22.69623,-0.77074 v -1.28209 h -10.05029 -10.05029 v 1.28209 1.2821 h 10.05029 10.05029 z m -47.77566,-4.80786 0.59109,-0.96158 0.91457,-1.19051 0.91456,-1.19052 -3.29336,0.11436 -3.293353,0.11436 -1.22107,0.28675 -1.22106,0.28673 -1.31499,0.54457 -1.314997,0.54456 -2.499552,1.09453 -2.499561,1.09452 -0.114768,0.1119 -0.114775,0.1119 h 6.938093 6.938083 z m 23.33285,0.27473 -0.42789,-0.68684 -0.99212,-1.51104 -0.99213,-1.51104 h -7.70039 -7.70039 l -0.71927,0.96157 -0.71927,0.96158 -0.79241,1.2363 -0.79241,1.23631 h 10.63209 10.63209 z m 16.55286,0.10492 -1.0332,-0.57849 -2.84179,-1.35469 -2.84179,-1.35471 -2.51211,-0.17943 -2.5121,-0.17944 -2.02614,0.0538 -2.02614,0.0538 1.43146,2.06051 1.43146,2.06052 6.98178,-0.002 6.98178,-0.002 z m -40.85866,-6.20373 3.94498,-0.38114 0.79838,-0.091 0.7984,-0.091 v -1.82035 -1.82035 l -0.1409,0.002 -0.14089,0.002 -2.98238,0.45724 -2.982383,0.45724 -1.89732,0.37699 -1.89734,0.37697 -0.23936,0.19369 -0.23937,0.19369 v 1.13756 1.13756 l 0.12524,0.12211 0.12524,0.12211 0.39137,0.003 0.39136,0.003 z m 33.72013,-0.96135 v -1.33652 l -5.49477,-0.95956 -5.49479,-0.95957 -0.14089,0.006 -0.1409,0.006 v 1.72701 1.727 l 0.98625,0.19132 0.98624,0.19132 1.59678,0.19604 1.59677,0.19602 2.44213,0.14852 2.44213,0.14853 0.61053,0.0265 0.61052,0.0266 z m -13.90132,-1.47752 v -1.89826 l -0.87157,-0.11646 -0.87158,-0.11648 h -4.17705 -4.17706 l -0.58706,0.11447 -0.58704,0.11447 v 1.90026 1.90024 h 5.63567 5.63569 z m 16.42499,-2.29482 0.10372,-0.16362 -0.42137,-0.10123 -0.42138,-0.10123 -2.72391,-0.38013 -2.72391,-0.38012 -3.75712,-0.68291 -3.75712,-0.68291 -8.26566,0.008 -8.26565,0.008 -3.38141,0.59062 -3.381413,0.59062 -3.00569,0.58545 -3.0057,0.58545 0.341,0.0679 0.34099,0.0679 1.34971,-0.28696 1.3497,-0.28696 4.320693,-0.7774 4.32069,-0.7774 7.98387,-0.0622 7.98388,-0.0622 1.50285,0.20503 1.50285,0.20502 4.03889,0.71469 4.03891,0.71467 1.6907,0.26352 1.6907,0.26352 0.22373,0.0192 0.22374,0.0192 z m -37.840573,-3.77316 5.541753,-1.00644 0.42268,-0.0961 0.42267,-0.0961 v -0.9123 -0.91229 h -0.24238 -0.24238 l -5.815973,1.10684 -5.81598,1.10683 -0.32874,0.096 -0.328751,0.096 v 0.78133 0.78134 l 0.104807,0.10218 0.104808,0.10219 0.317866,-0.0716 0.31787,-0.0716 z m 38.886173,0.18556 v -0.82072 l -0.42268,-0.0958 -0.42267,-0.0958 -2.21553,-0.45953 -2.21552,-0.45955 -3.51408,-0.55096 -3.51408,-0.55096 -0.71491,-0.10551 -0.71491,-0.1055 0.0574,0.9744 0.0574,0.9744 0.84536,0.16278 0.84535,0.16278 5.44782,0.87709 5.44782,0.87708 0.5166,0.0183 0.5166,0.0183 z m -16.3811,-2.49881 0.0563,-0.84692 -0.33807,-0.14164 -0.33807,-0.14164 -5.3539,-0.0639 -5.35389,-0.0639 -1.08017,0.10886 -1.08017,0.10887 v 0.99169 0.99169 l 6.71585,-0.0481 6.71584,-0.0481 z m -20.37017,-2.62369 3.40685,-0.63167 1.27862,-0.26391 1.27861,-0.26392 0.0669,-0.066 0.0668,-0.066 1.5275,-11.53887 1.5275,-11.53888 0.18302,-1.19051 0.18301,-1.19053 0.10824,-0.51576 0.10824,-0.51576 -0.70594,0.0579 -0.70594,0.0579 -1.86391,4.30419 -1.86392,4.30418 -4.18616,9.84467 -4.186153,9.84468 h 0.18493 0.18494 z m 29.86262,-2.0699 -1.02513,-2.70155 -1.85293,-4.30419 -1.85293,-4.30418 -2.14215,-4.94523 -2.14215,-4.94523 -0.91016,-2.24367 -0.91017,-2.24367 h -0.81245 -0.81244 l 0.003,0.32052 0.003,0.32053 0.27775,1.73998 0.27775,1.74 1.42037,10.25677 1.42037,10.25677 0.1113,0.88643 0.11131,0.88644 0.39452,0.16259 0.3945,0.16258 3.47534,0.63907 3.47533,0.63906 1.03322,0.16751 1.03321,0.16752 0.027,0.0218 0.027,0.0218 z m -11.58931,0.27474 -0.10989,-0.59526 -0.76392,-6.04417 -0.76391,-6.04417 -0.73453,-4.57892 -0.73453,-4.57891 -0.23486,-2.06052 -0.23486,-2.06051 h -1.1834 -1.1834 v 0.16184 0.16184 l -0.38094,2.81446 -0.38092,2.81445 -1.0201,7.32627 -1.02009,7.32627 -0.29715,2.65577 -0.29715,2.65577 -0.0783,0.22321 -0.0783,0.2232 2.19915,0.058 2.19915,0.058 2.60392,0.0394 2.60393,0.0394 z m 0.41497,-30.44501 -0.0651,-1.73519 -0.39525,-0.38507 -0.39525,-0.38507 -3.92544,-0.10439 -3.92543,-0.1044 -0.61053,0.50095 -0.61054,0.50095 v 1.72371 1.72371 h 4.99633 4.9963 z m -2.63316,-7.46843 -0.0773,-2.24367 -0.89348,-1.8617 -0.89349,-1.8617 -0.2381,-1.251962 -0.23811,-1.25197 -0.23401,1.15418 -0.23401,1.154192 -0.83682,1.80403 -0.83681,1.80402 -0.1753,1.34597 -0.17529,1.34598 0.11095,1.05315 0.11095,1.05315 h 2.34412 2.34412 z"
     id="path5" /></svg>
